<svg xmlns="http://www.w3.org/2000/svg" width="70.6mm" height="70.6mm" viewBox="0 0 200 200">
  <g id="Warstwa_2" data-name="Warstwa 2">
    <g id="Warstwa_1-2" data-name="Warstwa 1">
      <g>
        <g>
          <circle cx="100" cy="100" r="88" fill="#f5f4f5"/>
          <path d="M100,12a88,88,0,1,1-88,88,88,88,0,0,1,88-88m0-12A100,100,0,1,0,200,100,100.2,100.2,0,0,0,100,0Z" fill="#2a2a2b"/>
        </g>
        <g>
          <g>
            <path d="M161.6,131.3V108.4c0-14.3-12.1-26-26.8-26h0c-14.7,0-26.8,11.7-26.8,26v22.9Z" fill="#e97956"/>
            <path d="M134.8,82.4c14.7,0,26.8,11.7,26.8,26v22.9H108V108.4c0-14.3,12.1-26,26.8-26h0m0-8.4c-19.4,0-35.2,15.4-35.2,34.4v31.3H170V108.4c0-19-15.8-34.4-35.2-34.4Z" fill="#2a2a2b"/>
          </g>
          <g>
            <ellipse cx="134.8" cy="57.8" rx="18.8" ry="18.2" fill="#f4c99f"/>
            <path d="M134.8,39.5a18.5,18.5,0,0,1,18.8,18.3c0,10.1-8.4,18.2-18.8,18.2S116,67.9,116,57.8a18.5,18.5,0,0,1,18.8-18.3m0-8.4c-15,0-27.2,12-27.2,26.7s12.2,26.6,27.2,26.6S162,72.5,162,57.8s-12.2-26.7-27.2-26.7Z" fill="#2a2a2b"/>
          </g>
          <g>
            <path d="M92,131.3V108.4c0-14.3-12.1-26-26.8-26h0c-14.7,0-26.8,11.7-26.8,26v22.9Z" fill="#ecbf56"/>
            <path d="M65.2,82.4c14.7,0,26.8,11.7,26.8,26v22.9H38.4V108.4c0-14.3,12.1-26,26.8-26h0m0-8.4C45.8,74,30,89.4,30,108.4v31.3h70.4V108.4c0-19-15.8-34.4-35.2-34.4Z" fill="#2a2a2b"/>
          </g>
          <g>
            <ellipse cx="65.2" cy="57.8" rx="18.8" ry="18.2" fill="#f4c99f"/>
            <path d="M65.2,39.5A18.5,18.5,0,0,1,84,57.8C84,67.9,75.6,76,65.2,76S46.4,67.9,46.4,57.8A18.5,18.5,0,0,1,65.2,39.5m0-8.4c-15,0-27.2,12-27.2,26.7S50.2,84.4,65.2,84.4,92.4,72.5,92.4,57.8,80.2,31.1,65.2,31.1Z" fill="#2a2a2b"/>
          </g>
          <g>
            <path d="M129.6,160.5V137.6c0-14.3-12.1-26-26.8-26h0c-14.8,0-26.8,11.7-26.8,26v22.9Z" fill="#55bdbc"/>
            <path d="M102.8,111.6c14.7,0,26.8,11.7,26.8,26v22.9H76V137.6c0-14.3,12-26,26.8-26h0m0-8.4c-19.5,0-35.2,15.4-35.2,34.4v31.3H138V137.6c0-19-15.8-34.4-35.2-34.4Z" fill="#2a2a2b"/>
          </g>
          <g>
            <ellipse cx="102.8" cy="87" rx="18.8" ry="18.2" fill="#f4c99f"/>
            <path d="M102.8,68.7A18.5,18.5,0,0,1,121.6,87c0,10-8.4,18.2-18.8,18.2S83.9,97,83.9,87s8.5-18.3,18.9-18.3m0-8.4c-15.1,0-27.3,12-27.3,26.7s12.2,26.6,27.3,26.6S130,101.6,130,87s-12.2-26.7-27.2-26.7Z" fill="#2a2a2b"/>
          </g>
        </g>
      </g>
    </g>
  </g>
</svg>
