<svg xmlns="http://www.w3.org/2000/svg" width="70.6mm" height="70.6mm" viewBox="0 0 200 200">
  <g id="Warstwa_2" data-name="Warstwa 2">
    <g id="Warstwa_1-2" data-name="Warstwa 1">
      <g>
        <g>
          <circle cx="100" cy="100" r="88" fill="#f5f4f5"/>
          <path d="M100,12a88,88,0,1,1-88,88,88,88,0,0,1,88-88m0-12A100,100,0,1,0,200,100,100.2,100.2,0,0,0,100,0Z" fill="#2a2a2b"/>
        </g>
        <g>
          <g>
            <g>
              <path d="M49.5,71.2l.6,52.1c.3,23.9,22.5,43.2,49.9,43.2h0c27.4,0,49.6-19.3,49.9-43.2l.6-52.1Z" fill="#f4c99f"/>
              <path d="M100,170a57.2,57.2,0,0,1-37.7-13.6c-10.2-8.8-15.9-20.5-16-33.1l-.7-55.6H154.4l-.7,55.6c-.1,12.6-5.8,24.3-16,33.1A57.2,57.2,0,0,1,100,170ZM53.3,74.7l.6,48.6C54.2,145.2,74.8,163,100,163s45.8-17.8,46.1-39.7l.6-48.6Z" fill="#2a2a2b"/>
            </g>
            <g>
              <path d="M150.5,120.3V107.7c0-16-14.2-29.1-31.5-29.1,1.3,3.8,9.6,16.3,9.6,16.3-15.9,1.5-49.8-16.1-50.1-16.3l17.4,22.1c-24.9,4.1-40.1-2.2-46.4-7.2v26.8A51.7,51.7,0,0,1,39.4,89.2c.1-30.5,27.1-55.5,60.1-55.7s61.1,24.9,61.1,55.9A52.6,52.6,0,0,1,150.5,120.3Z" fill="#a97259"/>
              <path d="M146.7,131.9V107.7c0-12-9.1-22.2-21.3-24.9,2,3.4,4.6,7.4,6.5,10.2l3.2,4.8-6.1.6c-10.1.9-26.2-4.9-38.1-10l11.7,14.8-6,1c-21.7,3.5-35.7-.4-43.3-4.1v31.8l-7-9.7a55.1,55.1,0,0,1-10.7-33c.1-32.4,28.8-59,63.9-59.2a67.2,67.2,0,0,1,45.9,17.2c12.3,11.3,19,26.2,19,42.2a55.9,55.9,0,0,1-10.7,32.8Zm-33-56.8H119c18.5,0,33.7,13.2,35.2,29.9a48.6,48.6,0,0,0,2.6-15.6A49.8,49.8,0,0,0,140,52.2,58.9,58.9,0,0,0,100,37h-.4c-31,.2-56.3,23.7-56.4,52.2a50.7,50.7,0,0,0,2.4,15.5V85.9l6.3,5c2.2,1.7,13.6,9.5,37.2,7.2L65.9,68.7l14.4,6.8h.2c10.4,5.3,28.8,13.5,41.2,15.4-2.5-3.9-5.5-8.9-6.4-11.3Z" fill="#2a2a2b"/>
            </g>
            <g>
              <rect x="75.3" y="112.2" width="7.6" height="11.36" fill="#2a2a2b"/>
              <rect x="117.1" y="112.2" width="7.6" height="11.36" fill="#2a2a2b"/>
            </g>
          </g>
          <g>
            <path d="M84.8,139.5a2.2,2.2,0,0,0-.1.8c0,6.3,6.9,11.3,15.3,11.3s15.3-5,15.3-11.3a2.2,2.2,0,0,0-.1-.8Z" fill="#e4554c"/>
            <path d="M115.2,139.5a2.2,2.2,0,0,1,.1.8c0,6.3-6.9,11.3-15.3,11.3s-15.3-5-15.3-11.3a2.2,2.2,0,0,1,.1-.8h30.4m6.4-7H78.4l-.6,6.3a7.6,7.6,0,0,0-.1,1.5c0,5.2,2.7,10.2,7.3,13.7a26.8,26.8,0,0,0,30,0c4.6-3.5,7.3-8.5,7.3-13.7a7.6,7.6,0,0,0-.1-1.5l-.6-6.3Z" fill="#2a2a2b"/>
          </g>
        </g>
      </g>
    </g>
  </g>
</svg>
