<svg xmlns="http://www.w3.org/2000/svg" width="70.6mm" height="70.6mm" viewBox="0 0 200 200">
  <g id="Warstwa_2" data-name="Warstwa 2">
    <g id="Warstwa_1-2" data-name="Warstwa 1">
      <g>
        <g>
          <circle cx="100" cy="100" r="88" fill="#f5f4f5"/>
          <path d="M100,12a88,88,0,1,1-88,88,88,88,0,0,1,88-88m0-12A100,100,0,1,0,200,100,100.2,100.2,0,0,0,100,0Z" fill="#2a2a2b"/>
        </g>
        <g>
          <g>
            <ellipse cx="100" cy="100" rx="56.9" ry="57.2" fill="#f5f4f5"/>
            <path d="M100,42.8A57.2,57.2,0,1,1,43.1,100,57.1,57.1,0,0,1,100,42.8m0-9.5A66.7,66.7,0,1,0,166.7,100,66.7,66.7,0,0,0,100,33.3Z" fill="#2a2a2b"/>
          </g>
          <g>
            <path d="M158.1,100.4s-26,34-58.1,34-58.1-34-58.1-34,26-34.1,58.1-34.1S158.1,100.4,158.1,100.4Z" fill="#fff"/>
            <path d="M100,66.3c32.1,0,58.1,34.1,58.1,34.1s-26,34-58.1,34-58.1-34-58.1-34,26-34.1,58.1-34.1m0-9.5c-36.3,0-64.4,36.3-65.6,37.8L30,100.4l4.4,5.7c1.2,1.6,29.3,37.8,65.6,37.8s64.4-36.2,65.6-37.8l4.4-5.7-4.4-5.8c-1.2-1.5-29.3-37.8-65.6-37.8Z" fill="#2a2a2b"/>
          </g>
          <g>
            <ellipse cx="100" cy="100" rx="26.4" ry="27.5" fill="#fff"/>
            <path d="M100,72.5c14.6,0,26.4,12.3,26.4,27.5s-11.8,27.5-26.4,27.5S73.6,115.2,73.6,100,85.4,72.5,100,72.5m0-9.5c-19.8,0-35.9,16.6-35.9,37s16.1,37,35.9,37,35.9-16.6,35.9-37S119.8,63,100,63Z" fill="#2a2a2b"/>
          </g>
          <ellipse cx="100" cy="100" rx="15" ry="15.7" fill="#55bdbc"/>
        </g>
      </g>
    </g>
  </g>
</svg>
