<svg xmlns="http://www.w3.org/2000/svg" width="70.6mm" height="70.6mm" viewBox="0 0 200 200">
  <g style="isolation: isolate">
    <g id="Warstwa_2" data-name="Warstwa 2">
      <g id="Warstwa_1-2" data-name="Warstwa 1">
        <g>
          <g>
            <circle cx="100" cy="100" r="88" fill="#f5f4f5"/>
            <path d="M100,12a88,88,0,1,1-88,88,88,88,0,0,1,88-88m0-12A100,100,0,1,0,200,100,100.2,100.2,0,0,0,100,0Z" fill="#2a2a2b"/>
          </g>
          <g>
            <g>
              <g>
                <ellipse cx="98.9" cy="103.2" rx="58.1" ry="57.9" fill="#ecbf56"/>
                <path d="M98.9,45.3a57.9,57.9,0,1,1-58.1,57.9A58,58,0,0,1,98.9,45.3m0-8.4a66.3,66.3,0,1,0,66.5,66.3A66.5,66.5,0,0,0,98.9,36.9Z" fill="#2a2a2b"/>
              </g>
              <path d="M98.9,155.7a58.1,58.1,0,0,1-58.1-55.2v2.7a58.1,58.1,0,0,0,116.2,0v-2.7A58.1,58.1,0,0,1,98.9,155.7Z" fill="#1d1d1b" opacity="0.15" style="mix-blend-mode: darken"/>
              <path d="M98.9,138a23.6,23.6,0,0,1-23.6-23.5h8.4a15.2,15.2,0,0,0,30.4,0h8.4A23.6,23.6,0,0,1,98.9,138Z" fill="#2a2a2b"/>
              <rect x="119.6" y="87.4" width="8.4" height="10.5" fill="#2a2a2b"/>
              <rect x="69.8" y="87.1" width="8.4" height="10.5" fill="#2a2a2b"/>
            </g>
            <g>
              <g>
                <path d="M55.6,122.1a7.8,7.8,0,0,0-6.6,3.7,7.5,7.5,0,0,0-6.5-3.7,7.6,7.6,0,0,0-5.8,12.8L49,145.5l12.4-10.6a7.7,7.7,0,0,0-5.8-12.8Z" fill="#ea879c"/>
                <path d="M55.6,122.1a7.7,7.7,0,0,1,5.8,12.8L49,145.5,36.7,134.9a7.6,7.6,0,0,1,5.8-12.8,7.5,7.5,0,0,1,6.5,3.7,7.8,7.8,0,0,1,6.6-3.7m0-8.4a16.6,16.6,0,0,0-6.6,1.4,15.8,15.8,0,0,0-6.5-1.4,16.2,16.2,0,0,0-16.2,16.1,15.7,15.7,0,0,0,4.2,10.7l.4.4.4.4,12.3,10.6,5.4,4.7,5.5-4.7,12.3-10.6.4-.4.4-.4a15.6,15.6,0,0,0,4.1-10.7,16.1,16.1,0,0,0-16.1-16.1Z" fill="#2a2a2b"/>
              </g>
              <path d="M55.6,122.1a8,8,0,0,0-5.4,2.2h.2a7.8,7.8,0,0,1,7.7,7.7,7.5,7.5,0,0,1-2,5.1l-8.4,7.3,1.3,1.1,12.4-10.6a7.7,7.7,0,0,0-5.8-12.8Z" fill="#1d1d1b" opacity="0.15" style="mix-blend-mode: darken"/>
            </g>
            <g>
              <g>
                <path d="M150.2,37.9a7.8,7.8,0,0,0-6.6,3.7,7.5,7.5,0,0,0-6.5-3.7,7.7,7.7,0,0,0-7.7,7.7,7.5,7.5,0,0,0,1.9,5.1l12.3,10.6L156,50.7a7.5,7.5,0,0,0,1.9-5.1A7.7,7.7,0,0,0,150.2,37.9Z" fill="#ea879c"/>
                <path d="M150.2,37.9a7.7,7.7,0,0,1,7.7,7.7,7.5,7.5,0,0,1-1.9,5.1L143.6,61.3,131.3,50.7a7.5,7.5,0,0,1-1.9-5.1,7.7,7.7,0,0,1,7.7-7.7,7.5,7.5,0,0,1,6.5,3.7,7.8,7.8,0,0,1,6.6-3.7m0-8.4a16.6,16.6,0,0,0-6.6,1.4,15.8,15.8,0,0,0-6.5-1.4,16.1,16.1,0,0,0-12,26.9l.4.4.4.3,12.3,10.6,5.4,4.7,5.5-4.7,12.3-10.6.4-.3.4-.4a16.1,16.1,0,0,0-12-26.9Z" fill="#2a2a2b"/>
              </g>
              <path d="M150.2,37.9a7.6,7.6,0,0,0-5.4,2.3h.2a7.7,7.7,0,0,1,7.7,7.6,8,8,0,0,1-2,5.2l-8.4,7.2,1.3,1.1L156,50.7a7.5,7.5,0,0,0,1.9-5.1A7.7,7.7,0,0,0,150.2,37.9Z" fill="#1d1d1b" opacity="0.15" style="mix-blend-mode: darken"/>
            </g>
          </g>
        </g>
      </g>
    </g>
  </g>
</svg>
