<svg xmlns="http://www.w3.org/2000/svg" width="70.6mm" height="70.6mm" viewBox="0 0 200 200">
  <g id="Warstwa_2" data-name="Warstwa 2">
    <g id="Warstwa_1-2" data-name="Warstwa 1">
      <g>
        <g>
          <circle cx="100" cy="100" r="88" fill="#f5f4f5"/>
          <path d="M100,12a88,88,0,1,1-88,88,88,88,0,0,1,88-88m0-12A100,100,0,1,0,200,100,100.2,100.2,0,0,0,100,0Z" fill="#2a2a2b"/>
        </g>
        <g>
          <rect x="49.4" y="112.6" width="112.8" height="15.07" fill="#f5f4f5"/>
          <rect x="42.2" y="64.7" width="108.8" height="15.07" fill="#f5f4f5"/>
          <path d="M165.7,144.7l-2.6-14.8S52.6,131.6,50,129.1s-3.7-13.2-3.7-13.2l8.3-6.1,109.8,1.9-.7-16H93.6L44.2,97.5s-11.1,12.3-10.7,18,8.6,26.4,10.7,26.9S165.7,144.7,165.7,144.7Z" fill="#53538d"/>
          <path d="M39.2,47.2,41.7,62s106.1-1.5,108.7,1.1,3.7,13.2,3.7,13.2l-8.3,6L40.4,80.5l.8,16h65.6l49.4-1.9s11.1-12.3,10.6-18-8.5-26.4-10.6-26.8S39.2,47.2,39.2,47.2Z" fill="#53538d"/>
          <rect x="65" y="108.6" width="18.6" height="40.53" fill="#ecbf56"/>
          <g>
            <g>
              <path d="M168.6,72.2V72c0-14.8-10.4-26.9-23.3-26.9H40.9a2.9,2.9,0,0,0-2.7,3.1V96a3.1,3.1,0,0,0,2,3,28.9,28.9,0,0,0-8.8,21.2v.2c0,15,10.6,27.3,23.7,27.3h9.1v4.1a3.1,3.1,0,0,0,1.2,2.6,2.1,2.1,0,0,0,2.5.2l6.9-3.4,6.9,3.4a2,2,0,0,0,1.1.3,2.4,2.4,0,0,0,1.4-.5,3.2,3.2,0,0,0,1.3-2.6v-4.1h80.2a2.9,2.9,0,0,0,2.7-3.1V96a2.9,2.9,0,0,0-2.7-3.1h-5.5A28.8,28.8,0,0,0,168.6,72.2ZM64.2,126.8H55c-3.1,0-5.6-2.9-5.6-6.5s2.5-6.5,5.6-6.5h9.2Zm15.9,20.3L75.9,145a2,2,0,0,0-1.1-.3l-1.1.3-4.2,2.1V113.8H80.1ZM163,126.8H85.5v-13H163ZM85.5,141.5V133H163v8.5ZM163,99.1v8.5H55c-6,0-11,5.7-11,12.7S49,133,55,133h9.2v8.5H55.1c-10.1,0-18.4-9.5-18.4-21.1v-.2c0-11.6,8.3-21.1,18.4-21.1ZM43.6,92.9V51.3H145.3c9.9,0,18,9.3,18,20.7v.2c0,11.4-8.1,20.7-18,20.7Z" fill="#2a2a2b"/>
              <path d="M82.8,156.3a4.7,4.7,0,0,1-1.7-.4l-6.3-3.2-6.2,3.2a3.8,3.8,0,0,1-4-.4,4.6,4.6,0,0,1-1.8-3.7v-2.7H55.1c-13.9,0-25.1-12.9-25.1-28.7v-.2a30.6,30.6,0,0,1,8-21A5.3,5.3,0,0,1,36.8,96V48.2a4.3,4.3,0,0,1,4.1-4.5H145.3C158.9,43.7,170,56.4,170,72v.2a30.4,30.4,0,0,1-6.7,19.3h2.4a4.3,4.3,0,0,1,4.1,4.5v48.6a4.3,4.3,0,0,1-4.1,4.5H86.8v2.7a4.5,4.5,0,0,1-1.7,3.7A4,4,0,0,1,82.8,156.3Zm-8-6.7,7.5,3.8a.9.9,0,0,0,1.1-.1,2,2,0,0,0,.7-1.5v-5.5h81.6c.7,0,1.3-.8,1.3-1.7V96c0-.9-.6-1.7-1.3-1.7h-9l2.5-2.4a27.4,27.4,0,0,0,8.1-19.7V72c0-14.1-9.9-25.5-22-25.5H40.9c-.7,0-1.3.8-1.3,1.7V96a1.7,1.7,0,0,0,1,1.7l2.2.7L41.1,100a27.5,27.5,0,0,0-8.4,20.2v.2c0,14.3,10.1,25.9,22.4,25.9H65.6v5.5a1.9,1.9,0,0,0,.6,1.5.9.9,0,0,0,1.1.1Zm6.7-.3-6.2-3.1a.7.7,0,0,0-.9,0l-6.2,3.1V112.4H81.5Zm-6.7-6a4.7,4.7,0,0,1,1.7.4l2.2,1.1V115.1H70.9v29.7l2.2-1.1A5.3,5.3,0,0,1,74.8,143.3Zm89.6-.4H84.1V131.7h80.3Zm-77.6-2.8h74.9v-5.7H86.8Zm-21.2,2.8H55.1c-10.9,0-19.7-10.1-19.7-22.5v-.2c0-12.4,8.8-22.5,19.7-22.5H164.4V109H55c-5.3,0-9.6,5-9.6,11.3s4.3,11.4,9.6,11.4H65.6ZM55.1,100.5c-9.4,0-17,8.8-17,19.7v.2c0,10.9,7.6,19.7,17,19.7h7.7v-5.7H55c-6.8,0-12.3-6.3-12.3-14.1s5.5-14.1,12.3-14.1H161.7v-5.7Zm109.3,27.7H84.1V112.4h80.3Zm-77.6-2.7h74.9V115.1H86.8Zm-21.2,2.7H55c-3.8,0-7-3.5-7-7.9s3.2-7.9,7-7.9H65.6ZM55,115.1c-2.3,0-4.2,2.4-4.2,5.2s1.9,5.2,4.2,5.2h7.8V115.1Zm90.3-20.8H42.2V49.9H145.3c10.7,0,19.3,9.9,19.3,22.1v.2C164.6,84.3,156,94.3,145.3,94.3ZM44.9,91.5H145.3c9.1,0,16.6-8.7,16.6-19.3V72c0-10.7-7.5-19.3-16.6-19.3H44.9Z" fill="#2a2a2b"/>
            </g>
            <g>
              <path d="M145.3,59.5H41.2a3.1,3.1,0,0,0,0,6.2H145.3c3.1,0,5.5,2.9,5.5,6.4s-2.4,6.4-5.5,6.4H41.2a2.9,2.9,0,0,0-2.6,3.1,2.8,2.8,0,0,0,2.6,3H145.3c6,0,10.9-5.6,10.9-12.5S151.3,59.5,145.3,59.5Z" fill="#2a2a2b"/>
              <path d="M145.3,86H41.2a4.5,4.5,0,0,1,0-8.9H145.3c2.3,0,4.1-2.3,4.1-5s-1.8-5-4.1-5H41.2a4.5,4.5,0,0,1,0-8.9H145.3c6.8,0,12.3,6.2,12.3,13.9S152.1,86,145.3,86ZM41.2,79.8c-.7,0-1.3.8-1.3,1.8s.6,1.7,1.3,1.7H145.3c5.3,0,9.5-5,9.5-11.2s-4.2-11.2-9.5-11.2H41.2c-.7,0-1.3.8-1.3,1.7s.6,1.7,1.3,1.7H145.3c3.8,0,6.9,3.5,6.9,7.8s-3.1,7.7-6.9,7.7Z" fill="#2a2a2b"/>
            </g>
          </g>
        </g>
      </g>
    </g>
  </g>
</svg>
