<svg xmlns="http://www.w3.org/2000/svg" width="70.6mm" height="70.6mm" viewBox="0 0 200 200">
  <g id="Warstwa_2" data-name="Warstwa 2">
    <g id="Warstwa_1-2" data-name="Warstwa 1">
      <g>
        <g>
          <circle cx="100" cy="100" r="88" fill="#f5f4f5"/>
          <path d="M100,12a88,88,0,1,1-88,88,88,88,0,0,1,88-88m0-12A100,100,0,1,0,200,100,100.2,100.2,0,0,0,100,0Z" fill="#2a2a2b"/>
        </g>
        <g>
          <circle cx="100" cy="100" r="88" fill="#f5f4f5"/>
          <path d="M100,12a88,88,0,1,1-88,88,88,88,0,0,1,88-88m0-12A100,100,0,1,0,200,100,100.2,100.2,0,0,0,100,0Z" fill="#2a2a2b"/>
        </g>
        <g>
          <path d="M64.8,97.5a117.1,117.1,0,0,1-23.3-2.2l1.9-8.8-1,4.4,1-4.4a118.9,118.9,0,0,0,42.1.1c29-5.6,48.2-22.4,57.3-50.1l8.6,2.8C141.3,70,119,89.5,86.9,95.5A119.2,119.2,0,0,1,64.8,97.5Z" fill="#2a2a2b"/>
          <polygon points="151.3 30 126.8 44.8 154.7 57.9 151.3 30" fill="#2a2a2b"/>
          <g>
            <path d="M128.9,160.2a86.1,86.1,0,0,0,27-15.8V85.7h-27Z" fill="#e97956"/>
            <path d="M124.4,166.6V81.2h36v65.3l-1.6,1.4a90,90,0,0,1-28.4,16.5Zm9-76.3v63.1a81.6,81.6,0,0,0,18-11.1v-52Z" fill="#2a2a2b"/>
          </g>
          <g>
            <path d="M44.1,146.5a89.3,89.3,0,0,0,27,14.6V120.9h-27Z" fill="#55bdbc"/>
            <path d="M75.6,167.3l-5.9-1.9a93,93,0,0,1-28.4-15.3l-1.7-1.4V116.3h36Zm-27-23a84.7,84.7,0,0,0,18,10.3V125.4h-18Z" fill="#2a2a2b"/>
          </g>
          <g>
            <path d="M85.2,164.4a83.4,83.4,0,0,0,27,0V103.9h-27Z" fill="#ecbf56"/>
            <path d="M98.7,170a97,97,0,0,1-14.2-1.1l-3.8-.6V99.4h36.1v68.9l-3.9.6A96,96,0,0,1,98.7,170Zm-9-9.5a90.2,90.2,0,0,0,18,0V108.4h-18Z" fill="#2a2a2b"/>
          </g>
        </g>
      </g>
    </g>
  </g>
</svg>
