<svg xmlns="http://www.w3.org/2000/svg" width="70.6mm" height="70.6mm" viewBox="0 0 200 200">
  <g style="isolation: isolate">
    <g id="Warstwa_2" data-name="Warstwa 2">
      <g id="Warstwa_1-2" data-name="Warstwa 1">
        <g>
          <g>
            <circle cx="100" cy="100" r="88" fill="#f5f4f5"/>
            <path d="M100,12a88,88,0,1,1-88,88,88,88,0,0,1,88-88m0-12A100,100,0,1,0,200,100,100.2,100.2,0,0,0,100,0Z" fill="#2a2a2b"/>
          </g>
          <g>
            <path d="M55.2,103.6c-.5.9-10.4,13.1-10.4,13.1l4.3,8.6s8.1.7,8.6.3,7.7-5.5,7.7-6.1S66.8,109,66.8,109Z" fill="#f4c99f"/>
            <path d="M98.8,144c-.5.9-10.3,13-10.3,13l4.3,8.6s8,.7,8.5.4,7.7-5.6,7.7-6.1,1.4-10.6,1.4-10.6Z" fill="#f4c99f"/>
            <path d="M115.4,41.5c-1,.6-22.9,23.9-22.9,23.9l13.9,10.7,13.3-5.5,29.3,33s38.3-18.9,5.7-57.9L133.5,35.4Z" fill="#f4c99f"/>
            <g>
              <path d="M96.9,49.3S66.5,28.5,51.4,46.2s-18,42-9.8,52.2,19.4,7,19.7,7.3S67,116.8,67,116.8l11.1,8.6,3.6,9.6,11.6,5.4,2.1,7.3,11-1.6,9.6,5.4,8.4-7V137l11-2,1.8-9.6,10.6-3.2,4.3-13.4L120.6,75.5l-12.1,5.6L96.9,75.5l-6-6.9,2.9-7.4Z" fill="#f2be9a"/>
              <path d="M67.7,120.6c-.5.9-10.4,13-10.4,13l4.3,8.6s8.1.7,8.6.3,7.7-5.5,7.7-6,1.4-10.6,1.4-10.6Z" fill="#f4c99f"/>
              <path d="M81.7,135c-.5.9-10.4,13.1-10.4,13.1l4.3,8.6s8.1.7,8.6.3,7.7-5.5,7.7-6.1,1.4-10.5,1.4-10.5Z" fill="#f4c99f"/>
              <g opacity="0.15" style="mix-blend-mode: darken">
                <path d="M146.4,105.2h0l-1.4,1.5-.4-.6-27.4-29-8.7,4-6.9-3.3a10.9,10.9,0,0,1-9.3-3.5l-2.6-2.7,2.1-2.1-.9-.9,2.9-7.4,2.7-10.3a20.9,20.9,0,0,0-2,2.2,39.5,39.5,0,0,0-28.2-14,20.5,20.5,0,0,0-14.9,7.1,62.4,62.4,0,0,0-7,10.3A30.9,30.9,0,0,1,50.8,52C63.6,41.7,82.1,43.6,93,56.6L81.9,68.4l8.9,9.5a19.6,19.6,0,0,0,25.2,3l27.1,28.8a5.6,5.6,0,0,1,0,7.6,5.1,5.1,0,0,1-3.8,1.6,5.7,5.7,0,0,1-1.1,1.6,4.9,4.9,0,0,1-7.2,0l-19-20.2-2.4,2.5,20,21.3a5.8,5.8,0,0,1,0,7.6,5.4,5.4,0,0,1-3.9,1.6,5.4,5.4,0,0,1-1,1.6,4.9,4.9,0,0,1-7.2,0L98.4,114.7l-2.3,2.5.3.4L116,138.5a5.6,5.6,0,0,1,0,7.6,5.1,5.1,0,0,1-3.8,1.6,7.5,7.5,0,0,1-.7,1.2l4.5,2.6,5.5-4.6a2.8,2.8,0,0,0,.1-.9h1l1.8-1.4V137l10.2-1.8a14.9,14.9,0,0,0,.5-3.6h1l1.1-6.2,10.5-3.2a14.4,14.4,0,0,0,1-5.9l1.5-1.6,1.9-5.9-4.6-4.9Z" fill="#1d1d1b"/>
                <path d="M95.4,147.7l5.5-.8a14.2,14.2,0,0,0-6.2-1.8Z" fill="#1d1d1b"/>
                <path d="M50.4,104.8a21.9,21.9,0,0,0,5.7,1.1A12.4,12.4,0,0,0,50.4,104.8Z" fill="#1d1d1b"/>
              </g>
              <g>
                <path d="M152.1,108.8l-1.1-1.2a4.1,4.1,0,0,1-1.2,2h0a3.2,3.2,0,0,1-1.3,1,5.9,5.9,0,0,1-1.4,3.8,4.9,4.9,0,0,1-7.2,0l-20-21.3L117.2,96l19.1,20.4a5.6,5.6,0,0,1,0,7.6l-1.3,1a5.5,5.5,0,0,1-1.5,3.8,4.9,4.9,0,0,1-7.2,0l-19.6-20.9-.3-.4-2.8,2.9,19.2,20.3a5.9,5.9,0,0,1,0,7.7l-1.3,1a5.5,5.5,0,0,1-1.5,3.8,4.9,4.9,0,0,1-7.2,0h0a13.5,13.5,0,0,0-13.4-3.7c-1.4-6.4-7.4-11.2-13.5-11.1-.3-6.8-5.7-13-12.2-13.8.9-11.7-11.3-19.8-20.9-14C40.6,89,38.9,69.4,48.4,55.8a34.1,34.1,0,0,1,5.8-8.4,29.8,29.8,0,0,1,13.1-8.3c-5.9.1-11.5,2-15.9,7.1C42.5,56.8,37.8,69.8,37.2,80.7a43.6,43.6,0,0,0,11.7,21.4l-1.2,1.5A20,20,0,0,0,58,105.9l.9-.9a5.2,5.2,0,0,1,3.6-1.6c4.4,0,6.8,5.9,3.6,9.3l-.8.7,1.7,3.4,4.6,3.5a5,5,0,0,1,3.1-1c4.1,0,6.3,4.9,4.2,8.3l2.8,7.4,2.2,1,.7-.8a4.9,4.9,0,0,1,7.6-.4,5.6,5.6,0,0,1,1.2,5.8l2,7.1,5.3-.8,1.5-1.6a4.9,4.9,0,0,1,7.2,0,5.8,5.8,0,0,1,1.4,3.3l5.2,2.9,8.4-7V137l8.8-1.6v-.3a9.1,9.1,0,0,0,2.3-.3l1.7-9.4,9.4-2.9a10.9,10.9,0,0,0,.1-1.8h1.6Z" fill="#1d1d1b" opacity="0.15" style="mix-blend-mode: darken"/>
                <polygon points="93.8 61.2 95.3 55.5 89.5 61.6 92.4 64.7 93.8 61.2" fill="#1d1d1b" opacity="0.15" style="mix-blend-mode: darken"/>
              </g>
              <path d="M160,46.7c-16.2-17.3-42.9-16.4-58.3,1.6-15.4-18-42.1-18.9-58.3-1.6s-15.5,45.1,1.1,61.5c-8.5,8.6-3.6,24.1,7.9,25.6-.7,8.4,6,16.1,14,16,.5,9.2,9.2,15.9,17.6,13.4,2.7,11,15.9,14.8,23.5,6.7,4.3-4.6,7.7-7.4,7.9-14.3,7.1-.2,13.3-6.8,13.4-14.4,7.2-.1,13.4-6.8,13.5-14.4,7.5-.1,13.9-7.3,13.6-15.3l4.1-4.4C175.6,90.5,175.6,63.4,160,46.7ZM50.6,115.2l3.9-4.1a5.2,5.2,0,0,1,3.6-1.6c4.4,0,6.8,5.9,3.6,9.3l-3.9,4c-4.9,4.9-11.7-2.3-7.2-7.6Zm10.7,19.6a5.8,5.8,0,0,1,1.5-3.8l3.8-4.1a5.1,5.1,0,0,1,3.6-1.5c4.5,0,6.8,5.8,3.6,9.2l-3.3,3.6a5.7,5.7,0,0,1-4.1,2.1A5.4,5.4,0,0,1,61.3,134.8Zm15.5,17.8a5.7,5.7,0,0,1,0-7.7l3.4-3.6a4.9,4.9,0,0,1,7.6-.4,5.6,5.6,0,0,1,0,7.6L84,152.6a4.9,4.9,0,0,1-7.2,0Zm28.2,6.5-3.9,4a4.5,4.5,0,0,1-3.6,1.6,4.8,4.8,0,0,1-3.6-1.6,5.8,5.8,0,0,1,0-7.6l3.9-4.1a4.9,4.9,0,0,1,7.2,0,5.9,5.9,0,0,1,0,7.7Zm40.4-43.4a4.9,4.9,0,0,1-7.2,0l-20-21.2-6.3,6.7,20,21.2a5.7,5.7,0,0,1,0,7.7,4.9,4.9,0,0,1-7.2,0l-19.6-20.9-.4-.3-6.3,6.7.3.4,19.6,20.8a5.7,5.7,0,0,1,0,7.7,4.9,4.9,0,0,1-7.2,0h0a13.2,13.2,0,0,0-13.3-3.7c-1.5-6.4-7.5-11.2-13.5-11.1-.3-6.8-5.8-13-12.2-13.7.8-11.8-11.3-19.9-20.9-14.1C37.8,89.2,37,66.9,49.8,53.5S83.4,40.8,95.3,55l-11,11.8,8.8,9.5a19.6,19.6,0,0,0,25.2,3l27.1,28.8a5.6,5.6,0,0,1,0,7.6Zm8.2-15.3-1.4,1.4-.4-.5L118.7,66.1l-3.2,3.4a10.8,10.8,0,0,1-16,0l-2.6-2.7,12.6-13.3C140,23.6,181.7,68,153.6,100.4Z" fill="#2a2a2b"/>
            </g>
          </g>
        </g>
      </g>
    </g>
  </g>
</svg>
