<svg xmlns="http://www.w3.org/2000/svg" width="70.6mm" height="70.6mm" viewBox="0 0 200 200">
  <g id="Warstwa_2" data-name="Warstwa 2">
    <g id="Warstwa_1-2" data-name="Warstwa 1">
      <g>
        <g>
          <circle cx="100" cy="100" r="94" fill="#f5f4f5"/>
          <path d="M100,12a88,88,0,1,1-88,88,88,88,0,0,1,88-88m0-12A100,100,0,1,0,200,100,100.2,100.2,0,0,0,100,0Z" fill="#2a2a2b"/>
        </g>
        <g>
          <path d="M103.9,34.6c9.2-12.2,22-12.2,22-12.2s1.9,11.4-7.2,22.4-20.9,9.8-20.9,9.8S95.7,45.3,103.9,34.6Z" fill="#999" fill-rule="evenodd"/>
          <path d="M99,62.6c4.7,0,13.5-6.6,24.9-6.6,19.7,0,27.4,14.1,27.4,14.1a30.3,30.3,0,0,0-15.1,26.5c0,21.2,18.9,28.5,18.9,28.5s-13.2,37.1-31,37.1c-8.2,0-14.6-5.5-23.2-5.5s-17.5,5.7-23.2,5.7c-16.2,0-36.8-35.2-36.8-63.5S58.3,56.4,74.6,56.4C85.2,56.4,93.5,62.6,99,62.6Z" fill="#999" fill-rule="evenodd"/>
        </g>
      </g>
    </g>
  </g>
</svg>
