<svg xmlns="http://www.w3.org/2000/svg" width="70.6mm" height="70.6mm" viewBox="0 0 200 200">
  <g id="Warstwa_2" data-name="Warstwa 2">
    <g id="Warstwa_1-2" data-name="Warstwa 1">
      <g>
        <g>
          <circle cx="100" cy="100" r="94" fill="#f5f4f5"/>
          <path d="M100,12a88,88,0,1,1-88,88,88,88,0,0,1,88-88m0-12A100,100,0,1,0,200,100,100.2,100.2,0,0,0,100,0Z" fill="#2a2a2b"/>
        </g>
        <g>
          <path d="M72.3,83.3,98.9,67.9a2.2,2.2,0,0,1,2.2,0l26.6,15.4a2.2,2.2,0,0,1,1,1.8v30.7a2.3,2.3,0,0,1-1,1.9L101.1,133a2.2,2.2,0,0,1-2.2,0L72.3,117.7a2.3,2.3,0,0,1-1-1.9V85.1a2.2,2.2,0,0,1,1-1.8" fill="#767aba"/>
          <path d="M169.1,97.3,137.4,42a6.8,6.8,0,0,0-5.6-3.5H68.2A6.8,6.8,0,0,0,62.6,42L30.9,97.1a6.5,6.5,0,0,0,0,6.6l31.7,54.8a6.3,6.3,0,0,0,5.6,3h63.6a6.3,6.3,0,0,0,5.6-3l31.7-54.9a6,6,0,0,0,0-6.3m-26.3,26.5a2.4,2.4,0,0,1-1.2,2l-40.4,23.4a2.4,2.4,0,0,1-2.3,0L58.4,125.8a2.4,2.4,0,0,1-1.2-2V77.1a2.2,2.2,0,0,1,1.2-1.9L98.8,51.8a2.4,2.4,0,0,1,2.3,0l40.5,23.4a2.2,2.2,0,0,1,1.2,1.9Z" fill="#464596"/>
        </g>
      </g>
    </g>
  </g>
</svg>
