<svg xmlns="http://www.w3.org/2000/svg" width="70.6mm" height="70.6mm" viewBox="0 0 200 200">
  <g id="Warstwa_2" data-name="Warstwa 2">
    <g id="Warstwa_1-2" data-name="Warstwa 1">
      <g>
        <g>
          <circle cx="100" cy="100" r="94" fill="#f5f4f5"/>
          <path d="M100,12a88,88,0,1,1-88,88,88,88,0,0,1,88-88m0-12A100,100,0,1,0,200,100,100.2,100.2,0,0,0,100,0Z" fill="#2a2a2b"/>
        </g>
        <path d="M100,30a70,70,0,1,1-70,70,69.9,69.9,0,0,1,70-70Z" fill="#23272c" fill-rule="evenodd"/>
        <g>
          <path id="path12" d="M152.7,129a6.8,6.8,0,0,1-8.3-3.2c-4.8-7.2-10-14-15.1-21l-2.2-2.9c-6.1,8.1-12.1,15.9-17.6,23.9a6.4,6.4,0,0,1-7.9,3.1l22.6-30.4L103.2,71a6.9,6.9,0,0,1,8.3,3c4.9,7.1,10.3,14,15.7,21.2,5.5-7.2,10.8-14,15.8-21.1a6.4,6.4,0,0,1,7.9-3L142.7,82c-3.6,4.8-7.3,9.7-11.1,14.4a2.9,2.9,0,0,0-.2,4.1l.2.3C138.6,110.1,145.6,119.4,152.7,129Z" fill="#fff"/>
          <path id="path16" d="M47.3,98.1c.6-2.9.9-6.1,1.8-9.1,5.1-18,25.8-25.5,40-14.4,8.3,6.6,10.4,15.9,10,26.3H52.2c-.8,18.6,12.6,29.9,29.9,24.2a18.1,18.1,0,0,0,11.3-12.7c.9-2.9,2.4-3.4,5.2-2.6a23.7,23.7,0,0,1-11.4,17.4,27.4,27.4,0,0,1-32.1-4.1,28.7,28.7,0,0,1-7.2-16.9,15.9,15.9,0,0,0-.6-3Zm4.9-1.2H94.6c-.2-13.5-8.8-23.1-20.1-23.2S52.7,82.9,52.2,96.8Z" fill="#fff"/>
        </g>
      </g>
    </g>
  </g>
</svg>
