<svg xmlns="http://www.w3.org/2000/svg" width="70.6mm" height="70.6mm" viewBox="0 0 200 200">
  <g id="Warstwa_2" data-name="Warstwa 2">
    <g id="Warstwa_1-2" data-name="Warstwa 1">
      <g>
        <g>
          <circle cx="100" cy="100" r="94" fill="#f5f4f5"/>
          <path d="M100,12a88,88,0,1,1-88,88,88,88,0,0,1,88-88m0-12A100,100,0,1,0,200,100,100.2,100.2,0,0,0,100,0Z" fill="#2a2a2b"/>
        </g>
        <g>
          <path d="M49,143l.9-1.2,40-76.1v-.8L72.4,31.7a3.3,3.3,0,0,0-6.2,1.1Z" fill="#fcc14b"/>
          <path id="path-1" d="M49.5,142.1l.7-1.3L89.8,65.6,72.2,32.2a3,3,0,0,0-5.7,1.1Z" fill="#f7a521" fill-rule="evenodd"/>
          <path d="M102.9,90l13.2-13.4L102.9,51.4a3.5,3.5,0,0,0-6,0l-7,13.5V66Z" fill="#f4be63"/>
          <path id="path-3" d="M102.7,89.5l12.8-13.1L102.7,52c-1.2-2.3-4.2-2.5-5.4-.2L90.2,65.4l-.2.7Z" fill="#f7a420" fill-rule="evenodd"/>
          <polygon points="49 143 49.4 142.6 50.8 142.1 102.1 90.9 102.7 89.2 89.9 64.8 49 143" fill="#f08217"/>
          <path d="M104.6,168.8,151,142.9,137.7,61.2a3.1,3.1,0,0,0-5.3-1.7L49,143l46.2,25.8a9.8,9.8,0,0,0,9.4,0" fill="#fde068"/>
          <path d="M150.6,142.7,137.4,61.6c-.4-2.5-3-3.6-4.8-1.7L49.5,142.8l45.7,25.6a9.6,9.6,0,0,0,9.3,0Z" fill="#fcc940"/>
          <path d="M104.6,168a9.8,9.8,0,0,1-9.4,0L49.4,142.6l-.4.4,46.2,25.8a9.8,9.8,0,0,0,9.4,0L151,142.9v-.7Z" fill="#eeab36"/>
        </g>
      </g>
    </g>
  </g>
</svg>
