<svg xmlns="http://www.w3.org/2000/svg" width="70.6mm" height="70.6mm" viewBox="0 0 200 200">
  <g id="Warstwa_2" data-name="Warstwa 2">
    <g id="Warstwa_1-2" data-name="Warstwa 1">
      <g>
        <g>
          <circle cx="100" cy="100" r="94" fill="#f5f4f5"/>
          <path d="M100,12a88,88,0,1,1-88,88,88,88,0,0,1,88-88m0-12A100,100,0,1,0,200,100,100.2,100.2,0,0,0,100,0Z" fill="#2a2a2b"/>
        </g>
        <g>
          <path d="M100,31.2C67.4,31.2,39.8,54.3,32.8,85l82.3,82.3c30.7-6.9,53.9-34.4,54-67h-44v12.3h30.2a.4.4,0,0,1-.1.3h.1c-4.4,18.8-18.2,34.6-36.4,40.8L46.6,81.5a.4.4,0,0,1,.1-.3h-.1a58.5,58.5,0,0,1,3-6.8,60.2,60.2,0,0,1,7.9-11.5A56.5,56.5,0,0,1,100,43.4c18.9,0,35.8,9.5,46.5,23.9l9.3-8A69.2,69.2,0,0,0,100,31.2Z" fill="#62398e"/>
          <path d="M51,148.7a68.4,68.4,0,0,0,27.4,16.8,75.1,75.1,0,0,0,7.8,2.1,66.9,66.9,0,0,0,12.5,1.2L65.1,135.2,30.9,101.3C30.9,118.7,37.9,135.6,51,148.7Z" fill="#62398e"/>
        </g>
      </g>
    </g>
  </g>
</svg>
