<svg xmlns="http://www.w3.org/2000/svg" width="70.6mm" height="70.6mm" viewBox="0 0 200 200">
  <g id="Warstwa_2" data-name="Warstwa 2">
    <g id="Warstwa_1-2" data-name="Warstwa 1">
      <g>
        <g>
          <circle cx="100" cy="100" r="94" fill="#f5f4f5"/>
          <path d="M100,12a88,88,0,1,1-88,88,88,88,0,0,1,88-88m0-12A100,100,0,1,0,200,100,100.2,100.2,0,0,0,100,0Z" fill="#2a2a2b"/>
        </g>
        <path d="M167.4,93.8,106.2,32.6a9,9,0,0,0-12.7,0L80.8,45.3,96.9,61.4a10.8,10.8,0,0,1,11,2.6,10.9,10.9,0,0,1,2.6,11.1L126,90.6a10.6,10.6,0,0,1,11.1,2.6,10.7,10.7,0,0,1-15.2,15.1,10.6,10.6,0,0,1-2.4-11.6L105.1,82.2v38.1a9,9,0,0,1,2.8,2,10.7,10.7,0,1,1-15.2,0,12.4,12.4,0,0,1,3.5-2.3V81.5a12.4,12.4,0,0,1-3.5-2.3,11,11,0,0,1-2.3-11.8L74.6,51.6l-42,41.9a9,9,0,0,0,0,12.7l61.2,61.2a9,9,0,0,0,12.7,0l60.9-60.9a9,9,0,0,0,0-12.7" fill="#df4c36"/>
      </g>
    </g>
  </g>
</svg>
