<svg xmlns="http://www.w3.org/2000/svg" width="70.6mm" height="70.6mm" viewBox="0 0 200 200">
  <g id="Warstwa_2" data-name="Warstwa 2">
    <g id="Warstwa_1-2" data-name="Warstwa 1">
      <g>
        <g>
          <circle cx="100" cy="100" r="94" fill="#f5f4f5"/>
          <path d="M100,12a88,88,0,1,1-88,88,88,88,0,0,1,88-88m0-12A100,100,0,1,0,200,100,100.2,100.2,0,0,0,100,0Z" fill="#2a2a2b"/>
        </g>
        <path d="M112,46l28.7,16.7a12.8,12.8,0,0,1,2.9-2.3,12.5,12.5,0,0,1,12.5,21.7,14,14,0,0,1-3.4,1.3v33.2a12,12,0,0,1,3.3,1.3,12.5,12.5,0,0,1-12.5,21.7,14.8,14.8,0,0,1-3-2.5l-28.7,16.5a10,10,0,0,1,.7,3.9,12.5,12.5,0,0,1-25,0A13.4,13.4,0,0,1,88,154L59.2,137.4a14.4,14.4,0,0,1-2.7,2.2A12.5,12.5,0,0,1,44,117.9a12,12,0,0,1,3.3-1.3V83.4a14,14,0,0,1-3.4-1.3A12.5,12.5,0,0,1,56.4,60.4a10.4,10.4,0,0,1,2.8,2.3L88,46a13.4,13.4,0,0,1-.5-3.5,12.5,12.5,0,0,1,25,0A13.4,13.4,0,0,1,112,46Zm-3,5.2,28.8,16.6a12.8,12.8,0,0,0,1.2,9.7,12.2,12.2,0,0,0,7.8,5.8v33.3l-.5.2L108.6,51.5Zm-17.6.3L53.7,116.8l-.5-.2V83.3A12.2,12.2,0,0,0,61,77.5a12.4,12.4,0,0,0,1.2-9.7L91,51.2Zm12.1,3,37.7,65.2a11.8,11.8,0,0,0-2.2,2.8,11.3,11.3,0,0,0-1.3,3.3H62.3a11.3,11.3,0,0,0-1.3-3.3,11.8,11.8,0,0,0-2.2-2.8L96.5,54.5a12.5,12.5,0,0,0,7,0Zm5.7,94.6,28.7-16.5a2.9,2.9,0,0,1-.2-.9H62.3a4.3,4.3,0,0,1-.1.5L91,148.9a12.4,12.4,0,0,1,18.2.2Z" fill="#c94a95" fill-rule="evenodd"/>
      </g>
    </g>
  </g>
</svg>
