<svg xmlns="http://www.w3.org/2000/svg" width="70.6mm" height="70.6mm" viewBox="0 0 200 200">
  <g id="Warstwa_2" data-name="Warstwa 2">
    <g id="Warstwa_1-2" data-name="Warstwa 1">
      <g>
        <g>
          <circle cx="100" cy="100" r="94" fill="#f5f4f5"/>
          <path d="M100,12a88,88,0,1,1-88,88,88,88,0,0,1,88-88m0-12A100,100,0,1,0,200,100,100.2,100.2,0,0,0,100,0Z" fill="#2a2a2b"/>
        </g>
        <path d="M126.4,165.1c10.3-37.1,6.6-55.8-11.5-59.4,2.8,12.6,5.9,25.5-7.4,34.2-6.9,4.6-12.4,2.9-24.7-6.6-5.7,11.7-3.7,23.3-1.1,35.7-17.7-3.1-31.6-10.4-38-27.4a40.5,40.5,0,0,1,9.1-45.1A128.3,128.3,0,0,1,66.5,84.6C86.4,69.7,90.2,55.3,79.7,32.9c-.4-1.3-.8-2.6-1.1-3.9a132.6,132.6,0,0,1,60.6,25.7c38.7,31.6,34,88.4-8.7,109.3A11.9,11.9,0,0,0,126.4,165.1Z" fill="#e94955"/>
      </g>
    </g>
  </g>
</svg>
