<svg xmlns="http://www.w3.org/2000/svg" width="70.6mm" height="70.6mm" viewBox="0 0 200 200">
  <g style="isolation: isolate">
    <g id="Warstwa_2" data-name="Warstwa 2">
      <g id="Warstwa_1-2" data-name="Warstwa 1">
        <g>
          <g>
            <circle cx="100" cy="100" r="94" fill="#f5f4f5"/>
            <path d="M100,12a88,88,0,1,1-88,88,88,88,0,0,1,88-88m0-12A100,100,0,1,0,200,100,100.2,100.2,0,0,0,100,0Z" fill="#2a2a2b"/>
          </g>
          <g>
            <path d="M146.5,154.7l-44.2,18.6a4.3,4.3,0,0,1-4.6,0L53.5,154.7a5.4,5.4,0,0,1-2.4-4.2L45.9,39.4A5.1,5.1,0,0,1,50.7,34h98.6a5.1,5.1,0,0,1,4.8,5.4l-5.2,111.1A5.4,5.4,0,0,1,146.5,154.7Z" fill="#e97956"/>
            <path d="M50.7,34H100V174a3.9,3.9,0,0,1-2.3-.7L53.5,154.7a5.4,5.4,0,0,1-2.4-4.2L45.9,39.4A5.1,5.1,0,0,1,50.7,34Z" fill="#1d1d1b" opacity="0.15" style="mix-blend-mode: darken"/>
            <polygon points="141.6 68.6 142.9 56.5 68.7 56.5 68.7 56.5 57.1 56.5 58.6 71 61.9 101.6 73.3 101.6 73.3 101.6 123.5 101.6 120.3 132.8 100.5 139.4 76 127.8 74.6 114.4 63.3 114.4 65.6 135.6 77.3 140.5 77.3 140.5 100.5 151.5 113.2 147.3 117.9 145.8 130.8 141.4 133.9 140.3 139 93.6 139.4 89.4 136.6 89.4 124.8 89.4 72.1 89.4 69.9 68.2 69.9 68.6 141.6 68.6" fill="#f5f4f5"/>
          </g>
        </g>
      </g>
    </g>
  </g>
</svg>
