<svg xmlns="http://www.w3.org/2000/svg" width="70.6mm" height="70.6mm" viewBox="0 0 200 200">
  <g id="Warstwa_2" data-name="Warstwa 2">
    <g id="Warstwa_1-2" data-name="Warstwa 1">
      <g>
        <g>
          <circle cx="100" cy="100" r="94" fill="#f5f4f5"/>
          <path d="M100,12a88,88,0,1,1-88,88,88,88,0,0,1,88-88m0-12A100,100,0,1,0,200,100,100.2,100.2,0,0,0,100,0Z" fill="#2a2a2b"/>
        </g>
        <g>
          <rect x="52.5" y="51.7" width="96.3" height="96.31" rx="13" fill="#202b2e"/>
          <path d="M135.9,37.7H64.1A26.5,26.5,0,0,0,37.7,64.1v71.8a26.5,26.5,0,0,0,26.4,26.4h71.8a26.5,26.5,0,0,0,26.4-26.4V64.1A26.5,26.5,0,0,0,135.9,37.7Zm21.8,97.5a22.6,22.6,0,0,1-22.5,22.5H64.8a22.6,22.6,0,0,1-22.5-22.5V64.8A22.6,22.6,0,0,1,64.8,42.3h70.4a22.6,22.6,0,0,1,22.5,22.5Z" fill="#cfe5e9"/>
          <rect x="77.8" y="57.3" width="13.6" height="26.78" fill="#167533"/>
          <path d="M72.4,74.7c0-5.6-9.7-5.9-9.7-8.4s6.2-1.4,7.3-.4L71.8,64a10.4,10.4,0,0,0-4.9-2.5v-4H64.1v4.1c-2.3.3-4.9,1.4-4.9,4.1s4.6,6.1,6.9,6.8a3,3,0,0,1,2,2.1c.2.9-.1,1.9-1.7,2a11.2,11.2,0,0,1-6.5-1.9l-1.5,2.4a8.8,8.8,0,0,0,5.7,2.4v4.8h2.8V79.4C69.9,79,72.4,77.5,72.4,74.7Z" fill="#60b22f"/>
        </g>
      </g>
    </g>
  </g>
</svg>
