<svg xmlns="http://www.w3.org/2000/svg" width="70.6mm" height="70.6mm" viewBox="0 0 200 200">
  <g id="Warstwa_2" data-name="Warstwa 2">
    <g id="Warstwa_1-2" data-name="Warstwa 1">
      <g>
        <g>
          <circle cx="100" cy="100" r="94" fill="#f5f4f5"/>
          <path d="M100,12a88,88,0,1,1-88,88,88,88,0,0,1,88-88m0-12A100,100,0,1,0,200,100,100.2,100.2,0,0,0,100,0Z" fill="#2a2a2b"/>
        </g>
        <g>
          <path d="M110.2,99.9a10,10,0,1,0-10,10A10,10,0,0,0,110.2,99.9Z" fill="#c63f18"/>
          <path d="M105.6,84.4l15.9-32.2,15.9,32.4,2-.7,16.1-47.4H87.4l16,47.3A7.9,7.9,0,0,1,105.6,84.4Z" fill="#c63f18"/>
          <path d="M143.2,109.9a10,10,0,1,0-9.9-10A10,10,0,0,0,143.2,109.9Z" fill="#c63f18"/>
          <path d="M57,90a10,10,0,1,0,10,10A9.9,9.9,0,0,0,57,90Z" fill="#c63f18"/>
          <path d="M51.1,161.2c13,9.1,26.9,2.2,42.9-5.8,8-4,16.3-8.1,24.9-10.2a82.1,82.1,0,0,1,9.7-1.7c6-.9,11.6-1.7,16.3-4.4a19.4,19.4,0,0,0,7.7-25.7,16.5,16.5,0,0,1-25.8-13.3H116.7a16.5,16.5,0,0,1-16.5,16.3H97.8A63.4,63.4,0,0,1,88,127.9a56.1,56.1,0,0,1-19.6,12.2l-1.3.5-1.2-.7c-9.1-4.6-13.4-14.5-10.7-23.6a14.3,14.3,0,0,1-4.2-1l-1.4,2.8c-2.7,5.5-5.5,11.3-6.5,17.5S41.5,154.6,51.1,161.2Z" fill="#c63f18"/>
        </g>
      </g>
    </g>
  </g>
</svg>
