<svg xmlns="http://www.w3.org/2000/svg" width="70.6mm" height="70.6mm" viewBox="0 0 200 200">
  <g style="isolation: isolate">
    <g id="Warstwa_2" data-name="Warstwa 2">
      <g id="Warstwa_1-2" data-name="Warstwa 1">
        <g>
          <g>
            <circle cx="100" cy="100" r="94" fill="#f5f4f5"/>
            <path d="M100,12a88,88,0,1,1-88,88,88,88,0,0,1,88-88m0-12A100,100,0,1,0,200,100,100.2,100.2,0,0,0,100,0Z" fill="#2a2a2b"/>
          </g>
          <g>
            <path d="M146.5,153.7l-44.2,18.6a4.3,4.3,0,0,1-4.6,0L53.5,153.7a5.4,5.4,0,0,1-2.4-4.2L45.9,38.4A5.1,5.1,0,0,1,50.7,33h98.6a5.1,5.1,0,0,1,4.8,5.4l-5.2,111.1A5.4,5.4,0,0,1,146.5,153.7Z" fill="#ecbf56"/>
            <path d="M50.7,33H100V173a3.9,3.9,0,0,1-2.3-.7L53.5,153.7a5.4,5.4,0,0,1-2.4-4.2L45.9,38.4A5.1,5.1,0,0,1,50.7,33Z" fill="#1d1d1b" opacity="0.15" style="mix-blend-mode: darken"/>
            <polygon points="143.1 55.5 143.1 55.5 69.9 55.5 66.3 76.3 76.7 100.6 89.3 100.6 123.7 100.6 120.5 131.8 100.7 138.4 76.2 126.8 74.8 113.4 63.5 113.4 65.8 134.6 77.5 139.5 77.5 139.5 100.7 150.5 113.4 146.3 118.1 144.8 131 140.4 134.1 139.3 139.2 92.6 139.6 88.4 84 88.4 79 76.3 80.4 67.6 105.6 67.6 127.3 67.6 126.4 76.3 141 76.3 142.4 63.4 143.2 55.5 143.1 55.5" fill="#f5f4f5"/>
          </g>
        </g>
      </g>
    </g>
  </g>
</svg>
