<svg xmlns="http://www.w3.org/2000/svg" width="70.6mm" height="70.6mm" viewBox="0 0 200 200">
  <g id="Warstwa_2" data-name="Warstwa 2">
    <g id="Warstwa_1-2" data-name="Warstwa 1">
      <g>
        <g>
          <circle cx="100" cy="100" r="94" fill="#f5f4f5"/>
          <path d="M100,12a88,88,0,1,1-88,88,88,88,0,0,1,88-88m0-12A100,100,0,1,0,200,100,100.2,100.2,0,0,0,100,0Z" fill="#2a2a2b"/>
        </g>
        <g>
          <polygon points="37.5 49.1 140.3 49.1 140.3 150.9 37.5 150.9 37.5 49.1" fill="#f6df1c"/>
          <path d="M106.7,129c2.1,3.4,4.8,5.9,9.5,5.9s6.6-2,6.6-4.8-2.6-4.5-7-6.4l-2.5-1.1c-7-2.9-11.6-6.7-11.6-14.6s5.5-12.8,14.2-12.8c6.1,0,10.6,2.2,13.8,7.8l-7.6,4.8c-1.6-2.9-3.4-4.1-6.2-4.1s-4.6,1.8-4.6,4.1,1.8,4.1,5.9,5.9l2.4,1.1c8.3,3.5,12.9,7.1,12.9,15.2s-6.8,13.5-16,13.5-14.9-4.3-17.7-9.9l7.9-4.6Zm34.9,0c2.1,3.4,4.8,5.9,9.6,5.9s6.6-2,6.6-4.8-2.7-4.5-7.1-6.4l-2.4-1.1c-7-2.9-11.6-6.7-11.6-14.6s5.5-12.8,14.1-12.8c6.2,0,10.6,2.2,13.8,7.8l-7.5,4.8c-1.7-2.9-3.5-4.1-6.3-4.1s-4.6,1.8-4.6,4.1,1.8,4.1,6,5.9l2.4,1.1c8.2,3.5,12.9,7.1,12.9,15.2s-6.9,13.5-16.1,13.5-14.8-4.3-17.6-9.9l7.8-4.6Zm-69.2.8c1.6,2.7,3,5,6.3,5s5.2-1.2,5.2-6.1V95.8h9.7v33.1c0,10-5.9,14.6-14.5,14.6s-12.3-4.1-14.5-8.9l7.8-4.8Z" fill="#010101"/>
        </g>
      </g>
    </g>
  </g>
</svg>
