<svg xmlns="http://www.w3.org/2000/svg" width="70.6mm" height="70.6mm" viewBox="0 0 200 200">
  <g id="Warstwa_2" data-name="Warstwa 2">
    <g id="Warstwa_1-2" data-name="Warstwa 1">
      <g>
        <g>
          <circle cx="100" cy="100" r="94" fill="#f5f4f5"/>
          <path d="M100,12a88,88,0,1,1-88,88,88,88,0,0,1,88-88m0-12A100,100,0,1,0,200,100,100.2,100.2,0,0,0,100,0Z" fill="#2a2a2b"/>
        </g>
        <g>
          <path d="M95.9,160.7c32.4,0,58.6-27.2,58.6-60.6a57.7,57.7,0,0,0-.8-9.4c0,1,.1,2.1.1,3.1,0,29.3-23,53.1-51.3,53.1a49.8,49.8,0,0,1-32-11.5c-4.1,3.4-6.9,6.1-15.2,8.7,10.7,10,25,16.6,40.6,16.6" fill="#17202d" fill-rule="evenodd"/>
          <path d="M51.1,93.6c0-29.3,23-53.2,51.4-53.2a56.7,56.7,0,0,1,7.1.6,58.1,58.1,0,0,0-13.9-1.7c-32.4,0-58.6,27.2-58.6,60.6A71.3,71.3,0,0,0,41,122.2a51.5,51.5,0,0,1,13.4-9.5,49.8,49.8,0,0,1-3.3-19.1" fill="#17202d" fill-rule="evenodd"/>
          <path d="M85.6,83.8c-10.3-3.7-20.3-.7-24.9,1.1A38.7,38.7,0,0,1,75.4,97.4c2.8-4.2,9.3-12.3,10.2-13.6" fill="#17202d" fill-rule="evenodd"/>
          <path d="M106.1,114c-.1-1.3-.3-2.7-.5-4.1a115.5,115.5,0,0,1-11.1,6.6,12.4,12.4,0,0,0-2,1L89.3,119l-.7.3a10.9,10.9,0,0,1,.5,1.4l.6,1.4a12.7,12.7,0,0,1,.4,1.4c.3.8.6,1.8.9,2.8l.4,1.7.4,1.7a46.5,46.5,0,0,1,1.3,10.1c0,.8-.2,1.5-.2,2.4a30.8,30.8,0,0,0,13.2-24.9V114" fill="#17202d" fill-rule="evenodd"/>
          <path d="M159.8,47.6a36.7,36.7,0,0,1-12.6,18.9l-.4.5c-1.4,1.2-3.6.9-5.8-.7a6.3,6.3,0,0,1-2.5-4.4,7,7,0,0,1,.3-1.4c.1-.1.1-.3.3-.4a52.7,52.7,0,0,0,10.2-12.4,63.8,63.8,0,0,0-24.5,7.5c-11.9,6.3-23.5,17.5-32.9,28.5-.2.4-.7.7-.9,1.1l-1,1.1a178,178,0,0,0-12.1,16.3l-1,1.4c-.2.5-.7,1-.9,1.5-1.3,2-3.1,5.1-4,6.6a16.4,16.4,0,0,1,5.6,9.4l5.5-1.4-1-2.1a1,1,0,0,1,.6-1.5,122.2,122.2,0,0,0,25.1-14.3.7.7,0,0,1,1.1.4c.4,2.2,1.1,5.9,1.3,7.4a63.8,63.8,0,0,0,5.6-3.1c17-9.7,39.4-27.5,51.1-57.8A44,44,0,0,0,159.8,47.6ZM110.2,97.4a5.4,5.4,0,1,1,5.2-5.3A5.2,5.2,0,0,1,110.2,97.4Zm11.6-9.1A5.4,5.4,0,1,1,127,83,5.3,5.3,0,0,1,121.8,88.3Zm11.3-9a5.4,5.4,0,1,1,5.1-5.3A5.2,5.2,0,0,1,133.1,79.3Z" fill="#17202d" fill-rule="evenodd"/>
          <path d="M67.7,114.9c-1.3-.2-4.9-.7-10.8,2.3h-.3A59,59,0,0,0,43.4,127h-.1l-.2.2a159.2,159.2,0,0,0-14.3,16.1,97.2,97.2,0,0,0,22.6-3.3h.3c5.7-1.7,11.2-4.3,15.1-8l.2-.2h.1c5.2-4.9,5.9-8,6.1-9.7S70.5,115.2,67.7,114.9Zm.8,4.8-1.4,1.1-1.2,1a10.6,10.6,0,0,0-1.2,1c-.9.7-2.1,1.5-3.1,2.4l-6.5,4.9s3-7.9,2.6-7.7c-4.3,1.2-10.1,6.4-12.3,8.4h-.2v.2a2.1,2.1,0,0,1-.7.5l.6-.7h.2a42.5,42.5,0,0,1,11.4-10.3c2.9-1.7,9.4-4.2,11.4-1.7C68.4,119.1,68.7,119.4,68.5,119.7Z" fill="#17202d" fill-rule="evenodd"/>
        </g>
      </g>
    </g>
  </g>
</svg>
