<svg xmlns="http://www.w3.org/2000/svg" width="70.6mm" height="70.6mm" viewBox="0 0 200 200">
  <g id="Warstwa_2" data-name="Warstwa 2">
    <g id="Warstwa_1-2" data-name="Warstwa 1">
      <g>
        <g>
          <circle cx="100" cy="100" r="94" fill="#f5f4f5"/>
          <path d="M100,12a88,88,0,1,1-88,88,88,88,0,0,1,88-88m0-12A100,100,0,1,0,200,100,100.2,100.2,0,0,0,100,0Z" fill="#2a2a2b"/>
        </g>
        <g>
          <polygon points="30 113.4 30 52.8 82.5 83.1 82.5 103.3 47.5 83.1 47.5 123.5 30 113.4" fill="#43a8df"/>
          <polygon points="82.5 83.1 135 52.8 135 113.4 100 133.6 82.5 123.5 117.5 103.3 117.5 83.1 82.5 103.3 82.5 83.1" fill="#1880c4"/>
          <polygon points="82.5 123.5 82.5 143.7 117.5 163.9 117.5 143.7 82.5 123.5" fill="#43a8df"/>
          <path d="M117.5,163.9,170,133.6V93.2l-17.5,10.1v20.2l-35,20.2Zm35-80.8V62.9L170,52.8V73Z" fill="#1880c4"/>
        </g>
      </g>
    </g>
  </g>
</svg>
