<svg xmlns="http://www.w3.org/2000/svg" width="70.6mm" height="70.6mm" viewBox="0 0 200 200">
  <g id="Warstwa_2" data-name="Warstwa 2">
    <g id="Warstwa_1-2" data-name="Warstwa 1">
      <g>
        <g>
          <circle cx="100" cy="100" r="94" fill="#f5f4f5"/>
          <path d="M100,12a88,88,0,1,1-88,88,88,88,0,0,1,88-88m0-12A100,100,0,1,0,200,100,100.2,100.2,0,0,0,100,0Z" fill="#2a2a2b"/>
        </g>
        <g>
          <path d="M130.3,85.7c-7.4-32.5-22.8-41.2-26.7-47.3A66.1,66.1,0,0,1,99.4,30c-.3,2.9-.6,4.7-3.1,6.9-4.9,4.4-25.9,21.5-27.6,58.4-1.7,34.5,25.3,55.8,28.9,58s6.1,0,7.7-1.2c13-9,30.7-32.8,25-66.4" fill="#1da851"/>
          <path d="M100.5,134.9c-.7,8.5-1.2,13.5-2.9,18.4,0,0,1.1,8.1,1.9,16.7h2.8a153.8,153.8,0,0,1,3.1-18C101.7,150.2,100.6,142.4,100.5,134.9Z" fill="#b8c4c2"/>
          <path d="M105.4,152h0c-3.7-1.7-4.8-9.7-4.9-17.1.9-12.2,1.1-24.5.8-36.8-.2-6.4.1-59.6-1.6-67.4a69.9,69.9,0,0,0,3.9,7.7c4,6.1,19.3,14.8,26.7,47.3C136,119.2,118.4,143,105.4,152Z" fill="#16934f"/>
        </g>
      </g>
    </g>
  </g>
</svg>
