<svg xmlns="http://www.w3.org/2000/svg" width="70.6mm" height="70.6mm" viewBox="0 0 200 200">
  <g id="Warstwa_2" data-name="Warstwa 2">
    <g id="Warstwa_1-2" data-name="Warstwa 1">
      <g>
        <g>
          <circle cx="100" cy="100" r="94" fill="#f5f4f5"/>
          <path d="M100,12a88,88,0,1,1-88,88,88,88,0,0,1,88-88m0-12A100,100,0,1,0,200,100,100.2,100.2,0,0,0,100,0Z" fill="#2a2a2b"/>
        </g>
        <path d="M113.7,120.6l-34.3-7.2a5.6,5.6,0,0,1-.5.8l31.3,45.6,1.9-1.9,5.3-33a6.6,6.6,0,0,1-3.7-4.3ZM101.2,75.7a7.1,7.1,0,0,1-6,3.3H94L78.4,103.4l41.8-18c0-.2-.1-.3-.1-.5a3,3,0,0,1,.2-1l-19.1-8.2Zm1.1-4.4,20.3,8.6a7.6,7.6,0,0,1,2.2-1.1l3.3-20.7L115.4,45.4,101.1,67.8a7,7,0,0,1,1.2,3.5Zm42.5,3.5L132.1,62.1l-2.8,17.2a5.2,5.2,0,0,1,1.9,1.4l13.6-5.9Zm-30.5,41.3a6.4,6.4,0,0,1,5-3.2L123,90.2l-.8-.7L80.1,107.6a6.8,6.8,0,0,1,.2,1.4l34,7.1Zm34-37.8-14.7,6.3,36.3,15.5h.1L148.3,78.3ZM122,124.9l-4.5,27.5,25.7-25.6-18.5-3.9a6,6,0,0,1-2.7,2Zm-49.9-7a7.6,7.6,0,0,1-2.7-.5l-8.5,13.4-3.3-3.3,8.1-12.7c-.3-.2-.4-.5-.6-.7l-14.6,6.3L47,116.9,63,110l-29-6-3.9-4,1.2-1.3,33.4,7a9.5,9.5,0,0,1,1.5-2L50,80.1l3.3-3.3,16.9,24.7,1.9-.2a6.4,6.4,0,0,1,2,.3L90,76.8a7,7,0,0,1-2-5,5,5,0,0,1,.2-1.7L68.4,61.7l3.5-3.5,18.7,8a7.1,7.1,0,0,1,4.6-1.6,5.9,5.9,0,0,1,2.3.4l14.6-22.9L100,30,30,100l70,70,6.9-6.9L75.4,117.2a9.3,9.3,0,0,1-3.3.7Zm55.3-26.8-3.7,23.1a6.6,6.6,0,0,1,2.3,4.3l21.1,4.4,19.3-19.3L131.5,88.7a5.8,5.8,0,0,1-4.1,2.4Z" fill="#48b9b0"/>
      </g>
    </g>
  </g>
</svg>
