<svg xmlns="http://www.w3.org/2000/svg" width="70.6mm" height="70.6mm" viewBox="0 0 200 200">
  <g id="Warstwa_2" data-name="Warstwa 2">
    <g id="Warstwa_1-2" data-name="Warstwa 1">
      <g>
        <g>
          <circle cx="100" cy="100" r="94" fill="#f5f4f5"/>
          <path d="M100,12a88,88,0,1,1-88,88,88,88,0,0,1,88-88m0-12A100,100,0,1,0,200,100,100.2,100.2,0,0,0,100,0Z" fill="#2a2a2b"/>
        </g>
        <path d="M95.4,30l-2.1.2A70.3,70.3,0,0,0,30.6,89.8,60.1,60.1,0,0,0,30,100a59.4,59.4,0,0,0,.6,10.2,70.3,70.3,0,0,0,47.9,56.6,79,79,0,0,0,14.8,3,99.9,99.9,0,0,0,13.4,0,69.6,69.6,0,0,0,25.2-7.3c1.2-.7,1.5-.8,1.3-1s-5.2-6.9-11.4-15.3l-11.2-15.1-14-20.7L82.5,89.6c-.1,0-.2,9.2-.2,20.5,0,19.7,0,20.5-.3,21a2.3,2.3,0,0,1-1.2,1.2c-.4.2-.8.3-2.9.3H75.6l-.7-.4a2.8,2.8,0,0,1-.9-1l-.3-.6V75.7l.4-.5a4.3,4.3,0,0,1,1-.9c.6-.3.8-.3,3.2-.3s3.2.1,4,.9,7.8,11.7,16.8,25.5l27.7,41.8,11,16.8.6-.4a70.4,70.4,0,0,0,30.9-48.4A59.4,59.4,0,0,0,170,100a60.1,60.1,0,0,0-.6-10.2,70,70,0,0,0-47.9-56.5,71.1,71.1,0,0,0-14.6-3.1c-1.3-.1-10.3-.3-11.5-.2Zm28.7,42.4a2.8,2.8,0,0,1,1.4,1.6c.1.3.1,8,.1,25.1v24.6l-4.3-6.7-4.4-6.6V92.5c0-11.5.1-18,.2-18.4a3.1,3.1,0,0,1,1.3-1.7c.6-.3.8-.3,2.9-.3S123.6,72.1,124.1,72.4Z" fill="#010101"/>
      </g>
    </g>
  </g>
</svg>
