<svg xmlns="http://www.w3.org/2000/svg" width="70.6mm" height="70.6mm" viewBox="0 0 200 200">
  <g id="Warstwa_2" data-name="Warstwa 2">
    <g id="Warstwa_1-2" data-name="Warstwa 1">
      <g>
        <g>
          <circle cx="100" cy="100" r="94" fill="#f5f4f5"/>
          <path d="M100,12a88,88,0,1,1-88,88,88,88,0,0,1,88-88m0-12A100,100,0,1,0,200,100,100.2,100.2,0,0,0,100,0Z" fill="#2a2a2b"/>
        </g>
        <path d="M100,170a11.4,11.4,0,0,1-5.4-1.4L77.5,158.4c-2.6-1.4-1.3-1.9-.5-2.2a30.3,30.3,0,0,0,7.7-3.4,1.1,1.1,0,0,1,1.3.1l13.1,7.8a1.4,1.4,0,0,0,1.5,0L152,131c.5-.2.7-.7.7-1.4V70.3a1.5,1.5,0,0,0-.7-1.4L100.6,39.3a1.9,1.9,0,0,0-1.5,0L47.8,68.9a1.7,1.7,0,0,0-.8,1.4v59.3a1.6,1.6,0,0,0,.8,1.4l14,8.1c7.6,3.9,12.3-.6,12.3-5.1V75.5a1.6,1.6,0,0,1,1.6-1.6h6.6a1.6,1.6,0,0,1,1.5,1.6V134c0,10.1-5.5,16.1-15.2,16.1-2.9,0-5.3,0-11.8-3.3l-13.5-7.7a10.7,10.7,0,0,1-5.4-9.4V70.5a10.7,10.7,0,0,1,5.4-9.4L94.6,31.4a10.9,10.9,0,0,1,10.8,0l51.3,29.7a10.7,10.7,0,0,1,5.4,9.4v59.2a10.7,10.7,0,0,1-5.4,9.4l-51.3,29.7A12.9,12.9,0,0,1,100,170Zm15.8-40.8c-22.5,0-27.1-10.3-27.1-19a1.6,1.6,0,0,1,1.5-1.6h6.7a1.3,1.3,0,0,1,1.4,1.3c1.1,6.9,4,10.2,17.6,10.2,10.9,0,15.5-2.4,15.5-8.2,0-3.4-1.3-5.8-18.2-7.5-14-1.4-22.7-4.5-22.7-15.7s8.7-16.6,23.4-16.6c16.5,0,24.6,5.7,25.6,18a1.6,1.6,0,0,1-1.4,1.7h-6.7a1.4,1.4,0,0,1-1.4-1.2c-1.6-7-5.6-9.3-16.1-9.3s-13.3,4.1-13.3,7.2,1.7,4.8,17.7,6.9,23.2,5,23.2,16.1-9.3,17.7-25.7,17.7Z" fill="#549e42"/>
      </g>
    </g>
  </g>
</svg>
