<svg xmlns="http://www.w3.org/2000/svg" width="70.6mm" height="70.6mm" viewBox="0 0 200 200">
  <g id="Warstwa_2" data-name="Warstwa 2">
    <g id="Warstwa_1-2" data-name="Warstwa 1">
      <g>
        <g>
          <circle cx="100" cy="100" r="94" fill="#f5f4f5"/>
          <path d="M100,12a88,88,0,1,1-88,88,88,88,0,0,1,88-88m0-12A100,100,0,1,0,200,100,100.2,100.2,0,0,0,100,0Z" fill="#2a2a2b"/>
        </g>
        <g>
          <path d="M174.9,116.2a2.6,2.6,0,0,0-.5-1.2,6.9,6.9,0,0,0,.5-2.4v-.3c-.1-18.2-15.1-33.6-32.9-33.6a32.7,32.7,0,0,0-24.9,11.4L111,80.6a.4.4,0,0,0,.1-.3v-22a2.9,2.9,0,0,0-2.9-2.9H87.9A2.9,2.9,0,0,0,85,58.3V79.8a2.9,2.9,0,0,0,.2.9,2.8,2.8,0,0,0,.3,2.5l.2.3a2.9,2.9,0,0,0-.7,1.8V97.2L61,56.8a3.1,3.1,0,0,0-2.5-1.4H37.9A2.9,2.9,0,0,0,35,58.3v83.4a2.9,2.9,0,0,0,2.9,2.9H58.3a2.9,2.9,0,0,0,2.9-2.9V102.5L85,141l.5.6a4,4,0,0,0,.3,1.5,3.1,3.1,0,0,0,2.6,1.5h19.8a3.1,3.1,0,0,0,2.4-1.3l6.2-9.6,6.4,9.6a2.8,2.8,0,0,0,2.4,1.3h19.8a2.9,2.9,0,0,0,2.5-1.5,3,3,0,0,0-.1-2.9l-17.4-27.5a2,2,0,0,0,.8-.8,8.2,8.2,0,0,1,6.7-3.6,7.2,7.2,0,0,1,2.9.6l.8.3c1.8.7,4,1.7,6.3,1.7h0l1.4-.2a7.1,7.1,0,0,0,5.8,3.1,4.7,4.7,0,0,0,1.7-.3l.5.4a10.3,10.3,0,0,0,5,2.6h.2a6.6,6.6,0,0,0,2.2,1.9.9.9,0,0,0,.7.3,4.4,4.4,0,0,0-.6,3.5,4.6,4.6,0,0,0,2.5,2.9,4.4,4.4,0,0,0,1.9.4c1,0,3.5-.3,4.9-3.6A10.1,10.1,0,0,0,174.9,116.2Z" fill="#346791"/>
          <path id="Path" d="M162.9,112.9c0-2.5-1.3-3.1-4.1-4.1s-4.5-1.6-6.2-3.8a13,13,0,0,1-1-1.5,13.1,13.1,0,0,0-3-3.6,11,11,0,0,0-6.6-1.8,13.8,13.8,0,0,0-12.8,8.6,13,13,0,0,1,22.3,2.2,4.2,4.2,0,0,0,4.7,1.8c2.8-.5,2.6,2.1,6.7,2.9Z" fill="#4fc1e2"/>
          <polygon id="Path-2" data-name="Path" points="104.9 112 87.9 85.3 87.9 107.7 58.5 58.3 37.9 58.3 37.9 141.7 58.3 141.7 58.4 92.4 87.4 139.5 104.9 112" fill="#fff"/>
          <polygon id="Path-3" data-name="Path" points="87.9 79.7 108.3 79.7 108.3 79.5 108.3 58.3 87.9 58.3 87.9 79.5 87.9 79.7" fill="#fff"/>
          <path id="Path-4" data-name="Path" d="M139.8,102.9a11.5,11.5,0,0,0-11,7.4,11,11,0,0,1,13.1-4.1c2.2.9,5.1,2.4,7.4,1.6a11.6,11.6,0,0,0-9.5-4.9Z" fill="#98d5e6"/>
          <path id="Path-5" data-name="Path" d="M172,112.4h0c0-16.5-13.5-30.7-30-30.7a30.1,30.1,0,0,0-25.1,13.5h-.1l-8.5-13.4H87.9l19.4,30.3L88.4,141.7h19.8l8.6-13.2,8.8,13.2h19.8l-18-28.3a3.4,3.4,0,0,1-.5-1.7,15.2,15.2,0,0,1,4.4-10.7A15.4,15.4,0,0,1,142,96.6c8.3,0,9.7,5,11.5,7.3,3.5,4.6,10.6,2.6,10.6,8.6h0a3.9,3.9,0,0,0,2,3.4,3.9,3.9,0,0,0,5.9-3.5Z" fill="#fff"/>
          <path id="Path-6" data-name="Path" d="M172,116.6a8.6,8.6,0,0,1-.5,4.2c-1.2,2.6-3,1.7-3,1.7a1.5,1.5,0,0,1-.7-2.3C168.9,118.5,171.1,118.7,172,116.6Z" fill="#fff"/>
        </g>
      </g>
    </g>
  </g>
</svg>
