<svg xmlns="http://www.w3.org/2000/svg" width="70.6mm" height="70.6mm" viewBox="0 0 200 200">
  <g id="Warstwa_2" data-name="Warstwa 2">
    <g id="Warstwa_1-2" data-name="Warstwa 1">
      <g>
        <g>
          <circle cx="100" cy="100" r="94" fill="#f5f4f5"/>
          <path d="M100,12a88,88,0,1,1-88,88,88,88,0,0,1,88-88m0-12A100,100,0,1,0,200,100,100.2,100.2,0,0,0,100,0Z" fill="#2a2a2b"/>
        </g>
        <g>
          <path d="M162.7,57.9h0a5.9,5.9,0,0,0-4.2-.7h0a6.3,6.3,0,0,0-3.7,2.1h0a4.3,4.3,0,0,0-1.1,3,31.9,31.9,0,0,0-9.4,2.6,9.5,9.5,0,0,0-4.8-6.5h-.2l3.4-2.8a5.4,5.4,0,0,0,2.6.9,5.6,5.6,0,0,0,2-.3,8.1,8.1,0,0,0,1.8-1,5.5,5.5,0,0,0,2-3.5,4.8,4.8,0,0,0-1.1-3.7,5.2,5.2,0,0,0-3.6-1.8h0a5.4,5.4,0,0,0-3.9,1.3h0a5.5,5.5,0,0,0-2,3.5h0a4.9,4.9,0,0,0,.7,3.2l-4,3.3a17.7,17.7,0,0,0-5.8-.8,29.8,29.8,0,0,0-9.6,2.1L118.6,60a7.2,7.2,0,0,0-1.6-3.4c-1.1-1.3-2.2-1.6-3.5-1s-1.9,1.6-2.6,3.4h0a19.1,19.1,0,0,0-1,6.4,63.2,63.2,0,0,0-8.3,7.5,52.1,52.1,0,0,0-15.9,3h75.8l-.7-.5a20.5,20.5,0,0,0-6.7-2,44.1,44.1,0,0,0-9.8-.4c.2-1.1.3-2.2.4-3.1a26.2,26.2,0,0,0-.1-2.9,29.2,29.2,0,0,1,9.4-2.7,4.7,4.7,0,0,0,1.7,1.8c0,.1.1.1.2.2h.2a6,6,0,0,0,4.2.6,5.7,5.7,0,0,0,3.7-2,4.8,4.8,0,0,0,1.1-3.9,4.6,4.6,0,0,0-2.4-3.2Zm-20-3.6Z" fill="#fff"/>
          <path d="M172.9,77.9a4,4,0,0,0-2.9.5h0a3.2,3.2,0,0,0-1.2,1.1,18.3,18.3,0,0,0-4.7-.3,5.5,5.5,0,0,0-2.6-3.3H85.7a52.6,52.6,0,0,0-8.9,4.4,13.4,13.4,0,0,1,.5-3.5,6.1,6.1,0,0,0,1.8-.5h.1l.4-.3H72.2l-1.1.9H71a10.5,10.5,0,0,1-5,1.5,14.6,14.6,0,0,0,1.7-2.4h-31a6.4,6.4,0,0,0,1,2.4,8.2,8.2,0,0,0,4.7,3.6,21.8,21.8,0,0,0,6.8,1.8l2,.2a17.8,17.8,0,0,0-4.3,3.2q-2.9,2.9-2.7,5.4l-.6.2-2.1,1,2.1.9A13.8,13.8,0,0,1,47.7,97a1.9,1.9,0,0,0,.3,1h0a3.1,3.1,0,0,0,1.3,1.5h0a2.8,2.8,0,0,0,2,.2h.1A2.4,2.4,0,0,0,53.2,97v-.5h0a2.7,2.7,0,0,0-.9-1.2h0l-.5-.3h0a2.7,2.7,0,0,0-1.2-.3,3.6,3.6,0,0,1-.4-.9,1.1,1.1,0,0,1,0-.8c.5-1.4,2.5-2.5,6.1-3.4h.1l1,2.4,2.1,3.8-2.9,1.7h0a107.2,107.2,0,0,0-11.5,8.3H167.2v-.6l-.3-.3a75,75,0,0,0-14.3-12.5l-1.3-.9-.3,1.8-7.3-3.2a85.2,85.2,0,0,0,12.4-3.4c4.8-1.8,7.5-3.7,8.1-5.6l4.1.2a3.4,3.4,0,0,0,.9,1.9h0a3.8,3.8,0,0,0,2.6,1.3,4.1,4.1,0,0,0,2.9-.5h0a3,3,0,0,0,1.6-2.3h0a3.2,3.2,0,0,0-.8-2.7,4.3,4.3,0,0,0-2.6-1.3ZM74,82h.2l-2.8,2.2.2.2-.2-.2-.2-.3v0l.8-.4A15.6,15.6,0,0,0,74,82Z" fill="#fff"/>
          <path d="M94.6,55.6a3,3,0,0,0-5.1-2.1h0a2.9,2.9,0,0,0-.9,2.1v.2l-.7.6a7.6,7.6,0,0,0-1.6-1.1l-1.2-.4a5.1,5.1,0,0,0-4,.7h0a4.4,4.4,0,0,0-2,3.5l-.5.2h-.3l-.5.3h0a13.3,13.3,0,0,0-3.3,2.1h-.1a13.2,13.2,0,0,0-2.8,3,14.2,14.2,0,0,0-.8,1.8,15,15,0,0,0-.4-3.7,9.3,9.3,0,0,0-4.6-6.1A32.6,32.6,0,0,0,58,54.2h0l-4.4-1L49.3,52a21.9,21.9,0,0,1-7.5-4l-2.4-2,.7,3a20.3,20.3,0,0,1,.1,7.8h0c-.3,1.6-1,4.2-2,7.6a45.9,45.9,0,0,0-1.8,7.2h0a12,12,0,0,0,.3,4.3h31a15.1,15.1,0,0,0,1.1-2.2,16.2,16.2,0,0,0,1.6-4.5,4.7,4.7,0,0,0,.6,1.5h.1A4.2,4.2,0,0,0,74,72.3a5,5,0,0,0-.1,1.7,10.5,10.5,0,0,1-1.7,1.9h7.4a3.7,3.7,0,0,0,1.3-1.7h0V74a3.4,3.4,0,0,0,0-2.8l-.4-.6h0l-.2-.2h0a16.8,16.8,0,0,0,3.4-2.7h0a3.9,3.9,0,0,0,.8-1,4.7,4.7,0,0,0,3.7-.7,4.5,4.5,0,0,0,2.1-3.8v-1a5.1,5.1,0,0,0-.2-1.3h0l-.3-.8.8-.6h1a3.2,3.2,0,0,0,2.1-.8h0a2.7,2.7,0,0,0,.9-2.1ZM82.8,58.7c0-.2.2-.3.3-.4a1.9,1.9,0,0,1,1.5-.2l-1.8.6ZM86.3,63a.1.1,0,0,1-.1.1l.3-.5h0a.1.1,0,0,1,.1-.1h0a2.1,2.1,0,0,1,.4-.6,1.4,1.4,0,0,1-.7,1.1Zm-.1-.1h0Z" fill="#fff"/>
          <path d="M41,109.2l-.3.3v.4a59.9,59.9,0,0,0,3.4,24.6l.3.4.4.2h.1l2.8.7H143a31.4,31.4,0,0,0,1.8-3.1,21.7,21.7,0,0,0,1.5-3.5l1.9.3,1.1-1.3.8,7.6h2.6l3.6-.2h.3l8.1-2.4-2.1-13.2,3.1-2.4h0a.5.5,0,0,0,.3-.5,33.5,33.5,0,0,0,1.2-11H44.9q-1.9,1.5-3.9,3.3Z" fill="#fff"/>
          <path d="M63.1,140.5H63a2.7,2.7,0,0,0-1.3,1.9h0a3.8,3.8,0,0,0,.4,2.3h0l.5.6-.7,1.9L59,145.9h0l-1-.4-1.2-.5-.7,7.1a9.4,9.4,0,0,0-2.7,5.6h0c-.3,2.2.6,4.1,2.6,5.8a7.6,7.6,0,0,0,6.6,2.1,8.6,8.6,0,0,0,5.6-3.9l7.3-2.1-.9-1.2-2-2.4,2.7-1.3.5.3a3,3,0,0,0,2.1.1h0a2.3,2.3,0,0,0,1.5-1.2,48.4,48.4,0,0,0,21.4,4.7,50.3,50.3,0,0,0,22-4.8l1.6-.9a49.2,49.2,0,0,0,9.8-6.8,44.7,44.7,0,0,0,8.8-10.4H47.7l10.2,2.6,2.2-2.4q1.4,2.3,3,4.5Zm4,4.6,1.1,1a8.6,8.6,0,0,0,1.4,1.3L67,150.7h-.2l-3.1-2.3.7-2a2.4,2.4,0,0,0,1.8-.4h0a2.4,2.4,0,0,0,.9-.8Zm4,3.6c1.1.9,2.3,1.7,3.5,2.5l-.3.4h0a2.9,2.9,0,0,0-.2,1.6l-2.9,1.4h-.1L68.6,152l2.5-3.3Z" fill="#fff"/>
          <polygon points="150.1 135.8 150.1 136 152.7 135.8 150.1 135.8 150.1 135.8" fill="#fff"/>
          <path d="M71.2,84v-.2m.5.7-.2-.2" fill="none" stroke="#fff" stroke-miterlimit="10" stroke-width="0.01"/>
          <path d="M170.6,80.8a28.3,28.3,0,0,0-8.7-.5" fill="none" stroke="#000" stroke-linecap="round" stroke-linejoin="round" stroke-width="1.02"/>
          <path d="M155.8,85.8c5.5-2,8-4.1,7.4-6.1a5.3,5.3,0,0,0-2.9-3.4,18.7,18.7,0,0,0-6.4-1.9c-5.5-.9-12.3-.5-20.2,1l-2.2,16c10.6-1.6,18.7-3.5,24.3-5.6Z" fill="#05756c"/>
          <path d="M162.6,79.9a4.7,4.7,0,0,0-2.9-2.6,17.9,17.9,0,0,0-6.1-1.3c-5.3-.4-11.8.3-19.5,2L132,91.7c10.2-2,18-4,23.4-6.1s7.7-4,7.2-5.7Z" fill="#2b5a54"/>
          <path d="M131.5,91.4c10.6-1.6,18.7-3.5,24.3-5.6s8-4.1,7.4-6.1a5.3,5.3,0,0,0-2.9-3.4,18.7,18.7,0,0,0-6.4-1.9c-5.5-.9-12.3-.5-20.2,1" fill="none" stroke="#000" stroke-linecap="round" stroke-linejoin="round" stroke-width="1.02"/>
          <path d="M174.7,79.9a3.5,3.5,0,0,0-2-1,4.1,4.1,0,0,0-2.2.3,2.2,2.2,0,0,0-1.1,1.6,2.3,2.3,0,0,0,.6,1.9,3.2,3.2,0,0,0,1.9,1,3.5,3.5,0,0,0,2.3-.4,2.1,2.1,0,0,0,1.1-1.5,2.3,2.3,0,0,0-.6-1.9Z" fill="#ed6e7e"/>
          <path d="M174.5,80.9a2.3,2.3,0,0,0-1.3-.7,2.2,2.2,0,0,0-1.4.3,1.3,1.3,0,0,0-.4,2.2,2.4,2.4,0,0,0,2.8.5,1.4,1.4,0,0,0,.7-1.1,1.2,1.2,0,0,0-.4-1.2Z" fill="#b35a64"/>
          <path d="M172.7,78.9a4.1,4.1,0,0,0-2.2.3,2.2,2.2,0,0,0-1.1,1.6,2.3,2.3,0,0,0,.6,1.9,3.2,3.2,0,0,0,1.9,1,3.5,3.5,0,0,0,2.3-.4,2.1,2.1,0,0,0,1.1-1.5,2.3,2.3,0,0,0-.6-1.9,3.5,3.5,0,0,0-2-1Z" fill="none" stroke="#000" stroke-linecap="round" stroke-linejoin="round" stroke-width="1.02"/>
          <path d="M157.2,79.2a2.6,2.6,0,0,0-1.2-2.1,4.6,4.6,0,0,0-2.9-.9,4.8,4.8,0,0,0-2.9.9,2.6,2.6,0,0,0-1.2,2.1,2.6,2.6,0,0,0,1.2,2.2,4.8,4.8,0,0,0,2.9.9,4.6,4.6,0,0,0,2.9-.9,2.6,2.6,0,0,0,1.2-2.2Z" fill="#fed067"/>
          <path d="M156,77.1a4.6,4.6,0,0,0-2.9-.9,4.8,4.8,0,0,0-2.9.9,2.6,2.6,0,0,0-1.2,2.1,2.6,2.6,0,0,0,1.2,2.2,4.8,4.8,0,0,0,2.9.9,4.6,4.6,0,0,0,2.9-.9,2.6,2.6,0,0,0,1.2-2.2,2.6,2.6,0,0,0-1.2-2.1Z" fill="none" stroke="#000" stroke-linecap="round" stroke-linejoin="round" stroke-width="0.61"/>
          <path d="M153.9,79c0-.3-.2-.5-.5-.7a1.7,1.7,0,0,0-1-.3,1.8,1.8,0,0,0-1.1.3c-.3.2-.5.4-.5.7a1,1,0,0,0,.5.8,1.8,1.8,0,0,0,1.1.3,1.7,1.7,0,0,0,1-.3,1,1,0,0,0,.5-.8Z" fill="#2f211e"/>
          <path d="M153.4,78.3a1.7,1.7,0,0,0-1-.3,1.8,1.8,0,0,0-1.1.3c-.3.2-.5.4-.5.7a1,1,0,0,0,.5.8,1.8,1.8,0,0,0,1.1.3,1.7,1.7,0,0,0,1-.3,1,1,0,0,0,.5-.8c0-.3-.2-.5-.5-.7Z" fill="none" stroke="#000" stroke-linecap="round" stroke-linejoin="round" stroke-width="0.61"/>
          <path d="M156.1,63a34.6,34.6,0,0,0-12.6,3.4m-.4-12.5-6.4,5.2" fill="none" stroke="#000" stroke-linecap="round" stroke-linejoin="round" stroke-width="1.02"/>
          <path d="M131.5,57.6a30.5,30.5,0,0,0-9.3,2,33,33,0,0,0-4.3,1.9,8.6,8.6,0,0,0-1.7-4.3,1.8,1.8,0,0,0-2.3-.7,5.3,5.3,0,0,0-2.1,2.9,19.6,19.6,0,0,0-.9,6.5,59,59,0,0,0-8.8,8c7.5,8.8,19.3,14.1,35.5,16,.9-1.9,1.7-3.9,2.5-6a14.6,14.6,0,0,0,5.4-.6,3.1,3.1,0,0,0,2.3-1.9c.3-.8-.1-1.5-1-2.2a8.9,8.9,0,0,0-4.6-1.4,49.7,49.7,0,0,0,1.5-8c.2-5.1-1.3-8.6-4.7-10.5a14.9,14.9,0,0,0-7.5-1.7Z" fill="#7fbf77"/>
          <path d="M137,61.2c-3.8-1.4-8.3-.9-13.3,1.5A29.1,29.1,0,0,0,111.3,74c7.1,2.9,15.9,7.7,26.3,14.4A16.2,16.2,0,0,0,139,86a18.9,18.9,0,0,0,1.1-2.5,9.8,9.8,0,0,0,4.3-.5q1.9-.7,1.8-2.1c-.2-1-1.9-1.5-5.3-1.6a41.6,41.6,0,0,0,.8-5.2,24.2,24.2,0,0,0-.1-6.1,10.2,10.2,0,0,0-1.1-3.6,6.7,6.7,0,0,0-1.7-2,4.7,4.7,0,0,0-1.8-1.2Z" fill="#709b64"/>
          <path d="M137.6,89.9c.9-1.9,1.7-3.9,2.5-6a14.6,14.6,0,0,0,5.4-.6,3.1,3.1,0,0,0,2.3-1.9c.3-.8-.1-1.5-1-2.2a8.9,8.9,0,0,0-4.6-1.4,49.7,49.7,0,0,0,1.5-8c.2-5.1-1.3-8.6-4.7-10.5a14.9,14.9,0,0,0-7.5-1.7,30.5,30.5,0,0,0-9.3,2,33,33,0,0,0-4.3,1.9,8.6,8.6,0,0,0-1.7-4.3,1.8,1.8,0,0,0-2.3-.7,5.3,5.3,0,0,0-2.1,2.9,19.6,19.6,0,0,0-.9,6.5,59,59,0,0,0-8.8,8" fill="none" stroke="#000" stroke-linecap="round" stroke-miterlimit="10" stroke-width="1.02"/>
          <path d="M130.1,61.5a8.2,8.2,0,0,0-5.5,1.5,6.9,6.9,0,0,0-3.1,4.5,5.1,5.1,0,0,0,1.2,4.7,6.3,6.3,0,0,0,4.8,2.2,7.9,7.9,0,0,0,5.5-1.6,6.9,6.9,0,0,0,3.1-4.4,5.6,5.6,0,0,0-1.2-4.7,6.4,6.4,0,0,0-4.8-2.2Z" fill="none" stroke="#7fbf77" stroke-linecap="round" stroke-linejoin="round" stroke-width="1.63"/>
          <path d="M136.1,68.3a5,5,0,0,0-1.2-4.7,6,6,0,0,0-4.7-2.2,8.5,8.5,0,0,0-5.6,1.5,7.3,7.3,0,0,0-3.1,4.5,5.7,5.7,0,0,0,1.2,4.7,6.8,6.8,0,0,0,4.8,2.2,8.7,8.7,0,0,0,5.6-1.6,6.4,6.4,0,0,0,3-4.4Z" fill="#fbed5e"/>
          <path d="M125.9,64.8a5.8,5.8,0,0,0-2.7,3.7,4.8,4.8,0,0,0,.9,4,5.6,5.6,0,0,0,4,1.8,7.2,7.2,0,0,0,4.7-1.3,6,6,0,0,0,2.6-3.7,4.5,4.5,0,0,0-.9-4,5.6,5.6,0,0,0-4-1.8,6.9,6.9,0,0,0-4.6,1.3Z" fill="#ccbb4e"/>
          <path d="M130.2,61.4a8.5,8.5,0,0,0-5.6,1.5,7.3,7.3,0,0,0-3.1,4.5,5.7,5.7,0,0,0,1.2,4.7,6.8,6.8,0,0,0,4.8,2.2,8.7,8.7,0,0,0,5.6-1.6,6.4,6.4,0,0,0,3-4.4,5,5,0,0,0-1.2-4.7,6,6,0,0,0-4.7-2.2Z" fill="none" stroke="#000" stroke-linecap="round" stroke-linejoin="round" stroke-width="0.61"/>
          <path d="M126.1,63a2,2,0,0,0-.8,1.2,1.4,1.4,0,0,0,.3,1.2,1.7,1.7,0,0,0,1.2.6,2.8,2.8,0,0,0,1.5-.4,2,2,0,0,0,.8-1.2,1.2,1.2,0,0,0-.3-1.2,1.4,1.4,0,0,0-1.2-.6,2.4,2.4,0,0,0-1.5.4Z" fill="#fbed5e"/>
          <path d="M127.2,66a5.4,5.4,0,0,0-2.5.6,2.3,2.3,0,0,0-1.3,1.6,1.6,1.6,0,0,0,.5,1.7,3.4,3.4,0,0,0,2.1.9,5.4,5.4,0,0,0,2.5-.6,2.7,2.7,0,0,0,1.3-1.7,1.6,1.6,0,0,0-.5-1.7,2.9,2.9,0,0,0-2.1-.8Z" fill="#704e4b"/>
          <path d="M124.7,66.6a2.3,2.3,0,0,0-1.3,1.6,1.6,1.6,0,0,0,.5,1.7,3.4,3.4,0,0,0,2.1.9,5.4,5.4,0,0,0,2.5-.6,2.7,2.7,0,0,0,1.3-1.7,1.6,1.6,0,0,0-.5-1.7,2.9,2.9,0,0,0-2.1-.8,5.4,5.4,0,0,0-2.5.6Z" fill="none" stroke="#000" stroke-linecap="round" stroke-linejoin="round" stroke-width="0.61"/>
          <path d="M146.3,47.1a4.8,4.8,0,0,0-3.2,1.1,4.5,4.5,0,0,0-1.6,2.8,4,4,0,0,0,.9,3,4.2,4.2,0,0,0,2.9,1.4,4.5,4.5,0,0,0,3.1-1.1,4.2,4.2,0,0,0,1.7-2.8,4,4,0,0,0-.9-3,4.4,4.4,0,0,0-2.9-1.4Z" fill="#ed6e7e"/>
          <path d="M148.9,50.1a2.8,2.8,0,0,0-2.1-1,3.4,3.4,0,0,0-2.3.8,3.1,3.1,0,0,0-1.1,2,2.7,2.7,0,0,0,2.7,3.1,2.9,2.9,0,0,0,2.2-.7,3.3,3.3,0,0,0,1.2-2.1,2.6,2.6,0,0,0-.6-2.1Z" fill="#c35f6a"/>
          <path d="M143.1,48.2a4.5,4.5,0,0,0-1.6,2.8,4,4,0,0,0,.9,3,4.2,4.2,0,0,0,2.9,1.4,4.5,4.5,0,0,0,3.1-1.1,4.2,4.2,0,0,0,1.7-2.8,4,4,0,0,0-.9-3,4.4,4.4,0,0,0-2.9-1.4,4.8,4.8,0,0,0-3.2,1.1Z" fill="none" stroke="#000" stroke-linecap="round" stroke-linejoin="round" stroke-width="1.02"/>
          <path d="M158.7,58.2a5.2,5.2,0,0,0-3.1,1.8,3.4,3.4,0,0,0-.9,3,3.7,3.7,0,0,0,1.9,2.5,4.7,4.7,0,0,0,3.5.5,5,5,0,0,0,3.1-1.7,3.5,3.5,0,0,0-1-5.5,5.2,5.2,0,0,0-3.5-.6Z" fill="#ed6e7e"/>
          <path d="M159.9,60.3a4,4,0,0,0-2.4.7,3.5,3.5,0,0,0-1.3,1.9,2.5,2.5,0,0,0,.7,2,3.4,3.4,0,0,0,2.2.9,4.1,4.1,0,0,0,2.5-.7,2.6,2.6,0,0,0,1.2-1.9,2,2,0,0,0-.6-1.9,3.5,3.5,0,0,0-2.3-1Z" fill="#c35f6a"/>
          <path d="M155.6,60a3.4,3.4,0,0,0-.9,3,3.7,3.7,0,0,0,1.9,2.5,4.7,4.7,0,0,0,3.5.5,5,5,0,0,0,3.1-1.7,3.5,3.5,0,0,0-1-5.5,5.2,5.2,0,0,0-6.6,1.2Z" fill="none" stroke="#000" stroke-linecap="round" stroke-linejoin="round" stroke-width="1.02"/>
          <path d="M115.6,60.1c-.3-.5-.7-.5-1.2-.3s-1.5,2.5-1.9,5.4l4.1-2.7a6.1,6.1,0,0,0-1-2.4Z" fill="#709b64"/>
          <path d="M135.5,86.1c-8.6-8.2-19.3-12.2-31.9-12.2S80,77.9,70.8,86.1s-14,18.1-14.4,29.7,3.8,21.4,12.4,29.6,19.4,12.3,32,12.3a47.5,47.5,0,0,0,32.7-12.3c9.3-8.2,14.1-18.1,14.4-29.6s-3.7-21.5-12.4-29.7Z" fill="#c6996d"/>
          <path d="M111.2,74.1a64,64,0,0,1,9.2,5.3,43.8,43.8,0,0,1,6.2,5.2,46.5,46.5,0,0,0-24.5-5.2,41.1,41.1,0,0,0-20.4,7.1A43.1,43.1,0,0,0,68,101.3a33.1,33.1,0,0,0-4.7,17.8v1.2a6.8,6.8,0,0,0-.1,1.2L59,122.9l-1.6,5.8,5.1,9.2,3.1-3.4a42.1,42.1,0,0,0,3.3,5.5,61,61,0,0,0,4.5,5.2c7.3,7.5,16.4,11.2,27.4,11.2a40.8,40.8,0,0,0,28.6-11.2,54.6,54.6,0,0,0,6.2-6.8,47.1,47.1,0,0,0,4.4-7.3l4.2,1.3,2.3-6.6-4.7-1.1a34.3,34.3,0,0,0,.7-5.6,49.3,49.3,0,0,0-1.1-15A26.9,26.9,0,0,0,136.6,94l1.4-5.5a44.2,44.2,0,0,0-26.8-14.4Z" fill="#906d5f"/>
          <path d="M103.6,73.9c-12.7,0-23.6,4-32.8,12.2s-14,18.1-14.4,29.7,3.8,21.4,12.4,29.6,19.4,12.3,32,12.3a47.5,47.5,0,0,0,32.7-12.3c9.3-8.2,14.1-18.1,14.4-29.6s-3.7-21.5-12.4-29.7-19.3-12.2-31.9-12.2Z" fill="none" stroke="#000" stroke-linecap="round" stroke-linejoin="round" stroke-width="1.02"/>
          <path d="M88.2,58.4A5.2,5.2,0,0,0,85.1,56a4,4,0,0,0-3.4.4,4.2,4.2,0,0,0-1.7,3,5.8,5.8,0,0,0,1.1,3.8,6,6,0,0,0,3.1,2.4,3.8,3.8,0,0,0,5.1-3.5,5.2,5.2,0,0,0-1.1-3.7Zm-6.8,1.2a2.5,2.5,0,0,1,1.1-2.1,2.5,2.5,0,0,1,2.4-.3,3.9,3.9,0,0,1,2.3,1.7,4.2,4.2,0,0,1,.8,2.8,2.5,2.5,0,0,1-1.1,2.2,3.3,3.3,0,0,1-2.4.3,4.1,4.1,0,0,1-2.3-1.8,4.2,4.2,0,0,1-.8-2.8Z" fill="#a1d9f3"/>
          <polygon points="89.2 60 88.6 58.7 87.6 59.6 87.9 61.2 89.2 60 89.2 60" fill="#88aec1"/>
          <path d="M85.1,56a4,4,0,0,0-3.4.4,4.2,4.2,0,0,0-1.7,3,5.8,5.8,0,0,0,1.1,3.8,6,6,0,0,0,3.1,2.4,3.8,3.8,0,0,0,5.1-3.5A6.3,6.3,0,0,0,85.1,56Zm-3.7,3.6a4.2,4.2,0,0,0,.8,2.8,4.1,4.1,0,0,0,2.3,1.8,3.3,3.3,0,0,0,2.4-.3A2.5,2.5,0,0,0,88,61.7a4.2,4.2,0,0,0-.8-2.8,3.9,3.9,0,0,0-2.3-1.7,2.5,2.5,0,0,0-2.4.3,2.5,2.5,0,0,0-1.1,2.1Z" fill="none" stroke="#000" stroke-linecap="round" stroke-linejoin="round" stroke-width="0.61"/>
          <path d="M78.5,70.4a2.8,2.8,0,0,0-2,.4,2.5,2.5,0,0,0-1.4,1.6,2.8,2.8,0,0,0-.1,1.8,11,11,0,0,1-3.4,3.4,14.8,14.8,0,0,0,2.3,3A13.7,13.7,0,0,0,76,82.1a10.7,10.7,0,0,1,.7-6.4,2.7,2.7,0,0,0,1.9-.4A2.8,2.8,0,0,0,80,73.7a2.3,2.3,0,0,0-.1-2,2,2,0,0,0-1.4-1.3Z" fill="#543f3d"/>
          <path d="M55.3,83.1a21.1,21.1,0,0,0-7.7,4.8c-1.9,1.8-2.7,3.6-2.3,5.2a9.2,9.2,0,0,1,3.7-.4c.4-1.9,3-3.3,7.8-4.4a47.5,47.5,0,0,0,6.3,11.5l15.3-6.3a49.9,49.9,0,0,1-8.7-9.9,10.8,10.8,0,0,0,4.2-3,14.8,14.8,0,0,1-2.3-3,10.3,10.3,0,0,1-6.3,1.7,45.1,45.1,0,0,0,3.4,17.1,53.3,53.3,0,0,1-7.8-6.3,46.5,46.5,0,0,1-5.6-7Z" fill="#fed067"/>
          <path d="M48.8,96.6a1.7,1.7,0,0,0,.1,1,2.8,2.8,0,0,0,.9,1,2,2,0,0,0,1.3.1A1.3,1.3,0,0,0,52,98a1.7,1.7,0,0,0,.1-1.2,2.8,2.8,0,0,0-.9-1,2,2,0,0,0-1.3-.1,3.8,3.8,0,0,1-.9-3,9.2,9.2,0,0,0-3.7.4,7.5,7.5,0,0,0-1.3.6,16.6,16.6,0,0,1,4.8,2.9Z" fill="#543f3d"/>
          <path d="M61.3,78.8l-5.2,2.3a7.5,7.5,0,0,1-.8,2,46.5,46.5,0,0,0,5.6,7,53.3,53.3,0,0,0,7.8,6.3,45.1,45.1,0,0,1-3.4-17.1,19,19,0,0,1-4-.5Z" fill="#543f3d"/>
          <path d="M49.3,96.6a1.3,1.3,0,0,0,.4,1.7,2.2,2.2,0,0,0,2.2,0c.6-1.7-.1-2.5-1.9-2.6a4.5,4.5,0,0,1-1.1-3H47.1a6.5,6.5,0,0,0,2.2,3.9Z" fill="#3b2c2a"/>
          <path d="M79.5,70.9l-.9-.7-3,1.3,1.2.5a2.7,2.7,0,0,0-.8,2.5A13.5,13.5,0,0,1,74.3,77a11.3,11.3,0,0,1-1.9,1.9l1.6,2c.4-.1.6-.1.7,0a11.6,11.6,0,0,1,1.6-5.6c3.3.6,4.4-.8,3.2-4.4Z" fill="#3b2c2a"/>
          <path d="M47.1,92.7h1.8c.2-2,2.7-3.6,7.7-4.5l4,7.9,1.3-.7,9.9-5.2a26.1,26.1,0,0,1-3-6.8c3.1-.7,4.9-1.5,5.2-2.5l-1.6-2a8.4,8.4,0,0,1-4.2,1.6,7.4,7.4,0,0,1-4.3-.8l-8.3,3.8a24.6,24.6,0,0,0-6.3,4.7c-1.6,1.7-2.4,3.2-2.2,4.5Z" fill="#cba356"/>
          <path d="M78.6,70h0a2.9,2.9,0,0,0-2.4.3,3.7,3.7,0,0,0-1.6,1.9,3.1,3.1,0,0,0-.1,1.9,11.8,11.8,0,0,1-3.2,3.1,10,10,0,0,1-6,1.6,17.3,17.3,0,0,1-3.8-.5h-.2l-5.6,2.5v.2c-.2.6-.5,1.1-.8,1.8a22,22,0,0,0-7.7,4.8c-1.8,1.8-2.7,3.6-2.5,5.3l-.9.4-1,.5,1,.4a16.8,16.8,0,0,1,4.5,2.7,1.8,1.8,0,0,0,.1,1h0A2.3,2.3,0,0,0,49.6,99h0a1.8,1.8,0,0,0,1.6.2,1.9,1.9,0,0,0,1.3-1h0a1.8,1.8,0,0,0,0-1.6h0a2.5,2.5,0,0,0-1.1-1.2,3.1,3.1,0,0,0-1.3-.3,2.6,2.6,0,0,1-.6-2.3c.4-1.6,2.7-2.9,7-3.9a48.7,48.7,0,0,0,6.2,11.2l.3.3,16.4-6.7-.6-.6a52,52,0,0,1-8.4-9.3A11.6,11.6,0,0,0,74,81.3a7.5,7.5,0,0,0,1.8,1.3l.9.5L76.5,82a10.4,10.4,0,0,1,.5-5.8,3.4,3.4,0,0,0,1.9-.4,4.2,4.2,0,0,0,1.6-1.9h0a2.8,2.8,0,0,0-.1-2.4h0A2.7,2.7,0,0,0,78.6,70ZM47.9,88.2a22.7,22.7,0,0,1,7.6-4.6h.2v-.2l.9-1.8,4.8-2.2a18.1,18.1,0,0,0,3.9.5h0a10.3,10.3,0,0,0,6.3-1.6,10.8,10.8,0,0,0,1.8,2.3,11.1,11.1,0,0,1-4,2.6l-.5.3.3.5a55.4,55.4,0,0,0,8.3,9.4L63.3,99.2a49.8,49.8,0,0,1-6.1-11.1v-.4h-.5c-4.8,1.1-7.5,2.6-8.1,4.6a6.9,6.9,0,0,0-2.8.3c-.1-1.4.7-2.9,2.2-4.5ZM49.5,96l.2.3H50a1,1,0,0,1,.9.1h0a1.6,1.6,0,0,1,.7.7,1.1,1.1,0,0,1,0,.8h0a.7.7,0,0,1-.6.4,1.2,1.2,0,0,1-1-.1,1.3,1.3,0,0,1-.6-.7h0a1.3,1.3,0,0,1-.1-.6v-.4l-.2-.2a16.9,16.9,0,0,0-4.1-2.6l.7-.3a11.5,11.5,0,0,1,2.6-.3,4.5,4.5,0,0,0,1.1,3ZM76.7,71.2a2.6,2.6,0,0,1,1.7-.3,2.1,2.1,0,0,1,1.1,1h0a2.2,2.2,0,0,1,0,1.6,2.6,2.6,0,0,1-1.1,1.4,2.4,2.4,0,0,1-1.6.3h-.4l-.2.4a9.8,9.8,0,0,0-.8,5.6A6.6,6.6,0,0,1,73.8,80a12,12,0,0,1-1.7-2.1,12.2,12.2,0,0,0,3.4-3.4v-.4a2.6,2.6,0,0,1,.1-1.5h0a2.6,2.6,0,0,1,1.1-1.4Z"/>
          <path d="M65.3,79.8h0a18.1,18.1,0,0,1-3.9-.5l-4.8,2.2-.9,1.8v.2h-.1a37.4,37.4,0,0,0,5.3,6.6,53.3,53.3,0,0,0,7.8,6.3,46.4,46.4,0,0,1-3.4-16.6Z" fill="#543f3d"/>
          <path d="M65.3,79.8a46.4,46.4,0,0,0,3.4,16.6,53.3,53.3,0,0,1-7.8-6.3,37.4,37.4,0,0,1-5.3-6.6" fill="none" stroke="#000" stroke-linecap="round" stroke-linejoin="round" stroke-width="0.2"/>
          <path d="M90.9,56.3l-.6-.5c-3,2.4-5.5,3.6-7.5,3.9a3.2,3.2,0,0,0,2.4,3.2c.8-1.8,2.8-3.9,5.9-6.1l-.2-.5Z" fill="#95635f"/>
          <path d="M82.8,59.7H80.7a5.7,5.7,0,0,0-2.4.8,14.4,14.4,0,0,0-5.8,4.9c-1.2,1.8-1.4,3.4-.6,4.7s2.5,1.4,4.7.8A15.1,15.1,0,0,0,83,67a8.5,8.5,0,0,0,1.4-2.1c.2-.5.5-1.1.8-2a3.2,3.2,0,0,1-2.4-3.2Z" fill="#ed6e7e"/>
          <path d="M89.8,57.4v-.8c-2.8,2.6-5,4.2-6.5,4.8L85,63a29.3,29.3,0,0,1,4.8-5.6Z" fill="#75524e"/>
          <path d="M74,69.7c.7.8,1.9,1,3.5.6a10.6,10.6,0,0,0,4.1-2.1,13.1,13.1,0,0,0,1.9-2.1l.8-1.6A9.3,9.3,0,0,1,85,63l-1.7-1.6a2.3,2.3,0,0,1-1.1.3l-1.7.3A15.5,15.5,0,0,0,78,63.7c-1.2.9-2.3,1.9-3.4,2.9s-1.2,2.1-.6,3.1Z" fill="#a4565d"/>
          <path d="M85.2,62.9a3.2,3.2,0,0,1-2.4-3.2" fill="none" stroke="#000" stroke-linecap="round" stroke-linejoin="round" stroke-width="0.61"/>
          <path d="M90.9,56.3l.2.5C88,59,86,61.1,85.2,62.9s-.6,1.5-.8,2A8.5,8.5,0,0,1,83,67a15.1,15.1,0,0,1-6.4,4c-2.2.6-3.7.3-4.7-.8s-.6-2.9.6-4.7a14.4,14.4,0,0,1,5.8-4.9,5.7,5.7,0,0,1,2.4-.8h2.1c2-.3,4.5-1.5,7.5-3.9l.6.5Z" fill="none" stroke="#000" stroke-linecap="round" stroke-linejoin="round" stroke-width="1.02"/>
          <polyline points="75.3 65.6 74 66.7 75.4 67.3 76.1 68.9 77.1 67.1 79.7 66.9 78.5 65.5 78.5 63.6 76.8 64.4" fill="none" stroke="#ed6e7e" stroke-linecap="round" stroke-linejoin="round" stroke-width="1.02"/>
          <path d="M93.6,55.6a2,2,0,0,0-.6-1.4,2.2,2.2,0,0,0-1.4-.5,2.4,2.4,0,0,0-1.4.5,2,2,0,0,0-.6,1.4,1.8,1.8,0,0,0,.6,1.4,2,2,0,0,0,1.4.6,2.1,2.1,0,0,0,2-2Z" fill="#ed6e7e"/>
          <path d="M93,54.2a2.2,2.2,0,0,0-1.4-.5,2.4,2.4,0,0,0-1.4.5,2,2,0,0,0-.6,1.4,1.8,1.8,0,0,0,.6,1.4,2,2,0,0,0,1.4.6,2.1,2.1,0,0,0,2-2,2,2,0,0,0-.6-1.4Z" fill="none" stroke="#000" stroke-linecap="round" stroke-linejoin="round" stroke-width="1.02"/>
          <polygon points="78.4 63.5 77.6 63.9 74.4 66.8 75.3 67.2 76.1 68.8 77.1 67 79.7 66.8 78.4 65.4 78.4 63.5 78.4 63.5" fill="#fed067"/>
          <polygon points="77.6 63.9 76.7 64.3 75.3 63.5 75.2 65.5 74 66.6 74.4 66.8 77.6 63.9 77.6 63.9" fill="#fff"/>
          <polygon points="77.6 63.9 76.7 64.3 75.3 63.5 75.2 65.5 74 66.6 74.4 66.8 75.3 67.2 76.1 68.8 77.1 67 79.7 66.8 78.4 65.4 78.4 63.5 77.6 63.9 77.6 63.9" fill="none" stroke="#000" stroke-linecap="round" stroke-linejoin="round" stroke-width="0.41"/>
          <path d="M89.3,62.1v-.9H88c.1.2,0,.4,0,.5a2.5,2.5,0,0,1-1.1,2.2,3.3,3.3,0,0,1-2.4.3,4.1,4.1,0,0,1-2.3-1.8,4.2,4.2,0,0,1-.8-2.8,2.5,2.5,0,0,1,1.1-2.1,2.5,2.5,0,0,1,2.4-.3h.2V56a4,4,0,0,0-3.4.4,4.2,4.2,0,0,0-1.7,3,5.8,5.8,0,0,0,1.1,3.8,6,6,0,0,0,3.1,2.4,3.8,3.8,0,0,0,5.1-3.5Z" fill="#a1d9f3"/>
          <path d="M88,61.2c.1.2,0,.4,0,.5a2.5,2.5,0,0,1-1.1,2.2,3.3,3.3,0,0,1-2.4.3,4.1,4.1,0,0,1-2.3-1.8,4.2,4.2,0,0,1-.8-2.8,2.5,2.5,0,0,1,1.1-2.1,2.5,2.5,0,0,1,2.4-.3h.2m0-1.2a4,4,0,0,0-3.4.4,4.2,4.2,0,0,0-1.7,3,5.8,5.8,0,0,0,1.1,3.8,6,6,0,0,0,3.1,2.4,3.8,3.8,0,0,0,5.1-3.5v-.9" fill="none" stroke="#000" stroke-linecap="round" stroke-linejoin="round" stroke-width="0.61"/>
          <path d="M69.4,63.2a8.2,8.2,0,0,0-4.1-5.4,29.6,29.6,0,0,0-7.6-2.6l-4.3-1L49,52.9a19.1,19.1,0,0,1-7.9-4.2,20.4,20.4,0,0,1,.1,8.2c-.3,1.7-1,4.3-2,7.8a47.8,47.8,0,0,0-1.8,7,10.6,10.6,0,0,0,1.1,6.1A8.8,8.8,0,0,0,42.8,81a22.8,22.8,0,0,0,6.5,1.7,32.1,32.1,0,0,0,6.9.1,11.5,11.5,0,0,0,5-1.4,19.3,19.3,0,0,0,6.7-8.1,15.5,15.5,0,0,0,1.5-10.1Z" fill="#945b8d"/>
          <path d="M65.3,57.8a29.6,29.6,0,0,0-7.6-2.6l-4.3-1L49,52.9a19.1,19.1,0,0,1-7.9-4.2,20.4,20.4,0,0,1,.1,8.2c-.3,1.7-1,4.3-2,7.8a47.8,47.8,0,0,0-1.8,7,10.6,10.6,0,0,0,1.1,6.1A8.8,8.8,0,0,0,42.8,81a22.8,22.8,0,0,0,6.5,1.7,32.1,32.1,0,0,0,6.9.1,11.5,11.5,0,0,0,5-1.4,19.3,19.3,0,0,0,6.7-8.1,15.5,15.5,0,0,0,1.5-10.1,8.2,8.2,0,0,0-4.1-5.4Z" fill="none" stroke="#000" stroke-linecap="round" stroke-miterlimit="10" stroke-width="1.02"/>
          <path d="M68.3,66.7a8.2,8.2,0,0,0-3.2-6,10.2,10.2,0,0,0-5.5-2.6l-5.4-.8a36.7,36.7,0,0,1-5.3-1.6,30.8,30.8,0,0,1-5.6-3.2,15.2,15.2,0,0,1-.2,7,41.2,41.2,0,0,1-2.2,6.6A31.9,31.9,0,0,0,39.1,72a7.4,7.4,0,0,0,.8,5.2,9.9,9.9,0,0,0,3,3.2,13.7,13.7,0,0,0,5.6,1.9,53.8,53.8,0,0,0,6.8.4,12,12,0,0,0,5.9-1.8,16.1,16.1,0,0,0,5-6.1q2.5-4.5,2.1-8.1Z" fill="#684755"/>
          <path d="M62.1,58.8a5.5,5.5,0,0,1,4.2,3.3c1,2.1.8,4.7-.4,7.8a43.7,43.7,0,0,1-2.1,4.3,5.6,5.6,0,0,1-.5.8,11.6,11.6,0,0,1-2.5,2.8l-.7.4a7.2,7.2,0,0,1-3.7.9,2.1,2.1,0,0,1-.8,0,23.2,23.2,0,0,1-6.5-1.2c-3.1-.9-5.4-2.3-6.7-4.2a5,5,0,0,1-.9-4.9,6.2,6.2,0,0,1,4.2-3.4,13.9,13.9,0,0,1,8.2.5A7.5,7.5,0,0,1,56.8,60a6.4,6.4,0,0,1,5.3-1.2Z" fill="none" stroke="#945b8d" stroke-linecap="round" stroke-miterlimit="10" stroke-width="1.83"/>
          <path d="M62,58.6a6.4,6.4,0,0,0-5.3,1.2,7.5,7.5,0,0,0-2.9,5.9,13.9,13.9,0,0,0-8.2-.5,6.2,6.2,0,0,0-4.2,3.4,5,5,0,0,0,.9,4.9c1.3,1.9,3.6,3.3,6.7,4.2a44.8,44.8,0,0,1,4.4-3.2l4.2-2.2a41.3,41.3,0,0,1,4.5-1.7l3.7-1c1.2-3,1.4-5.6.4-7.7A5.5,5.5,0,0,0,62,58.6Z" fill="#fdca6f"/>
          <path d="M65.8,69.6l-3.7,1L63.7,74a37.1,37.1,0,0,0,2.1-4.4Z" fill="#fff"/>
          <path d="M53.4,74.5A44.8,44.8,0,0,0,49,77.7a23.2,23.2,0,0,0,6.5,1.2h.8l-2.9-4.4Z" fill="#fff"/>
          <path d="M63.2,74.8a5.6,5.6,0,0,0,.5-.8l-1.6-3.4a41.3,41.3,0,0,0-4.5,1.7l3.1,5.2a9.4,9.4,0,0,0,2.5-2.7Z" fill="#fff"/>
          <path d="M60,78l.7-.5-3.1-5.2-4.2,2.2,2.9,4.4A8.4,8.4,0,0,0,60,78Z" fill="#fff"/>
          <path d="M49,77.7c-3.1-.9-5.4-2.3-6.7-4.2a5,5,0,0,1-.9-4.9,6.2,6.2,0,0,1,4.2-3.4,13.9,13.9,0,0,1,8.2.5,7.5,7.5,0,0,1,2.9-5.9A6.4,6.4,0,0,1,62,58.6a5.5,5.5,0,0,1,4.2,3.3c1,2.1.8,4.7-.4,7.7m0,0-3.7,1m-8.7,3.9A44.8,44.8,0,0,0,49,77.7M63.7,74a5.6,5.6,0,0,1-.5.8,9.4,9.4,0,0,1-2.5,2.7m-4.4,1.4h-.8A23.2,23.2,0,0,1,49,77.7m11.7-.2L60,78a8.4,8.4,0,0,1-3.7.9m1.3-6.6,3.1,5.2m5.1-7.9A37.1,37.1,0,0,1,63.7,74m-1.6-3.4L63.7,74m-10.3.5,2.9,4.4m5.8-8.3a41.3,41.3,0,0,0-4.5,1.7m0,0-4.2,2.2" fill="none" stroke="#000" stroke-linecap="round" stroke-miterlimit="10" stroke-width="0.61"/>
          <path d="M47.4,69.8a1.3,1.3,0,0,0,0,2,1.9,1.9,0,0,0,1.2.4,1.6,1.6,0,0,0,1.2-.4,1.3,1.3,0,0,0,0-2,1.6,1.6,0,0,0-1.2-.4,1.9,1.9,0,0,0-1.2.4Z" fill="#704e4b"/>
          <path d="M46.9,70.8a1.4,1.4,0,0,0,.5,1,1.9,1.9,0,0,0,1.2.4,1.6,1.6,0,0,0,1.2-.4,1.3,1.3,0,0,0,0-2,1.6,1.6,0,0,0-1.2-.4,1.9,1.9,0,0,0-1.2.4,1.4,1.4,0,0,0-.5,1Z" fill="none" stroke="#000" stroke-linecap="round" stroke-miterlimit="10" stroke-width="0.61"/>
          <path d="M62,65.6a1.4,1.4,0,0,0,.3-1.2,1.5,1.5,0,0,0-.6-.9,1.1,1.1,0,0,0-1.1-.1,1.9,1.9,0,0,0-1,.8,1.7,1.7,0,0,0-.2,1.2,1.4,1.4,0,0,0,.6,1,1.1,1.1,0,0,0,1.1,0,1.4,1.4,0,0,0,.9-.8Z" fill="#704e4b"/>
          <path d="M62.3,64.4a1.5,1.5,0,0,0-.6-.9,1.1,1.1,0,0,0-1.1-.1,1.9,1.9,0,0,0-1,.8,1.7,1.7,0,0,0-.2,1.2,1.4,1.4,0,0,0,.6,1,1.1,1.1,0,0,0,1.1,0,1.4,1.4,0,0,0,.9-.8,1.4,1.4,0,0,0,.3-1.2Z" fill="none" stroke="#000" stroke-linecap="round" stroke-miterlimit="10" stroke-width="0.61"/>
          <path d="M92.5,55.1a1.2,1.2,0,0,0-1.6,0,1.3,1.3,0,0,0-.3.8,1.4,1.4,0,0,0,.3.9,1.2,1.2,0,0,0,1.6,0,1.1,1.1,0,0,0,.4-.9,1,1,0,0,0-.4-.8Z" fill="#a4565d"/>
          <path d="M70.3,156.1l5.3-2.5m-8.9-.8,5.5-7.2m-10.1,3.9,1.7-4.5" fill="none" stroke="#000" stroke-linecap="round" stroke-linejoin="round" stroke-width="1.02"/>
          <path d="M66.3,151.5a30,30,0,0,0-8.7-5.1l-.6,6.1,2.5,1.9,5.7,4.6,2.4,1.9,6.2-1.8a45,45,0,0,0-7.5-7.6Z" fill="#ed6e7e"/>
          <path d="M67.6,160.9,65.2,159a5.8,5.8,0,0,1-2.9,2.2,3.3,3.3,0,0,1-3-.6,3.1,3.1,0,0,1-1.3-3,6.2,6.2,0,0,1,1.5-3.2L57,152.5a9.1,9.1,0,0,0-2.6,5.3,6,6,0,0,0,2.2,5.1,6.7,6.7,0,0,0,5.8,1.7,7.8,7.8,0,0,0,5.2-3.7Z" fill="#a1d9f3"/>
          <path d="M59.5,154.4a6.2,6.2,0,0,0-1.5,3.2,3.1,3.1,0,0,0,1.3,3,3.3,3.3,0,0,0,3,.6,5.8,5.8,0,0,0,2.9-2.2l-5.7-4.6Z" fill="#727076"/>
          <path d="M66.8,160.1l-1.9-1.5-4.7-3.8-2.1-1.6a8.7,8.7,0,0,0-2.2,4.4,4.9,4.9,0,0,0,1.9,4.2,5.3,5.3,0,0,0,4.7,1.4,6.3,6.3,0,0,0,4.3-3.1Z" fill="#88aec1"/>
          <path d="M66.3,159.9l5.1-1.6a31.6,31.6,0,0,0-11.9-9.8l-.7,5,7.5,6.4Z" fill="#c35f6a"/>
          <path d="M56.8,159.3a1.1,1.1,0,0,0,.3-.8,1.2,1.2,0,0,0-.3-.9l-.9-.3a1.1,1.1,0,0,0-.8.3,1,1,0,0,0-.4.9.9.9,0,0,0,.4.8,1.1,1.1,0,0,0,.8.3l.9-.3Z" fill="#a1d9f3"/>
          <path d="M59.5,154.4a6.2,6.2,0,0,0-1.5,3.2,3.1,3.1,0,0,0,1.3,3,3.3,3.3,0,0,0,3,.6,5.8,5.8,0,0,0,2.9-2.2l-5.7-4.6Z" fill="#696064"/>
          <path d="M67.6,160.9,65.2,159m-5.7-4.6L57,152.5m2.5,1.9a6.2,6.2,0,0,0-1.5,3.2,3.1,3.1,0,0,0,1.3,3,3.3,3.3,0,0,0,3,.6,5.8,5.8,0,0,0,2.9-2.2m0,0-5.7-4.6" fill="none" stroke="#000" stroke-linecap="round" stroke-miterlimit="10" stroke-width="0.61"/>
          <path d="M66.3,151.5a45,45,0,0,1,7.5,7.6l-6.2,1.8a7.8,7.8,0,0,1-5.2,3.7,6.7,6.7,0,0,1-5.8-1.7,6,6,0,0,1-2.2-5.1,9.1,9.1,0,0,1,2.6-5.3l.6-6.1a30,30,0,0,1,8.7,5.1Z" fill="none" stroke="#000" stroke-linecap="round" stroke-miterlimit="10" stroke-width="1.02"/>
          <path d="M62.7,142.6a2.1,2.1,0,0,0,.3,1.5,2.5,2.5,0,0,0,1.2,1.1,1.9,1.9,0,0,0,1.5-.2,1.5,1.5,0,0,0,.8-1.2,2.1,2.1,0,0,0-.3-1.5,1.9,1.9,0,0,0-1.2-1,1.6,1.6,0,0,0-1.5.1,1.5,1.5,0,0,0-.8,1.2Z" fill="#727076"/>
          <path d="M71.4,143.3a1.6,1.6,0,0,0,.1,1.5,3.2,3.2,0,0,0,1.2,1.1,2.5,2.5,0,0,0,1.7,0,1.8,1.8,0,0,0,1.1-1,2,2,0,0,0-.1-1.5,2.4,2.4,0,0,0-1.3-1.1,1.8,1.8,0,0,0-1.6-.1,2,2,0,0,0-1.1,1.1Z" fill="#727076"/>
          <path d="M76.2,151.3a1.6,1.6,0,0,0-1,.8,1.1,1.1,0,0,0,0,1.1,1.3,1.3,0,0,0,1,.9,2.3,2.3,0,0,0,1.4.1,1.4,1.4,0,0,0,1-.8,1.3,1.3,0,0,0,0-1.2,1.8,1.8,0,0,0-2.4-.9Z" fill="#727076"/>
          <path d="M71.5,144.8a3.2,3.2,0,0,0,1.2,1.1,2.5,2.5,0,0,0,1.7,0,1.8,1.8,0,0,0,1.1-1,2,2,0,0,0-.1-1.5,2.4,2.4,0,0,0-1.3-1.1,1.8,1.8,0,0,0-1.6-.1,2,2,0,0,0-1.1,1.1,1.6,1.6,0,0,0,.1,1.5Zm3.7,7.3a1.1,1.1,0,0,0,0,1.1,1.3,1.3,0,0,0,1,.9,2.3,2.3,0,0,0,1.4.1,1.4,1.4,0,0,0,1-.8,1.3,1.3,0,0,0,0-1.2,1.8,1.8,0,0,0-2.4-.9,1.6,1.6,0,0,0-1,.8Zm-12.2-8a2.5,2.5,0,0,0,1.2,1.1,1.9,1.9,0,0,0,1.5-.2,1.5,1.5,0,0,0,.8-1.2,2.1,2.1,0,0,0-.3-1.5,1.9,1.9,0,0,0-1.2-1,1.6,1.6,0,0,0-1.5.1,1.5,1.5,0,0,0-.8,1.2,2.1,2.1,0,0,0,.3,1.5Z" fill="none" stroke="#000" stroke-linecap="round" stroke-linejoin="round" stroke-width="1.02"/>
          <path d="M95,77.4A18.6,18.6,0,0,0,79.6,83c-1.7,1.9-2.2,3.7-1.6,5.4s2.2,2.7,4.7,3.1a15.4,15.4,0,0,0,8.3-1A15.8,15.8,0,0,0,98.1,86c1.7-1.9,2.2-3.7,1.6-5.4s-2.1-2.7-4.7-3.2Z" fill="#c6996d"/>
          <path d="M89.9,89.1a16.3,16.3,0,0,0,6.4-3.4c1.6-1.5,2.2-3,1.8-4.3s-1.7-2.2-3.8-2.5a15.8,15.8,0,0,0-7.3.7A16,16,0,0,0,80.5,83c-1.6,1.5-2.2,2.9-1.8,4.3s1.7,2.1,3.9,2.5a17.4,17.4,0,0,0,7.3-.7Z" fill="#906d5f"/>
          <path d="M166.7,105.5v-.2a78,78,0,0,0-14.3-12.4l-.6-.4-.4,1.6a166.2,166.2,0,0,0-16.7-6.7h-.2a166.6,166.6,0,0,0-27.8-4.1H106l-.2,10.4h0l1.4,9.8,3.2,2h-4L96.2,84.4l-12.5,2L82,94l-3.8-6.3c0-.1-.1-.2-.2-.3h-.4a113.8,113.8,0,0,0-11.9,5.3h-.1c-3,1.6-5.9,3.3-8.9,5.2h0a132.1,132.1,0,0,0-15.4,11.6h-.1v.2a59,59,0,0,0,3.4,24.4v.2h.2l12.9,3.2,4.9-5.4c0-.1.1-.1.1-.2v-.3l-1.2-4.4,7.5,4.6,7.5-1.9h.1l7.2-1.9,8.9-1.4.3-.2c.1,0,.1-.1.2-.2l2.8-10.9,2.7,9,7.3-1.8v1l20.3,1,15.6,3h.1L148,129l1.7-2,.8,8.5,5.8-.4h.1l7.7-2.3-2-13,3.3-2.6.2-.3a37.8,37.8,0,0,0,1.1-11.2Zm-2.1,10.9-.3.2-2.4,2-.6-3.6-1.1-.6.8,5.2h0l2,12.4-6.5,1.9h-.6l-4.4.3-.9-8.5,4.3-5,.5-.7h.1l-1-.4-.2.3-4.6,5.4h0l-2.1,2.4-4.7-.9,4.7-8.2h.1v-.2l1.4-7.4h0l3-15.6h0l.2-.7a79.7,79.7,0,0,1,13.3,11.7,38.4,38.4,0,0,1-1,10.2c0,.1-.1.2-.1.3Zm-87-27.9.4.8,3.7,6.2L78.1,112l-.4,2-1.2,5.6h-.1c0,.1,0,.2.1.2h.1l6.3,7.3-6.3,1.6-7.4-6.2-.3-.3v.2a.4.4,0,0,1-.1.3c-.1.2-.2.2-.4.2h-.3l7.3,6.1L69.3,131l-8.2-5h0l-.3-.2-.5-.3h0c-.2-.8-.4-1.6-.5-2.3h0c-.6-2.8-1.1-5.6-1.4-8.3a109.6,109.6,0,0,1-.9-16A91.2,91.2,0,0,1,65.4,94l.4,8.9,1-.4-.4-9a97.3,97.3,0,0,1,11-4.9ZM42.2,110.2A120.2,120.2,0,0,1,56.5,99.3a114.4,114.4,0,0,0,.8,15.4h.1v.5q.5,3.5,1.2,6.9l-6.8-3.4-.6-.3h.2a.3.3,0,0,0,.1.2.4.4,0,0,1-.1.3h0l-.3.2h-.5a.1.1,0,0,1,.1.1l.7.3,7.4,3.8a18.4,18.4,0,0,1,.5,2.5h.1l.2.2.8.5,1.3,5.1-4.3,4.8L46,133.8h-.6v-.2a58.7,58.7,0,0,1-3.2-23.3Zm49.7-7.5h0l-.4,1.5,4,9.7-3.1,12h-.2L84,127.2l-6.3-7.3-.2-.2h0v-.4l5.1-23.8h0l1.8-8.2,11.1-1.8,9.9,20.7.4,6.8v8.8l-6.6,1.6-2.3-7.6v-.3h0v-.3l-.5-1.5h0l-4.6-11Zm15.1-8v-.9h-.1l.2-9.3a153.3,153.3,0,0,1,26.8,3.9l1,.3a132.5,132.5,0,0,1,16.3,6.6l-1.5,8.1-.2,1-1.1,5.7-.2,1-1.3,7v.2l-.2.3-4.7,8.2L127.4,124l5.4-7a.4.4,0,0,0,.1-.3v-1.4l.6-8.7v-.2a.3.3,0,0,0-.1-.2h0l-2.7-2.7,3.2-6.6-.6-.2h0l-3,6.3-.5,1,2.7,2.8-.7,9.7h0l-.3.5-5.4,6.8-19.1-1v-6.1h0v-.2l-.5-9.8,14.1.2-1-1h-7.3l-4.3-2.7L107,94.7Z"/>
          <polygon points="155.4 120.2 154.9 120.9 155.9 134.1 156.2 134 156.5 133.9 155.4 120.2 155.4 120.2" fill="#fff"/>
          <polygon points="155.9 134.1 154.9 120.9 150.6 125.9 151.5 134.4 155.9 134.1 155.9 134.1" fill="#543f3d"/>
          <polygon points="154.3 120 147.6 118.7 142.9 126.9 147.6 127.8 149.7 125.4 149.7 125.4 154.3 120 154.3 120" fill="#76757b"/>
          <polygon points="161.3 115 161.9 118.6 164.3 116.6 161.3 115 161.3 115" fill="#76757b"/>
          <path d="M164.3,116.6l.3-.2c0-.1.1-.2.1-.3l-3.9-2-.8-.4.2.7,1.1.6,3,1.6Z" fill="#fff"/>
          <path d="M147.7,118.5h-.1l6.7,1.3.2-.3v-.3l-6.7-1.2v.2Z" fill="#fff"/>
          <path d="M161,109.4v-1.2l-7.1-4.7.6,15.9v.3l1,.4v-.3h0l-.6-14.4,6,4Z" fill="#543f3d"/>
          <path d="M161,108.2v1.2l-6-4,.6,14.4h0v.3h-.1l1.1,13.7L163,132l-2-12.4h0l-.8-5.2-.2-.7.8.4,3.9,2a38.4,38.4,0,0,0,1-10.2,79.7,79.7,0,0,0-13.3-11.7l-.2.7h0l-3,15.6h0l-1.4,7.4,6.7,1.2-.6-15.9,7.1,4.7Z" fill="#a1d9f3"/>
          <path d="M78,89.3l-.4-.8h-.2a155,155,0,0,0,.3,25.4l.4-2A143.7,143.7,0,0,1,78,89.3Z" fill="#d9eef7"/>
          <path d="M81.7,95.5,78,89.3a143.7,143.7,0,0,0,.1,22.7l3.6-16.5Z" fill="#543f3d"/>
          <polygon points="82.9 127.5 76.6 120.2 69.2 122.9 76.6 129.1 82.9 127.5 82.9 127.5" fill="#76757b"/>
          <path d="M60.3,125.5l.5.3,7.3-2.5h0l-.2-.2h0v-.2l-7.6,2.7Z" fill="#fff"/>
          <path d="M61.1,126h0l8.2,5,6.1-1.6-7.3-6.1-7.3,2.5.3.2Z" fill="#76757b"/>
          <path d="M67.9,110.6l-1,.4,1,11.7v.2h0l.2.2h.3c.2,0,.3,0,.4-.2a.4.4,0,0,0,.1-.3v-.5l-1-11.7Z" fill="#543f3d"/>
          <path d="M76.5,119.9c-.1,0-.1-.1-.1-.2h.1l-7.6,2.7v.3l.3.3,7.4-2.7h-.1Z" fill="#fff"/>
          <path d="M66.8,102.5l-1,.4L65.4,94a91.2,91.2,0,0,0-7.9,4.7,109.6,109.6,0,0,0,.9,16c.3,2.7.8,5.5,1.4,8.3h0c.1.7.3,1.5.5,2.3l7.6-2.7-1-11.7,1-.4,1,11.7,7.6-2.7,1.2-5.6a155,155,0,0,1-.3-25.4,97.3,97.3,0,0,0-11,4.9l.4,9Z" fill="#a1d9f3"/>
          <path d="M57.4,115.3v-.5h-.1l-6.1,3.7h0l.6.3,5.6-3.5Z" fill="#fff"/>
          <path d="M58.6,122.2q-.7-3.5-1.2-6.9l-5.6,3.5,6.8,3.4Z" fill="#76757b"/>
          <path d="M56.5,99.3a120.2,120.2,0,0,0-14.3,10.9,58.7,58.7,0,0,0,3.2,23.3l6.9-4.6-1.6-9.5a.1.1,0,0,0-.1-.1l-5.2-3.7,5.9-3.8v1.1l-4.2,2.8,4,2.7,6.1-3.7a114.4,114.4,0,0,1-.8-15.4Z" fill="#a1d9f3"/>
          <path d="M51.4,118.6h-.2l-4-2.7,4.2-2.8v-1.1l-5.9,3.8,5.2,3.7h.5l.3-.2h0a.4.4,0,0,0,.1-.3.3.3,0,0,1-.1-.2Z" fill="#543f3d"/>
          <path d="M51.4,119.7l-.7-.3,1.6,9.5-6.9,4.6v.2H46l6.6-4.5h.2c0-.1.1-.1.1-.2h0v-.2l-1.5-9.1Z" fill="#fff"/>
          <path d="M59.3,126a18.4,18.4,0,0,0-.5-2.5l-7.4-3.8,1.5,9.1,8.8,3.1-1.3-5.1-.8-.5-.2-.2Z" fill="#543f3d"/>
          <polygon points="57.4 136.7 61.7 131.9 52.6 129.3 46 133.8 57.4 136.7 57.4 136.7" fill="#76757b"/>
          <path d="M52.9,128.8v.2h0c0,.1-.1.1-.1.2h-.2l9.1,2.6-8.8-3.1Z" fill="#94cae0"/>
          <path d="M106,113.6V113L97,115.2v.3h0v.3l8.8-2.2Z" fill="#fff"/>
          <polygon points="106.1 116.7 106 113.6 97.2 115.8 99.5 123.4 106.1 121.8 106.1 116.7 106.1 116.7" fill="#76757b"/>
          <path d="M91,103.1Z"/>
          <polygon points="88.2 117.1 88.2 117 88.2 116.9 88.2 117.1 88.2 117.1" fill="#a1d9f3"/>
          <path d="M91.5,104.2l-.4-.9-3.5,13.4-10,2.6v.4h0l.2.2,10-2.6h.5v-.2l3.3-12.7Z" fill="#fff"/>
          <path d="M88.2,117h-.5l4.5,8.6h.2L88.2,117Z" fill="#94cae0"/>
          <polygon points="88.2 116.9 88.2 117 92.4 125.9 95.5 113.9 91.5 104.2 88.2 116.9 88.2 116.9" fill="#543f3d"/>
          <polygon points="87.7 117.3 77.7 119.9 84 127.2 92.2 125.9 87.7 117.3 87.7 117.3" fill="#76757b"/>
          <path d="M98.3,98.7l-.4-.9-8.1,1.6L91,103h0v.2l.4.9.4-1.5h0l-.8-2.6,7.2-1.4Z" fill="#543f3d"/>
          <path d="M97.9,97.8l.4.9-7.2,1.4.8,2.6h0l4.6,11h0l.5,1.5,8.9-2.2-.4-6.8L95.6,85.5,84.5,87.3l-1.8,8.2h0l-5.1,23.8,10-2.6,3.5-13.4v-.2h0l-1.2-3.6,8.1-1.6Z" fill="#a1d9f3"/>
          <polygon points="146.6 118.5 146.8 118.2 146.8 118 133 115.3 133 116 146.6 118.5 146.6 118.5" fill="#fff"/>
          <path d="M141.9,126.7l4.7-8.2L133,116v.7a.4.4,0,0,1-.1.3l-5.4,7,14.5,2.7Z" fill="#76757b"/>
          <path d="M131.9,116.5H107.1v.2h0v.3h24.5l.3-.5Z" fill="#fff"/>
          <polygon points="126.2 123.8 131.6 117 107.1 117 107.1 122.8 126.2 123.8 126.2 123.8" fill="#76757b"/>
          <polygon points="122.5 94.8 122.5 94.8 122.5 94.8 122.5 94.8" fill="#543f3d"/>
          <path d="M121,93.9v.7l1.5.2,10.9,1.8V96l-11.7-2Z" fill="#fff"/>
          <polygon points="122.5 94.8 122.5 94.8 121 94.6 129.9 103.9 130.4 102.9 122.5 94.8 122.5 94.8" fill="#543f3d"/>
          <polygon points="108.1 103 112.4 105.7 119.7 105.8 107 94.7 108.1 103 108.1 103" fill="#76757b"/>
          <path d="M121,94.6v-.7h.6l11.7,2,.5-7.7A153.3,153.3,0,0,0,107,84.4l-.2,9.3h.1l13.8,12.1v.9l-14.1-.2.5,9.8h24.8l.7-9.7-2.7-2.8L121,94.6Z" fill="#a1d9f3"/>
          <polygon points="106.8 93.8 107 94.7 119.7 105.8 120.7 106.8 120.7 105.9 106.8 93.8 106.8 93.8" fill="#fff"/>
          <polygon points="141.4 100.1 141.4 101.1 149.4 104.3 149.6 103.3 141.4 100.1 141.4 100.1" fill="#543f3d"/>
          <polygon points="141 108 141 109.1 148.1 111 148.3 110 141 108 141 108" fill="#543f3d"/>
          <path d="M133.5,106.1h0a.3.3,0,0,1,.1.2v.2l-.6,8.7,13.8,2.7,1.3-7-7.1-1.9V108l7.3,2,1.1-5.7-8-3.2v-1l8.2,3.2,1.5-8.1a132.5,132.5,0,0,0-16.3-6.6l-.7,8.2-.6,9.3Z" fill="#a1d9f3"/>
          <polygon points="133.4 96.6 133.4 96.6 122.5 94.8 122.5 94.8 130.4 102.9 133.4 96.6 133.4 96.6" fill="#76757b"/>
          <path d="M134.8,88.6l-1-.3-.5,7.7v.6h0l.6.2-3.2,6.6,2.7,2.7.6-9.3.7-8.2Z" fill="#543f3d"/>
          <line x1="122.5" y1="94.8" x2="122.5" y2="94.8" fill="none" stroke="#e52521" stroke-linecap="square" stroke-miterlimit="10" stroke-width="0.01"/>
          <path d="M110.8,85.7l-2.8-.2v7.8l1.8,1.6,5.1-8.8-4-.4Z" fill="#8ebed3"/>
          <path d="M101.9,100.9l-5.7,9.6,1.2,2.8h0l.3.6.9-.2,5.2-8.9-1.9-4Z" fill="#8ebed3"/>
          <path d="M119,103l2,1.8c.2,0,.3.1.4.3l.3.2a1.4,1.4,0,0,1,.2.7,1,1,0,0,1-.2.7h0a1,1,0,0,1-1,1h-4.5l-4.4,7.6h8.5l7.3-12.3-5.3-5.6L119,103Z" fill="#8ebed3"/>
          <path d="M132.8,89.1l-5-1-3.2,5.4,7.8,1.3h0l.4-5.7Z" fill="#8ebed3"/>
          <path d="M46.3,108l-3.1,2.7a27.1,27.1,0,0,0-.1,2.9l3.2-5.6Z" fill="#8ebed3"/>
          <path d="M83.8,95.7h-.1l-2.6,12.1L93.4,86.9l-8,1.3-1.6,7.5Z" fill="#8ebed3"/>
          <path d="M75.6,118.9l1.1-5c-.4-4.1-.6-8.1-.7-12l-6.9,11.7.7,7.3,5.8-2Z" fill="#8ebed3"/>
          <path d="M60.8,122.8Z" fill="#8ebed3"/>
          <polygon points="66.5 118.2 63.6 123.1 66.8 122 66.5 118.2 66.5 118.2" fill="#8ebed3"/>
          <path d="M45.2,129.4c.2.9.5,1.7.7,2.5l5.3-3.5L50,121.2l-4.8,8.2Z" fill="#8ebed3"/>
          <path d="M53,116.1l3.3-2c-.2-1-.3-2-.4-3l-2.9,5Z" fill="#8ebed3"/>
          <polygon points="126.8 115.3 131 115.3 131.5 107.3 126.8 115.3 126.8 115.3" fill="#8ebed3"/>
          <path d="M156.7,104.1l2.1-3.6c-1.9-1.7-3.8-3.2-5.7-4.6l-2.8,14.8a.4.4,0,0,0-.1.3h0l-1.2,6.1,4.2-7.1-.3-6.6a.8.8,0,0,1,.2-.7.9.9,0,0,1,.7-.3.9.9,0,0,1,.7.1l2.2,1.5Z" fill="#8ebed3"/>
          <path d="M153.2,95.1Z" fill="#8ebed3"/>
          <path d="M162.2,103.7l-1.7,3,1,.7c.3.1.4.3.5.6a1.2,1.2,0,0,1-.2.8l-.6.8a.5.5,0,0,1-.6.4,1.1,1.1,0,0,1-.8-.1l-.9-.6-2.5,4.4c0,4.5.1,6.7.1,6.8l1,12.1,4.3-1.3L160,119.8v-.2l-.8-5a4.9,4.9,0,0,1-.1-1.2c0-.2,0-.3.1-.4s.1-.2.3-.2h.7l1.1.5h.5l2.2,1.2a38.3,38.3,0,0,0,.7-8.3l-2.5-2.6Z" fill="#8ebed3"/>
          <path d="M134.8,101.8l-.3,4.1-.4,8.6,11.9,2.3,1-5.1-6.3-1.7a1.2,1.2,0,0,1-.7-.5,1.7,1.7,0,0,1-.1-.7v-1a1,1,0,0,1,.4-.7h.8l6.3,1.7.7-3.7-7.2-2.9-.4-.6c-.1-.4-.2-.6-.1-.7v-1a1,1,0,0,1,.6-.5h1.1l6.6,2.6,1.2-6.1c-3.1-1.5-6.2-2.8-9.4-4l-5.8,10Z" fill="#8ebed3"/>
          <path d="M76.2,91.1c0-.3.1-.6.1-1-3,1.2-5.9,2.5-8.8,4l.3,8.3a1.1,1.1,0,0,1-.2.8,1.1,1.1,0,0,1-.8.3l-1,.3a1,1,0,0,1-1-1l-.3-6.3-5.9,10c.2,2.6.4,5.3.8,8l.6,4.3L76.2,91.1Z" fill="#8ebed3"/>
          <polygon points="101.2 143.3 103.5 151.1 105.3 148.5 109.3 153.7 109.4 149.5 114.9 152.6 114.8 149.4 123 152.9 117.8 146.4 122.2 144.7 117.7 141.9 121.2 139.2 115.6 139.1 116.9 136.3 108 136.7 101.2 143.3 101.2 143.3" fill="#fbed5e"/>
          <polygon points="101.2 143.3 108 136.7 116.9 136.3 115.6 139.1 121.2 139.2 117.7 141.9 122.2 144.7 117.8 146.4 123 152.9 114.8 149.4 114.9 152.6 109.4 149.5 109.3 153.7 105.3 148.5 103.5 151.1 101.2 143.3 101.2 143.3" fill="none" stroke="#f4991a" stroke-linecap="round" stroke-miterlimit="10" stroke-width="0.61"/>
          <path d="M91.4,125.7a4.4,4.4,0,0,0,.2,4.3,6,6,0,0,0,3.8,2.9,8.4,8.4,0,0,0,5.4-.3,6.4,6.4,0,0,0,3.6-3.2,4.7,4.7,0,0,0-.2-4.3,6.2,6.2,0,0,0-3.9-2.9,8,8,0,0,0-5.3.3,5.8,5.8,0,0,0-3.6,3.2Z" fill="#a1d9f3"/>
          <path d="M91.6,130a6,6,0,0,0,3.8,2.9,8.4,8.4,0,0,0,5.4-.3,6.4,6.4,0,0,0,3.6-3.2,4.7,4.7,0,0,0-.2-4.3,6.2,6.2,0,0,0-3.9-2.9,8,8,0,0,0-5.3.3,5.8,5.8,0,0,0-3.6,3.2,4.4,4.4,0,0,0,.2,4.3Z" fill="none" stroke="#000" stroke-linecap="round" stroke-linejoin="round" stroke-width="1.02"/>
          <path d="M93.5,126.5a3.3,3.3,0,0,0,.2,3.2,4.7,4.7,0,0,0,2.8,2.1,6.1,6.1,0,0,0,4-.2,4.7,4.7,0,0,0,2.6-2.4,3.3,3.3,0,0,0-.1-3.2,4.6,4.6,0,0,0-2.9-2.1,5.8,5.8,0,0,0-3.9.2,4.6,4.6,0,0,0-2.7,2.4Z" fill="#8aa9b9"/>
          <path d="M97.7,124.3a1,1,0,0,0,.6.5,1.4,1.4,0,0,0,.9-.1,1,1,0,0,0,.6-.5.6.6,0,0,0-.1-.7,1,1,0,0,0-.6-.5,1,1,0,0,0-.9.1c-.3.1-.5.2-.6.5a.6.6,0,0,0,.1.7Z" fill="#a1d9f3"/>
          <path d="M114.3,130.8a21.8,21.8,0,0,0-9.1-.5,75.6,75.6,0,0,1,6.3,5.4l2.8-4.9Z" fill="#ed6e7e"/>
          <path d="M107.8,142a10.6,10.6,0,0,0,3.7-6.3,75.6,75.6,0,0,0-6.3-5.4c-6.8-5-13.7-7.5-20.9-7.6.8,7.5,5.8,14.8,15.2,21.8a11.9,11.9,0,0,0,8.3-2.5Z" fill="#fff"/>
          <path d="M111.2,135.7l2.1-3.7a15.9,15.9,0,0,0-6.8-.4,43,43,0,0,1,4.7,4.1Z" fill="#c35f6a"/>
          <path d="M83.7,122.2v.5c.7,7.7,5.9,15.1,15.4,22.2h.3c3.5.1,6.4-.7,8.6-2.6a10.9,10.9,0,0,0,3.9-6.5l3.1-5.4h-.7a20.4,20.4,0,0,0-9.1-.6c-6.8-5-13.8-7.6-21-7.6Zm22.5,8.5a18.3,18.3,0,0,1,7.3.5l-2.2,3.9a66.6,66.6,0,0,0-5.1-4.4Zm-1.3,0h.2l2.2,1.8a38.9,38.9,0,0,1,3.7,3.1,10.1,10.1,0,0,1-3.5,5.9,11.4,11.4,0,0,1-7.8,2.4c-8.9-6.7-13.9-13.6-14.8-20.8,6.8.2,13.5,2.7,20,7.5Z"/>
          <path d="M106.2,141.7a8.6,8.6,0,0,0,3-4.9,47.8,47.8,0,0,0-5-4.3c-5.3-3.9-10.8-5.9-16.4-6,.6,6,4.6,11.7,11.9,17.2a9.2,9.2,0,0,0,6.5-2Z" fill="#cbc4c4"/>
          <path d="M107.6,140.8c3.1,0,5.4-.4,6.8-1.2-3-2.9-7.2-4.9-12.9-6,.5,1.6,2.6,4,6.1,7.2Z" fill="#ed6e7e"/>
          <path d="M107,140.8a14.5,14.5,0,0,0,5.9-.9c-2.4-2.4-5.9-4-10.5-4.9.3,1.3,1.9,3.2,4.6,5.8Z" fill="#c35f6a"/>
          <path d="M100.8,132.9l.4.9c.8,1.8,2.7,4.1,5.8,7l.6.5c3.2,0,5.6-.4,7-1.2l.7-.4-.5-.4c-3.1-3.1-7.4-5.1-13.2-6.2l-.8-.2Zm6.8,7.4h-.1c-2.8-2.6-4.6-4.6-5.3-6.1,4.8,1,8.6,2.8,11.3,5.3a17.8,17.8,0,0,1-5.9.8Z"/>
          <path d="M95.5,145.2a11.8,11.8,0,0,0,3.2-4.5l-6-5a12.7,12.7,0,0,0,2.8,9.5Z" fill="#ed6e7e"/>
          <path d="M98.8,140.5l-4.9-3.8a10.5,10.5,0,0,0,2.5,7.8,10.6,10.6,0,0,0,2.4-4Z" fill="#c35f6a"/>
          <path d="M92.3,135v.6a12.8,12.8,0,0,0,2.9,9.9l.3.4.4-.3a11.8,11.8,0,0,0,3.4-4.8L92.3,135Zm5.9,5.7a13.2,13.2,0,0,1-2.6,3.8,12.4,12.4,0,0,1-2.5-8l5.1,4.2Z"/>
          <path d="M134.6,134.6a4.4,4.4,0,0,0-2.2,1.7,3.9,3.9,0,0,0-1,2.6,2.2,2.2,0,0,0,.8,2,2.4,2.4,0,0,0,2.2.2,3.9,3.9,0,0,0,2.2-1.7,5.2,5.2,0,0,0,1-2.6,2.6,2.6,0,0,0-.8-2,2.4,2.4,0,0,0-2.2-.2Z" fill="#c6996d"/>
          <path d="M136.4,135.7a1.5,1.5,0,0,0-1.6-.1,3.3,3.3,0,0,0-1.7,1.2,3.7,3.7,0,0,0-.7,1.9,1.6,1.6,0,0,0,2.2,1.7,4,4,0,0,0,1.6-1.3,3.6,3.6,0,0,0,.8-1.9,1.8,1.8,0,0,0-.6-1.5Z" fill="#906d5f"/>
          <path d="M79.8,144.9a6.1,6.1,0,0,1,3.6.9,6.1,6.1,0,0,1,2.8,2.4,2.5,2.5,0,0,1,.3,2.6,2.5,2.5,0,0,1-2.3,1.3,7.2,7.2,0,0,1-3.6-.8,8.4,8.4,0,0,1-2.8-2.4,2.7,2.7,0,0,1-.3-2.7,2.8,2.8,0,0,1,2.3-1.3Z" fill="#c6996d"/>
          <path d="M80.2,145.8a2.1,2.1,0,0,0-1.9,1,2.1,2.1,0,0,0,.3,2.1,6.2,6.2,0,0,0,2.2,2,5.2,5.2,0,0,0,2.9.6,2.2,2.2,0,0,0,1.9-1,2.1,2.1,0,0,0-.3-2.1,4.8,4.8,0,0,0-2.2-2,5.2,5.2,0,0,0-2.9-.6Z" fill="#906d5f"/>
          <polygon points="129.6 156.7 128.1 154.3 125.5 154.8 127 157.2 129.6 156.7 129.6 156.7" fill="#fbed5e"/>
          <polygon points="128.1 154.3 125.5 154.8 127 157.2 129.6 156.7 128.1 154.3 128.1 154.3" fill="none" stroke="#f4991a" stroke-linecap="square" stroke-miterlimit="10" stroke-width="0.61"/>
          <polygon points="135.2 158.8 136.5 157.6 135.6 156.1 134.3 157.3 135.2 158.8 135.2 158.8" fill="#fbed5e"/>
          <polygon points="136.5 157.6 135.6 156.1 134.3 157.3 135.2 158.8 136.5 157.6 136.5 157.6" fill="none" stroke="#f4991a" stroke-linecap="square" stroke-miterlimit="10" stroke-width="0.61"/>
          <polygon points="142 157.8 143.1 157.3 142.3 156.7 141.2 157.2 142 157.8 142 157.8" fill="#fbed5e"/>
          <polygon points="143.1 157.3 142.3 156.7 141.2 157.2 142 157.8 143.1 157.3 143.1 157.3" fill="none" stroke="#f4991a" stroke-linecap="square" stroke-miterlimit="10" stroke-width="0.61"/>
          <path d="M128.5,140.1a3.4,3.4,0,0,0-1.8.9,3.8,3.8,0,0,0-1.2,1.7,1.7,1.7,0,0,0,.3,1.6,1.5,1.5,0,0,0,1.5.4,4.1,4.1,0,0,0,1.9-.9,4.5,4.5,0,0,0,1.1-1.7,1.5,1.5,0,0,0-.3-1.6,1.5,1.5,0,0,0-1.5-.4Z" fill="#c6996d"/>
          <path d="M129.7,140.9a1.1,1.1,0,0,0-1.2-.4,3,3,0,0,0-1.6.8,3.1,3.1,0,0,0-.9,1.4,1.4,1.4,0,0,0,.2,1.3,1.4,1.4,0,0,0,1.3.3,2.6,2.6,0,0,0,1.5-.7,2.4,2.4,0,0,0,.9-1.5,1,1,0,0,0-.2-1.2Z" fill="#906d5f"/>
        </g>
      </g>
    </g>
  </g>
</svg>
