<svg xmlns="http://www.w3.org/2000/svg" width="70.6mm" height="70.6mm" viewBox="0 0 200 200">
  <g id="Warstwa_2" data-name="Warstwa 2">
    <g id="Warstwa_1-2" data-name="Warstwa 1">
      <g>
        <g>
          <circle cx="100" cy="100" r="94" fill="#f5f4f5"/>
          <path d="M100,12a88,88,0,1,1-88,88,88,88,0,0,1,88-88m0-12A100,100,0,1,0,200,100,100.2,100.2,0,0,0,100,0Z" fill="#2a2a2b"/>
        </g>
        <g>
          <path d="M113.1,41.3c9.2-2.8,19.3-3.6,28.6-1a35.8,35.8,0,0,1,19,12.6c1.8,2.6,2.3,5.9,2.4,9a65.2,65.2,0,0,1-2,16.4,133,133,0,0,1-17.3,39.8c4.3,1.9,9.2.9,13.7.1,1.9-.4,4.3-.8,5.7.8s.1,4.1-1.3,5.4c-6.6,6.4-16.5,8.1-25.2,6.6-.9,7.8-1.8,15.6-3,23.4-.7,4.3-2.2,8.9-5.6,11.9s-7.4,4-11.4,4.8-8.9.1-12.2-2.8a18.9,18.9,0,0,1-5.9-12.2,206,206,0,0,1-.9-23.6A18.9,18.9,0,0,1,84,137.1c-3.5-.3-7.3-.9-10-3.4a3.3,3.3,0,0,1,.3-5c2.8-2.2,6.5-2,9.7-3.2s3.5-3,5-4.8a21,21,0,0,1-7.8-2.1c-3.8,4.1-7.5,8.2-11,12.4-2,2.5-5.1,4.6-8.4,4.2s-6.5-3.4-8.6-6.4c-4.2-5.9-6.7-12.8-9.1-19.6a202.7,202.7,0,0,1-7.9-33.4c-.8-8.6-.1-17.9,4.9-25.2S52,41.5,58.8,40.8c9.3-1,18.6.9,27.3,4,7.2-4.8,16.4-5.5,24.8-3.8A5.6,5.6,0,0,0,113.1,41.3Zm6.8,2.4c1.8,1.2,3.8,2.1,5.7,3.3a48.6,48.6,0,0,1,16.7,20.3c1,2.4,2.1,4.8,1.9,7.4,0,5.3-1.8,10.5-1.3,15.9s1.8,11.4.3,17a39,39,0,0,1-2.1,5.7,5.2,5.2,0,0,0,.2,1.1,22,22,0,0,0,1.8-2.8,127.7,127.7,0,0,0,13.4-31.1,65.6,65.6,0,0,0,2.7-18.1c-.1-2.6-.3-5.4-2-7.5a31.2,31.2,0,0,0-13.4-9.8A42.3,42.3,0,0,0,119.9,43.7Zm-21.8.7a22.5,22.5,0,0,0-14.9,8.7c-4.9,6.4-7,14.5-7.6,22.3,4.9-2.2,10.3-4.4,15.7-3a9.6,9.6,0,0,1,7,7.4c1.6,7,2.4,14.3.9,21.3s-4.7,10.7-5.9,16.4a11.2,11.2,0,0,1,4.4.9,8.2,8.2,0,0,1,4,7.7c-.2,7.7-.1,15.5.3,23.3a52.3,52.3,0,0,0,1.1,9.6c1.2,3.7,3.8,7.5,7.9,8.2a20.5,20.5,0,0,0,12.6-2.5c3.7-2,5.4-6.2,6.1-10.2,1.3-8.2,2.3-16.6,3.2-24.9.4-3-.1-6.3,1.5-8.9s2.8-2.6,4.5-3.4a42.9,42.9,0,0,1-4-5.5c-4.1-8.6-9.7-16.6-11.4-26.1-.8-4-.3-8.7,3-11.5s8.7-3,13.2-2.8a43,43,0,0,0-14.1-19.5A37.8,37.8,0,0,0,98.1,44.4Zm-41.3.7c-5.4,1-10.5,4.1-13.2,8.9-3.7,6.4-4.1,14.1-3.5,21.3a206.3,206.3,0,0,0,6.2,27.8c2.4,7.7,5,15.4,9.3,22.3,1.6,2.4,3.4,5,6.2,5.8s4.4-1.5,5.8-3.2c3.3-4,6.8-7.7,10.2-11.7a20.7,20.7,0,0,1-6.7-17.9,71,71,0,0,0,.5-15.3,56.2,56.2,0,0,1,2.8-21.5,38.8,38.8,0,0,1,8.1-13.9C74.3,45.2,65.4,43.4,56.8,45.1ZM129.2,77c-2.5,1.9-2.3,5.5-1.8,8.3,1.8,8.8,6.9,16.4,10.9,24.4,3-6,1.2-12.8.7-19.1s1.1-10.1,1.2-15.1C136.6,75.2,132.4,74.7,129.2,77ZM75.5,80.2c.1,4.3.4,8.5.1,12.8s-1.2,7.5-.4,11.3c1.2,6.6,7.2,12.5,14.1,12.4a72.8,72.8,0,0,1,3.7-9.8c4.2-8.2,3.5-17.9,1.3-26.6a5.9,5.9,0,0,0-5.4-4.4C84.1,75.7,79.5,77.7,75.5,80.2Zm62.8,41.9c-1.3,1.2-1.2,3.1-1.2,4.8a22.1,22.1,0,0,0,8.9.5c4.5-.5,9.1-2,12.3-5.2-5.3.6-11.2,1.9-16.3-.7C140.8,120.6,139.3,121.3,138.3,122.1Zm-51.1,6.2c-3,1.8-6.7,1.7-9.8,3.1,6.4,3.3,15.1,2.1,19.5-3.8,2.2-2.1.1-6.5-2.9-6.1S90.1,126.7,87.2,128.3Z" fill="#fff"/>
          <path d="M130.4,78.2a6.4,6.4,0,0,1,6.3-.5,3.7,3.7,0,0,1-5.3,3C130.5,80.3,129.4,79,130.4,78.2Z" fill="#fff"/>
          <path d="M86.7,78.3a6.3,6.3,0,0,1,5.6,1c1.1.9.1,2.3-.8,2.9s-5.5,0-6-2.5C85.4,78.9,86.1,78.5,86.7,78.3Z" fill="#fff"/>
          <path d="M119.9,43.7a42.3,42.3,0,0,1,23.9,1.4,31.2,31.2,0,0,1,13.4,9.8c1.7,2.1,1.9,4.9,2,7.5a65.6,65.6,0,0,1-2.7,18.1,127.7,127.7,0,0,1-13.4,31.1,22,22,0,0,1-1.8,2.8,5.2,5.2,0,0,1-.2-1.1,39,39,0,0,0,2.1-5.7c1.5-5.6.3-11.4-.3-17s1.3-10.6,1.3-15.9c.2-2.6-.9-5-1.9-7.4A48.6,48.6,0,0,0,125.6,47C123.7,45.8,121.7,44.9,119.9,43.7Z" fill="#346791"/>
          <path d="M98.1,44.4a37.8,37.8,0,0,1,27.5,7.5,43,43,0,0,1,14.1,19.5c-4.5-.2-9.6-.3-13.2,2.8s-3.8,7.5-3,11.5c1.7,9.5,7.3,17.5,11.4,26.1a42.9,42.9,0,0,0,4,5.5c-1.7.8-3.5,1.7-4.5,3.4s-1.1,5.9-1.5,8.9c-.9,8.3-1.9,16.7-3.2,24.9-.7,4-2.4,8.2-6.1,10.2a20.5,20.5,0,0,1-12.6,2.5c-4.1-.7-6.7-4.5-7.9-8.2a52.3,52.3,0,0,1-1.1-9.6c-.4-7.8-.5-15.6-.3-23.3a8.2,8.2,0,0,0-4-7.7,11.2,11.2,0,0,0-4.4-.9c1.2-5.7,4.7-10.7,5.9-16.4s.7-14.3-.9-21.3a9.6,9.6,0,0,0-7-7.4c-5.4-1.4-10.8.8-15.7,3,.6-7.8,2.7-15.9,7.6-22.3A22.5,22.5,0,0,1,98.1,44.4Z" fill="#346791"/>
          <path d="M56.8,45.1c8.6-1.7,17.5.1,25.7,2.6a38.8,38.8,0,0,0-8.1,13.9,56.2,56.2,0,0,0-2.8,21.5,71,71,0,0,1-.5,15.3,20.7,20.7,0,0,0,6.7,17.9c-3.4,4-6.9,7.7-10.2,11.7-1.4,1.7-3.3,3.7-5.8,3.2s-4.6-3.4-6.2-5.8c-4.3-6.9-6.9-14.6-9.3-22.3a206.3,206.3,0,0,1-6.2-27.8c-.6-7.2-.2-14.9,3.5-21.3C46.3,49.2,51.4,46.1,56.8,45.1Z" fill="#346791"/>
          <path d="M129.2,77c3.2-2.3,7.4-1.8,11-1.5-.1,5-1.7,10-1.2,15.1s2.3,13.1-.7,19.1c-4-8-9.1-15.6-10.9-24.4C126.9,82.5,126.7,78.9,129.2,77Zm1.2,1.2c-1,.8.1,2.1,1,2.5a3.7,3.7,0,0,0,5.3-3A6.4,6.4,0,0,0,130.4,78.2Z" fill="#346791"/>
          <path d="M75.5,80.2c4-2.5,8.6-4.5,13.4-4.3a5.9,5.9,0,0,1,5.4,4.4c2.2,8.7,2.9,18.4-1.3,26.6a72.8,72.8,0,0,0-3.7,9.8c-6.9.1-12.9-5.8-14.1-12.4-.8-3.8.3-7.5.4-11.3S75.6,84.5,75.5,80.2Zm11.2-1.9c-.6.2-1.3.6-1.2,1.4.5,2.5,3.9,4,6,2.5s1.9-2,.8-2.9A6.3,6.3,0,0,0,86.7,78.3Z" fill="#346791"/>
          <path d="M138.3,122.1c1-.8,2.5-1.5,3.7-.6,5.1,2.6,11,1.3,16.3.7-3.2,3.2-7.8,4.7-12.3,5.2a22.1,22.1,0,0,1-8.9-.5C137.1,125.2,137,123.3,138.3,122.1Z" fill="#346791"/>
          <path d="M87.2,128.3c2.9-1.6,4.1-5,6.8-6.8s5.1,4,2.9,6.1c-4.4,5.9-13.1,7.1-19.5,3.8C80.5,130,84.2,130.1,87.2,128.3Z" fill="#346791"/>
          <path d="M113.2,37.3c8.4-2.2,17.3-3.1,26-1.5a39.6,39.6,0,0,1,20.9,10.7c2.5,2.6,5.1,5.3,6,8.8,1.7,6.1,1.1,12.5,0,18.6-2.6,14.7-8.4,28.6-15.9,41.5,3.4,0,6.6-1,9.9-1.2s6.7,1.7,7.5,5-1.2,6.9-3.8,9.1c-6.6,5.8-15.7,7.8-24.3,7.3-.5,8.8-.6,18-4.4,26.3a21.1,21.1,0,0,1-7.7,9c-3.3,2.1-7.2,3-11,3.8s-8.6.3-12.2-2.1a16.9,16.9,0,0,1-6.6-9.3c-2.9-7.6-2.6-15.9-3-23.9a26.8,26.8,0,0,1-18.3.3,14.8,14.8,0,0,1-5.4-3.5,12.5,12.5,0,0,1-11.1,2.7c-5-1.3-8.4-5.5-11.1-9.6-4.5-7.5-7.4-15.8-9.9-24.2a194.9,194.9,0,0,1-6.4-29.4c-.7-8.8.1-18.3,4.8-26A27.1,27.1,0,0,1,55,37.7c10.2-2,20.7,0,30.5,3,3.2-1.4,6.3-3,9.8-3.5C101.2,36,107.3,36.5,113.2,37.3Zm-.1,4a5.6,5.6,0,0,1-2.2-.3c-8.4-1.7-17.6-1-24.8,3.8-8.7-3.1-18-5-27.3-4-6.8.7-13.7,3.9-17.7,9.8s-5.7,16.6-4.9,25.2a202.7,202.7,0,0,0,7.9,33.4c2.4,6.8,4.9,13.7,9.1,19.6,2.1,3,4.8,5.9,8.6,6.4s6.4-1.7,8.4-4.2c3.5-4.2,7.2-8.3,11-12.4a21,21,0,0,0,7.8,2.1c-1.5,1.8-2.7,4.1-5,4.8s-6.9,1-9.7,3.2a3.3,3.3,0,0,0-.3,5c2.7,2.5,6.5,3.1,10,3.4a18.9,18.9,0,0,0,13.7-4.6,206,206,0,0,0,.9,23.6,18.9,18.9,0,0,0,5.9,12.2c3.3,2.9,8,3.5,12.2,2.8s8.3-2,11.4-4.8,4.9-7.6,5.6-11.9c1.2-7.8,2.1-15.6,3-23.4,8.7,1.5,18.6-.2,25.2-6.6,1.4-1.3,2.7-3.6,1.3-5.4s-3.8-1.2-5.7-.8c-4.5.8-9.4,1.8-13.7-.1a133,133,0,0,0,17.3-39.8,65.2,65.2,0,0,0,2-16.4c-.1-3.1-.6-6.4-2.4-9a35.8,35.8,0,0,0-19-12.6C132.4,37.7,122.3,38.5,113.1,41.3Z" fill="#010101"/>
        </g>
      </g>
    </g>
  </g>
</svg>
