<svg xmlns="http://www.w3.org/2000/svg" width="70.6mm" height="70.6mm" viewBox="0 0 200 200">
  <g id="Warstwa_2" data-name="Warstwa 2">
    <g id="Warstwa_1-2" data-name="Warstwa 1">
      <g>
        <rect x="43.3" y="43.3" width="113.3" height="113.33" fill="#2a2a2b"/>
        <g>
          <circle cx="100" cy="100" r="94" fill="#f5f4f5"/>
          <path d="M100,12a88,88,0,1,1-88,88,88,88,0,0,1,88-88m0-12A100,100,0,1,0,200,100,100.2,100.2,0,0,0,100,0Z" fill="#2a2a2b"/>
        </g>
        <g>
          <rect x="124.3" y="64.9" width="10.8" height="5.4" rx="2.2" fill="#56b3b4"/>
          <rect x="43.3" y="151.3" width="32.4" height="5.4" rx="2.2" fill="#ea5e5f"/>
          <rect x="108.1" y="108.1" width="21.6" height="5.4" rx="2.2" fill="#be86ba"/>
          <rect x="75.7" y="108.1" width="27" height="5.4" rx="2.2" fill="#ea5e5f"/>
          <rect x="43.3" y="108.1" width="27" height="5.4" rx="2.2" fill="#56b3b4"/>
          <rect x="43.3" y="129.7" width="32.4" height="5.4" rx="2.2" fill="#be86ba"/>
          <rect x="43.3" y="86.5" width="32.4" height="5.4" rx="2.2" fill="#be86ba"/>
          <rect x="70.3" y="54.1" width="59.4" height="5.4" rx="2.2" fill="#f7bb3f"/>
          <rect x="43.3" y="54.1" width="21.6" height="5.4" rx="2.2" fill="#ea5e5f"/>
          <rect x="64.9" y="140.5" width="10.8" height="5.4" rx="2.2" fill="#f7bb3f"/>
          <rect x="64.9" y="75.7" width="10.8" height="5.4" rx="2.2" fill="#56b3b4"/>
          <rect x="43.3" y="140.5" width="16.2" height="5.4" rx="2.2" fill="#56b3b4"/>
          <rect x="43.3" y="75.7" width="16.2" height="5.4" rx="2.2" fill="#f7bb3f"/>
          <rect x="113.5" y="140.5" width="10.8" height="5.4" rx="2.2" fill="#d0d4d8" opacity="0.5" style="isolation: isolate"/>
          <rect x="81.1" y="140.5" width="27" height="5.4" rx="2.2" fill="#d0d4d8" opacity="0.5" style="isolation: isolate"/>
          <rect x="129.7" y="140.5" width="27" height="5.4" rx="2.2" fill="#d0d4d8" opacity="0.5" style="isolation: isolate"/>
          <rect x="86.5" y="97.3" width="48.6" height="5.4" rx="2.2" fill="#56b3b4"/>
          <rect x="59.5" y="97.3" width="21.6" height="5.4" rx="2.2" fill="#f7bb3f"/>
          <rect x="43.3" y="97.3" width="10.8" height="5.4" rx="2.2" fill="#ea5e5f"/>
          <rect x="91.9" y="64.9" width="27" height="5.4" rx="2.2" fill="#be86ba"/>
          <rect x="43.3" y="64.9" width="43.2" height="5.4" rx="2.2" fill="#56b3b4"/>
          <rect x="59.5" y="118.9" width="54" height="5.4" rx="2.2" fill="#f7bb3f"/>
          <rect x="43.3" y="118.9" width="10.8" height="5.4" rx="2.2" fill="#be86ba"/>
          <rect x="108.1" y="75.7" width="32.4" height="5.4" rx="2.2" fill="#ea5e5f"/>
          <rect x="108.1" y="86.5" width="32.4" height="5.4" rx="2.2" fill="#f7bb3f"/>
          <rect x="43.3" y="43.3" width="70.2" height="5.4" rx="2.2" fill="#56b3b4"/>
          <rect x="118.9" y="43.3" width="37.8" height="5.4" rx="2.2" fill="#d0d4d8" opacity="0.5" style="isolation: isolate"/>
          <rect x="118.9" y="118.9" width="16.2" height="5.4" rx="2.2" fill="#d0d4d8" opacity="0.5" style="isolation: isolate"/>
          <rect x="140.5" y="118.9" width="16.2" height="5.4" rx="2.2" fill="#d0d4d8" opacity="0.5" style="isolation: isolate"/>
          <rect x="135.1" y="108.1" width="21.6" height="5.4" rx="2.2" fill="#d0d4d8" opacity="0.5" style="isolation: isolate"/>
          <rect x="135.1" y="54.1" width="21.6" height="5.4" rx="2.2" fill="#d0d4d8" opacity="0.5" style="isolation: isolate"/>
          <rect x="140.5" y="97.3" width="16.2" height="5.4" rx="2.2" fill="#d0d4d8" opacity="0.5" style="isolation: isolate"/>
          <rect x="140.5" y="64.9" width="16.2" height="5.4" rx="2.2" fill="#d0d4d8" opacity="0.5" style="isolation: isolate"/>
          <rect x="145.9" y="75.7" width="10.8" height="5.4" rx="2.2" fill="#d0d4d8" opacity="0.5" style="isolation: isolate"/>
          <rect x="145.9" y="86.5" width="10.8" height="5.4" rx="2.2" fill="#d0d4d8" opacity="0.5" style="isolation: isolate"/>
          <rect x="102.7" y="129.7" width="54" height="5.4" rx="2.2" fill="#d0d4d8" opacity="0.5" style="isolation: isolate"/>
          <rect x="81.1" y="129.7" width="16.2" height="5.4" rx="2.2" fill="#d0d4d8" opacity="0.5" style="isolation: isolate"/>
          <rect x="124.3" y="151.3" width="32.4" height="5.4" rx="2.2" fill="#d0d4d8" opacity="0.5" style="isolation: isolate"/>
          <rect x="81.1" y="151.3" width="37.8" height="5.4" rx="2.2" fill="#d0d4d8" opacity="0.5" style="isolation: isolate"/>
          <rect x="81.1" y="75.7" width="21.6" height="5.4" rx="2.2" fill="#d0d4d8" opacity="0.5" style="isolation: isolate"/>
          <rect x="81.1" y="86.5" width="21.6" height="5.4" rx="2.2" fill="#d0d4d8" opacity="0.5" style="isolation: isolate"/>
        </g>
      </g>
    </g>
  </g>
</svg>
