<svg xmlns="http://www.w3.org/2000/svg" width="70.6mm" height="70.6mm" viewBox="0 0 200 200">
  <g id="Warstwa_2" data-name="Warstwa 2">
    <g id="Warstwa_1-2" data-name="Warstwa 1">
      <g>
        <g>
          <circle cx="100" cy="100" r="94" fill="#f5f4f5"/>
          <path d="M100,12a88,88,0,1,1-88,88,88,88,0,0,1,88-88m0-12A100,100,0,1,0,200,100,100.2,100.2,0,0,0,100,0Z" fill="#2a2a2b"/>
        </g>
        <g>
          <path d="M149.9,75.7,145,74.2c.2-1.2.5-2.3.7-3.5,3.8-18.3,1.3-33.1-7.1-37.9s-21.3.2-34.7,11.8l-3.8,3.5-2.6-2.3c-14-12.5-28-17.7-36.4-12.8S50.6,51.5,54,68.9c.3,1.7.7,3.4,1.1,5.2a47.5,47.5,0,0,0-5.7,1.8C33,81.6,22.5,90.6,22.5,99.9S33.7,119.1,50.8,125l4.2,1.3-1.2,5.5c-3.2,17.1-.7,30.7,7.4,35.3s22.3-.1,35.9-12l3.2-3c1.4,1.4,2.8,2.6,4.2,3.8,13.1,11.4,26.2,16,34.2,11.3s11-19.4,7.5-37.1c-.2-1.4-.6-2.8-.9-4.2l2.9-.9c17.7-5.9,29.3-15.4,29.3-25.1S166.7,81.5,149.9,75.7ZM108.3,49.6c11.4-10,22.1-13.9,27-11.1s7.2,15.1,3.9,30.9c-.2,1-.4,2.1-.7,3.1a157.3,157.3,0,0,0-20.7-3.3,150.3,150.3,0,0,0-13.1-16.3Q106.5,51.1,108.3,49.6ZM71.8,100c2-4.1,4.2-8.3,6.6-12.5h0c2.4-4.1,4.9-8.1,7.5-11.9Q92.8,75,100,75h0q7.2,0,14.1.6c2.6,3.7,5.1,7.7,7.5,11.9s4.7,8.4,6.7,12.4c-2,4.2-4.2,8.4-6.7,12.6s-4.9,8.2-7.4,12c-4.6.3-9.4.5-14.2.5s-9.5-.2-14-.5c-2.7-3.8-5.2-7.8-7.6-12h0C76,108.4,73.8,104.2,71.8,100Zm-3.5,7.8c1.4,2.7,2.8,5.4,4.4,8h0c1.5,2.8,3.2,5.4,4.8,8a142.6,142.6,0,0,1-14.3-2.3C64.6,117.1,66.3,112.5,68.3,107.8Zm0-15.6a129.4,129.4,0,0,1-5-13.4q6.8-1.5,14.1-2.4-2.4,3.8-4.8,7.8h0C71.1,86.9,69.6,89.6,68.3,92.2Zm59.1,23.6,4.5-8.2c2,4.7,3.8,9.3,5.2,13.6a121.4,121.4,0,0,1-14.5,2.5Zm4.4-23.6c-1.4-2.6-2.9-5.3-4.5-8s-3.1-5.3-4.7-7.8c5,.6,9.7,1.5,14.2,2.5C135.4,83.2,133.8,87.6,131.8,92.2ZM100.1,57.6c3,3.3,6.1,7,9.1,11l-9.2-.2-9.1.2A130.4,130.4,0,0,1,100.1,57.6ZM64.4,38.7c5.2-3,16.6,1.3,28.7,12a23.9,23.9,0,0,1,2.3,2.2A161.1,161.1,0,0,0,82.2,69.2a179.7,179.7,0,0,0-20.7,3.2c-.4-1.6-.7-3.2-1-4.8C57.6,52.8,59.5,41.5,64.4,38.7Zm-7.6,81.2L53,118.7c-7.6-2.6-13.8-5.9-18.1-9.6s-5.8-6.6-5.8-9.2c0-5.7,8.4-12.9,22.5-17.8l5.3-1.7A140.9,140.9,0,0,0,64.5,100,155.7,155.7,0,0,0,56.8,119.9Zm35.9,30.2c-6,5.3-12,9-17.4,10.9s-8.5,1.7-10.8.4c-4.9-2.8-7-13.7-4.2-28.3.3-1.7.7-3.4,1.2-5.2a152.8,152.8,0,0,0,20.8,3,164.8,164.8,0,0,0,13.3,16.5Zm7.6-7.5a135.4,135.4,0,0,1-9.4-11.2c3,.2,6,.2,9.1.2l9.4-.2C106.3,135.5,103.3,139.3,100.3,142.6Zm40.2,9.2c-1,5-2.8,8.3-5.1,9.7-4.9,2.8-15.3-.9-26.6-10.6l-3.9-3.5a157.3,157.3,0,0,0,13-16.6,142.6,142.6,0,0,0,21-3.2c.3,1.3.6,2.5.8,3.8C141.3,139.2,141.5,146.3,140.5,151.8Zm5.6-33.1-2.6.9a147.2,147.2,0,0,0-7.9-19.7,154.8,154.8,0,0,0,7.6-19.4l4.6,1.5c14.3,4.9,23.1,12.2,23.1,17.9S161.4,113.6,146.1,118.7Z" fill="#56c2de" stroke="#56c2de" stroke-miterlimit="10" stroke-width="2"/>
          <path d="M99.8,88.4a11.7,11.7,0,1,1,0,23.4,11.7,11.7,0,0,1,0-23.4" fill="#56c2de" stroke="#56c2de" stroke-miterlimit="10"/>
        </g>
      </g>
    </g>
  </g>
</svg>
