<svg xmlns="http://www.w3.org/2000/svg" width="70.6mm" height="70.6mm" viewBox="0 0 200 200">
  <g id="Warstwa_2" data-name="Warstwa 2">
    <g id="Warstwa_1-2" data-name="Warstwa 1">
      <g>
        <g>
          <circle cx="100" cy="100" r="94" fill="#f5f4f5"/>
          <path d="M100,12a88,88,0,1,1-88,88,88,88,0,0,1,88-88m0-12A100,100,0,1,0,200,100,100.2,100.2,0,0,0,100,0Z" fill="#2a2a2b"/>
        </g>
        <path d="M68.1,122.7c.2,5.6,4.6,10.1,9.9,10.1h.4c5.4-.2,9.7-5.1,9.5-10.9s-4.6-10.1-9.9-10.1h-.3a3,3,0,0,0-1.3.2,73.3,73.3,0,0,1-9.2-41.7A52.1,52.1,0,0,1,77.7,41.2c5.1-6.9,15-10.3,21.7-10.5,18.7-.4,26.7,24.4,27.2,34.3,2.3.6,6.2,1.9,8.9,2.9-2.2-30.4-19.8-46.2-36.8-46.2S68.1,33.9,62.3,51.9c-8.2,24-2.9,47.1,7,65.3A9.4,9.4,0,0,0,68.1,122.7Z" fill="#664d9a"/>
        <path d="M126.8,119.5a10.4,10.4,0,0,0,8.8-10.9c-.1-5.6-4.6-10.2-9.9-10.2h-.3c-5.5.2-9.7,5.1-9.6,10.9a11.5,11.5,0,0,0,2.9,7c-6,12.6-15.2,21.7-29,29.4a45.3,45.3,0,0,1-28.8,5.9c-8-1.2-14.2-4.9-18.1-11.1a29.1,29.1,0,0,1-1.4-29.1,44.7,44.7,0,0,1,12-15c-.7-2.5-1.7-6.6-2.3-9.6-25.6,19.7-22.9,46.4-15.2,58.9,5.9,9.4,17.7,15.2,30.8,15.2a38.5,38.5,0,0,0,10.6-1.3C99.9,154.9,117.1,140.7,126.8,119.5Z" fill="#664d9a"/>
        <path d="M157.9,96.2C144.5,79.5,124.7,70.3,102,70.3H99.2a9.5,9.5,0,0,0-8.6-5.6h-.4c-5.5.2-9.7,5-9.5,10.9a10.2,10.2,0,0,0,9.9,10.1h.3a10,10,0,0,0,8.7-6.4h3.2a64.4,64.4,0,0,1,37.6,12.2,49.9,49.9,0,0,1,18.7,24c3.1,7.9,2.9,15.6-.3,22.2-5,9.9-13.3,15.4-24.2,15.4a42.3,42.3,0,0,1-17.3-4c-2,1.9-5.5,4.9-8,6.8,7.6,3.7,15.4,5.8,22.8,5.8,17,0,29.5-10,34.3-19.9S171.2,112.1,157.9,96.2Z" fill="#664d9a"/>
      </g>
    </g>
  </g>
</svg>
