<svg xmlns="http://www.w3.org/2000/svg" width="70.6mm" height="70.6mm" viewBox="0 0 200 200">
  <g id="Warstwa_2" data-name="Warstwa 2">
    <g id="Warstwa_1-2" data-name="Warstwa 1">
      <g>
        <g>
          <circle cx="100" cy="100" r="94" fill="#f5f4f5"/>
          <path d="M100,12a88,88,0,1,1-88,88,88,88,0,0,1,88-88m0-12A100,100,0,1,0,200,100,100.2,100.2,0,0,0,100,0Z" fill="#2a2a2b"/>
        </g>
        <path d="M167.4,127.1c3.1,5.5,3.5,11.3.8,15.8s-7.7,7.2-14.1,7.2H142.2c.1-2.2.2-4.5.2-6.7s-.1-5-.3-7.5H150a3.5,3.5,0,0,0,3.5-3.5,4.3,4.3,0,0,0-.4-1.7L103,43.7a3.4,3.4,0,0,0-3-1.7,3.6,3.6,0,0,0-3,1.7L89.1,57.5a107.6,107.6,0,0,1,42.6,78.4c.1,2.4.3,4.9.3,7.5s-.1,4.5-.3,6.7H92.8c.2-2.2.3-4.5.3-6.7a60.6,60.6,0,0,0-.4-7.5A68.2,68.2,0,0,0,69.4,91.6L64,101.1a57.6,57.6,0,0,1,17.9,34.8,60.3,60.3,0,0,1,.5,7.5c0,2.2-.2,4.5-.4,6.7H45.9c-6.4,0-11.5-2.6-14.1-7.2s-2.3-10.3.8-15.8L40,114.4a44.2,44.2,0,0,1,11.4,8.7l-4.5,7.6a4.2,4.2,0,0,0-.4,1.6,3.5,3.5,0,0,0,3.5,3.5H67.5a42.5,42.5,0,0,0-10.9-22,44.1,44.1,0,0,0-11.3-8.8l19.6-34a78,78,0,0,1,11.7,8A82.8,82.8,0,0,1,107,135.8h10.4A92.8,92.8,0,0,0,81.9,69.9,105.5,105.5,0,0,0,70.1,62L86.8,33c3.1-5.5,8-8.6,13.2-8.6s10.1,3.1,13.3,8.6l54.1,94.1Z" fill="#362d59"/>
      </g>
    </g>
  </g>
</svg>
