<svg xmlns="http://www.w3.org/2000/svg" xmlns:xlink="http://www.w3.org/1999/xlink" width="70.6mm" height="70.6mm" viewBox="0 0 200 200">
  <defs>
    <mask id="mask" x="50.66" y="41.02" width="94.68" height="117.96" maskUnits="userSpaceOnUse">
      <g id="mask-2">
        <path id="path-1" d="M54.3,149.7,50.7,52.3a5.8,5.8,0,0,1,5.5-6.1L139,41a5.9,5.9,0,0,1,6.3,5.6V153.1a5.9,5.9,0,0,1-5.9,5.9h-.3L60,155.4A5.9,5.9,0,0,1,54.3,149.7Z" fill="#fff" fill-rule="evenodd"/>
      </g>
    </mask>
  </defs>
  <g id="Warstwa_2" data-name="Warstwa 2">
    <g id="Warstwa_1-2" data-name="Warstwa 1">
      <g>
        <g>
          <circle cx="100" cy="100" r="94" fill="#f5f4f5"/>
          <path d="M100,12a88,88,0,1,1-88,88,88,88,0,0,1,88-88m0-12A100,100,0,1,0,200,100,100.2,100.2,0,0,0,100,0Z" fill="#2a2a2b"/>
        </g>
        <g id="storybook-icon_default" data-name="storybook-icon/default">
          <g id="path1_fill-path" data-name="path1 fill-path">
            <path id="path-1-3" data-name="path-1" d="M54.3,149.7,50.7,52.3a5.8,5.8,0,0,1,5.5-6.1L139,41a5.9,5.9,0,0,1,6.3,5.6V153.1a5.9,5.9,0,0,1-5.9,5.9h-.3L60,155.4A5.9,5.9,0,0,1,54.3,149.7Z" fill="#ea4c85"/>
          </g>
          <g mask="url(#mask)">
            <path id="path2_fill-path" data-name="path2 fill-path" d="M120.6,55.5l.5-13.6,11.4-.9.5,14a1.1,1.1,0,0,1-.8,1l-.6-.2-4.4-3.5-5.2,4a.8.8,0,0,1-1.2-.2A.7.7,0,0,1,120.6,55.5Z" fill="#fff"/>
          </g>
          <g mask="url(#mask)">
            <path id="path9_fill-path" data-name="path9 fill-path" d="M106,85.5c0,2.3,15.6,1.2,17.7-.4,0-15.8-8.5-24-23.9-24s-24.1,8.4-24.1,21c0,21.9,29.6,22.3,29.6,34.2,0,3.4-1.7,5.4-5.3,5.4s-6.6-2.4-6.3-10.6c0-1.8-18-2.3-18.6,0-1.3,19.8,11,25.5,25.1,25.5s24.4-7.3,24.4-20.5c0-23.5-30-22.8-30-34.5,0-4.7,3.5-5.3,5.6-5.3S106.4,76.7,106,85.5Z" fill="#fff"/>
          </g>
        </g>
      </g>
    </g>
  </g>
</svg>
