<svg xmlns="http://www.w3.org/2000/svg" xmlns:xlink="http://www.w3.org/1999/xlink" width="70.6mm" height="70.6mm" viewBox="0 0 200 200">
  <defs>
    <linearGradient id="Gradient_bez_nazwy_15" data-name="Gradient bez nazwy 15" x1="1.87" y1="2.71" x2="150.97" y2="150.54" gradientUnits="userSpaceOnUse">
      <stop offset="0.42" stop-color="#ecbf56"/>
      <stop offset="0.59" stop-color="#e97956"/>
      <stop offset="0.76" stop-color="#6ebbb4"/>
      <stop offset="0.93" stop-color="#62398e"/>
    </linearGradient>
  </defs>
  <g id="Warstwa_2" data-name="Warstwa 2">
    <g id="Warstwa_1-2" data-name="Warstwa 1">
      <g>
        <g>
          <g>
            <circle cx="100" cy="100" r="94" fill="#f5f4f5"/>
            <path d="M100,12a88,88,0,1,1-88,88,88,88,0,0,1,88-88m0-12A100,100,0,1,0,200,100,100.2,100.2,0,0,0,100,0Z" fill="#2a2a2b"/>
          </g>
          <path d="M102.3,155.7H97.7v7a2.3,2.3,0,0,0,4.6,0Z" fill="#23272c"/>
          <path d="M58.2,141.8h83.6V58.2H58.2Zm9.3-78.9a4.6,4.6,0,1,1-4.6,4.6A4.5,4.5,0,0,1,67.5,62.9Z" fill="#23272c"/>
          <path d="M151.1,147.8V52.2l-3.3-3.3H52.2l-3.3,3.3v95.6l3.3,3.3h95.6Zm-4.7-3.7a2.3,2.3,0,0,1-2.3,2.3H55.9a2.3,2.3,0,0,1-2.3-2.3V55.9a2.3,2.3,0,0,1,2.3-2.3h88.2a2.3,2.3,0,0,1,2.3,2.3Z" fill="#23272c"/>
          <path d="M120.9,155.7h-4.6v7a2.3,2.3,0,0,0,4.6,0Z" fill="#23272c"/>
          <path d="M139.5,155.7h-4.7v7a2.4,2.4,0,0,0,4.7,0Z" fill="#23272c"/>
          <path d="M165,100a2.3,2.3,0,0,0-2.3-2.3h-7v4.6h7A2.3,2.3,0,0,0,165,100Z" fill="#23272c"/>
          <path d="M165,81.4a2.3,2.3,0,0,0-2.3-2.3h-7v4.7h7A2.3,2.3,0,0,0,165,81.4Z" fill="#23272c"/>
          <path d="M162.7,60.5h-7v4.7h7a2.4,2.4,0,0,0,0-4.7Z" fill="#23272c"/>
          <path d="M165,118.6a2.3,2.3,0,0,0-2.3-2.3h-7v4.6h7A2.3,2.3,0,0,0,165,118.6Z" fill="#23272c"/>
          <path d="M165,137.1a2.3,2.3,0,0,0-2.3-2.3h-7v4.7h7A2.3,2.3,0,0,0,165,137.1Z" fill="#23272c"/>
          <path d="M83.8,155.7H79.1v7a2.3,2.3,0,0,0,2.3,2.3,2.3,2.3,0,0,0,2.4-2.3Z" fill="#23272c"/>
          <path d="M134.8,44.3h4.7v-7a2.4,2.4,0,0,0-4.7,0Z" fill="#23272c"/>
          <path d="M35,81.4a2.3,2.3,0,0,0,2.3,2.4h7V79.1h-7A2.3,2.3,0,0,0,35,81.4Z" fill="#23272c"/>
          <path d="M35,100a2.3,2.3,0,0,0,2.3,2.3h7V97.7h-7A2.3,2.3,0,0,0,35,100Z" fill="#23272c"/>
          <path d="M116.3,44.3h4.6v-7a2.3,2.3,0,0,0-4.6,0Z" fill="#23272c"/>
          <path d="M35,62.9a2.3,2.3,0,0,0,2.3,2.3h7V60.5h-7A2.3,2.3,0,0,0,35,62.9Z" fill="#23272c"/>
          <path d="M35,118.6a2.3,2.3,0,0,0,2.3,2.3h7v-4.6h-7A2.3,2.3,0,0,0,35,118.6Z" fill="#23272c"/>
          <path d="M37.3,139.5h7v-4.7h-7a2.4,2.4,0,0,0,0,4.7Z" fill="#23272c"/>
          <path d="M79.1,44.3h4.7v-7A2.3,2.3,0,0,0,81.4,35a2.3,2.3,0,0,0-2.3,2.3Z" fill="#23272c"/>
          <path d="M60.5,44.3h4.7v-7a2.4,2.4,0,0,0-4.7,0Z" fill="#23272c"/>
          <path d="M65.2,155.7H60.5v7a2.4,2.4,0,0,0,4.7,0Z" fill="#23272c"/>
          <path d="M97.7,44.3h4.6v-7a2.3,2.3,0,0,0-4.6,0Z" fill="#23272c"/>
        </g>
        <g>
          <rect x="58" y="58" width="84" height="84" fill="#23272c"/>
          <circle cx="69" cy="69.2" r="4.5" fill="#23272c"/>
          <path d="M138.2,98.5h-36v-36h36Zm-40.4,3h-36v36h36Zm40.4,0h-36v36h36Zm-40.4-39v36h-36v-36Z" fill="url(#Gradient_bez_nazwy_15)"/>
          <path d="M69,73.7a4.5,4.5,0,1,1,4.4-4.5A4.5,4.5,0,0,1,69,73.7Z" fill="#23272c"/>
        </g>
      </g>
    </g>
  </g>
</svg>
