<svg xmlns="http://www.w3.org/2000/svg" width="70.6mm" height="70.6mm" viewBox="0 0 200 200">
  <g id="Warstwa_2" data-name="Warstwa 2">
    <g id="Warstwa_1-2" data-name="Warstwa 1">
      <g>
        <g>
          <circle cx="100" cy="100" r="94" fill="#f5f4f5"/>
          <path d="M100,12a88,88,0,1,1-88,88,88,88,0,0,1,88-88m0-12A100,100,0,1,0,200,100,100.2,100.2,0,0,0,100,0Z" fill="#2a2a2b"/>
        </g>
        <g>
          <polygon points="43.8 100 43.8 156.2 100 156.2 156.2 156.2 156.2 100 156.2 43.8 100 43.8 43.8 43.8 43.8 100" fill="#2178bd"/>
          <path d="M68.7,100.4V105H83.3v41.5H93.6V105h14.6v-4.5a41.7,41.7,0,0,0-.1-4.7H68.7Z" fill="#fff"/>
          <path d="M134.5,95.7a13.7,13.7,0,0,1,7,4,14.9,14.9,0,0,1,2.7,3.6c0,.2-4.8,3.4-7.8,5.3a3.6,3.6,0,0,1-1-1.1,6.6,6.6,0,0,0-5.3-3.2c-3.4-.2-5.6,1.5-5.6,4.5a3.6,3.6,0,0,0,.5,2.1c.7,1.6,2.1,2.5,6.5,4.4,8.1,3.5,11.5,5.7,13.6,9a16,16,0,0,1,1.3,13.7c-1.7,4.7-6.2,7.8-12.4,8.9a35.5,35.5,0,0,1-8.6-.1,20.4,20.4,0,0,1-11.4-6,21.2,21.2,0,0,1-2.9-4.3l1-.7,4.2-2.4,3.2-1.8.7,1a13.5,13.5,0,0,0,4.3,4c3.5,1.9,8.5,1.7,10.9-.5a4.2,4.2,0,0,0,1.5-3.4,3.9,3.9,0,0,0-.9-2.8c-.9-1.3-2.6-2.3-7.7-4.5s-8.3-4.1-10.6-6.5a16.6,16.6,0,0,1-3.1-5.7,24.1,24.1,0,0,1-.2-7.1c1.2-5.6,5.5-9.5,11.6-10.7A27.1,27.1,0,0,1,134.5,95.7Z" fill="#fff"/>
        </g>
      </g>
    </g>
  </g>
</svg>
