<svg xmlns="http://www.w3.org/2000/svg" width="70.6mm" height="70.6mm" viewBox="0 0 200 200">
  <g id="Warstwa_2" data-name="Warstwa 2">
    <g id="Warstwa_1-2" data-name="Warstwa 1">
      <g>
        <g>
          <circle cx="100" cy="100" r="94" fill="#f5f4f5"/>
          <path d="M100,12a88,88,0,1,1-88,88,88,88,0,0,1,88-88m0-12A100,100,0,1,0,200,100,100.2,100.2,0,0,0,100,0Z" fill="#2a2a2b"/>
        </g>
        <path d="M122.1,37.4v104L31.3,127.9l90.8,30.6,30.3-12.6v-94h0V50ZM90.3,55.1,62.5,82.6,45.8,70l-6.9,2.3,17,16.9L38.9,106l6.9,2.3L62.5,95.7h0l27.8,27.5,16.7-7.1V62.2Zm0,19.6v28.9L71.2,89.1Z" fill="#206db5"/>
      </g>
    </g>
  </g>
</svg>
