<svg xmlns="http://www.w3.org/2000/svg" width="70.6mm" height="70.6mm" viewBox="0 0 200 200">
  <g id="Warstwa_2" data-name="Warstwa 2">
    <g id="Warstwa_1-2" data-name="Warstwa 1">
      <g>
        <g>
          <circle cx="100" cy="100" r="94" fill="#f5f4f5"/>
          <path d="M100,12a88,88,0,1,1-88,88,88,88,0,0,1,88-88m0-12A100,100,0,1,0,200,100,100.2,100.2,0,0,0,100,0Z" fill="#2a2a2b"/>
        </g>
        <g>
          <path d="M159.2,137.9,102.5,170V145l35.4-19.4Zm3.9-3.5V67.3L142.4,79.2v43.2ZM40.8,137.9,97.5,170V145L62.1,125.6,40.8,137.9Zm-3.9-3.5V67.3L57.6,79.2v43.2l-20.7,12Zm2.4-71.5L97.5,30V54.2L60.2,74.7h-.3L39.3,62.9Zm121.4,0L102.5,30V54.2l37.3,20.5.3.2,20.6-12Z" fill="#92d4f6"/>
          <path d="M97.5,139.3,62.6,120.1v-38l34.9,20.2v37Zm5,0,34.9-19.2v-38l-34.9,20.2ZM65,77.7l35-19.2,35,19.2L100,97.9,65,77.7Z" fill="#1f78be"/>
        </g>
      </g>
    </g>
  </g>
</svg>
