<svg xmlns="http://www.w3.org/2000/svg" width="70.6mm" height="70.6mm" viewBox="0 0 200 200">
  <g id="Warstwa_2" data-name="Warstwa 2">
    <g id="Warstwa_1-2" data-name="Warstwa 1">
      <g>
        <g>
          <circle cx="100" cy="100" r="94" fill="#f5f4f5"/>
          <path d="M100,12a88,88,0,1,1-88,88,88,88,0,0,1,88-88m0-12A100,100,0,1,0,200,100,100.2,100.2,0,0,0,100,0Z" fill="#2a2a2b"/>
        </g>
        <g>
          <path d="M100,30a70,70,0,1,0,70,70,70.1,70.1,0,0,0-70-70" fill="#378fba"/>
          <path d="M141.2,125.2c-4.3,1-6.5,2-11.9,5.4a68.3,68.3,0,0,1-17.5,8,4.6,4.6,0,0,1-2.9,1.6c-3.8.9-18,1.7-19.3,1.7-3.5.1-5.7-.8-6.2-2.3-1.9-4.3,2.5-6.2,2.5-6.2l-1.5-1.1c-.5-.5-1-1.6-1.2-1.2s-1,5.7-2.8,7.5-7.2,1.7-10,.2.2-5.4.2-5.4a2.2,2.2,0,0,1-3-1,14.7,14.7,0,0,1-2-8.9c.3-4.4,5.3-8.7,5.3-8.7a28,28,0,0,1,1.9-13.2c2.6-6,9.5-10.9,9.5-10.9s-5.8-6.5-3.6-12.2c1.4-3.8,1.9-3.8,2.4-4A12,12,0,0,0,85.5,72a15.7,15.7,0,0,1,13.2-5.1s3.5-10.7,6.7-8.6c1,.6,4.6,8.6,4.6,8.6s3.9-2.2,4.3-1.4c2.3,4.6,2.6,13.2,1.6,18.4-1.8,8.7-6.1,13.3-7.8,16.2-.4.7,4.6,2.8,7.8,11.7s.3,14.8.8,15.6v.2s3.4.3,10.2-3.9c3.6-2.3,7.9-4.8,12.8-4.8s5,5.4,1.4,6.3Zm6.4-4a7.4,7.4,0,0,0-7.9-6.4c-6.2.1-11.4,3.3-14.9,5.4a17.7,17.7,0,0,1-3.5,1.9,27.5,27.5,0,0,0-1.6-11.7,28.2,28.2,0,0,0-6.5-10.7,37.8,37.8,0,0,0,6.6-15c1.2-6.1.8-15.7-1.9-21a4.2,4.2,0,0,0-2.7-2.2,6,6,0,0,0-3.3.1c-2.7-5.7-3.6-6.2-4.4-6.7a5.4,5.4,0,0,0-4.9-.6c-2.3.8-4.2,3-6,6.8a12.2,12.2,0,0,0-.7,1.7,19.2,19.2,0,0,0-13.4,6.4,7.8,7.8,0,0,1-2.9,1.5h0c-2.3.8-3.4,2.8-4.7,6.3s0,9.8,1.9,12.9A30.3,30.3,0,0,0,69.1,100a32.6,32.6,0,0,0-2.4,13.2c-1.9,2-4.8,5.7-5.1,10a18.1,18.1,0,0,0,2.6,11.3l.9,1.1a9.6,9.6,0,0,0,0,2.4,6.5,6.5,0,0,0,3.4,4.4c3.6,1.9,8.5,2.7,12.4.8,1.3,1.4,3.9,2.8,8.4,2.8h.3c1.2,0,15.9-.8,20.2-1.8a10.4,10.4,0,0,0,4.1-2,78.8,78.8,0,0,0,17.6-8.1c5.1-3.3,6.8-4,10.6-4.9a7.2,7.2,0,0,0,5.5-8Z" fill="#fff"/>
        </g>
      </g>
    </g>
  </g>
</svg>
