<svg xmlns="http://www.w3.org/2000/svg" width="70.6mm" height="70.6mm" viewBox="0 0 200 200">
  <g id="Warstwa_2" data-name="Warstwa 2">
    <g id="Warstwa_1-2" data-name="Warstwa 1">
      <g>
        <g>
          <circle cx="100" cy="100" r="94" fill="#f5f4f5"/>
          <path d="M100,12a88,88,0,1,1-88,88,88,88,0,0,1,88-88m0-12A100,100,0,1,0,200,100,100.2,100.2,0,0,0,100,0Z" fill="#2a2a2b"/>
        </g>
        <g id="g891">
          <path id="path4" d="M41.1,124.8,25.5,107.4,73.1,90.1l7.4,20.3Z" fill="#f49926" fill-rule="evenodd"/>
          <path id="path6" d="M40.9,124.5l-.7,23.3,47.6-17.3-7.4-20.4Z" fill="#fcbd29" fill-rule="evenodd"/>
          <path id="path8" d="M173.3,76.7c6.7,19.7-15.1,45.6-49.2,58s-67.4,6.6-74.9-12.8Z" fill="#ec6812" fill-rule="evenodd"/>
          <path id="path10" d="M173.3,76.7c-7.4-19.5-40.9-25.2-75-12.8s-55.9,38.3-49.1,58Z" fill="#ffd113" fill-rule="evenodd"/>
          <path id="path12" d="M173.3,76.7c4.2,13.2-19.6,33.7-53.5,46.1s-65.4,11.9-70.6-.9Z" fill="#f49926" fill-rule="evenodd"/>
          <path id="path14" d="M173.3,76.7c-5.2-12.9-36.6-13.3-70.6-.9s-57.8,32.9-53.5,46.1Z" fill="#fcbd29" fill-rule="evenodd"/>
          <path id="path16" d="M116,58.9c-3.2-11.2-6.9-17.5-11.1-17.3-8.1.2-10.8,25.9-8.2,58.8s9.5,58.3,18.1,58c5.1-.1,8-8.3,9-22.5,0-.3-.3-.1-.3-.4s0-.5-.2-.5h-1.1c-.9,13.8-3.6,21.8-7.4,21.9-7.1.2-13.9-24.6-16.4-56.5s.2-56.9,6.6-57.1c3-.1,6.4,5.7,9.4,16Z" fill="#ec6812"/>
          <path id="path18" d="M75.9,50.9c-6.9,4.2,3.6,27.8,22.3,55s37.4,45.7,44.7,41.2c4.1-2.5,2.9-10.1-2.3-21.5a.8.8,0,0,0-1.1-.5,1,1,0,0,0-.5,1.1h.1c4.8,10.6,5.9,17.6,2.9,19.4-6,3.7-24.2-14.3-42.4-40.7S71.3,55.6,76.8,52.3c2.8-1.8,9.7,2.5,18.8,11.8l.8.7c.3.1.2-.5.4-.7a.9.9,0,0,0,0-1.2h0c-9.7-9.9-17-14.5-20.9-12Z" fill="#ec6812"/>
        </g>
      </g>
    </g>
  </g>
</svg>
