<svg width="24" height="24" viewBox="0 0 24 24" fill="none" xmlns="http://www.w3.org/2000/svg">
<path fill-rule="evenodd" clip-rule="evenodd" d="M12 22C17.5228 22 22 17.5228 22 12C22 6.47715 17.5228 2 12 2C6.47715 2 2 6.47715 2 12C2 17.5228 6.47715 22 12 22ZM11.9251 8.59998L10.2751 8.52498H10.2651L7.90006 10.89V10.91L9.71006 11.15L10.7551 12.195L11.7801 13.22L12.8251 14.265L13.0651 16.075C13.0651 16.075 13.0801 16.09 13.0851 16.075L15.4501 13.71V13.7L15.3751 12.05V12.04L17.7551 9.65998V9.64998L17.6501 7.32498L17.6201 6.59998L17.6101 6.34998V6.33998C17.6101 6.33998 17.6051 6.32998 17.6001 6.32998L16.6201 6.28498L14.3001 6.18498H14.2901L11.9101 8.56498H11.9001L11.9251 8.59998ZM13.4151 8.27998L14.5551 7.13998H14.5651L15.7551 7.20498H15.7801L16.7301 7.25498C16.7351 7.25498 16.7401 7.25998 16.7401 7.26498L16.7901 8.21998L16.8551 9.42998V9.43998L15.7151 10.58H15.7001L14.7501 10.265L14.2301 10.095L13.9951 10.015L13.9851 10.01L13.7351 9.25498V9.23498L13.4151 8.29998V8.28498V8.27998ZM15.3703 8.17016C15.2403 8.30016 15.0353 8.29516 14.9103 8.17016C14.8903 8.14516 14.8753 8.12516 14.8603 8.10016C14.7903 7.97516 14.8053 7.81516 14.9103 7.71016C15.0153 7.60516 15.1753 7.59016 15.3003 7.66016C15.3253 7.67016 15.3503 7.69016 15.3703 7.71016C15.4953 7.83516 15.4953 8.04516 15.3703 8.17016ZM15.895 9.14509C15.895 9.14509 15.91 9.14509 15.915 9.15009C15.93 9.16009 15.945 9.16509 15.965 9.17009L15.9651 9.1701C15.9851 9.17509 16.005 9.18009 16.025 9.18009H16.075C16.1 9.18009 16.12 9.17509 16.145 9.16509C16.1569 9.16509 16.1656 9.16196 16.1762 9.15818L16.185 9.15509C16.22 9.14009 16.255 9.12009 16.285 9.09009C16.315 9.06009 16.335 9.02509 16.35 8.99009L16.3531 8.98126C16.3569 8.9707 16.36 8.96196 16.36 8.95009C16.3618 8.94108 16.3643 8.93271 16.3667 8.92453C16.3709 8.91002 16.375 8.89608 16.375 8.88009V8.83509C16.375 8.81009 16.37 8.79009 16.36 8.77009C16.36 8.76009 16.3556 8.75009 16.3511 8.74009C16.3489 8.73509 16.3467 8.73009 16.345 8.72509C16.345 8.72009 16.345 8.71009 16.335 8.70509C16.32 8.68009 16.305 8.66009 16.285 8.63509C16.16 8.51009 15.95 8.51009 15.825 8.63509C15.7 8.76009 15.7 8.96509 15.825 9.09509C15.845 9.11509 15.87 9.13509 15.895 9.14509ZM7.21487 12.9102L6.61487 13.1902L6.61987 13.2002L6.28487 14.1202C6.13487 13.7052 6.02987 13.2852 5.96987 12.8502V12.8452C5.71987 11.0202 6.28987 9.10516 7.69487 7.70016C9.15487 6.24016 11.1799 5.68016 13.0699 6.01016C13.0749 6.01016 13.0699 6.03016 13.0699 6.03016L11.9649 7.13516H11.9599C10.7299 7.14516 9.49987 7.62516 8.56487 8.56016C7.65487 9.47016 7.17987 10.6502 7.13987 11.8452L8.79487 12.0652V12.0852L8.63487 12.2452L7.21487 12.9102ZM17.9977 10.9334C17.9969 10.9327 17.9959 10.9318 17.9947 10.9308L17.9946 10.9302L17.9996 10.9352C17.9996 10.9352 17.9989 10.9345 17.9977 10.9334ZM17.9947 10.9308C18.3245 12.8256 17.7694 14.8403 16.3046 16.3052C14.9046 17.7052 12.9796 18.2802 11.1546 18.0302H11.1496C10.8546 17.9952 10.5646 17.9302 10.2796 17.8452C10.1646 17.8102 10.0546 17.7752 9.94458 17.7352C9.92458 17.7352 9.89958 17.7202 9.89958 17.7202L10.8096 17.3652L11.0846 16.7802L11.5446 15.8002L11.7546 15.3552L11.9096 15.2002C11.9196 15.1902 11.9346 15.2052 11.9346 15.2052L11.9596 15.3902L12.1546 16.8502C12.1546 16.8652 12.1646 16.8652 12.1696 16.8652C12.4796 16.8552 12.7896 16.8152 13.0896 16.7452C13.1496 16.7302 13.2096 16.7152 13.2746 16.7002C13.5096 16.6402 13.7346 16.5602 13.9596 16.4602C14.0146 16.4352 14.0696 16.4102 14.1196 16.3852C14.6046 16.1552 15.0496 15.8402 15.4446 15.4452C16.3846 14.5052 16.8596 13.2752 16.8696 12.0452V12.0352L17.9796 10.9252C17.9827 10.922 17.9898 10.9268 17.9947 10.9308ZM11.0691 13.9486L11.0704 13.9499V13.9451C11.0704 13.945 11.0704 13.9449 11.0704 13.9449V13.9451C11.0703 13.9455 11.0699 13.9467 11.0691 13.9486ZM11.0691 13.9486L10.0454 12.9249L7.59038 14.0699L6.26038 17.7349L6.22038 17.8499L9.92538 16.3999C9.92538 16.3999 11.0261 14.0549 11.0691 13.9486Z" fill="#137099"/>
</svg>
