<svg id="Warstwa_1" data-name="Warstwa 1" xmlns="http://www.w3.org/2000/svg" width="64" height="64" viewBox="0 0 64 64">
  <g>
    <path d="M12.9,30.6a1,1,0,0,1,1,1v5.7a1,1,0,0,1-1,1,.7.7,0,0,1-.6-.3.9.9,0,0,1-.3-.7V31.6a.9.9,0,0,1,.3-.7.7.7,0,0,1,.6-.3m0-1.4a2.4,2.4,0,0,0-2.4,2.4v5.7a2.4,2.4,0,0,0,2.4,2.4,2.4,2.4,0,0,0,2.4-2.4V31.6a2.3,2.3,0,0,0-2.4-2.4Z" fill="#137099"/>
    <path d="M51.1,30.6a.7.7,0,0,1,.6.3.9.9,0,0,1,.3.7v5.7a.9.9,0,0,1-.3.7.7.7,0,0,1-.6.3,1,1,0,0,1-1-1V31.6a1,1,0,0,1,1-1m0-1.4h0a2.3,2.3,0,0,0-2.4,2.4v5.7a2.4,2.4,0,0,0,2.4,2.4h0a2.4,2.4,0,0,0,2.4-2.4V31.6a2.4,2.4,0,0,0-2.4-2.4Z" fill="#137099"/>
    <path d="M32,9.4a20.9,20.9,0,0,1,14.4,5.5,1.2,1.2,0,0,1,.3.9,1.1,1.1,0,0,1-.3.8l-.5.2h-.4A22.8,22.8,0,0,0,32,12.4a22.8,22.8,0,0,0-13.5,4.3h-.4l-.5-.2a1.1,1.1,0,0,1-.3-.8,1.2,1.2,0,0,1,.3-.9A20.9,20.9,0,0,1,32,9.4M32,8a22.3,22.3,0,0,0-15.3,5.8,2.8,2.8,0,0,0-.8,2,2.3,2.3,0,0,0,2.2,2.4,2.7,2.7,0,0,0,1.2-.3,21.7,21.7,0,0,1,25.4,0,2.7,2.7,0,0,0,1.2.3,2.3,2.3,0,0,0,2.2-2.4,2.8,2.8,0,0,0-.8-2A22.3,22.3,0,0,0,32,8Z" fill="#137099"/>
    <path d="M33.7,56h-.2L29,55.8a3.6,3.6,0,0,1-2.6-1.1A4,4,0,0,1,25.3,52v-.5a3.8,3.8,0,0,1,3.8-3.7l4.6.2a3.4,3.4,0,0,1,2.6,1.2,3.3,3.3,0,0,1,1,2.7v.5A3.4,3.4,0,0,1,36.2,55,3.9,3.9,0,0,1,33.7,56Zm-4.6-6.7a2.5,2.5,0,0,0-1.6.6,2.4,2.4,0,0,0-.7,1.6V52a2.7,2.7,0,0,0,.6,1.7,2.4,2.4,0,0,0,1.6.7l4.6.2a2.4,2.4,0,0,0,1.6-.7,2.1,2.1,0,0,0,.8-1.6v-.5a2.7,2.7,0,0,0-.6-1.7,2.6,2.6,0,0,0-1.6-.7H29.1Z" fill="#137099"/>
    <path d="M12.6,29.2v-.6a17.1,17.1,0,0,1,4.1-10.9,3.2,3.2,0,0,1-.8-1.3,21.3,21.3,0,0,0-3.1,4.7,17.8,17.8,0,0,0-1.6,7.5v1.3A2.7,2.7,0,0,1,12.6,29.2Z" fill="#137099"/>
    <path d="M12.9,30.6a1,1,0,0,1,1,1v5.7a1,1,0,0,1-1,1,.7.7,0,0,1-.6-.3.9.9,0,0,1-.3-.7V31.6a.9.9,0,0,1,.3-.7.7.7,0,0,1,.6-.3m0-1.4a2.4,2.4,0,0,0-2.4,2.4v5.7a2.4,2.4,0,0,0,2.4,2.4,2.4,2.4,0,0,0,2.4-2.4V31.6a2.3,2.3,0,0,0-2.4-2.4Z" fill="#137099"/>
    <path d="M16.8,25.6h0a4,4,0,0,0-3.9,3.6h0a2.3,2.3,0,0,1,1.4.4h0a3.1,3.1,0,0,1,.7-1.8,3.1,3.1,0,0,1,1.8-.7,2.9,2.9,0,0,1,1.8.7,2.7,2.7,0,0,1,.8,1.8v9.6a2.5,2.5,0,0,1-.8,1.8,2.4,2.4,0,0,1-1.8.7,2.6,2.6,0,0,1-1.8-.7,2.9,2.9,0,0,1-.7-1.6,2.3,2.3,0,0,1-1.4.4h0a4.1,4.1,0,0,0,3.9,3.4h0a4,4,0,0,0,4-4V29.5A3.9,3.9,0,0,0,16.8,25.6Z" fill="#137099"/>
    <path d="M51.4,29.2a2.7,2.7,0,0,1,1.4.7V28.6a17.8,17.8,0,0,0-1.6-7.5,21.3,21.3,0,0,0-3.1-4.7,3.2,3.2,0,0,1-.8,1.3,17.1,17.1,0,0,1,4.1,10.9Z" fill="#137099"/>
    <path d="M51.1,39.7h0a2.3,2.3,0,0,1-1.4-.4,2.9,2.9,0,0,1-.7,1.6,2.6,2.6,0,0,1-1.8.7,2.4,2.4,0,0,1-1.8-.7,2.5,2.5,0,0,1-.8-1.8V29.5a2.7,2.7,0,0,1,.8-1.8,2.9,2.9,0,0,1,1.8-.7,3.1,3.1,0,0,1,1.8.7,3.1,3.1,0,0,1,.7,1.8h0a2.3,2.3,0,0,1,1.4-.4h0a4,4,0,0,0-3.9-3.6h0a3.9,3.9,0,0,0-4,3.9v9.6a4,4,0,0,0,4,4h0a4.1,4.1,0,0,0,3.9-3.4Z" fill="#137099"/>
    <path d="M51.1,39.7h0a2.1,2.1,0,0,1-1.4-.4l-.3,2.2a13,13,0,0,1-6.3,8.4,14.3,14.3,0,0,1-5.7,1.9h0v.5a2.8,2.8,0,0,1-.1.9H38a16,16,0,0,0,5.8-2,15.8,15.8,0,0,0,4.5-4,13.4,13.4,0,0,0,2.5-5.4,7.6,7.6,0,0,0,.3-2.1Z" fill="#137099"/>
  </g>
</svg>
