<svg id="Warstwa_1" data-name="Warstwa 1" xmlns="http://www.w3.org/2000/svg" width="80" height="80" viewBox="0 0 80 80">
  <g>
    <path d="M74.4,8.2,71.8,5.6a19.1,19.1,0,0,0-27.1,0L34.6,15.7a26.2,26.2,0,0,1,10,1.6l3.3-3.2,2.6-2.7a11.1,11.1,0,0,1,15.5,0L68.6,14a11.1,11.1,0,0,1,0,15.5L52.2,45.8a10.8,10.8,0,0,1-15.4,0l-2.6-2.6h-.1L28.3,49h.1l2.5,2.5a19.3,19.3,0,0,0,27.2,0L74.4,35.3A19.1,19.1,0,0,0,74.4,8.2Z"/>
    <path d="M35.4,62.7l-5.9,5.9a11.1,11.1,0,0,1-15.5,0L11.4,66a11.1,11.1,0,0,1,0-15.5L27.8,34.2a10.8,10.8,0,0,1,15.4,0l2.6,2.6h.1L51.7,31h-.1l-2.5-2.5a19.3,19.3,0,0,0-27.2,0l-3.3,3.3-13,13a19.1,19.1,0,0,0,0,27.1l2.6,2.6a19.1,19.1,0,0,0,27.1,0L45.4,64.3A26.2,26.2,0,0,1,35.4,62.7Z"/>
  </g>
</svg>
