<svg id="Warstwa_1" data-name="Warstwa 1" xmlns="http://www.w3.org/2000/svg" width="240" height="240" viewBox="0 0 240 240">
  <g>
    <path d="M197.6,63.8a18.5,18.5,0,0,0-11.1-9.2l-24.2-7.3a25.4,25.4,0,0,0,.4-2.9A22.9,22.9,0,0,0,158,28.1,21.2,21.2,0,0,0,143.6,20h-2.2a21.2,21.2,0,0,0-20.2,15.1L93.4,26.9A16.5,16.5,0,0,0,88,26a17.3,17.3,0,0,0-8.9,2.5A19.6,19.6,0,0,0,70.3,40L40.8,148.2c-2.7,9.8,2.4,20,11.4,23.4l-.5,26.8c-.1,10.6,8.1,21.4,18.2,21.6H179.3c10.1,0,18.4-8.5,18.6-19L200,74.5A18.2,18.2,0,0,0,197.6,63.8ZM53.2,152,82.9,43.6A5.8,5.8,0,0,1,85.6,40a5.5,5.5,0,0,1,2.5-.7h.3l1.3.2,31.4,9.4a22.1,22.1,0,0,0,3.8,7.3,20.4,20.4,0,0,0,4.5,4.3c-1.9,6.4-4.2,14.6-4.2,14.7a6.4,6.4,0,0,0,.4,4.9,6.9,6.9,0,0,0,3.9,3.4h.2l1.2.2h.5a6.3,6.3,0,0,0,6.1-4.8l4.3-14.7a20.3,20.3,0,0,0,11.6-3.8,1.9,1.9,0,0,0,.9-.5l.5-.4.4-.3h0L183,67.5a5.4,5.4,0,0,1,3.4,2.9,5.5,5.5,0,0,1,.6,2.2,5,5,0,0,0-.2,1.2v1.3l-23.3,85.1a9.7,9.7,0,0,1-5.4,6.3L130.4,179a9,9,0,0,1-3.6.8,10.9,10.9,0,0,1-2.6-.4L56.9,159.3A6.1,6.1,0,0,1,53.2,152ZM141.9,33.1a8.6,8.6,0,0,1,6.1,3.2A9.4,9.4,0,0,1,146.9,49l-.7.5a8.1,8.1,0,0,1-4.6,1.4h-.9a8.3,8.3,0,0,1-4.3-1.8,9,9,0,0,1-3.1-6.9,8.8,8.8,0,0,1,8.4-9.1ZM65,175.5l54.5,16.3,1,.3h.4l1.1.3h.7l.7.2h3.3a21,21,0,0,0,8.2-1.6l.7-.3,27.6-12.4,1.2-.5a22.7,22.7,0,0,0,11.5-14.5l10.3-37.5L185,200.9c0,3.1-2.5,3.7-5.6,3.8H70.2c-3.1-.1-5.6-.6-5.5-3.8Z" fill="#212121"/>
    <g>
      <rect x="78.7" y="89.4" width="87.6" height="7.82" rx="3.9" transform="translate(30.9 -30.5) rotate(16.2)" fill="#212121"/>
      <rect x="74.3" y="104.4" width="87.6" height="7.82" rx="3.9" transform="translate(34.9 -28.6) rotate(16.2)" fill="#212121"/>
      <rect x="69.9" y="119.4" width="87.6" height="7.82" rx="3.9" transform="translate(38.9 -26.8) rotate(16.2)" fill="#212121"/>
      <rect x="65.6" y="134.5" width="87.6" height="7.82" rx="3.9" transform="translate(43 -25) rotate(16.2)" fill="#212121"/>
    </g>
  </g>
</svg>
