<svg id="Warstwa_1" data-name="Warstwa 1" xmlns="http://www.w3.org/2000/svg" width="240" height="240" viewBox="0 0 240 240">
  <defs>
    <style>
      .cls-1 {
        fill: #212121;
      }
    </style>
  </defs>
  <g>
    <path class="cls-1" d="M197.8,63.7a16.7,16.7,0,0,0-10.2-8.4l-26.7-8a22.4,22.4,0,0,0,.9-4.5,21.2,21.2,0,0,0-4.4-15.2A19.5,19.5,0,0,0,144,20.1h-2a20.1,20.1,0,0,0-19.4,15.9l-30.5-9a15.4,15.4,0,0,0-13,1.5A17.8,17.8,0,0,0,71,39L40.7,149.3c-2.6,9.4,2.6,19.2,11.6,21.9h.2L52,200c-.1,9.8,7.4,17.8,16.7,18l111.9,2h.2c9.2,0,16.9-7.8,17.1-17.4L200,73.8v-.2A17.1,17.1,0,0,0,197.8,63.7Zm-9.2,138.8a7.9,7.9,0,0,1-7.7,7.9l-112-2a7.9,7.9,0,0,1-7.6-8.2l.4-26.2,58.4,17.3,1,.3h.1l1.3.3h.5l.9.2h3a20.2,20.2,0,0,0,7.6-1.5l.7-.3,28.3-12.6,1.1-.5a21.3,21.3,0,0,0,10.8-13.5l14.7-53.5ZM89.5,36.1,122.8,46a21,21,0,0,0,3.8,7.8,20.1,20.1,0,0,0,5.4,4.7c-2,6.7-4.8,16.4-4.8,16.4a5,5,0,0,0,.3,3.6,4.7,4.7,0,0,0,2.8,2.4l1.2.2h.1a4.5,4.5,0,0,0,4.4-3.4s2.9-9.7,4.8-16.4H142a19.1,19.1,0,0,0,11.5-3.8h.2a3.9,3.9,0,0,1,1-.8l.3-.3h.1l.6-.5,29.5,8.7a7.7,7.7,0,0,1,4.6,3.9,7.3,7.3,0,0,1,.9,3.5,3,3,0,0,0-.2,1h0v.4a6.2,6.2,0,0,1-.1,1.3l-23.9,86.8a11.8,11.8,0,0,1-6.6,7.8l-28.4,12.7a11.9,11.9,0,0,1-4.6,1,11.3,11.3,0,0,1-3.2-.5l-69-20.5h0a8.2,8.2,0,0,1-5.1-9.9L80,41.6a7.8,7.8,0,0,1,3.7-4.8,6.9,6.9,0,0,1,3.7-1h.1A6.4,6.4,0,0,1,89.5,36.1Zm59.3,13.1-.8.6a10.3,10.3,0,0,1-5.9,1.8h-1a10.7,10.7,0,0,1-5.6-2.3,11.4,11.4,0,0,1-3.9-8.5,11,11,0,0,1,10.6-11.3h.3a10.7,10.7,0,0,1,7.8,4A11.5,11.5,0,0,1,148.8,49.2Z"/>
    <path class="cls-1" d="M82.7,76.7l-1.1-.2a4.7,4.7,0,0,0-4.4,3.7A4.8,4.8,0,0,0,80.5,86l84,23.9h1.3a4.6,4.6,0,0,0,4.4-3.6,4.8,4.8,0,0,0-.4-3.7,4.7,4.7,0,0,0-2.8-2.2L83,76.8Z"/>
    <path class="cls-1" d="M160.6,124.8,76.5,100.9h-1a4.6,4.6,0,0,0-4.5,3.4,5,5,0,0,0,3.1,6l84.1,23.9h1.2a4.7,4.7,0,0,0,4.5-3.6,5.2,5.2,0,0,0-.5-3.7A4.4,4.4,0,0,0,160.6,124.8Z"/>
    <path class="cls-1" d="M154.3,149,70.2,125.1H69a4.8,4.8,0,0,0-4.5,3.5,4.9,4.9,0,0,0,3.3,5.9l84,23.9.9.2h.4a4.6,4.6,0,0,0,4.4-3.6,5,5,0,0,0-.4-3.6A5.2,5.2,0,0,0,154.3,149Z"/>
  </g>
</svg>
