<svg id="Warstwa_1" data-name="Warstwa 1" xmlns="http://www.w3.org/2000/svg" width="24" height="24" viewBox="0 0 24 24">
  <rect width="24" height="24" fill="none"/>
  <g>
    <path d="M12,2A10,10,0,1,0,22,12,10,10,0,0,0,12,2Zm0,19.2A9.3,9.3,0,0,1,2.7,12a9.3,9.3,0,0,1,18.6,0A9.3,9.3,0,0,1,12,21.2Z"/>
    <path d="M5.1,15.2h14a0,0,0,0,1,0,0v.6a.7.7,0,0,1-.7.7H5.8a.7.7,0,0,1-.7-.7v-.6A0,0,0,0,1,5.1,15.2Z"/>
    <path d="M16,7H7.9A1.1,1.1,0,0,0,6.8,8.1v5.5a1.1,1.1,0,0,0,1.1,1.2H16a1.1,1.1,0,0,0,1.1-1.2V8.1A1.1,1.1,0,0,0,16,7Zm.4,6.6a.5.5,0,0,1-.5.4H8a.5.5,0,0,1-.5-.4V8.2A.5.5,0,0,1,8,7.7h7.9a.5.5,0,0,1,.5.5Z"/>
    <ellipse cx="13.5" cy="9.4" rx="1.2" ry="1.3"/>
    <rect x="8.2" y="8.8" width="2.3" height="0.37"/>
    <rect x="8.2" y="10.1" width="2.3" height="0.37"/>
    <rect x="8.2" y="11.3" width="2.3" height="0.37"/>
    <rect x="8.2" y="12.6" width="2.3" height="0.37"/>
    <path d="M15.5,11.1a.7.7,0,0,0-.6-.4c-.6,0-.5.5-1.4.5s-.7-.5-1.3-.5a.7.7,0,0,0-.6.4,2,2,0,0,0-.4,1.3v.2a1.9,1.9,0,0,0,.2.7,1.1,1.1,0,0,0,.8.3h2.7a1.1,1.1,0,0,0,.8-.3,1.9,1.9,0,0,0,.2-.7v-.2A2,2,0,0,0,15.5,11.1Z"/>
  </g>
</svg>
