<svg id="Warstwa_1" data-name="Warstwa 1" xmlns="http://www.w3.org/2000/svg" width="24" height="24" viewBox="0 0 24 24">
  <rect x="-14" width="24" height="24" fill="none"/>
  <g>
    <circle cx="12" cy="12" r="10"/>
    <rect width="24" height="24" fill="none"/>
    <path d="M18.3,16.5H5.7a.7.7,0,0,1-.7-.7v-.6H19v.6a.7.7,0,0,1-.7.7Z" fill="#fff"/>
    <path d="M16,7H7.9A1.1,1.1,0,0,0,6.8,8.1h0v5.5A1.2,1.2,0,0,0,8,14.8h8a1.2,1.2,0,0,0,1.2-1.2h0V8.1A1.3,1.3,0,0,0,16,7Zm.4,6.6a.5.5,0,0,1-.5.5H8a.5.5,0,0,1-.5-.5V8.2A.5.5,0,0,1,8,7.7h7.9a.5.5,0,0,1,.5.5Z" fill="#fff"/>
    <g>
      <g>
        <rect x="8.2" y="8.8" width="2.3" height="0.4" fill="#fff"/>
        <rect x="8.2" y="10.1" width="2.3" height="0.4" fill="#fff"/>
        <rect x="8.2" y="11.3" width="2.3" height="0.4" fill="#fff"/>
        <rect x="8.2" y="12.6" width="2.3" height="0.4" fill="#fff"/>
      </g>
      <g>
        <ellipse cx="13.5" cy="9.4" rx="1.2" ry="1.3" fill="#fff"/>
        <path d="M15.5,11.1c-.2-.2-.4-.4-.6-.4s-.4.5-1.3.5h-.3c-.9,0-.7-.5-1.3-.5s-.4.2-.6.4a2.3,2.3,0,0,0-.4,1.4h0a.9.9,0,0,0,.3.7,1.2,1.2,0,0,0,.8.4h2.7a1.2,1.2,0,0,0,.8-.4.9.9,0,0,0,.3-.7h0A2.3,2.3,0,0,0,15.5,11.1Z" fill="#fff"/>
      </g>
    </g>
  </g>
</svg>
