<svg id="Warstwa_1" data-name="Warstwa 1" xmlns="http://www.w3.org/2000/svg" width="24" height="24" viewBox="0 0 24 24">
  <path d="M0,0V24H24V0ZM10.5,10.1v.4H8.2v-.4ZM8.2,9.2V8.8h2.3v.4Zm2.3,2.1v.4H8.2v-.4Zm0,1.3V13H8.2v-.4Zm3-1.4c.9,0,.8-.5,1.4-.5a.7.7,0,0,1,.6.4,2,2,0,0,1,.4,1.3v.2a1.9,1.9,0,0,1-.2.7,1.1,1.1,0,0,1-.8.3H12.2a1.1,1.1,0,0,1-.8-.3,1.9,1.9,0,0,1-.2-.7v-.2a2,2,0,0,1,.4-1.3.7.7,0,0,1,.6-.4C12.8,10.7,12.6,11.2,13.5,11.2Z" fill="none"/>
  <path d="M12,2A10,10,0,1,0,22,12,10,10,0,0,0,12,2ZM6.8,8.1A1.1,1.1,0,0,1,7.9,7H16a1.1,1.1,0,0,1,1.1,1.1v5.6A1.1,1.1,0,0,1,16,14.8H7.8a1.1,1.1,0,0,1-1-1.2Zm11.6,8.4H5.8a.7.7,0,0,1-.7-.7v-.6h14v.6A.7.7,0,0,1,18.4,16.5Z" fill="#137099"/>
  <path d="M15.9,7.7H8a.5.5,0,0,0-.5.5v5.4c0,.2.3.4.5.4h7.9a.7.7,0,0,0,.5-.4V8.2A.5.5,0,0,0,15.9,7.7Zm-2.4.4a1.2,1.2,0,0,1,1.2,1.3,1.2,1.2,0,1,1-2.4,0A1.2,1.2,0,0,1,13.5,8.1Zm-3,4.9H8.2v-.4h2.3Zm0-1.3H8.2v-.4h2.3Zm0-1.2H8.2v-.4h2.3Zm0-1.3H8.2V8.8h2.3Zm5.4,3.4a1.9,1.9,0,0,1-.2.7,1.1,1.1,0,0,1-.8.3H12.2a1.1,1.1,0,0,1-.8-.3,1.9,1.9,0,0,1-.2-.7v-.2a2,2,0,0,1,.4-1.3.7.7,0,0,1,.6-.4c.6,0,.4.5,1.3.5s.8-.5,1.4-.5a.7.7,0,0,1,.6.4,2,2,0,0,1,.4,1.3Z" fill="#137099"/>
</svg>
