<svg id="Warstwa_1" data-name="Warstwa 1" xmlns="http://www.w3.org/2000/svg" width="300" height="300" viewBox="0 0 300 300">
  <g>
    <g>
      <circle cx="150" cy="150" r="141.5" fill="#98ede6"/>
      <circle cx="150" cy="150" r="114.2" fill="#c7fff6"/>
    </g>
    <g>
      <g>
        <rect x="18.6" y="191.6" width="262.8" height="64.79" rx="8" fill="#fff"/>
        <path d="M274.2,261.8H25.8a12.6,12.6,0,0,1-12.6-12.6V198.8a12.5,12.5,0,0,1,12.6-12.6H274.2a12.5,12.5,0,0,1,12.6,12.6v50.4A12.6,12.6,0,0,1,274.2,261.8ZM25.8,197a1.8,1.8,0,0,0-1.8,1.8v50.4a1.8,1.8,0,0,0,1.8,1.8H274.2a1.8,1.8,0,0,0,1.8-1.8V198.8a1.8,1.8,0,0,0-1.8-1.8Z" fill="#2a2b38"/>
      </g>
      <g>
        <rect x="37.5" y="43.6" width="226.1" height="128.1" rx="8" fill="#fff"/>
        <path d="M256.4,177.1H44.7a12.6,12.6,0,0,1-12.6-12.6V50.8A12.7,12.7,0,0,1,44.7,38.2H256.4A12.6,12.6,0,0,1,269,50.8V164.5A12.5,12.5,0,0,1,256.4,177.1ZM44.7,49a1.8,1.8,0,0,0-1.8,1.8V164.5a1.8,1.8,0,0,0,1.8,1.8H256.4a1.8,1.8,0,0,0,1.8-1.8V50.8a1.8,1.8,0,0,0-1.8-1.8Z" fill="#2a2b38"/>
      </g>
      <g>
        <path d="M116.3,171.7h68.5a8,8,0,0,1,8,8v9.4a0,0,0,0,1,0,0H108.3a0,0,0,0,1,0,0v-9.4A8,8,0,0,1,116.3,171.7Z" fill="#eaeaea"/>
        <path d="M198.3,194.5H102.9V178.9a12.7,12.7,0,0,1,12.6-12.6h70.2a12.7,12.7,0,0,1,12.6,12.6Zm-84.6-10.8h73.8v-4.8a1.9,1.9,0,0,0-1.8-1.8H115.5a1.8,1.8,0,0,0-1.8,1.8Z" fill="#2a2b38"/>
      </g>
      <circle cx="60.6" cy="154.7" r="6.3" fill="#2a2b38"/>
      <circle cx="77.6" cy="154.9" r="6.3" fill="#2a2b38"/>
      <circle cx="94.7" cy="154.9" r="6.3" fill="#2a2b38"/>
      <rect x="37.5" y="135.3" width="225.2" height="10.8" fill="#2a2b38"/>
      <rect x="31.6" y="203.5" width="16.2" height="16.2" rx="3.7" fill="#2a2b38"/>
      <rect x="59.1" y="203.5" width="16.2" height="16.2" rx="3.7" fill="#2a2b38"/>
      <rect x="86.7" y="203.5" width="16.2" height="16.2" rx="3.7" fill="#2a2b38"/>
      <rect x="141.8" y="203.5" width="16.2" height="16.2" rx="3.7" fill="#2a2b38"/>
      <rect x="169.4" y="203.5" width="16.2" height="16.2" rx="3.7" fill="#2a2b38"/>
      <rect x="196.9" y="203.5" width="16.2" height="16.2" rx="3.7" fill="#2a2b38"/>
      <rect x="224.5" y="203.5" width="16.2" height="16.2" rx="3.7" fill="#2a2b38"/>
      <rect x="252.1" y="203.5" width="16.2" height="16.2" rx="3.7" fill="#2a2b38"/>
      <g>
        <rect x="114.2" y="203.5" width="16.2" height="16.2" rx="3.7" fill="#2a2b38"/>
        <g>
          <path d="M209.4,243.2H91.9a5.4,5.4,0,0,1,0-10.8H209.4a5.4,5.4,0,0,1,0,10.8Z" fill="#2a2b38"/>
          <rect x="224.4" y="229.7" width="16.2" height="16.2" rx="3.7" fill="#2a2b38"/>
          <rect x="252" y="229.7" width="16.2" height="16.2" rx="3.7" fill="#2a2b38"/>
          <rect x="31.8" y="229.7" width="16.2" height="16.2" rx="3.7" fill="#2a2b38"/>
          <rect x="59.4" y="229.7" width="16.2" height="16.2" rx="3.7" fill="#2a2b38"/>
        </g>
      </g>
    </g>
  </g>
</svg>
