<svg xmlns="http://www.w3.org/2000/svg" width="283" height="283" viewBox="0 0 283 283">
  <g id="Warstwa_2" data-name="Warstwa 2">
    <g id="Warstwa_1-2" data-name="Warstwa 1">
      <g>
        <g>
          <circle cx="141.5" cy="141.5" r="141.5" fill="#98ede6"/>
          <circle cx="141.5" cy="141.5" r="114.2" fill="#c7fff6"/>
        </g>
        <g>
          <g>
            <rect x="10.1" y="183.1" width="262.8" height="64.79" rx="8" fill="#fff"/>
            <path d="M265.7,253.3H17.3A12.6,12.6,0,0,1,4.7,240.7V190.3a12.5,12.5,0,0,1,12.6-12.6H265.7a12.5,12.5,0,0,1,12.6,12.6v50.4A12.6,12.6,0,0,1,265.7,253.3ZM17.3,188.5a1.8,1.8,0,0,0-1.8,1.8v50.4a1.8,1.8,0,0,0,1.8,1.8H265.7a1.8,1.8,0,0,0,1.8-1.8V190.3a1.8,1.8,0,0,0-1.8-1.8Z" fill="#2a2b38"/>
          </g>
          <g>
            <rect x="29" y="35.1" width="226.1" height="128.1" rx="8" fill="#fff"/>
            <path d="M247.9,168.6H36.2A12.6,12.6,0,0,1,23.6,156V42.3A12.7,12.7,0,0,1,36.2,29.7H247.9a12.6,12.6,0,0,1,12.6,12.6V156A12.5,12.5,0,0,1,247.9,168.6ZM36.2,40.5a1.8,1.8,0,0,0-1.8,1.8V156a1.8,1.8,0,0,0,1.8,1.8H247.9a1.8,1.8,0,0,0,1.8-1.8V42.3a1.8,1.8,0,0,0-1.8-1.8Z" fill="#2a2b38"/>
          </g>
          <g>
            <path d="M107.8,163.2h68.5a8,8,0,0,1,8,8v9.4a0,0,0,0,1,0,0H99.8a0,0,0,0,1,0,0v-9.4A8,8,0,0,1,107.8,163.2Z" fill="#eaeaea"/>
            <path d="M189.8,186H94.4V170.4A12.7,12.7,0,0,1,107,157.8h70.2a12.7,12.7,0,0,1,12.6,12.6Zm-84.6-10.8H179v-4.8a1.9,1.9,0,0,0-1.8-1.8H107a1.8,1.8,0,0,0-1.8,1.8Z" fill="#2a2b38"/>
          </g>
          <circle cx="52.1" cy="146.2" r="6.3" fill="#2a2b38"/>
          <circle cx="69.1" cy="146.4" r="6.3" fill="#2a2b38"/>
          <circle cx="86.2" cy="146.4" r="6.3" fill="#2a2b38"/>
          <g>
            <line x1="29" y1="132.2" x2="254.2" y2="132.2" fill="#2a2b38"/>
            <rect x="29" y="126.8" width="225.2" height="10.8" fill="#2a2b38"/>
          </g>
          <rect x="23.1" y="195" width="16.2" height="16.2" rx="3.7" fill="#2a2b38"/>
          <rect x="50.6" y="195" width="16.2" height="16.2" rx="3.7" fill="#2a2b38"/>
          <rect x="78.2" y="195" width="16.2" height="16.2" rx="3.7" fill="#2a2b38"/>
          <rect x="133.3" y="195" width="16.2" height="16.2" rx="3.7" fill="#2a2b38"/>
          <rect x="160.9" y="195" width="16.2" height="16.2" rx="3.7" fill="#2a2b38"/>
          <rect x="188.4" y="195" width="16.2" height="16.2" rx="3.7" fill="#2a2b38"/>
          <rect x="216" y="195" width="16.2" height="16.2" rx="3.7" fill="#2a2b38"/>
          <rect x="243.6" y="195" width="16.2" height="16.2" rx="3.7" fill="#2a2b38"/>
          <g>
            <rect x="105.7" y="195" width="16.2" height="16.2" rx="3.7" fill="#2a2b38"/>
            <g>
              <g>
                <line x1="83.4" y1="229.3" x2="200.9" y2="229.3" fill="#2a2b38"/>
                <path d="M200.9,234.7H83.4a5.4,5.4,0,0,1,0-10.8H200.9a5.4,5.4,0,0,1,0,10.8Z" fill="#2a2b38"/>
              </g>
              <rect x="215.9" y="221.2" width="16.2" height="16.2" rx="3.7" fill="#2a2b38"/>
              <rect x="243.5" y="221.2" width="16.2" height="16.2" rx="3.7" fill="#2a2b38"/>
              <rect x="23.3" y="221.2" width="16.2" height="16.2" rx="3.7" fill="#2a2b38"/>
              <rect x="50.9" y="221.2" width="16.2" height="16.2" rx="3.7" fill="#2a2b38"/>
            </g>
          </g>
        </g>
      </g>
    </g>
  </g>
</svg>
