<svg width="24" height="24" viewBox="0 0 24 24" fill="none" xmlns="http://www.w3.org/2000/svg">
<path d="M8.81539 9.74023H7.52539V14.2452H8.79039C9.79039 14.2452 10.1054 13.4702 10.1054 12.9602V11.0302C10.1054 10.5152 9.78039 9.74023 8.81539 9.74023ZM9.33539 12.9552C9.33539 13.1102 9.28039 13.2302 9.17539 13.3102C9.07039 13.3852 8.96539 13.4252 8.86039 13.4252H8.38539V10.5852H8.86039C8.96539 10.5852 9.07039 10.6252 9.17539 10.7052C9.28039 10.7802 9.33539 10.9002 9.33539 11.0602V12.9552Z" fill="#137099"/>
<path d="M11.125 9.74512H12.845V10.5451H11.395V11.5901H12.28V12.3951H11.395V13.4401H12.845V14.2451H11.15C10.85 14.2551 10.595 14.0151 10.585 13.7101V10.3051C10.58 10.0051 10.82 9.75012 11.125 9.74512Z" fill="#137099"/>
<path d="M15.8202 9.74512H16.7102L15.6602 13.6851C15.3052 14.5201 14.6602 14.3551 14.3702 13.6851L13.3252 9.74512H14.2102L15.0202 12.8351L15.8202 9.74512Z" fill="#137099"/>
<path d="M12 2C6.48 2 2 6.48 2 12C2 17.52 6.48 22 12 22C17.52 22 22 17.525 22 12C22 6.475 17.525 2 12 2ZM18.095 16.905C18.095 17.56 17.56 18.095 16.9 18.095H7.105C6.445 18.095 5.91 17.56 5.91 16.905V7.1C5.91 6.44 6.445 5.905 7.105 5.905H16.9C17.56 5.905 18.095 6.44 18.095 7.1V16.905Z" fill="#137099"/>
</svg>
