<svg id="Warstwa_1" data-name="Warstwa 1" xmlns="http://www.w3.org/2000/svg" width="24" height="24" viewBox="0 0 24 24">
  <path d="M11.5,10.3a15.6,15.6,0,0,1-4.2.6A5.1,5.1,0,0,1,9.8,7.7,19.2,19.2,0,0,1,11.5,10.3Zm.9,1.6a1.6,1.6,0,0,1-.4-.7,13.5,13.5,0,0,1-4.8.7h0a4.9,4.9,0,0,0,1.1,3.1A7.5,7.5,0,0,1,12.4,11.9ZM9,15.8a4.9,4.9,0,0,0,4.7.7,14.8,14.8,0,0,0-1-3.6A6.5,6.5,0,0,0,9,15.8Zm5.9-7.6a4.8,4.8,0,0,0-2.9-1H10.8A20.1,20.1,0,0,1,12.5,10,6.6,6.6,0,0,0,14.9,8.2ZM22,12A10,10,0,1,1,12,2,10,10,0,0,1,22,12Zm-4.2,0A5.8,5.8,0,1,0,12,17.8,5.8,5.8,0,0,0,17.8,12ZM13,10.9a5.9,5.9,0,0,0,.4.8,9.7,9.7,0,0,1,3.4,0,5.7,5.7,0,0,0-1.1-2.8A7.9,7.9,0,0,1,13,10.9Zm.7,1.8a18,18,0,0,1,1,3.3,5,5,0,0,0,2.1-3.3A10.7,10.7,0,0,0,13.7,12.7Z"/>
</svg>
