<svg id="Warstwa_1" data-name="Warstwa 1" xmlns="http://www.w3.org/2000/svg" width="240" height="240" viewBox="0 0 240 240">
  <defs>
    <style>
      .cls-1 {
        fill: #606060;
      }
    </style>
  </defs>
  <path class="cls-1" d="M43.7,187.3c12.2,14.4,34,31.7,68.5,32.6h6.4c66.9,0,92.2-28.2,93.4-52.9s-13.3-34-21.6-38.8h0l3.7-5.5a3.7,3.7,0,0,1,3.1-1.7h0a20.9,20.9,0,0,0,7.6-1.2c8.2-3.1,15.2-11,15.2-17.2a6.5,6.5,0,0,0-4-6.3c-4.7-1.9-11.7-11.2-15.3-17.2a75.2,75.2,0,0,0-9.2-27.6,58.8,58.8,0,0,0-17-18.7A60.9,60.9,0,0,0,137.2,20c-35,0-63.3,30-63.3,67a71,71,0,0,0,4.2,24.1c.8,2.5,1.8,5.1,2.8,7.5-13.7,4.2-20.4-2.7-26.8-9.5-4.6-4.9-9.4-10-16.4-9.2-11.5,1.2-18.3,12.8-17.7,30.3S29.8,171,43.7,187.3Z"/>
</svg>
