<svg id="Warstwa_1" data-name="Warstwa 1" xmlns="http://www.w3.org/2000/svg" width="240" height="240" viewBox="0 0 240 240">
  <defs>
    <style>
      .cls-1 {
        fill: #212121;
      }
    </style>
  </defs>
  <path class="cls-1" d="M159.8,60V55.6C159.8,36,142,20,120,20S80.2,36,80.2,55.6V98.8a1.9,1.9,0,0,0,.5,1.3l9.6,8.5-8.1-1.7h-.4a1.3,1.3,0,0,0-1,.4,1.6,1.6,0,0,0-.6,1.3v46a1.5,1.5,0,0,0,.4,1.1l34.8,38.1v22.5a3.8,3.8,0,0,0,3.8,3.8,3.9,3.9,0,0,0,3.9-3.8V193.1l36.3-37.4a1.6,1.6,0,0,0,.4-1.2V128.9a1.6,1.6,0,0,0-.6-1.3,1.8,1.8,0,0,0-1-.4h-.4l-8.1,1.8,9.6-8.6a1.8,1.8,0,0,0,.5-1.2V69.6a1.6,1.6,0,0,0-.6-1.3,1.8,1.8,0,0,0-1-.4h-.4l-8.1,1.8,9.6-8.6A1.8,1.8,0,0,0,159.8,60Zm-40.6,68.3a3.8,3.8,0,0,0-3.8,3.8v49.2L88.8,152.2V116.6l21.5,6.3h.3a1.6,1.6,0,0,0,1.5-.9,1.7,1.7,0,0,0-.4-2L88.8,96.1V55.6c0-15.2,14-27.6,31.2-27.6s31.2,12.4,31.2,27.6v1.7L127.5,83.4a1.7,1.7,0,0,0-.4,2,1.9,1.9,0,0,0,1.5.9h.3l22.3-8.5v38.9L129.7,143a1.7,1.7,0,0,0-.4,2,1.6,1.6,0,0,0,1.5.9h.3l20.1-8.9v15.1l-28.1,29v-49A3.9,3.9,0,0,0,119.2,128.3Z"/>
</svg>
