<svg id="Warstwa_1" data-name="Warstwa 1" xmlns="http://www.w3.org/2000/svg" width="240" height="240" viewBox="0 0 240 240">
  <g>
    <path d="M133.9,192.3H55.2a7.5,7.5,0,0,1-7.4-7.5V106.1a7,7,0,0,1,2.2-5.2l62.4-62.5a63,63,0,1,1,89.1,89.1l-62.3,62.6A7.5,7.5,0,0,1,133.9,192.3Zm-71.2-15h68.1L191,117h0a48.1,48.1,0,0,0-68-68L62.7,109.2Z" fill="#212121"/>
    <path d="M27.5,220a7.3,7.3,0,0,1-5.3-2.2,7.5,7.5,0,0,1,0-10.6L151.7,77.7a7.5,7.5,0,0,1,10.6,10.6L32.8,217.8A7.4,7.4,0,0,1,27.5,220Z" fill="#212121"/>
    <path d="M170.9,155.3H92.2a7.5,7.5,0,0,1,0-15h78.7a7.5,7.5,0,1,1,0,15Z" fill="#212121"/>
  </g>
</svg>
