<svg id="Warstwa_1" data-name="Warstwa 1" xmlns="http://www.w3.org/2000/svg" width="24" height="24" viewBox="0 0 24 24">
  <path d="M12,2A10.2,10.2,0,0,0,2,12.3,10.3,10.3,0,0,0,8.8,22c.5.1.7-.2.7-.5V19.6c-2.8.6-3.4-1.2-3.4-1.2A2.4,2.4,0,0,0,5,16.9c-.9-.7.1-.7.1-.7a2.1,2.1,0,0,1,1.5,1.1,2.1,2.1,0,0,0,2.9.9,2,2,0,0,1,.7-1.4c-2.2-.3-4.6-1.2-4.6-5.1A4.1,4.1,0,0,1,6.6,9a4.1,4.1,0,0,1,.1-2.7s.9-.3,2.8,1A10.1,10.1,0,0,1,12,7a10.7,10.7,0,0,1,2.5.3c1.9-1.3,2.8-1,2.8-1A4.1,4.1,0,0,1,17.4,9a4.1,4.1,0,0,1,1,2.7c0,4-2.4,4.8-4.6,5.1a2.3,2.3,0,0,1,.7,1.9v2.8c0,.3.2.6.7.5A10.3,10.3,0,0,0,22,12.3,10.2,10.2,0,0,0,12,2Z"/>
</svg>
