<svg id="Warstwa_1" data-name="Warstwa 1" xmlns="http://www.w3.org/2000/svg" width="240" height="240" viewBox="0 0 240 240">
  <defs>
    <style>
      .cls-1 {
        fill: #212121;
      }
    </style>
  </defs>
  <g>
    <path class="cls-1" d="M211.9,40H28.1A8.4,8.4,0,0,0,20,48.6V191.4a8.4,8.4,0,0,0,8.1,8.6H211.9a8.4,8.4,0,0,0,8.1-8.6V48.6A8.4,8.4,0,0,0,211.9,40Zm.6,151.4c0,.7-.4,1.1-.6,1.1H28.1c-.2,0-.6-.4-.6-1.1V78.6h185ZM27.5,71.1V48.6c0-.7.4-1.1.6-1.1H211.9c.2,0,.6.4.6,1.1V71.1Z"/>
    <path class="cls-1" d="M102.3,129.6a10.9,10.9,0,0,0,7.1,2.6h21.1a11.4,11.4,0,0,0,7.1-2.5,7.9,7.9,0,0,0,2.9-6V105.8a7.9,7.9,0,0,0-2.9-6.1,12.1,12.1,0,0,0-7.1-2.6H109.4a11.4,11.4,0,0,0-7.1,2.5,7.9,7.9,0,0,0-2.9,6v18A7.9,7.9,0,0,0,102.3,129.6Zm29.5-6a1.1,1.1,0,0,1-.3.8,1.6,1.6,0,0,1-.9.3h-21a1.1,1.1,0,0,1-.9-.4.8.8,0,0,1-.4-.7V105.7a1.1,1.1,0,0,1,.3-.8,1.6,1.6,0,0,1,.9-.3h21a1.5,1.5,0,0,1,.9.4.8.8,0,0,1,.4.7Z"/>
    <path class="cls-1" d="M43.7,129.6a10.9,10.9,0,0,0,7.1,2.6H71.9a11.4,11.4,0,0,0,7.1-2.5,8.3,8.3,0,0,0,3-6V105.8a7.9,7.9,0,0,0-2.9-6.1A11.5,11.5,0,0,0,72,97.1H50.8a11.4,11.4,0,0,0-7.1,2.5,7.9,7.9,0,0,0-2.9,6v18A7.9,7.9,0,0,0,43.7,129.6Zm29.6-6a1.2,1.2,0,0,1-.4.8l-.9.3H51a1.1,1.1,0,0,1-.9-.4.8.8,0,0,1-.4-.7V105.7a.9.9,0,0,1,.4-.8,1.1,1.1,0,0,1,.8-.3H72a1.5,1.5,0,0,1,.9.4.7.7,0,0,1,.4.7Z"/>
    <path class="cls-1" d="M50.8,175.8H71.9c5.5,0,10-3.9,10.1-8.6V149.3a7.9,7.9,0,0,0-2.9-6.1,11.4,11.4,0,0,0-7.1-2.5H50.8c-5.5,0-10,3.9-10,8.6v17.9C40.8,172,45.3,175.8,50.8,175.8Zm22.5-8.6a1.4,1.4,0,0,1-1.3,1.1H51a1.4,1.4,0,0,1-.9-.3.9.9,0,0,1-.4-.8V149.3c0-.6.5-1,1.2-1H72a1.4,1.4,0,0,1,.9.3.9.9,0,0,1,.4.8Z"/>
    <path class="cls-1" d="M109.4,175.8h21.1c5.5,0,10-3.9,10-8.6V149.3a7.9,7.9,0,0,0-2.9-6.1,11.4,11.4,0,0,0-7.1-2.5H109.4c-5.5,0-10,3.9-10,8.6v17.9C99.4,172,103.9,175.8,109.4,175.8Zm22.4-8.6h0a1.1,1.1,0,0,1-1.2,1h-21a1.4,1.4,0,0,1-.9-.3.9.9,0,0,1-.4-.8V149.3c0-.6.5-1,1.2-1h21a1.4,1.4,0,0,1,.9.3.9.9,0,0,1,.4.8Z"/>
    <path class="cls-1" d="M160.9,129.6a10.9,10.9,0,0,0,7.1,2.6h21.2a11.4,11.4,0,0,0,7.1-2.5,7.9,7.9,0,0,0,2.9-6V105.8a7.9,7.9,0,0,0-2.9-6.1,12.1,12.1,0,0,0-7.1-2.6H168.1a11.4,11.4,0,0,0-7.1,2.5,8.3,8.3,0,0,0-3,6v18A7.9,7.9,0,0,0,160.9,129.6Zm7.2-25H189a1.5,1.5,0,0,1,.9.4.8.8,0,0,1,.4.7v17.9a.9.9,0,0,1-.4.8,1.1,1.1,0,0,1-.8.3h-21a1,1,0,0,1-.9-.4.7.7,0,0,1-.4-.7V105.7a1.2,1.2,0,0,1,.4-.8Z"/>
    <path class="cls-1" d="M168,175.8h21.2a11.4,11.4,0,0,0,7.1-2.5,7.9,7.9,0,0,0,2.9-6.1V149.3a7.9,7.9,0,0,0-2.9-6.1,11.4,11.4,0,0,0-7.1-2.5H168.1c-5.5,0-10,3.9-10.1,8.6v17.9C158,172,162.5,175.8,168,175.8Zm22.3-8.6a.9.9,0,0,1-.4.8,1.1,1.1,0,0,1-.8.3h-21a1.4,1.4,0,0,1-.9-.3.9.9,0,0,1-.4-.8V149.3a1.2,1.2,0,0,1,1.3-1H189a1.4,1.4,0,0,1,.9.3.9.9,0,0,1,.4.8Z"/>
  </g>
</svg>
