<svg id="Warstwa_1" data-name="Warstwa 1" xmlns="http://www.w3.org/2000/svg" width="240" height="240" viewBox="0 0 240 240">
  <g>
    <path d="M185.3,92.4l-9.2,10.3a2.9,2.9,0,0,0-.7,1.7v93.8c0,4-3.7,7.2-8.2,7.2H42.4c-4.5,0-8.2-3.2-8.2-7.2V45.5c0-3.9,3.7-7.1,8.2-7.1H143.3a3.2,3.2,0,0,0,2.1-.8l11.3-9.4c2-1.6.6-4.4-2.1-4.4H29.7c-5.3,0-9.7,3.8-9.7,8.5V211.5c0,4.7,4.4,8.5,9.7,8.5H179.9c5.4,0,9.7-3.8,9.7-8.5V94.4C189.6,91.9,186.9,90.6,185.3,92.4Z" fill="#212121"/>
    <g>
      <path d="M103.8,134.5a3,3,0,0,0,2.1-.8l2.8-2.7a2.8,2.8,0,0,0,.1-4.1,3.2,3.2,0,0,0-4.3,0l-2.8,2.6a2.9,2.9,0,0,0-.9,2.1A3,3,0,0,0,103.8,134.5Z" fill="#212121"/>
      <path d="M148.3,54.5c-.1,2.5,3.2,3.8,5.1,2l33.9-31.6a2.8,2.8,0,0,0-2-4.9h-.1a7.6,7.6,0,0,0-5.1,2L150.5,49.5A7.2,7.2,0,0,0,148.3,54.5Z" fill="#212121"/>
      <path d="M92.3,131.6v-2.4a2.9,2.9,0,0,0-3-2.9h-28a2.9,2.9,0,0,0-3,2.9v2.4a2.9,2.9,0,0,0,3,2.9h28A2.9,2.9,0,0,0,92.3,131.6Z" fill="#212121"/>
      <path d="M145.8,78a3.2,3.2,0,0,0-4.3-.1L126.7,91.7c-8.7,8.1-13.3,15.9-17.4,26.5a2.7,2.7,0,0,0,.6,3.1l4.9,4.8a3,3,0,0,0,3.1.7c11.2-3.6,19.4-7.8,28.1-15.9l14.8-13.8a2.9,2.9,0,0,0,.1-4.1Z" fill="#212121"/>
      <path d="M220,38.1c0-13.3-16.8-20.3-26.8-10.9L151.6,65.9a2.9,2.9,0,0,0-.1,4.1l17.8,17.7a3.2,3.2,0,0,0,4.3.1l41.6-38.7A15,15,0,0,0,220,38.1Z" fill="#212121"/>
    </g>
  </g>
</svg>
