<svg id="Warstwa_1" data-name="Warstwa 1" xmlns="http://www.w3.org/2000/svg" width="24" height="24" viewBox="0 0 24 24">
  <path d="M14.4,7.3H9.6A2.1,2.1,0,0,0,7.3,9.6,12.9,12.9,0,0,0,7.2,12a12.9,12.9,0,0,0,.1,2.4,2.1,2.1,0,0,0,2.3,2.3h4.8a2.1,2.1,0,0,0,2.3-2.3,12.9,12.9,0,0,0,.1-2.4,12.9,12.9,0,0,0-.1-2.4A2.1,2.1,0,0,0,14.4,7.3ZM12,15a3,3,0,1,1,3-3A2.9,2.9,0,0,1,12,15Zm3.1-5.4a.7.7,0,1,1,.7-.7A.7.7,0,0,1,15.1,9.6ZM13.9,12A1.8,1.8,0,0,1,12,13.9,1.8,1.8,0,0,1,10.1,12,1.8,1.8,0,0,1,12,10.1,1.8,1.8,0,0,1,13.9,12ZM12,2A10,10,0,1,0,22,12,10,10,0,0,0,12,2Zm5.8,12.4a3.3,3.3,0,0,1-3.4,3.4H9.6a3.3,3.3,0,0,1-3.4-3.4V9.6A3.3,3.3,0,0,1,9.6,6.2h4.8a3.3,3.3,0,0,1,3.4,3.4v4.8Z"/>
</svg>
