<svg id="Capa_1" data-name="Capa 1" xmlns="http://www.w3.org/2000/svg" width="256" height="256" viewBox="0 0 256 256">
  <g>
    <g>
      <path d="M223.1,89A56,56,0,0,0,167,32.9c-15.6,0-29.1,6.3-39.5,16.7L49.6,127.5A56.8,56.8,0,0,0,32.9,167,56,56,0,0,0,89,223.1c15.6,0,29.1-6.3,39.5-16.7l77.9-77.9A56.8,56.8,0,0,0,223.1,89Z" fill="#d7dadd"/>
      <path d="M167,31.9A55.9,55.9,0,0,1,223.1,88c0,15.6-6.3,29.1-16.7,39.5l-77.9,77.9A56.7,56.7,0,0,1,89,222a55.9,55.9,0,0,1-56.1-56.1c0-15.6,6.3-29.1,16.7-39.5l77.9-77.9c9.3-10.4,23.9-16.6,39.5-16.6M167,8c-21.9,0-42.6,8.3-57.2,23.9L31.9,109.8C16.3,125.4,8,145.1,8,167a81.2,81.2,0,0,0,81,81c21.9,0,42.6-8.3,57.2-23.9l77.9-77.9C239.7,130.6,248,110.9,248,89A81.2,81.2,0,0,0,167,8Z" fill="#2a2b38"/>
    </g>
    <ellipse cx="125.5" cy="129.6" rx="13.5" ry="56.1" transform="translate(-54.9 126.7) rotate(-45)" fill="#2c5484"/>
    <path d="M88,223.1c15.6,0,29.1-6.3,39.5-16.7L164.9,169c-9.4,9.4-89.4-70.6-80-80L47.5,126.4a56.8,56.8,0,0,0-16.6,39.5,56.3,56.3,0,0,0,13.5,36.4l6.2,6.2C61,218.9,74.5,223.1,88,223.1Z" fill="#ff7875"/>
    <path d="M41.2,176.3c0-15.6,6.3-29.1,16.7-39.5l77.9-77.9a56.7,56.7,0,0,1,39.5-16.6,53.9,53.9,0,0,1,35.3,12.5,55,55,0,0,0-44.7-21.9c-15.6,0-29.1,6.3-39.5,16.7L48.5,127.5a56,56,0,0,0,5.2,84.1A54.4,54.4,0,0,1,41.2,176.3Z" fill="#fff" opacity="0.2" style="isolation: isolate"/>
    <ellipse cx="125.5" cy="129.6" rx="13.5" ry="56.1" transform="translate(-54.9 126.7) rotate(-45)" fill="#aa4b4b"/>
    <g>
      <path d="M206.4,48.5l-1-1Z" opacity="0.2" style="isolation: isolate"/>
      <path d="M207.5,49.6Z" opacity="0.2" style="isolation: isolate"/>
      <path d="M202.3,45.4l2.1,2.1C203.3,46.4,203.3,45.4,202.3,45.4Z" opacity="0.2" style="isolation: isolate"/>
      <path d="M210.6,53.7c-2.1-1-3.1-3.1-5.2-4.1a55.7,55.7,0,0,1,8.3,29,54.9,54.9,0,0,1-16.6,39.5l-77.9,78c-10.4,10.3-25,16.6-39.5,16.6a55.8,55.8,0,0,1-29.1-8.3c1,2,2.1,4.1,4.2,5.2A58.5,58.5,0,0,0,90.1,222a54.9,54.9,0,0,0,39.5-16.6l77.9-77.9A56.8,56.8,0,0,0,224.1,88C223.1,75.5,218.9,63.1,210.6,53.7Z" opacity="0.2" style="isolation: isolate"/>
      <path d="M47.5,205.4l1,1C47.5,206.4,47.5,206.4,47.5,205.4Z" opacity="0.2" style="isolation: isolate"/>
      <path d="M46.4,204.4l-2-2.1C45.4,203.3,45.4,204.4,46.4,204.4Z" opacity="0.2" style="isolation: isolate"/>
    </g>
  </g>
</svg>
