<svg id="Warstwa_1" data-name="Warstwa 1" xmlns="http://www.w3.org/2000/svg" width="240" height="240" viewBox="0 0 240 240">
  <defs>
    <style>
      .cls-1 {
        fill: #212121;
      }
    </style>
  </defs>
  <g>
    <path class="cls-1" d="M211.9,49.6H28.1c-4.5,0-8.1,4.6-8.1,10.1V180.3c0,5.5,3.6,10.1,8.1,10.1H211.9c4.5,0,8.1-4.6,8.1-10.1V59.7C220,54.2,216.4,49.6,211.9,49.6ZM27.5,59.7c0-.8.4-1.3.6-1.3H211.9c.2,0,.6.5.6,1.3V180.3c0,.8-.4,1.3-.6,1.3H28.1c-.2,0-.6-.5-.6-1.3Z"/>
    <path class="cls-1" d="M213.2,52.3l-90.1,75.2a4.8,4.8,0,0,1-6.2,0L26.8,52.3a1.5,1.5,0,0,0-1.6,1.5v5.5a1.6,1.6,0,0,0,1.6,1.5L116.9,136a4.8,4.8,0,0,0,6.2,0l90.1-75.2a1.6,1.6,0,0,0,1.6-1.5V53.8A1.5,1.5,0,0,0,213.2,52.3Z"/>
    <g>
      <path class="cls-1" d="M213.2,175.2,144.7,118l-5.1,4.3,73.6,61.5a1.6,1.6,0,0,0,1.6-1.5v-5.5A1.6,1.6,0,0,0,213.2,175.2Z"/>
      <path class="cls-1" d="M95.3,118,26.8,175.2a1.6,1.6,0,0,0-1.6,1.6v5.5a1.6,1.6,0,0,0,1.6,1.5l73.6-61.5Z"/>
    </g>
  </g>
</svg>
