<svg id="Warstwa_1" data-name="Warstwa 1" xmlns="http://www.w3.org/2000/svg" width="300" height="300" viewBox="0 0 300 300">
  <g>
    <g>
      <circle cx="150" cy="150" r="137.3" fill="#98ede6"/>
      <circle cx="150" cy="150" r="110.9" fill="#c7fff6"/>
    </g>
    <g>
      <g>
        <rect x="59.5" y="24.6" width="181" height="250.84" rx="8" fill="#fff"/>
        <path d="M232.5,281.4H67.5a14,14,0,0,1-14-14V32.6a14,14,0,0,1,14-14h165a14,14,0,0,1,14,14V267.4A14,14,0,0,1,232.5,281.4ZM67.5,30.6a2,2,0,0,0-2,2V267.4a2,2,0,0,0,2,2h165a2,2,0,0,0,2-2V32.6a2,2,0,0,0-2-2Z" fill="#2a2b38"/>
      </g>
      <rect x="59.5" y="233.6" width="181" height="12" fill="#2a2b38"/>
      <g>
        <path d="M59.5,239.9v27.5a8,8,0,0,0,8,8h165a8,8,0,0,0,8-8V239.9Z" fill="#eaeaea"/>
        <path d="M232.5,281.4H67.5a14,14,0,0,1-14-14V233.9h193v33.5A14,14,0,0,1,232.5,281.4Zm-167-35.5v21.5a2,2,0,0,0,2,2h165a2,2,0,0,0,2-2V245.9Z" fill="#2a2b38"/>
      </g>
      <g>
        <path d="M117,177.9a6,6,0,0,1-4.3-1.7L77,140.4l35.7-35.7a6.1,6.1,0,0,1,8.5,0,5.9,5.9,0,0,1,0,8.5L94,140.4l27.2,27.3a5.9,5.9,0,0,1,0,8.5A5.7,5.7,0,0,1,117,177.9Z" fill="#2a2b38"/>
        <path d="M183,177.9a5.7,5.7,0,0,1-4.2-1.7,5.9,5.9,0,0,1,0-8.5L206,140.4l-27.2-27.2a6,6,0,0,1,8.4-8.5L223,140.4l-35.8,35.8A5.7,5.7,0,0,1,183,177.9Z" fill="#2a2b38"/>
        <path d="M132.2,173.9a6.7,6.7,0,0,1-3-.8,6,6,0,0,1-2.1-8.2l35.5-61.5a6,6,0,1,1,10.3,6l-35.5,61.5A6,6,0,0,1,132.2,173.9Z" fill="#2a2b38"/>
      </g>
    </g>
  </g>
</svg>
