<svg xmlns="http://www.w3.org/2000/svg" width="283" height="283" viewBox="0 0 283 283">
  <g id="Warstwa_2" data-name="Warstwa 2">
    <g id="Warstwa_1-2" data-name="Warstwa 1">
      <g>
        <g>
          <circle cx="141.5" cy="141.5" r="141.5" fill="#98ede6"/>
          <circle cx="141.5" cy="141.5" r="114.2" fill="#c7fff6"/>
        </g>
        <g>
          <rect x="48.3" y="12.3" width="186.5" height="258.45" rx="8" fill="#fff"/>
          <path d="M226.7,276.7H56.3a14,14,0,0,1-14-14V20.3a14,14,0,0,1,14-14H226.7a14,14,0,0,1,14,14V262.7A14,14,0,0,1,226.7,276.7ZM56.3,18.3a2,2,0,0,0-2,2V262.7a2,2,0,0,0,2,2H226.7a2,2,0,0,0,2-2V20.3a2,2,0,0,0-2-2Z" fill="#2a2b38"/>
        </g>
        <g>
          <line x1="48.3" y1="233.9" x2="234.7" y2="233.9" fill="#eaeaea"/>
          <rect x="48.3" y="227.9" width="186.5" height="12" fill="#2a2b38"/>
        </g>
        <g>
          <path d="M48.3,234.2v28.3a8.2,8.2,0,0,0,8.2,8.2h170a8.2,8.2,0,0,0,8.2-8.2V234.2Z" fill="#eaeaea"/>
          <path d="M226.5,276.7H56.5a14.3,14.3,0,0,1-14.2-14.2V228.2H240.7v34.3A14.3,14.3,0,0,1,226.5,276.7ZM54.3,240.2v22.3a2.2,2.2,0,0,0,2.2,2.2h170a2.2,2.2,0,0,0,2.2-2.2V240.2Z" fill="#2a2b38"/>
        </g>
        <g>
          <path d="M107.5,179.2a6,6,0,0,1-4.3-1.7L70.8,145a6.1,6.1,0,0,1,0-8.5l32.4-32.4a6.1,6.1,0,0,1,8.5,0,5.9,5.9,0,0,1,0,8.5L83.5,140.8,111.7,169a5.9,5.9,0,0,1,0,8.5A5.7,5.7,0,0,1,107.5,179.2Z" fill="#2a2b38"/>
          <path d="M175.5,179.2a5.7,5.7,0,0,1-4.2-1.7,5.9,5.9,0,0,1,0-8.5l28.2-28.2-28.2-28.2a5.9,5.9,0,0,1,0-8.5,6.1,6.1,0,0,1,8.5,0l32.4,32.4a6.1,6.1,0,0,1,0,8.5l-32.4,32.5A6,6,0,0,1,175.5,179.2Z" fill="#2a2b38"/>
          <path d="M123.2,175.1a6.7,6.7,0,0,1-3-.8,6.1,6.1,0,0,1-2.2-8.2l36.6-63.4a5.9,5.9,0,0,1,8.2-2.2,6,6,0,0,1,2.2,8.2l-36.6,63.4A6,6,0,0,1,123.2,175.1Z" fill="#2a2b38"/>
        </g>
        <path d="M159.5,71.5a6.4,6.4,0,0,1-2.3-.5,6,6,0,0,1-3.7-5.6l.3-53.2h12l-.2,38,7.6-8a5.7,5.7,0,0,1,4.2-1.9,6,6,0,0,1,4.4,1.8l8.8,8.8V11.1h12V65.5a6,6,0,0,1-3.7,5.5,6.2,6.2,0,0,1-6.6-1.3L177.6,55,163.8,69.6A5.9,5.9,0,0,1,159.5,71.5Z" fill="#2a2b38"/>
      </g>
    </g>
  </g>
</svg>
