<svg id="Warstwa_1" data-name="Warstwa 1" xmlns="http://www.w3.org/2000/svg" width="240" height="240" viewBox="0 0 240 240">
  <defs>
    <style>
      .cls-1 {
        fill: #212121;
      }
    </style>
  </defs>
  <g>
    <g>
      <path class="cls-1" d="M120.8,220a100.3,100.3,0,0,1-64.3-23.4C14,161.2,8.1,98,43.2,55.8a99,99,0,0,1,63-34.9,100.9,100.9,0,0,1,13.5-.9,99.9,99.9,0,0,1,56.2,17.3,1.5,1.5,0,0,1,.4,2.3l-3.7,5.5a1.6,1.6,0,0,1-1.1.7h-.3l-.9-.2A89.4,89.4,0,0,0,50.9,62.2c-31.6,38-26.2,94.9,12,126.7a90.2,90.2,0,0,0,57.9,20.9,88.3,88.3,0,0,0,63.6-26.3,1.7,1.7,0,0,1,1.2-.5h0a2.1,2.1,0,0,1,1.2.5l4.7,4.7a1.5,1.5,0,0,1,0,2.3,98.5,98.5,0,0,1-65.9,29.4Z"/>
      <path class="cls-1" d="M120.8,218.3a98.7,98.7,0,0,1-63.3-22.9c-41.7-34.9-47.6-97-13-138.6a96.7,96.7,0,0,1,61.9-34.2,98.5,98.5,0,0,1,68.6,16l-3.8,5.6A91.1,91.1,0,0,0,49.6,61.1C17.4,99.8,22.9,157.8,61.8,190.2c36.4,30.3,90.8,27.9,123.8-5.6l4.8,4.8a97.5,97.5,0,0,1-64.9,28.8Z"/>
      <g>
        <path class="cls-1" d="M183.2,50.2h-.1l-29.2-3.3a2.1,2.1,0,0,1-1.3-1,1.8,1.8,0,0,1,.2-1.6l17.4-23.6a1.5,1.5,0,0,1,1.3-.7h.2a1.5,1.5,0,0,1,1.3,1l11.8,26.8a2,2,0,0,1-.2,1.7A1.7,1.7,0,0,1,183.2,50.2Z"/>
        <polygon class="cls-1" points="171.5 21.7 183.2 48.5 154.1 45.2 171.5 21.7"/>
      </g>
    </g>
    <path class="cls-1" d="M120.3,133.7a5.1,5.1,0,0,1-5-5.1V63.4a5,5,0,0,1,5-5,5,5,0,0,1,5,5v60.2h54.6a5.1,5.1,0,0,1,0,10.1Z"/>
    <path class="cls-1" d="M179.9,132H120.3a3.4,3.4,0,0,1-3.3-3.4V63.4a3.4,3.4,0,1,1,6.7,0v61.9h56.2a3.4,3.4,0,0,1,0,6.7Z"/>
    <g>
      <path class="cls-1" d="M197.2,182.7a1.7,1.7,0,0,1-1-.3l-5.3-4.2a1.7,1.7,0,0,1-.3-2.3c1-1.2,1.9-2.5,2.9-3.8a1.5,1.5,0,0,1,1.3-.7,1.9,1.9,0,0,1,1,.3l5.5,3.8a1.7,1.7,0,0,1,.6,1.1,1.6,1.6,0,0,1-.2,1.2l-3.2,4.3a1.7,1.7,0,0,1-1.1.6Z"/>
      <path class="cls-1" d="M197.2,181.1l-5.3-4.2,2.9-3.9,5.5,3.9Z"/>
      <path class="cls-1" d="M205.7,169.9a1.2,1.2,0,0,1-.8-.2l-5.9-3.3a1.6,1.6,0,0,1-.7-.9,1.5,1.5,0,0,1,.1-1.3,91.2,91.2,0,0,0,4.1-8.3,2,2,0,0,1,.9-.9h1.3l6.1,2.6a1.6,1.6,0,0,1,.9,2.2,99.7,99.7,0,0,1-4.5,9.3A1.8,1.8,0,0,1,205.7,169.9Zm8-18.6h-.5l-6.4-2a1.6,1.6,0,0,1-1-.8,1.7,1.7,0,0,1-.1-1.2c.9-3,1.7-6,2.3-9a1.4,1.4,0,0,1,.7-1.1,1.4,1.4,0,0,1,.9-.3h.3l6.6,1.3a1.6,1.6,0,0,1,1.3,1.9c-.7,3.4-1.5,6.7-2.5,10a2.7,2.7,0,0,1-.8,1Zm3.8-19.9-6.7-.6a1.7,1.7,0,0,1-1.5-1.8,78.7,78.7,0,0,0,.4-8.4v-.9a1.3,1.3,0,0,1,.5-1.2,1.6,1.6,0,0,1,1.1-.5h6.8a1.7,1.7,0,0,1,1.6,1.7v1c0,3.1-.1,6.2-.4,9.3a1.7,1.7,0,0,1-1.7,1.5Zm-6.8-19.5a2.1,2.1,0,0,1-1-.4,2.4,2.4,0,0,1-.6-1.1c-.3-3.1-.9-6.1-1.5-9.2a1.7,1.7,0,0,1,1.2-1.9l6.6-1.5h.4a1.7,1.7,0,0,1,1.6,1.3c.7,3.3,1.3,6.8,1.7,10.2a1.7,1.7,0,0,1-1.5,1.8l-6.7.8Zm-4-18.5a1.7,1.7,0,0,1-1.6-1.1,91.4,91.4,0,0,0-3.3-8.7,1.7,1.7,0,0,1-.1-1.2,2.2,2.2,0,0,1,.9-1l6.1-2.7H210a1.4,1.4,0,0,1,.9.8c1.4,3.2,2.7,6.4,3.8,9.6a1.9,1.9,0,0,1-.1,1.3,1.6,1.6,0,0,1-1,.8l-6.4,2.1ZM199,76.2a1.9,1.9,0,0,1-1.5-.8,79.4,79.4,0,0,0-5-7.8,1.4,1.4,0,0,1-.3-1.2,1.4,1.4,0,0,1,.7-1.1l5.4-4a1.7,1.7,0,0,1,1-.3h.2a1.6,1.6,0,0,1,1.1.7c2,2.8,3.9,5.7,5.6,8.6a1.7,1.7,0,0,1-.6,2.3L199.8,76Z"/>
      <path class="cls-1" d="M205.7,168.3l-5.9-3.3a67.1,67.1,0,0,0,4.2-8.5l6.2,2.7A85.3,85.3,0,0,1,205.7,168.3Zm8-18.7-6.4-2a93.2,93.2,0,0,0,2.3-9.1l6.6,1.3C215.5,143.1,214.7,146.4,213.7,149.6Zm3.9-19.9-6.7-.6a80.6,80.6,0,0,0,.4-8.5v-.9h6.8v1A90.8,90.8,0,0,1,217.6,129.7Zm-6.9-19.5a75,75,0,0,0-1.5-9.3l6.6-1.4c.7,3.2,1.2,6.6,1.6,10Zm-4-18.4a84.4,84.4,0,0,0-3.4-8.8l6.1-2.8c1.4,3.1,2.6,6.3,3.7,9.5ZM199,74.5c-1.6-2.7-3.3-5.3-5.2-7.9l5.5-3.9c1.9,2.7,3.8,5.6,5.5,8.5Z"/>
      <path class="cls-1" d="M187.9,60.9a1.8,1.8,0,0,1-1.3-.6c-1-1.2-2.1-2.3-3.2-3.4a1.6,1.6,0,0,1,0-2.4l4.7-4.7a1.7,1.7,0,0,1,2.4,0l3.6,3.8a1.9,1.9,0,0,1,.4,1.2A1.7,1.7,0,0,1,194,56l-5,4.5A2.1,2.1,0,0,1,187.9,60.9Z"/>
      <path class="cls-1" d="M187.9,59.2c-1.1-1.2-2.2-2.4-3.4-3.5l4.8-4.7,3.6,3.8Z"/>
    </g>
  </g>
</svg>
