<svg xmlns="http://www.w3.org/2000/svg" width="274.7" height="283" viewBox="0 0 274.7 283">
  <g id="Warstwa_2" data-name="Warstwa 2">
    <g id="Warstwa_1-2" data-name="Warstwa 1">
      <g>
        <g>
          <circle cx="137.3" cy="141.5" r="137.3" fill="#98ede6"/>
          <circle cx="137.3" cy="141.5" r="110.9" fill="#c7fff6"/>
        </g>
        <g>
          <g>
            <rect x="49.5" y="33.7" width="175.7" height="243.46" rx="8" fill="#fff"/>
            <path d="M217.4,283H57.3a13.6,13.6,0,0,1-13.6-13.6V41.5A13.6,13.6,0,0,1,57.3,27.9H217.4A13.6,13.6,0,0,1,231,41.5V269.4A13.6,13.6,0,0,1,217.4,283ZM57.3,39.5a2,2,0,0,0-2,2V269.4a2,2,0,0,0,2,2H217.4a1.9,1.9,0,0,0,1.9-2V41.5a1.9,1.9,0,0,0-1.9-2Z" fill="#2a2b38"/>
          </g>
          <g>
            <circle cx="137.3" cy="19.2" r="13.4" fill="#eaeaea"/>
            <path d="M137.3,38.4a19.2,19.2,0,1,1,19.3-19.2A19.2,19.2,0,0,1,137.3,38.4Zm0-26.8a7.6,7.6,0,1,0,7.6,7.6A7.6,7.6,0,0,0,137.3,11.6Z" fill="#2a2b38"/>
          </g>
          <g>
            <path d="M97.1,22.4h80.5a8,8,0,0,1,8,8V44.6a0,0,0,0,1,0,0H89.1a0,0,0,0,1,0,0V30.4A8,8,0,0,1,97.1,22.4Z" fill="#eaeaea"/>
            <path d="M191.4,50.4H83.2V30.2A13.6,13.6,0,0,1,96.8,16.6h81a13.6,13.6,0,0,1,13.6,13.6ZM94.9,38.8h84.9V30.2a2,2,0,0,0-2-2h-81a2,2,0,0,0-1.9,2Z" fill="#2a2b38"/>
          </g>
          <g>
            <g>
              <line x1="71.8" y1="83.5" x2="161.1" y2="83.5" fill="#eaf4f3"/>
              <path d="M161.1,89.4H71.8a5.9,5.9,0,0,1,0-11.7h89.3a5.9,5.9,0,0,1,0,11.7Z" fill="#2a2b38"/>
            </g>
            <g>
              <circle cx="194.8" cy="83.5" r="13.8" fill="#84d38b"/>
              <path d="M194.4,91a1.8,1.8,0,0,1-1.4-.6l-6.9-7.7a2,2,0,0,1,.2-2.8,1.9,1.9,0,0,1,2.7.2l5.2,5.9,6.3-9.1a1.9,1.9,0,1,1,3.2,2.2L196,90.2a1.8,1.8,0,0,1-1.5.8Z" fill="#fff"/>
            </g>
            <g>
              <line x1="71.8" y1="205.8" x2="161.1" y2="205.8" fill="#eaf4f3"/>
              <path d="M161.1,211.7H71.8a5.9,5.9,0,0,1-5.8-5.9,5.8,5.8,0,0,1,5.8-5.8h89.3a5.8,5.8,0,0,1,5.8,5.8A5.9,5.9,0,0,1,161.1,211.7Z" fill="#2a2b38"/>
            </g>
            <g>
              <circle cx="194.8" cy="205.8" r="13.8" fill="#84d38b"/>
              <path d="M194.4,213.3a1.8,1.8,0,0,1-1.4-.6l-6.9-7.7a2,2,0,0,1,.2-2.8,1.9,1.9,0,0,1,2.7.2l5.2,5.9,6.3-9.1a1.9,1.9,0,1,1,3.2,2.2L196,212.5a1.8,1.8,0,0,1-1.5.8Z" fill="#fff"/>
            </g>
            <g>
              <line x1="71.8" y1="246.6" x2="161.1" y2="246.6" fill="#eaf4f3"/>
              <path d="M161.1,252.4H71.8a5.8,5.8,0,0,1,0-11.6h89.3a5.8,5.8,0,1,1,0,11.6Z" fill="#2a2b38"/>
            </g>
            <g>
              <circle cx="194.8" cy="246.6" r="13.8" fill="#84d38b"/>
              <path d="M194.4,254.1a1.8,1.8,0,0,1-1.4-.6l-6.9-7.8a1.9,1.9,0,1,1,2.9-2.5l5.2,5.8,6.3-9.1a1.9,1.9,0,0,1,3.2,2.2L196,253.3a1.8,1.8,0,0,1-1.5.8Z" fill="#fff"/>
            </g>
            <g>
              <line x1="71.8" y1="124.4" x2="161.1" y2="124.4" fill="#eaf4f3"/>
              <path d="M161.1,130.2H71.8a5.8,5.8,0,0,1,0-11.6h89.3a5.8,5.8,0,0,1,0,11.6Z" fill="#2a2b38"/>
            </g>
            <g>
              <circle cx="194.8" cy="124.4" r="13.8" fill="#ce8484"/>
              <g>
                <path d="M202.2,132.9a2.4,2.4,0,0,1-1.3-.5l-14.7-13a2,2,0,0,1-.2-2.8,1.9,1.9,0,0,1,2.7-.2l14.8,13.1a1.9,1.9,0,0,1,.2,2.7A2.1,2.1,0,0,1,202.2,132.9Z" fill="#fff"/>
                <path d="M187.5,132.9a2.1,2.1,0,0,1-1.5-.7,1.9,1.9,0,0,1,.2-2.7l14.7-13.1a2,2,0,0,1,2.6,3l-14.8,13A1.8,1.8,0,0,1,187.5,132.9Z" fill="#fff"/>
              </g>
            </g>
            <g>
              <line x1="71.8" y1="165.2" x2="161.1" y2="165.2" fill="#eaf4f3"/>
              <path d="M161.1,171H71.8a5.8,5.8,0,0,1,0-11.6h89.3a5.8,5.8,0,1,1,0,11.6Z" fill="#2a2b38"/>
            </g>
            <g>
              <circle cx="194.8" cy="165.2" r="13.8" fill="#ce8484"/>
              <g>
                <path d="M202.2,173.6a1.8,1.8,0,0,1-1.3-.5l-14.7-13a1.9,1.9,0,0,1,2.5-2.9l14.8,13a1.9,1.9,0,0,1-1.3,3.4Z" fill="#fff"/>
                <path d="M187.5,173.6a1.9,1.9,0,0,1-1.3-3.4l14.7-13a2,2,0,0,1,2.8.2,1.9,1.9,0,0,1-.2,2.7l-14.8,13A1.5,1.5,0,0,1,187.5,173.6Z" fill="#fff"/>
              </g>
            </g>
          </g>
        </g>
      </g>
    </g>
  </g>
</svg>
