<svg id="Warstwa_1" data-name="Warstwa 1" xmlns="http://www.w3.org/2000/svg" width="300" height="300" viewBox="0 0 300 300">
  <g>
    <g>
      <circle cx="150" cy="150" r="137.3" fill="#98ede6"/>
      <circle cx="150" cy="150" r="110.9" fill="#c7fff6"/>
    </g>
    <g>
      <g>
        <rect x="62.2" y="42.2" width="175.7" height="243.46" rx="8" fill="#fff"/>
        <path d="M230.1,291.5H69.9a13.5,13.5,0,0,1-13.5-13.6V50A13.5,13.5,0,0,1,69.9,36.4H230.1A13.5,13.5,0,0,1,243.6,50V277.9A13.5,13.5,0,0,1,230.1,291.5ZM69.9,48A2,2,0,0,0,68,50V277.9a2,2,0,0,0,1.9,2H230.1a2,2,0,0,0,1.9-2V50a2,2,0,0,0-1.9-2Z" fill="#2a2b38"/>
      </g>
      <g>
        <circle cx="150" cy="27.7" r="13.4" fill="#eaeaea"/>
        <path d="M150,46.9a19.2,19.2,0,1,1,19.2-19.2A19.2,19.2,0,0,1,150,46.9Zm0-26.8a7.6,7.6,0,1,0,7.6,7.6A7.6,7.6,0,0,0,150,20.1Z" fill="#2a2b38"/>
      </g>
      <g>
        <path d="M109.7,30.9h80.5a8,8,0,0,1,8,8V53.1a0,0,0,0,1,0,0H101.7a0,0,0,0,1,0,0V38.9A8,8,0,0,1,109.7,30.9Z" fill="#eaeaea"/>
        <path d="M204.1,58.9H95.9V38.7a13.6,13.6,0,0,1,13.6-13.6h81a13.6,13.6,0,0,1,13.6,13.6ZM107.5,47.3h85V38.7a2,2,0,0,0-2-2h-81a2,2,0,0,0-2,2Z" fill="#2a2b38"/>
      </g>
      <g>
        <path d="M173.8,97.9H84.5a5.9,5.9,0,0,1,0-11.7h89.3a5.9,5.9,0,0,1,0,11.7Z" fill="#2a2b38"/>
        <g>
          <circle cx="207.5" cy="92" r="13.8" fill="#84d38b"/>
          <path d="M207.1,99.5a2,2,0,0,1-1.5-.6l-6.8-7.7a1.9,1.9,0,1,1,2.9-2.6l5.2,5.9,6.3-9.1a1.9,1.9,0,0,1,3.2,2.2l-7.7,11.1a1.9,1.9,0,0,1-1.5.8Z" fill="#fff"/>
        </g>
        <path d="M173.8,220.2H84.5a5.9,5.9,0,0,1-5.8-5.9,5.8,5.8,0,0,1,5.8-5.8h89.3a5.8,5.8,0,0,1,5.8,5.8A5.9,5.9,0,0,1,173.8,220.2Z" fill="#2a2b38"/>
        <g>
          <circle cx="207.5" cy="214.3" r="13.8" fill="#84d38b"/>
          <path d="M207.1,221.8a2,2,0,0,1-1.5-.6l-6.8-7.7a1.9,1.9,0,1,1,2.9-2.6l5.2,5.9,6.3-9.1a1.9,1.9,0,0,1,3.2,2.2L208.7,221a1.9,1.9,0,0,1-1.5.8Z" fill="#fff"/>
        </g>
        <path d="M173.8,260.9H84.5a5.8,5.8,0,0,1,0-11.6h89.3a5.8,5.8,0,0,1,0,11.6Z" fill="#2a2b38"/>
        <g>
          <circle cx="207.5" cy="255.1" r="13.8" fill="#84d38b"/>
          <path d="M207.1,262.6a2,2,0,0,1-1.5-.6l-6.8-7.8a1.9,1.9,0,0,1,.1-2.7,2,2,0,0,1,2.8.2l5.2,5.8,6.3-9.1a1.9,1.9,0,0,1,3.2,2.2l-7.7,11.2a1.9,1.9,0,0,1-1.5.8Z" fill="#fff"/>
        </g>
        <path d="M173.8,138.7H84.5a5.8,5.8,0,0,1,0-11.6h89.3a5.8,5.8,0,0,1,0,11.6Z" fill="#2a2b38"/>
        <g>
          <circle cx="207.5" cy="132.9" r="13.8" fill="#ce8484"/>
          <g>
            <path d="M214.9,141.4a2.1,2.1,0,0,1-1.3-.5l-14.8-13a2,2,0,0,1-.1-2.8,1.9,1.9,0,0,1,2.7-.2L216.2,138a1.8,1.8,0,0,1,.1,2.7A1.9,1.9,0,0,1,214.9,141.4Z" fill="#fff"/>
            <path d="M200.1,141.4a2.1,2.1,0,0,1-1.4-.7,1.9,1.9,0,0,1,.1-2.7l14.8-13.1a1.9,1.9,0,0,1,2.7.2,1.9,1.9,0,0,1-.1,2.8l-14.8,13A2.1,2.1,0,0,1,200.1,141.4Z" fill="#fff"/>
          </g>
        </g>
        <path d="M173.8,179.5H84.5a5.8,5.8,0,0,1,0-11.6h89.3a5.8,5.8,0,0,1,0,11.6Z" fill="#2a2b38"/>
        <g>
          <circle cx="207.5" cy="173.7" r="13.8" fill="#ce8484"/>
          <g>
            <path d="M214.9,182.1a1.7,1.7,0,0,1-1.3-.5l-14.8-13a1.9,1.9,0,0,1,2.6-2.9l14.8,13a1.9,1.9,0,0,1,.1,2.8A1.8,1.8,0,0,1,214.9,182.1Z" fill="#fff"/>
            <path d="M200.1,182.1a2,2,0,0,1-1.4-.6,2,2,0,0,1,.1-2.8l14.8-13a1.9,1.9,0,0,1,2.7.2,1.8,1.8,0,0,1-.1,2.7l-14.8,13A1.7,1.7,0,0,1,200.1,182.1Z" fill="#fff"/>
          </g>
        </g>
      </g>
    </g>
  </g>
</svg>
