<svg width="24" height="24" viewBox="0 0 24 24" fill="none" xmlns="http://www.w3.org/2000/svg">
<path fill-rule="evenodd" clip-rule="evenodd" d="M12 22C17.5228 22 22 17.5228 22 12C22 6.47715 17.5228 2 12 2C6.47715 2 2 6.47715 2 12C2 17.5228 6.47715 22 12 22ZM11.2397 12.635C11.2397 12.29 10.9547 12 10.6047 12C10.2547 12 9.96973 12.285 9.96973 12.635C9.96973 12.805 10.0347 12.965 10.1547 13.085C10.2747 13.205 10.4347 13.27 10.6047 13.27C10.7747 13.27 10.9347 13.205 11.0547 13.085C11.1747 12.965 11.2397 12.805 11.2397 12.635ZM13.2747 14.08C12.9997 14.355 12.4147 14.45 11.9997 14.45C11.5847 14.45 10.9997 14.35 10.7247 14.08C10.7097 14.065 10.6897 14.05 10.6697 14.045C10.6497 14.035 10.6297 14.03 10.6047 14.03C10.5797 14.03 10.5597 14.03 10.5397 14.045L10.5397 14.045C10.5197 14.055 10.4997 14.065 10.4847 14.08C10.4697 14.095 10.4547 14.115 10.4497 14.135C10.4397 14.155 10.4347 14.175 10.4347 14.2C10.4347 14.225 10.4347 14.245 10.4497 14.265C10.4597 14.285 10.4697 14.305 10.4847 14.32C10.9197 14.755 11.7447 14.79 11.9897 14.79C12.2347 14.79 13.0647 14.755 13.4947 14.32C13.5097 14.305 13.5247 14.285 13.5297 14.265C13.5397 14.245 13.5447 14.225 13.5447 14.2C13.5447 14.175 13.5447 14.155 13.5297 14.135L13.5297 14.135C13.5197 14.115 13.5097 14.095 13.4947 14.08C13.4347 14.02 13.3297 14.02 13.2647 14.08H13.2747ZM13.3947 12C13.0497 12 12.7597 12.285 12.7597 12.635C12.7597 12.985 13.0447 13.27 13.3947 13.27C13.7447 13.27 14.0297 12.985 14.0297 12.635C14.0297 12.285 13.7497 12 13.3947 12ZM5.90527 12.0003C5.90527 8.63527 8.63527 5.90527 12.0003 5.90527C15.3653 5.90527 18.0953 8.63527 18.0953 12.0003C18.0953 15.3653 15.3653 18.0953 12.0003 18.0953C8.63527 18.0953 5.90527 15.3653 5.90527 12.0003ZM15.5553 13.0803C15.5553 12.9853 15.5453 12.8953 15.5353 12.8103V12.8003C15.6503 12.7453 15.7603 12.6653 15.8403 12.5703C15.9203 12.4753 15.9853 12.3603 16.0203 12.2353C16.0553 12.1153 16.0653 11.9853 16.0453 11.8553C16.0253 11.7303 15.9753 11.6053 15.9053 11.5003C15.8353 11.3903 15.7403 11.3003 15.6303 11.2353C15.5153 11.1653 15.3953 11.1253 15.2653 11.1103C15.1353 11.0953 15.0053 11.1103 14.8853 11.1503C14.7603 11.1953 14.6503 11.2603 14.5553 11.3503C13.9453 10.9103 13.1103 10.6253 12.1803 10.5953L12.5803 8.69527L13.9003 8.97527C13.9203 9.31027 14.1953 9.58027 14.5353 9.58027C14.6453 9.58027 14.7553 9.55027 14.8553 9.49527C14.9553 9.43527 15.0353 9.35527 15.0903 9.25527C15.1453 9.15527 15.1703 9.04527 15.1703 8.93027C15.1653 8.81527 15.1353 8.70527 15.0753 8.61027C15.0153 8.51527 14.9303 8.44027 14.8303 8.38527C14.7303 8.33527 14.6203 8.31027 14.5053 8.31527C14.3953 8.32027 14.2853 8.36027 14.1903 8.42027C14.0953 8.48027 14.0203 8.57027 13.9703 8.67027L12.4953 8.35527C12.4553 8.35027 12.4103 8.35527 12.3753 8.38027C12.3403 8.40027 12.3153 8.43527 12.3103 8.48027L11.8603 10.6053C10.9153 10.6353 10.0603 10.9153 9.44527 11.3603C9.32027 11.2403 9.16027 11.1553 8.99027 11.1253C8.82027 11.0903 8.64027 11.1103 8.48027 11.1803C8.32027 11.2503 8.18027 11.3653 8.08527 11.5103C7.99027 11.6553 7.94027 11.8253 7.94027 12.0003C7.94027 12.3603 8.15527 12.6703 8.46527 12.8103C8.45027 12.8953 8.44527 12.9903 8.44527 13.0803C8.44527 14.4453 10.0353 15.5553 12.0003 15.5553C13.9653 15.5553 15.5553 14.4453 15.5553 13.0803Z" fill="#137099"/>
</svg>
