<svg id="Warstwa_1" data-name="Warstwa 1" xmlns="http://www.w3.org/2000/svg" width="24" height="24" viewBox="0 0 24 24">
  <path d="M13.9,14.8V15a2.5,2.5,0,0,1-1.9.6h0a2.5,2.5,0,0,1-1.9-.6v-.2a.2.2,0,0,1,.3,0,2.2,2.2,0,0,0,1.6.5h0a2.2,2.2,0,0,0,1.6-.5A.2.2,0,0,1,13.9,14.8Zm-2.9-2a.8.8,0,0,0-.8-.8.8.8,0,0,0-.7.8.7.7,0,0,0,.7.7A.7.7,0,0,0,11,12.8ZM22,12A10,10,0,1,1,12,2,10,10,0,0,1,22,12Zm-4.2-.1a1.3,1.3,0,0,0-1.3-1.3,1.2,1.2,0,0,0-.9.4,5.6,5.6,0,0,0-3.3-1L13,7.7l1.9.5h0a1,1,0,0,0,1.1,1,.9.9,0,0,0,1-1,1,1,0,0,0-1-1.1,1.1,1.1,0,0,0-1,.7l-2.1-.5c-.1,0-.2,0-.2.1L11.9,10a6.9,6.9,0,0,0-3.6,1,.9.9,0,0,0-.8-.4,1.3,1.3,0,0,0-1.3,1.3A1.1,1.1,0,0,0,6.8,13v.4c0,1.9,2.3,3.5,5.2,3.5s5.2-1.6,5.2-3.5V13A1.1,1.1,0,0,0,17.8,11.9Zm-4,.1a.8.8,0,0,0-.8.8.7.7,0,0,0,.8.7.7.7,0,0,0,.7-.7A.8.8,0,0,0,13.8,12Z"/>
</svg>
