<svg id="Warstwa_1" data-name="Warstwa 1" xmlns="http://www.w3.org/2000/svg" width="64" height="64" viewBox="0 0 64 64">
  <g>
    <path d="M16.7,38a3.2,3.2,0,0,1-2.3-.9l-4-3.3A3.5,3.5,0,0,1,15,28.4l4,3.3a3.5,3.5,0,0,1,1.2,2.4,3.5,3.5,0,0,1-.8,2.6h0A3.6,3.6,0,0,1,17,38Zm-4-8.6h-.1a2.3,2.3,0,0,0-1.2.6,2,2,0,0,0-.4,1.3,2.4,2.4,0,0,0,.6,1.1l4,3.3a1.7,1.7,0,0,0,1.2.4,2.3,2.3,0,0,0,1.2-.6h0a1.9,1.9,0,0,0,.4-1.2,2.3,2.3,0,0,0-.6-1.2l-4-3.3A2.1,2.1,0,0,0,12.7,29.4Z" fill="#137099"/>
    <path d="M20.9,34.4a3.4,3.4,0,0,1-2.3-.8L13.1,29a3.6,3.6,0,0,1-1.3-2.4,3.8,3.8,0,0,1,.9-2.6,3.5,3.5,0,0,1,2.4-1.2,3.7,3.7,0,0,1,2.6.8l5.4,4.6a3.4,3.4,0,0,1,.5,5h0A3.6,3.6,0,0,1,20.9,34.4Zm-5.5-9.8a1.6,1.6,0,0,0-1.3.6,2,2,0,0,0-.4,1.3,2.4,2.4,0,0,0,.6,1.1l5.5,4.6a1.7,1.7,0,0,0,2.4-.2h0a1.6,1.6,0,0,0-.3-2.4L16.5,25A2.5,2.5,0,0,0,15.4,24.6Z" fill="#137099"/>
    <path d="M26,25.1a3.5,3.5,0,0,1-2.2-.8L19.9,21a3.6,3.6,0,0,1-.5-5,3.5,3.5,0,0,1,5-.4l3.9,3.2a3.6,3.6,0,0,1-1.9,6.3Zm-3.8-8.5H22a1.7,1.7,0,0,0-1.1.6,1.5,1.5,0,0,0-.4,1.2,1.4,1.4,0,0,0,.6,1.2L25,22.8a1.6,1.6,0,0,0,2.3-.2,1.4,1.4,0,0,0,.4-1.2,1.1,1.1,0,0,0-.6-1.1L23.2,17A1.4,1.4,0,0,0,22.2,16.6Z" fill="#137099"/>
    <path d="M24.5,30.6a3.5,3.5,0,0,1-2.2-.8l-6-5a3.6,3.6,0,1,1,4.5-5.5l6,5a3.6,3.6,0,0,1,.5,5h0A3.4,3.4,0,0,1,24.5,30.6ZM18.6,20.4h-.2a1.7,1.7,0,0,0-1.5,1.8,1.1,1.1,0,0,0,.6,1.1l6,5a1.6,1.6,0,0,0,2.3-.2h0a1.6,1.6,0,0,0-.2-2.3l-6-5A1.3,1.3,0,0,0,18.6,20.4Z" fill="#137099"/>
    <polygon points="54.4 48.4 42.8 35.8 44.3 34.4 55.9 47 54.4 48.4" fill="#137099"/>
    <path d="M33.7,48.8a8.3,8.3,0,0,1-5.9-2l-.5-.4-1.6,1.2.7.7a10.3,10.3,0,0,0,6.9,2.5L38.2,56l1.4-1.4-5.5-5.8Z" fill="#137099"/>
    <path d="M22.7,12.4c-.6-1.9-.3-2.3-.3-2.3a2.5,2.5,0,0,1,1.3-.1,20.1,20.1,0,0,1,3.9,1,14.6,14.6,0,0,1,4.9,2.5l1.3-1.4a15.7,15.7,0,0,0-5.6-3,20.8,20.8,0,0,0-4.3-1,3.5,3.5,0,0,0-2.9.6c-1,1.1-.6,2.9-.2,4.3s2.4,2.4,3.7,2.5a4.6,4.6,0,0,1,2,.5l1.1-1.5a6,6,0,0,0-2.9-.9C23.4,13.5,23,13.4,22.7,12.4Z" fill="#137099"/>
    <path d="M14.5,37.1h0L8.1,43.5l1.5,1.4,6.9-7A3.2,3.2,0,0,1,14.5,37.1Z" fill="#137099"/>
    <path d="M41.8,9.6A3.8,3.8,0,0,0,39,8.4h0a3.6,3.6,0,0,0-2.7,1.2l-8.7,8.6.7.6a2.7,2.7,0,0,1,.7.8l2.2-2.3-1.9,2,8.4-8.4a1.9,1.9,0,0,1,1.3-.5h0a1.9,1.9,0,0,1,1.4,3.3l-8.8,8.8a.9.9,0,0,0,.1,1.3h0a.9.9,0,0,0,1.3,0L41.8,15a3.9,3.9,0,0,0,0-5.4Z" fill="#137099"/>
    <path d="M45.2,14.4a3.9,3.9,0,0,0-2.7-1.1h0a3.9,3.9,0,0,0-2.7,1.1L36,18.2l1.2,1.5,3.9-4a2.4,2.4,0,0,1,1.4-.5h0a2.4,2.4,0,0,1,1.4.5,2.2,2.2,0,0,1,0,2.8l-8.8,8.8a.9.9,0,0,0,0,1.3h0a.9.9,0,0,0,1.3-.1l8.8-8.8a3.9,3.9,0,0,0,0-5.4Z" fill="#137099"/>
    <path d="M48.5,19.3a4.1,4.1,0,0,0-2.8-1.1h0A3.9,3.9,0,0,0,43,19.3l-3.8,3.8,1.2,1.5,4-3.9a1.6,1.6,0,0,1,1.3-.6h0a2.1,2.1,0,0,1,2,2,1.6,1.6,0,0,1-.6,1.3l-8.8,8.8a1,1,0,0,0,.1,1.4h0a1,1,0,0,0,1.3,0l8.8-8.8a3.9,3.9,0,0,0,1.1-2.7A4.1,4.1,0,0,0,48.5,19.3Z" fill="#137099"/>
    <path d="M51.5,28.4a3.8,3.8,0,0,0-1-2.7,3.9,3.9,0,0,0-2.7-1.1h0a3.4,3.4,0,0,0-2.7,1l-3.8,3.7,1.1,1.5,4-3.8a1.8,1.8,0,0,1,1.4-.6h0a1.6,1.6,0,0,1,1.3.6,1.6,1.6,0,0,1,.5,1.4,1.9,1.9,0,0,1-.5,1.3l-8,7.6-1.7,1.5c-2.2,2.2-3.5,3.4-6.4,3.7a13.3,13.3,0,0,0-6.7,2.8,50.7,50.7,0,0,0-5.5,4.9l-1,1.1,1.4,1.4a5.7,5.7,0,0,1,1.1-1.1c3.2-3.3,6.6-6.7,10.9-7.1s5.3-2,7.6-4.2l.7-.6a.1.1,0,0,1,.1-.1l.3-.3.6-.6c1.7-1.5,7.9-7.6,7.9-7.6A3.9,3.9,0,0,0,51.5,28.4Z" fill="#137099"/>
  </g>
</svg>
