<svg xmlns="http://www.w3.org/2000/svg" width="70.6mm" height="70.6mm" viewBox="0 0 200 200">
  <g id="Warstwa_2" data-name="Warstwa 2">
    <g id="Warstwa_1-2" data-name="Warstwa 1">
      <g>
        <circle cx="100" cy="100" r="100" fill="#446f9f"/>
        <g>
          <g>
            <g>
              <path d="M98.5,98.6h0a3.9,3.9,0,0,1,1,.8A3.9,3.9,0,0,0,98.5,98.6Zm1,.8a13.4,13.4,0,0,1,2,2.1A13.4,13.4,0,0,0,99.5,99.4Z" fill="#fff"/>
              <path d="M100.6,102.2a18,18,0,0,0-1.9-2h0l-.9-.7-.4-.4V96.3l1.8,1.4a4.4,4.4,0,0,1,1.1.9,14.9,14.9,0,0,1,2.1,2.2Z" fill="#fff"/>
            </g>
            <g>
              <g>
                <circle cx="74.3" cy="100" r="8.4" fill="#fff"/>
                <path d="M74.3,109.6a9.6,9.6,0,1,1,9.6-9.6A9.6,9.6,0,0,1,74.3,109.6Zm0-16.8a7.3,7.3,0,1,0,7.3,7.2A7.3,7.3,0,0,0,74.3,92.8Z" fill="#fff"/>
              </g>
              <g>
                <circle cx="100" cy="100" r="8.4" fill="#fff"/>
                <path d="M100,109.6a9.6,9.6,0,1,1,9.6-9.6A9.6,9.6,0,0,1,100,109.6Zm0-16.8a7.3,7.3,0,1,0,7.3,7.2A7.3,7.3,0,0,0,100,92.8Z" fill="#fff"/>
              </g>
              <g>
                <circle cx="125.7" cy="100" r="8.4" fill="#fff"/>
                <path d="M125.7,109.6a9.6,9.6,0,1,1,9.5-9.6A9.6,9.6,0,0,1,125.7,109.6Zm0-16.8A7.3,7.3,0,1,0,133,100,7.3,7.3,0,0,0,125.7,92.8Z" fill="#fff"/>
              </g>
            </g>
            <g>
              <path d="M99.5,99.6l1,.9-1-.9Z" fill="#fff"/>
              <path d="M99.7,101.3l-.9-.8-.4-.3V97.3l1.8,1.4,1.1.9Z" fill="#fff"/>
            </g>
            <g>
              <path d="M101,101.1A13.4,13.4,0,0,0,99,99,13.4,13.4,0,0,1,101,101.1Z" fill="#fff"/>
              <path d="M100.1,101.8l-1.8-2,1.5-1.7a24,24,0,0,1,2.1,2.3Z" fill="#fff"/>
            </g>
          </g>
          <g>
            <path d="M64.7,44.3a14,14,0,0,1,7-1.8h.2a1.7,1.7,0,0,0,1.7-1.8V35a1.6,1.6,0,0,0-1.7-1.7H70.1c-13.9,0-24.3,6-24.3,22.9A109,109,0,0,0,47.1,70a88.3,88.3,0,0,1,1.4,13.5c0,4.6-1.3,10.7-9.7,12.1a4.9,4.9,0,0,0-3.9,4.4h0a4.9,4.9,0,0,0,3.9,4.4c8.4,1.4,9.7,7.5,9.7,12.1A88.3,88.3,0,0,1,47.1,130a109,109,0,0,0-1.3,13.8c0,16.9,10.4,22.9,24.3,22.9h1.8a1.6,1.6,0,0,0,1.7-1.7v-5.7a1.7,1.7,0,0,0-1.7-1.8h-.2a14,14,0,0,1-7-1.8c-3.8-1.8-7.7-5.5-7.3-12.7s1.7-13.1,2.2-20.2v-.4c.1-1.4.1-2.8.1-4.3v-.5c-.2-8.2-2.8-15.2-11.7-17.6,8.9-2.4,11.5-9.4,11.7-17.6v-.5c0-1.5,0-2.9-.1-4.3v-.4c-.5-7.1-2-14.4-2.2-20.2S60.9,46.1,64.7,44.3Z" fill="#fff"/>
            <path d="M71.9,167.9H70.1c-16.6,0-25.4-8.3-25.4-24.1A99.9,99.9,0,0,1,46,129.9a83.3,83.3,0,0,0,1.4-13.4c0-6.5-2.8-10-8.7-11a5.7,5.7,0,0,1-4.7-4.3h-.3V98.9H34a5.6,5.6,0,0,1,4.7-4.4c5.9-1,8.7-4.5,8.7-11A83.3,83.3,0,0,0,46,70.1a99.9,99.9,0,0,1-1.3-13.9c0-15.8,8.8-24.1,25.4-24.1h1.8A2.9,2.9,0,0,1,74.8,35v5.7a2.9,2.9,0,0,1-2.9,2.9h-.2a13,13,0,0,0-6.4,1.7h-.1c-4.7,2.3-6.9,6.2-6.7,11.7.1,2.8.6,6.1,1,9.6s1,7,1.2,10.5h0v.2c.1,1.5.1,2.9.1,4.4s0,.2,0,.3v.2c-.2,9-3.3,14.8-9.4,17.6,6.1,2.8,9.2,8.6,9.4,17.6v.2c0,.1.1.2,0,.4s0,2.8-.1,4.3v.2h0c-.2,3.5-.7,7.1-1.2,10.5s-.9,6.8-1,9.6c-.2,5.5,2,9.4,6.7,11.7a13.7,13.7,0,0,0,6.5,1.7h.2a2.9,2.9,0,0,1,2.9,2.9V165A2.9,2.9,0,0,1,71.9,167.9ZM36.1,100a3.6,3.6,0,0,0,2.9,3.3c7.1,1.2,10.6,5.6,10.6,13.2a98,98,0,0,1-1.3,13.7,84.9,84.9,0,0,0-1.4,13.6c0,14.5,7.8,21.8,23.2,21.8h1.8a.6.6,0,0,0,.6-.6v-5.7a.6.6,0,0,0-.6-.6h-.2a15.3,15.3,0,0,1-7.5-2c-3.8-1.8-8.3-5.7-8-13.8.2-2.9.6-6.2,1.1-9.8s.9-6.8,1.1-10.2v-.5c.1-1.5.2-2.9.2-4.3v-.5c-.3-9.3-3.7-14.6-10.9-16.5l-4-1.1,4-1.1c7.2-1.9,10.6-7.2,10.9-16.5v-.5c0-1.4-.1-2.8-.2-4.3v-.5c-.2-3.4-.6-6.9-1.1-10.2s-.9-6.9-1.1-9.8c-.3-8.1,4.2-12,8-13.8a15.3,15.3,0,0,1,7.5-2h.2a.6.6,0,0,0,.6-.6V35a.6.6,0,0,0-.6-.6H70.1c-15.4,0-23.2,7.3-23.2,21.8a84.9,84.9,0,0,0,1.4,13.6,98,98,0,0,1,1.3,13.7c0,7.6-3.5,12-10.6,13.2A3.6,3.6,0,0,0,36.1,100Z" fill="#fff"/>
          </g>
          <g>
            <path d="M135.3,155.7a14,14,0,0,1-7,1.8h-.2a1.7,1.7,0,0,0-1.7,1.8V165a1.6,1.6,0,0,0,1.7,1.7h1.8c13.9,0,24.3-6,24.3-22.9a109,109,0,0,0-1.3-13.8,88.3,88.3,0,0,1-1.4-13.5c0-4.6,1.3-10.7,9.7-12.1a4.9,4.9,0,0,0,3.9-4.4h0a4.9,4.9,0,0,0-3.9-4.4c-8.4-1.4-9.7-7.5-9.7-12.1A88.3,88.3,0,0,1,152.9,70a109,109,0,0,0,1.3-13.8c0-16.9-10.4-22.9-24.3-22.9h-1.8a1.6,1.6,0,0,0-1.7,1.7v5.7a1.7,1.7,0,0,0,1.7,1.8h.2a14,14,0,0,1,7,1.8c3.8,1.8,7.7,5.5,7.3,12.7s-1.7,13.1-2.2,20.2v.4c-.1,1.4-.1,2.8-.1,4.3v.5c.2,8.2,2.8,15.2,11.7,17.6-8.9,2.4-11.5,9.4-11.7,17.6v.5c0,1.5,0,2.9.1,4.3v.4c.5,7.1,2,14.4,2.2,20.2S139.1,153.9,135.3,155.7Z" fill="#fff"/>
            <path d="M129.9,167.9h-1.8a2.9,2.9,0,0,1-2.9-2.9v-5.7a2.9,2.9,0,0,1,2.9-2.9h.2a13,13,0,0,0,6.4-1.7h.1c4.7-2.3,6.9-6.2,6.7-11.7-.1-2.8-.6-6.1-1-9.6s-1-7-1.2-10.5h0v-.2c-.1-1.5-.1-3-.1-4.4s0-.2,0-.3v-.2c.2-9,3.3-14.8,9.4-17.6-6.1-2.8-9.2-8.6-9.4-17.6v-.2c0-.1-.1-.2,0-.4s0-2.8.1-4.3v-.2h0c.2-3.5.7-7.1,1.2-10.5s.9-6.8,1-9.6c.2-5.5-2-9.4-6.7-11.7a13.7,13.7,0,0,0-6.5-1.7h-.2a2.9,2.9,0,0,1-2.9-2.9V35a2.9,2.9,0,0,1,2.9-2.9h1.8c16.6,0,25.4,8.3,25.4,24.1A98.5,98.5,0,0,1,154,70.1a83.3,83.3,0,0,0-1.4,13.4c0,6.5,2.8,10,8.7,11a5.7,5.7,0,0,1,4.7,4.3h.3V100l.2,1.2H166a5.7,5.7,0,0,1-4.6,4.3c-6,1-8.8,4.5-8.8,11a83.3,83.3,0,0,0,1.4,13.4,98.5,98.5,0,0,1,1.3,13.9C155.3,159.6,146.5,167.9,129.9,167.9Zm-1.8-9.2a.6.6,0,0,0-.6.6V165a.6.6,0,0,0,.6.6h1.8c15.4,0,23.2-7.3,23.2-21.8a84.9,84.9,0,0,0-1.4-13.6,98,98,0,0,1-1.3-13.7c0-7.6,3.5-12,10.6-13.2a3.3,3.3,0,0,0,0-6.6c-7.1-1.2-10.6-5.6-10.6-13.2a98,98,0,0,1,1.3-13.7,84.9,84.9,0,0,0,1.4-13.6c0-14.5-7.8-21.8-23.2-21.8h-1.8a.6.6,0,0,0-.6.6v5.7a.6.6,0,0,0,.6.6h.2a15.3,15.3,0,0,1,7.5,2c3.8,1.8,8.3,5.7,8,13.8-.2,2.9-.6,6.3-1.1,9.8s-.9,6.8-1.1,10.2v.5c-.1,1.5-.2,2.9-.2,4.3v.5c.3,9.3,3.7,14.6,10.9,16.5l4,1.1-4,1.1c-7.2,1.9-10.6,7.2-10.9,16.5v.5c0,1.4.1,2.8.2,4.3v.5c.2,3.4.7,6.9,1.1,10.2s.9,6.9,1.1,9.8c.3,8.1-4.2,12-8,13.8a15.3,15.3,0,0,1-7.5,2Z" fill="#fff"/>
          </g>
        </g>
      </g>
    </g>
  </g>
</svg>
