<svg xmlns="http://www.w3.org/2000/svg" width="70.6mm" height="70.6mm" viewBox="0 0 200 200">
  <g id="Warstwa_2" data-name="Warstwa 2">
    <g id="Warstwa_1-2" data-name="Warstwa 1">
      <g>
        <circle cx="100" cy="100" r="100" fill="#446f9f"/>
        <g>
          <path d="M132.4,70.9l-4.1-4.2-1.9-1.8a2.5,2.5,0,0,0-3.6,0L81,106.6a2.5,2.5,0,0,0,0,3.6l10.3,10.3a2.7,2.7,0,0,0,3.7,0c4.8-4.8,11.2-11.1,17.5-9.9,3.3.6,7.5,4.3,9.2,8.1,6.2,13.5,14.9,22.4,23.1,23.9a11.7,11.7,0,0,0,10.7-3.3h0a11.7,11.7,0,0,0,3.3-10.7c-1.5-8.2-10.4-16.8-23.9-23.1-3.8-1.7-7.6-5.8-8.2-9.1-1.1-6.4,5.2-12.8,10-17.6a2.5,2.5,0,0,0,0-3.6Zm18.4,63.7a4.5,4.5,0,0,1-6.4,0,4.5,4.5,0,0,1,0-6.3,4.5,4.5,0,0,1,6.4,0A4.5,4.5,0,0,1,150.8,134.6Z" fill="#fff"/>
          <path d="M83.5,33.8l-2.4,2.4h0L61.3,56a2.3,2.3,0,0,0-.3,2.9l3.6,5.9A2.3,2.3,0,0,1,61.4,68l-6-3.6a2.3,2.3,0,0,0-2.8.4L50,67.3a6,6,0,0,0,0,8.4l25.6,25.6a2.7,2.7,0,0,0,3.7,0l38.1-38.2a2.7,2.7,0,0,0,0-3.7L91.9,33.8A6,6,0,0,0,83.5,33.8Z" fill="#fff"/>
          <path d="M73.9,109.6a2.4,2.4,0,0,1-.5-2.8v-.2a.8.8,0,0,1,.2-.4.9.9,0,0,0-.1-1.1L44,75.5a1.7,1.7,0,0,0-3,1.2v28.9h0v54.8a7.3,7.3,0,0,0,3.5,6.3c6.1,3.4,12.3-1,12.3-6.7V121.7a7.2,7.2,0,0,1,3.5-6.2c6.1-3.4,12.3.9,12.3,6.7v22a7,7,0,0,0,3.5,6.2c6.1,3.5,12.4-.9,12.4-6.6V128h0v-3.6C88.5,124.2,73.9,109.6,73.9,109.6Z" fill="#fff"/>
        </g>
      </g>
    </g>
  </g>
</svg>
