<svg xmlns="http://www.w3.org/2000/svg" width="70.6mm" height="70.6mm" viewBox="0 0 200 200">
  <g id="Warstwa_2" data-name="Warstwa 2">
    <g id="Warstwa_1-2" data-name="Warstwa 1">
      <g>
        <ellipse cx="100" cy="100" rx="100" ry="100" transform="translate(-41.4 100.6) rotate(-45.2)" fill="#e97956"/>
        <g>
          <rect x="93" y="44.6" width="14" height="110.74" rx="6" transform="translate(15.8 -13.7) rotate(8.5)" fill="#fff"/>
          <g>
            <path d="M73.6,46.6h0a7.6,7.6,0,0,0-10.5,1.2L25.4,95.4a7.2,7.2,0,0,0,0,9.2l37.7,47.6a7.6,7.6,0,0,0,10.5,1.2h0a7.6,7.6,0,0,0,1.2-10.5L44.4,104.6a7.5,7.5,0,0,1,0-9.2L74.8,57.1A7.6,7.6,0,0,0,73.6,46.6Z" fill="#fff"/>
            <path d="M126.4,153.4h0a7.6,7.6,0,0,0,10.5-1.2l37.7-47.6a7.2,7.2,0,0,0,0-9.2L136.9,47.8a7.6,7.6,0,0,0-10.5-1.2h0a7.6,7.6,0,0,0-1.2,10.5l30.4,38.3a7.5,7.5,0,0,1,0,9.2l-30.4,38.3A7.6,7.6,0,0,0,126.4,153.4Z" fill="#fff"/>
          </g>
        </g>
      </g>
    </g>
  </g>
</svg>
