<svg xmlns="http://www.w3.org/2000/svg" width="70.6mm" height="70.6mm" viewBox="0 0 200 200">
  <g id="Warstwa_2" data-name="Warstwa 2">
    <g id="Warstwa_1-2" data-name="Warstwa 1">
      <g>
        <circle cx="100" cy="100" r="100" fill="#f59e48"/>
        <g>
          <path d="M151.7,127.5l-3.4-5.9a2.9,2.9,0,0,0-3.9-1l-2.8,1.6a2.8,2.8,0,0,1-4.2-2.5v-3.2a2.8,2.8,0,0,0-2.9-2.8h-6.7a2.7,2.7,0,0,0-2.8,2.8v3.2a2.9,2.9,0,0,1-4.3,2.5h-.2l-2.6-1.5a2.9,2.9,0,0,0-3.9,1l-3.3,5.9a2.7,2.7,0,0,0,1,3.8l2.8,1.6h0a2.8,2.8,0,0,1,0,4.9l-2.8,1.7a2.7,2.7,0,0,0-1,3.8l3.3,5.9a2.9,2.9,0,0,0,3.9,1l2.8-1.6A2.9,2.9,0,0,1,125,151v3.3a2.7,2.7,0,0,0,2.8,2.8h6.7a2.8,2.8,0,0,0,2.9-2.8V151a2.8,2.8,0,0,1,4.2-2.4l2.8,1.6a2.9,2.9,0,0,0,3.9-1l3.4-5.9a2.8,2.8,0,0,0-1.1-3.8l-2.8-1.7a2.8,2.8,0,0,1,0-4.9l2.8-1.6A2.8,2.8,0,0,0,151.7,127.5Zm-19.1,16.1a8.3,8.3,0,1,1,6.7-6.8A8.3,8.3,0,0,1,132.6,143.6Z" fill="#fff"/>
          <g>
            <path d="M119.4,132.7a8.7,8.7,0,0,0,0,3.6,55.4,55.4,0,0,0,7.4-11.5A9.6,9.6,0,0,0,119.4,132.7Z" fill="#fff"/>
            <path d="M104.8,143.7a3.3,3.3,0,0,1,1.2-4.6l3.3-1.9a3.4,3.4,0,0,0,0-5.8l-3.3-1.9a3.3,3.3,0,0,1-1.2-4.6l4-6.9a3.3,3.3,0,0,1,4.5-1.2l3.1,1.8h.2a3.4,3.4,0,0,0,5.1-2.9V112a3.4,3.4,0,0,1,3.3-3.4h7.1a81.2,81.2,0,0,0,1.7-17.1h25.5L108.5,40.7,57.7,91.5H83.1s8.4,66.4-42.4,66.4c0,0,38.6,7,66.1-10.6Z" fill="#fff"/>
          </g>
        </g>
      </g>
    </g>
  </g>
</svg>
