<svg xmlns="http://www.w3.org/2000/svg" width="70.6mm" height="70.6mm" viewBox="0 0 200 200">
  <g id="Warstwa_2" data-name="Warstwa 2">
    <g id="Warstwa_1-2" data-name="Warstwa 1">
      <g>
        <circle cx="100" cy="100" r="100" fill="#ecbf56"/>
        <g>
          <path d="M78.6,46.7h2.3a5.8,5.8,0,0,1,5.7,5.8V118c0,28.3-13.9,37-32.2,37a48.1,48.1,0,0,1-9.3-1,5.7,5.7,0,0,1-4.5-6.6h0a5.7,5.7,0,0,1,6.6-4.6,38.6,38.6,0,0,0,6.1.5c12.3,0,19.6-5.5,19.6-26.4V52.5A5.7,5.7,0,0,1,78.6,46.7Z" fill="#fff"/>
          <path d="M96.4,143.3a5.9,5.9,0,0,1,8-3.7,48.8,48.8,0,0,0,18.7,3.9c14.1,0,22.3-7.5,22.3-18.2s-5.7-15.7-20-21.2C108,97.9,97.2,88.9,97.2,73.9,97.2,57.3,111,45,131.7,45A53.9,53.9,0,0,1,150,47.9a5.8,5.8,0,0,1,3.5,7.4h0A5.9,5.9,0,0,1,146,59a42.7,42.7,0,0,0-14.8-2.6c-14.5,0-20.1,8.7-20.1,15.9,0,10,6.5,14.9,21.2,20.6,18,6.9,27.2,15.6,27.2,31.3s-12.2,30.6-37.3,30.6a60,60,0,0,1-22.4-4.3,5.8,5.8,0,0,1-3.4-7.1Z" fill="#fff"/>
        </g>
      </g>
    </g>
  </g>
</svg>
