<svg xmlns="http://www.w3.org/2000/svg" width="70.6mm" height="70.6mm" viewBox="0 0 200 200">
  <g id="Warstwa_2" data-name="Warstwa 2">
    <g id="Warstwa_1-2" data-name="Warstwa 1">
      <g>
        <circle cx="100" cy="100" r="100" fill="#282c34"/>
        <g>
          <g>
            <path d="M146,77.7l-4.6-1.4.8-3.2c3.4-16.8,1.2-30.4-6.6-34.9s-19.7.2-32,10.9c-1.2,1-2.3,2.1-3.5,3.3l-2.4-2.2C84.8,38.8,71.9,34,64.1,38.4s-9.7,17.1-6.5,33.1c.3,1.5.6,3.1,1,4.7l-5.3,1.6C38.2,83.1,28.5,91.3,28.5,99.9s10.4,17.7,26.2,23a24,24,0,0,0,3.8,1.2c-.4,1.8-.8,3.5-1.1,5.1-3,15.7-.6,28.2,6.8,32.4s20.5-.1,33.1-11l3-2.7,3.8,3.5c12.2,10.4,24.2,14.6,31.6,10.3s10.1-17.8,6.9-34.1c-.2-1.2-.5-2.5-.8-3.8l2.6-.8c16.4-5.4,27.1-14.2,27.1-23.1S161.5,83,146,77.7Zm-38.4-24c10.6-9.2,20.4-12.8,24.9-10.2s6.7,13.9,3.7,28.4a28.6,28.6,0,0,1-.7,2.8,170.1,170.1,0,0,0-19.1-3,146.3,146.3,0,0,0-12.1-15ZM74,100c1.8-3.8,3.9-7.7,6.1-11.5h0c2.2-3.8,4.5-7.4,6.9-11,4.2-.3,8.6-.4,13-.4h0c4.4,0,8.8.1,13,.5,2.4,3.4,4.7,7.1,6.9,10.9s4.3,7.7,6.2,11.4c-1.9,3.9-3.9,7.7-6.2,11.6s-4.5,7.5-6.8,11c-4.3.3-8.6.5-13.1.5s-8.8-.2-12.9-.5c-2.5-3.5-4.8-7.2-7-11h0C77.9,107.7,75.8,103.8,74,100Zm-3.3,7.2,4.1,7.4h0c1.4,2.4,2.9,4.9,4.5,7.3q-7-.9-13.2-2.1C67.4,115.7,68.9,111.5,70.7,107.2Zm0-14.3c-1.7-4.2-3.3-8.4-4.5-12.4,4.1-.9,8.4-1.6,12.9-2.2-1.5,2.4-2.9,4.8-4.3,7.2h0C73.4,87.9,72,90.4,70.7,92.9Zm54.5,21.6q2.3-3.7,4.2-7.5a132,132,0,0,1,4.8,12.5c-4.2.9-8.6,1.7-13.4,2.3C122.3,119.4,123.8,117,125.2,114.5Zm4.1-21.6c-1.3-2.5-2.6-5-4.1-7.4s-2.9-4.8-4.3-7.2c4.5.6,8.9,1.4,13,2.3A125.8,125.8,0,0,1,129.3,92.9ZM100.1,61.1a128.5,128.5,0,0,1,8.4,10.1c-2.8-.2-5.6-.2-8.5-.2s-5.6,0-8.4.2A110.2,110.2,0,0,1,100.1,61.1Zm-33-17.4c4.8-2.8,15.4,1.2,26.5,11l2.2,2a144.4,144.4,0,0,0-12.2,15,138.7,138.7,0,0,0-19.1,3c-.3-1.5-.7-3-.9-4.4C60.9,56.6,62.7,46.3,67.1,43.7Zm-6.9,74.6-3.6-1.1c-6.9-2.4-12.7-5.5-16.6-8.9s-5.4-6-5.4-8.4c0-5.2,7.8-11.8,20.7-16.3l5-1.6a150,150,0,0,0,6.9,18A154.8,154.8,0,0,0,60.2,118.3ZM93.3,146c-5.6,4.8-11.1,8.3-16,10s-7.9,1.6-10.1.4c-4.5-2.6-6.3-12.6-3.8-26,.3-1.6.7-3.2,1.1-4.8a147.3,147.3,0,0,0,19.2,2.8A160.8,160.8,0,0,0,96,143.5Zm6.9-6.9c-2.9-3.1-5.7-6.5-8.6-10.2H100c2.9,0,5.8,0,8.6-.2A116.4,116.4,0,0,1,100.2,139.1Zm37.1,8.5c-.8,4.6-2.6,7.6-4.7,8.8-4.5,2.6-14.1-.7-24.5-9.6l-3.6-3.3a141.4,141.4,0,0,0,12-15.2,155.4,155.4,0,0,0,19.4-2.9c.2,1.1.5,2.3.7,3.4C138.1,136,138.3,142.5,137.3,147.6Zm5.2-30.4-2.4.8a151,151,0,0,0-7.2-18.1,137.9,137.9,0,0,0,6.9-17.8l4.3,1.4c13.2,4.5,21.3,11.2,21.3,16.4S156.6,112.5,142.5,117.2Z" fill="#56c2de"/>
            <path d="M129,165.4c-7.4,0-16.7-4.4-26.2-12.5l-2.5-2.3-1.7,1.5c-13.5,11.8-27.1,16.1-35.4,11.3s-11-17.6-7.7-34.6c.2-1,.4-2.2.7-3.3l-2.2-.7C37.1,119,26.5,109.5,26.5,99.9s9.8-18.3,26.2-24l3.5-1.1-.6-3c-3.4-17.3-.6-30.4,7.5-35.1S85,36.3,99,48.7l1.1.9,2.2-2c13.4-11.6,26.2-15.7,34.3-11.1s11.3,18.7,7.5,37l-.3,1.4,2.9.9h0c16.8,5.8,26.8,14.8,26.8,24.1s-10.7,19.1-28.5,25l-.9.3c.2.7.3,1.4.5,2,3.5,17.5.4,31.4-7.9,36.2A15,15,0,0,1,129,165.4Zm-28.7-20.3,1.3,1.3,3.8,3.4c11.6,10,22.9,13.9,29.3,10.2s9-16.4,6-32l-.9-3.7-.4-1.9,1.8-.5,2.6-.8c15.8-5.2,25.7-13.4,25.7-21.2s-9.3-15.2-24.1-20.3h0l-4.5-1.4-1.9-.5.5-1.9c.3-1,.5-2.1.7-3.1,3.4-16.2,1.2-28.8-5.6-32.7s-17.8.4-29.7,10.6l-3.4,3.2-1.4,1.3-1.4-1.3-2.3-2.1C83.9,40.6,71.9,36.2,65.1,40.2s-8.6,15.5-5.6,30.9c.3,1.4.7,3,1.1,4.6l.4,1.9-1.8.5L54,79.7C39.5,84.8,30.5,92.5,30.5,99.9s9.8,16,24.8,21.1l3.8,1.2,1.8.5-.4,1.9c-.4,1.7-.8,3.4-1.1,5-2.9,15-.7,26.6,5.8,30.3S84,159.5,96,149.1l2.9-2.7ZM129,159.3c-5.8,0-13.9-4-22.2-11l-3.7-3.4-1.4-1.3,1.3-1.5a149.3,149.3,0,0,0,11.9-14.9l.5-.8h.9a145.1,145.1,0,0,0,19.1-2.9l1.9-.4.5,1.9c.3,1.2.6,2.4.8,3.5,1.4,7.4,1.7,14.1.7,19.6h0c-1,5.1-2.9,8.6-5.7,10.2A9.5,9.5,0,0,1,129,159.3Zm-21.7-15.9,2.1,1.8c10.2,8.8,18.9,11.4,22.2,9.5,1.7-.9,3-3.7,3.7-7.5s.7-11.1-.6-18l-.3-1.5a138.1,138.1,0,0,1-16.8,2.5A134.6,134.6,0,0,1,107.3,143.4ZM71,159.2a9.5,9.5,0,0,1-4.8-1.1c-5.5-3.2-7.4-14.2-4.7-28.1.3-1.6.6-3.2,1-4.9l.5-1.8,1.9.4a142.3,142.3,0,0,0,19,2.7h.9l.5.7a159.3,159.3,0,0,0,12.1,14.9l1.4,1.5L97.4,145l-2.8,2.5h0a53.5,53.5,0,0,1-16.7,10.4A20.8,20.8,0,0,1,71,159.2ZM66,128a26.1,26.1,0,0,0-.6,2.7c-2.5,13.2-.5,22,2.8,23.9,1.7,1,4.8.8,8.4-.5a48.6,48.6,0,0,0,15.3-9.6h0a6.9,6.9,0,0,0,1.3-1.1,143.8,143.8,0,0,1-10.6-13.1A154.7,154.7,0,0,1,66,128Zm34.3,14.1-1.5-1.6c-3-3.2-5.9-6.7-8.8-10.4l-2.5-3.4,4.2.2c5.5.2,11.2.2,16.8-.1h4.2l-2.5,3.3a120.8,120.8,0,0,1-8.5,10.5ZM95.8,131l4.4,5.1c1.4-1.6,2.9-3.3,4.3-5.1Zm4.2-6c-4.5,0-8.8-.2-13.1-.5H86l-.6-.8c-2.5-3.6-4.8-7.4-7.1-11.2s-4.2-7.7-6.1-11.6l-.4-.9.4-.8c1.9-4,3.9-7.9,6.1-11.7s4.6-7.5,7-11.1l.6-.8h.9a166.2,166.2,0,0,1,26.4,0h1l.5.8c2.4,3.6,4.7,7.3,7,11.1s4.3,7.7,6.2,11.5l.4.9-.4.9c-1.9,3.9-4,7.8-6.2,11.7s-4.6,7.6-7,11.1l-.5.8h-1C108.9,124.8,104.5,125,100,125Zm-11.8-4.4a189,189,0,0,0,23.8,0c2.1-3.2,4.2-6.6,6.2-10.1s3.9-7.1,5.7-10.6c-1.8-3.4-3.7-6.9-5.7-10.4s-4.1-6.8-6.3-10a157.6,157.6,0,0,0-23.8,0c-2.2,3.2-4.3,6.6-6.3,10s-3.9,7-5.6,10.5c1.7,3.6,3.6,7.1,5.6,10.5S85.9,117.3,88.2,120.6Zm-5,3.7-4.1-.4c-4.8-.6-9.3-1.3-13.4-2.2l-2.2-.5.7-2c1.3-4.2,2.9-8.5,4.7-12.8l1.7-3.9,1.9,3.8c1.3,2.4,2.6,4.9,4,7.2s2.9,4.9,4.5,7.3Zm-14.5-6.1c2.1.5,4.3.8,6.6,1.2l-2.2-3.8L71,111.9Zm48.2,6,2.3-3.5,4.3-7.2h0c1.4-2.5,2.8-5,4.1-7.5l1.9-3.7,1.7,3.9a113.3,113.3,0,0,1,4.9,12.7l.6,2.1-2.1.4a105.3,105.3,0,0,1-13.5,2.3Zm12.3-12.6c-.8,1.3-1.5,2.6-2.2,3.9h0l-2.2,3.7c2.3-.3,4.6-.7,6.8-1.2C130.9,115.9,130.1,113.8,129.2,111.6Zm-67.7,9.1-1.9-.5L56,119.1c-7.1-2.5-13.1-5.6-17.3-9.2s-6.1-6.9-6.1-10c0-6.4,8.7-13.6,22.1-18.2l5-1.6,1.9-.5.6,1.8A146.4,146.4,0,0,0,69,99.2l.4.8-.4.9a150,150,0,0,0-6.9,18ZM58.9,84.5l-2.9,1C43.3,89.9,36.6,96.1,36.6,99.9c0,1.9,1.8,4.4,4.7,6.9s9.3,6.2,16,8.5l1.6.5A149.8,149.8,0,0,1,65,100,150.5,150.5,0,0,1,58.9,84.5Zm79.9,35.9-.6-1.8a153.1,153.1,0,0,0-7.1-17.8l-.5-.9.4-.8a127.5,127.5,0,0,0,6.9-17.6l.6-1.8,1.9.5,4.3,1.4c13.8,4.7,22.7,11.9,22.7,18.3s-9.6,14.3-24.3,19.2h0l-2.4.8Zm-3.7-20.5a159.3,159.3,0,0,1,6.3,15.6l.5-.2h0c13.9-4.6,21.5-11.4,21.5-15.4s-6.9-10.1-20-14.5l-2.3-.8A150.3,150.3,0,0,1,135.1,99.9ZM70.6,97.6l-1.7-4a112,112,0,0,1-4.6-12.5l-.7-2,2.2-.5c4.1-.9,8.5-1.7,13.1-2.3l4.2-.5-2.3,3.6c-1.5,2.3-2.9,4.7-4.3,7.1s-2.7,4.8-4,7.3ZM68.8,82c.6,2,1.4,4.1,2.2,6.2l2-3.7c.7-1.2,1.4-2.4,2.2-3.6Zm60.7,15.5-1.9-3.7-4.1-7.3-4.3-7.1-2.3-3.6,4.2.6a103.5,103.5,0,0,1,13.2,2.3l2.2.4-.7,2.1a128.7,128.7,0,0,1-4.6,12.5Zm-4.7-16.6,2.1,3.6c.8,1.2,1.5,2.5,2.2,3.7.8-2.1,1.5-4.1,2.2-6.1ZM137,77.1l-1.9-.4a133.4,133.4,0,0,0-18.9-3h-.9l-.5-.7a144.8,144.8,0,0,0-11.9-14.8l-1.4-1.5,1.5-1.3c1.1-1.1,2.2-2.2,3.3-3.1h0c11-9.5,21.7-13.6,27.2-10.4s7.8,15.4,4.6,30.5l-.6,2.9Zm-19.5-7.3A158.4,158.4,0,0,1,134,72.4a2.9,2.9,0,0,0,.2-.9c3-14.3.9-24.2-2.7-26.2s-12.1.9-22.6,9.9h0l-1.7,1.6A159.4,159.4,0,0,1,117.5,69.8ZM63.1,77.1l-.5-1.9c-.4-1.6-.7-3.1-1-4.5-2.8-14.3-1-25.5,4.5-28.7h0c6-3.4,17.3,1,28.9,11.2l2.2,2.1,1.4,1.3-1.4,1.5a142.7,142.7,0,0,0-12,14.8l-.5.7h-.9A148.3,148.3,0,0,0,65,76.6Zm5-31.7c-3.3,1.9-5.2,11-2.6,24.5.2.8.3,1.6.5,2.4a163.1,163.1,0,0,1,16.5-2.5A156.4,156.4,0,0,1,93,56.8l-.7-.6c-11-9.7-20.6-12.8-24.2-10.8Zm44.5,28-4.2-.2a155,155,0,0,0-16.7,0l-4.3.2L90,70a130.1,130.1,0,0,1,8.6-10.3l1.5-1.6,1.4,1.6A114.2,114.2,0,0,1,110.1,70ZM100,69h4.3l-4.2-5c-1.5,1.6-2.9,3.3-4.3,5Z" fill="#56c2de"/>
          </g>
          <g>
            <path d="M99.8,89.3a10.8,10.8,0,1,1-10.7,10.8A10.8,10.8,0,0,1,99.8,89.3" fill="#56c2de"/>
            <path d="M99.8,112.8a12.8,12.8,0,1,1,12.8-12.7A12.7,12.7,0,0,1,99.8,112.8Zm0-21.5a8.8,8.8,0,1,0,8.8,8.8A8.8,8.8,0,0,0,99.8,91.3Z" fill="#56c2de"/>
          </g>
        </g>
      </g>
    </g>
  </g>
</svg>
