<svg xmlns="http://www.w3.org/2000/svg" width="70.6mm" height="70.6mm" viewBox="0 0 200 200">
  <g id="Warstwa_2" data-name="Warstwa 2">
    <g id="Warstwa_1-2" data-name="Warstwa 1">
      <g>
        <circle cx="100" cy="100" r="100" fill="#594282"/>
        <g>
          <g>
            <rect x="87.9" y="61.8" width="17.1" height="81.77" transform="translate(100.9 -38.1) rotate(45)" fill="#fff"/>
            <path d="M71.9,127.2a17.8,17.8,0,1,0,0,25.2A17.8,17.8,0,0,0,71.9,127.2ZM52.6,146.5a9.5,9.5,0,0,1,0-13.4,9.6,9.6,0,0,1,13.5,0,9.5,9.5,0,0,1,0,13.4A9.6,9.6,0,0,1,52.6,146.5Z" fill="#fff"/>
            <path d="M156.9,54.4l-10.1,10a8.5,8.5,0,0,1-12.1,0h0a8.6,8.6,0,0,1,0-12.1l10.1-10a17.8,17.8,0,1,0,7.6,29.6A17.9,17.9,0,0,0,156.9,54.4Z" fill="#fff"/>
            <rect x="90.4" y="55.8" width="17.1" height="88.86" transform="translate(99.8 -40.6) rotate(45)" fill="#fff"/>
          </g>
          <path d="M130.2,114h15.2a2.7,2.7,0,0,1,2.7,2.7v38.8a8.3,8.3,0,0,1-8.3,8.3h-4a8.3,8.3,0,0,1-8.3-8.3V116.7A2.7,2.7,0,0,1,130.2,114Z" transform="translate(-57.9 138.1) rotate(-45)" fill="#fff"/>
          <path d="M66.3,48.4,49.2,65.5a2.7,2.7,0,0,0,0,3.7l.8.7a2.8,2.8,0,0,1,0,3.8l-.2.2a2.6,2.6,0,0,1-3.8,0l-.7-.7a2.6,2.6,0,0,0-3.8,0h0a2.7,2.7,0,0,0,0,3.7L56.8,92.3a2.8,2.8,0,0,0,3.8,0h0a2.8,2.8,0,0,0,0-3.8l-.7-.7a2.6,2.6,0,0,1,0-3.8l.2-.2a2.7,2.7,0,0,1,3.7,0l.8.7a2.5,2.5,0,0,0,3.7,0L83.5,69.4a2.8,2.8,0,0,0,0-3.8l-5.3-5.2a8.8,8.8,0,0,1,2-13.9c3.3-1.7,7.6-3.8,13.6-6.5C84.8,37.8,69.5,44.6,66.3,48.4Z" fill="#fff"/>
          <path d="M58.1,53.1l-1.4-1.4a3.3,3.3,0,0,0-4.5,0l-1.6,1.6a3.2,3.2,0,0,0,0,4.6l1.3,1.4Z" fill="#fff"/>
          <g>
            <rect x="80" y="76" width="8.8" height="19.13" transform="translate(-35.8 84.7) rotate(-45)" fill="#fff"/>
            <rect x="108.3" y="105.6" width="8.8" height="16.3" transform="translate(-47.5 113) rotate(-45)" fill="#fff"/>
          </g>
        </g>
      </g>
    </g>
  </g>
</svg>
