<svg xmlns="http://www.w3.org/2000/svg" width="70.6mm" height="70.6mm" viewBox="0 0 200 200">
  <g id="Warstwa_2" data-name="Warstwa 2">
    <g id="Warstwa_1-2" data-name="Warstwa 1">
      <g>
        <circle cx="100" cy="100" r="100" fill="#e34548"/>
        <g>
          <g>
            <path d="M80.1,63.2l-4,4.1a17.3,17.3,0,0,0-10-4.2V57.4A22.4,22.4,0,0,1,80.1,63.2Z" fill="#fff"/>
            <path d="M87.8,79.1H82.1a17,17,0,0,0-4.2-10L82,65A23.5,23.5,0,0,1,87.8,79.1Z" fill="#fff"/>
            <g>
              <path d="M87.8,81.8A23.5,23.5,0,0,1,82,95.9l-4-4a16.9,16.9,0,0,0,4.1-10.1Z" fill="#fff"/>
              <path d="M80.1,97.8A22.9,22.9,0,0,1,66,103.6V98a17.6,17.6,0,0,0,10.1-4.2Z" fill="#fff"/>
            </g>
            <path d="M63.4,57.4v5.7a17,17,0,0,0-10,4.2l-4.1-4.1A22.9,22.9,0,0,1,63.4,57.4Z" fill="#fff"/>
            <path d="M51.5,69.2a17,17,0,0,0-4.2,10H41.6a22.9,22.9,0,0,1,5.8-14.1Z" fill="#fff"/>
            <g>
              <path d="M51.5,91.9,47.4,96a22.9,22.9,0,0,1-5.8-14.1h5.7A17.3,17.3,0,0,0,51.5,91.9Z" fill="#fff"/>
              <path d="M63.4,97.9v5.8a23.5,23.5,0,0,1-14.1-5.8l4.1-4.1A16.9,16.9,0,0,0,63.4,97.9Z" fill="#fff"/>
            </g>
          </g>
          <path d="M152.3,61.5H114.5a6.3,6.3,0,0,0-6.2,6.4V93.2a6.3,6.3,0,0,0,6.2,6.4h37.8a6.3,6.3,0,0,0,6.1-6.4V67.9A6.3,6.3,0,0,0,152.3,61.5Zm-40.4,9.6a6.3,6.3,0,0,1,6.2-6.4h30.6a6,6,0,0,1,4.7,2.3,2.5,2.5,0,0,1-.3,3.6L135.2,86.2a2.5,2.5,0,0,1-3.5-.1l-4.6-4.8a2.7,2.7,0,0,0-3.7,0l-11,11.3a7.5,7.5,0,0,1-.5-2.6Z" fill="#fff"/>
          <path d="M114.2,119.6l-4.3-2.9a1.1,1.1,0,0,1,0-2l4.3-2.9a4.6,4.6,0,0,1,2.3-.6h41.9v9H116.5A4.6,4.6,0,0,1,114.2,119.6Z" fill="#fff"/>
          <path d="M114.6,123.5c-.8,0-9.2-6-9.2-6a2.5,2.5,0,0,1,0-3.6s8.4-6,9.2-6h21.8a.7.7,0,0,0,.7-.7v-4.1a.7.7,0,0,0-.7-.7H111.3c-3.4,0-6.2-3.3-6.2-7.3V66c0-4.1,2.8-7.4,6.2-7.4h25.8V46.3a6.3,6.3,0,0,0-6.3-6.3H68.5a6.3,6.3,0,0,0-6.2,6.3V53h4a27.7,27.7,0,0,1-1.2,55.3l-2.8-.2v45.7a6.3,6.3,0,0,0,6.2,6.3h62.3a6.3,6.3,0,0,0,6.3-6.3V124.2a.7.7,0,0,0-.7-.7Zm-23-71.7A3.8,3.8,0,0,1,87.8,48h0V46.2h23.7V48a3.8,3.8,0,0,1-3.8,3.8Z" fill="#fff"/>
        </g>
      </g>
    </g>
  </g>
</svg>
