<svg xmlns="http://www.w3.org/2000/svg" width="70.6mm" height="70.6mm" viewBox="0 0 200 200">
  <g id="Warstwa_2" data-name="Warstwa 2">
    <g id="Warstwa_1-2" data-name="Warstwa 1">
      <g>
        <circle cx="100" cy="100" r="100" fill="#e97956"/>
        <g>
          <g>
            <path d="M58.7,39a3.5,3.5,0,0,1,3.5,3.5V72.1C62.2,84.7,67.8,90,75.3,90s13.6-5.5,13.6-17.9V42.5A3.5,3.5,0,0,1,92.4,39h.3a3.5,3.5,0,0,1,3.5,3.5V71.6c0,17.2-9.1,24.3-21.2,24.3S54.9,89.3,54.9,72V42.5A3.5,3.5,0,0,1,58.4,39Z" fill="#f5f4f5"/>
            <path d="M141.4,95a3.5,3.5,0,0,1-3-1.8l-6.1-10.6c-3-4.7-4.8-7.8-6.5-11.1h-.2c-1.6,3.3-3.1,6.3-6,11.2l-5.8,10.4a3.4,3.4,0,0,1-3,1.9h-.1a3.5,3.5,0,0,1-3-5.3l12.8-21.3a3.6,3.6,0,0,0,.1-3.6L108.3,44.3a3.5,3.5,0,0,1,3-5.3h.2a3.5,3.5,0,0,1,3.1,1.8L121,52.1c2,3.7,3.6,6.5,5.1,9.5h.3a98.1,98.1,0,0,1,5-9.5l6.7-11.4a3.5,3.5,0,0,1,3-1.7h0a3.4,3.4,0,0,1,2.9,5.3L131.5,64.4a3.5,3.5,0,0,0,0,3.7l13.1,21.6a3.5,3.5,0,0,1-3,5.3Z" fill="#f5f4f5"/>
          </g>
          <g>
            <path d="M73.3,104.1a3.5,3.5,0,0,1,3.5,3.5v29.7c0,12.5,5.5,17.8,13,17.8s13.6-5.5,13.6-17.8V107.6a3.5,3.5,0,0,1,3.5-3.5h.3a3.5,3.5,0,0,1,3.5,3.5v29.2c0,17.1-9,24.2-21.1,24.2s-20.1-6.6-20.1-23.9V107.6a3.5,3.5,0,0,1,3.5-3.5Z" fill="#f5f4f5"/>
            <path d="M130.5,107.6v49a3.5,3.5,0,0,1-3.5,3.5h-.2a3.5,3.5,0,0,1-3.5-3.5v-49a3.5,3.5,0,0,1,3.5-3.5h.2A3.5,3.5,0,0,1,130.5,107.6Z" fill="#f5f4f5"/>
          </g>
        </g>
      </g>
    </g>
  </g>
</svg>
