<svg xmlns="http://www.w3.org/2000/svg" width="70.6mm" height="70.6mm" viewBox="0 0 200 200">
  <g id="Warstwa_2" data-name="Warstwa 2">
    <g id="Warstwa_1-2" data-name="Warstwa 1">
      <g>
        <g>
          <circle cx="100" cy="100" r="88" fill="#f5f4f5"/>
          <path d="M100,12a88,88,0,1,1-88,88,88,88,0,0,1,88-88m0-12A100,100,0,1,0,200,100,100.2,100.2,0,0,0,100,0Z" fill="#2a2a2b"/>
        </g>
        <g>
          <path d="M90.6,53.1c.7-.2,24.6,0,24.6,0l4.3,10.3,11.1,1.4,10,22.4L144,97.6v11.3L140.6,121l-11.2,21.8-12.1,5.6-9.8,1.4-17.8,2.7-9.1-5.3-11.5-4.4-8.4-16.3-7-13.4,2.4-10.3-2.4-8.1,5.5-11.3s9.1-19.7,9.7-20,8.5-1.3,8.5-1.3L85,53Z" fill="#f5f4f5"/>
          <polygon points="95 114.5 90.5 111.4 104.3 84.8 108.8 88 95 114.5" fill="#ecbf56"/>
          <polygon points="90.5 88 94.9 84.9 108.8 111.4 104.3 114.5 90.5 88" fill="#55bdbc"/>
          <rect x="96.6" y="86.3" width="6.1" height="26.77" transform="translate(199.3 0) rotate(90)" fill="#e97956"/>
          <ellipse cx="45.6" cy="100" rx="10.5" ry="12.2" fill="#e97956"/>
          <ellipse cx="154.5" cy="100" rx="10.5" ry="12.2" fill="#e97956"/>
          <ellipse cx="73.3" cy="152.1" rx="10.5" ry="12.2" fill="#ecbf56"/>
          <ellipse cx="126" cy="50" rx="10.5" ry="12.2" fill="#ecbf56"/>
          <ellipse cx="73.3" cy="48.5" rx="10.5" ry="12.2" fill="#55bdbc"/>
          <ellipse cx="126.7" cy="152.8" rx="10.5" ry="12.2" fill="#55bdbc"/>
          <path d="M154.4,82.1a14.3,14.3,0,0,0-7.8,2.4L135.5,62.6a18.8,18.8,0,0,0,6.8-14.7c0-9.9-7-17.9-15.6-17.9s-14.6,6.8-15.5,15.6H88.8C87.9,36.8,81.3,30,73.3,30S57.7,38,57.7,47.9A19,19,0,0,0,64,62.2l-11.1,22a14.4,14.4,0,0,0-7.3-2.1C37,82.1,30,90.1,30,100s7,17.9,15.6,17.9a13.7,13.7,0,0,0,7.4-2.2l11.1,22a18.8,18.8,0,0,0-6.4,14.4c0,9.9,7,17.9,15.6,17.9s14.7-6.9,15.5-15.9h22.4c.8,9,7.4,15.9,15.5,15.9s15.6-8,15.6-17.9a18.6,18.6,0,0,0-6.8-14.7l11-22a13.7,13.7,0,0,0,7.9,2.5c8.6,0,15.6-8,15.6-17.9S163,82.1,154.4,82.1Zm-13.8,9.7a15.1,15.1,0,0,0-1.4,4.4l-17.7,2.4-10-19.7,9.3-14.5a13.1,13.1,0,0,0,5.9,1.3h.7Zm-28,52.6H87.4a18.3,18.3,0,0,0-4.1-6l6.3-16.3h20.2l6.3,16.8A20.6,20.6,0,0,0,112.6,144.4Zm-19.3-32L87,99.9l6.3-12.6h12.8l6.3,12.6-6.3,12.5Zm-5.8-57h25a17.3,17.3,0,0,0,3.5,5.5l-6.3,16.7H89.5L83.3,61.7A18.3,18.3,0,0,0,87.5,55.4Zm39.2-15.7c3.9,0,7.2,3.7,7.2,8.2a8.4,8.4,0,0,1-2.6,6.2,6.8,6.8,0,0,1-4.6,1.9h-.5a7.5,7.5,0,0,1-6.3-5.3,8.6,8.6,0,0,1-.4-2.8,16.4,16.4,0,0,1,.2-2.3A7.5,7.5,0,0,1,126.7,39.7ZM66.1,47.9c0-4.5,3.3-8.2,7.2-8.2a7.5,7.5,0,0,1,7,5.9,8.5,8.5,0,0,1,.3,2.3,8.8,8.8,0,0,1-1.1,4.2A7,7,0,0,1,73.3,56h-.2a6.7,6.7,0,0,1-4.8-2.3A9,9,0,0,1,66.1,47.9ZM72,65.7h1.3a14,14,0,0,0,5.4-1l9.1,14.2L77.9,98.6l-17-2.4a22.1,22.1,0,0,0-1.8-5.1ZM45.6,108.1c-4,0-7.2-3.6-7.2-8.1s3.2-8.1,7.2-8.1a6.7,6.7,0,0,1,3.1.7A8,8,0,0,1,52,96.3a9,9,0,0,1,0,7.4,7.6,7.6,0,0,1-3.2,3.6A7.2,7.2,0,0,1,45.6,108.1Zm13.6.7a19.3,19.3,0,0,0,1.7-5.3l17-2.4,9.9,19.8-9.1,14.4a14,14,0,0,0-5.4-1H72.1Zm14.1,51.5c-3.9,0-7.2-3.7-7.2-8.2a8.2,8.2,0,0,1,2.3-5.8,6.6,6.6,0,0,1,4.7-2.3h.2a7.1,7.1,0,0,1,6.3,4.2,8.4,8.4,0,0,1,1,3.9,6.4,6.4,0,0,1-.3,2C79.5,157.6,76.7,160.3,73.3,160.3Zm60.6-8.2c0,4.5-3.3,8.2-7.2,8.2s-6.2-2.7-7-6.2a6.5,6.5,0,0,1-.2-2,8,8,0,0,1,6.7-8.1h.5a6.7,6.7,0,0,1,4.5,1.8A8.7,8.7,0,0,1,133.9,152.1Zm-6.6-17.8h-.6a14.5,14.5,0,0,0-5.9,1.2l-9.3-14.6,10-19.8,17.6,2.5h0a21.5,21.5,0,0,0,1.4,4.5Zm27.1-26.2a6.4,6.4,0,0,1-3.6-1.1,7.6,7.6,0,0,1-3.4-5.3V98.3a8.4,8.4,0,0,1,3.4-5.4,6.5,6.5,0,0,1,3.6-1c4,0,7.2,3.6,7.2,8.1S158.4,108.1,154.4,108.1Z" fill="#2a2a2b"/>
          <polygon points="103.6 91.8 95.7 91.8 91.8 99.7 95.7 107.5 103.6 107.5 107.5 99.7 103.6 91.8" fill="#2a2a2b"/>
        </g>
      </g>
    </g>
  </g>
</svg>
