<svg xmlns="http://www.w3.org/2000/svg" width="70.6mm" height="70.6mm" viewBox="0 0 200 200">
  <g style="isolation: isolate">
    <g id="Warstwa_2" data-name="Warstwa 2">
      <g id="Warstwa_1-2" data-name="Warstwa 1">
        <g>
          <g>
            <circle cx="100" cy="100" r="88" fill="#f5f4f5"/>
            <path d="M100,12a88,88,0,1,1-88,88,88,88,0,0,1,88-88m0-12A100,100,0,1,0,200,100,100.2,100.2,0,0,0,100,0Z" fill="#2a2a2b"/>
          </g>
          <g>
            <path d="M100.6,41.1s-13.4-11-23.8-5.5S62.7,57.4,62.7,57.4,36.4,63,35,75.6s6.4,24.4,10.5,25.8c0,0-14.4,11.4-11.8,22.1s23.5,22.9,26.5,22.7c0,0,.9,15,14.6,18.8a33.6,33.6,0,0,0,25-3.3s17.8,10.1,29.6,2.2,7.5-20.5,7.5-20.5,26.1,1,27.8-20.2-12.3-19.5-12.3-19.5S166,91.7,166,81.2s-14.8-22.9-27.3-23.4c0,0-2.4-16.3-14-19S100.6,41.1,100.6,41.1Z" fill="#f1bcb9"/>
            <path d="M100,131.1l38.1-42.8h-30L100,111.5V48.7l-.3.2V42.7c.1-.8.2-1.6.3-2.2-3-2.2-14.1-9.6-23-4.9S63,57.4,63,57.4l-2,.5,4.2,5.4,9.1,6.3h6.3l6.6-4s-13.6-2-12.9-12.8c.6-8.3,11.4-8.9,17.6-5.8V60.3L67.2,109.4H87.9l-5.5,22.8L75.1,130l-18,15.1a7.4,7.4,0,0,0,3.4,1.1s.9,15,14.6,18.8a32.8,32.8,0,0,0,22.7-2.2,16.9,16.9,0,0,0-1.3-2.7l3.5-1.9ZM69.6,144.5c0-9,9.8-11.6,12.7-12l-5.8,24.1C72.1,154.8,69.6,149.9,69.6,144.5Zm21.8,13.2c-3.1,1-7.4,1.7-14.8-1.1L91.4,141Z" fill="#1d1d1b" opacity="0.15" style="mix-blend-mode: darken"/>
            <path d="M137.6,52.5c-1.7-5-5.4-12.1-12.7-13.8-11.6-2.6-24.1,2.3-24.1,2.3l-1.1-.8.2,8.4S112,38.1,122.4,44c15.2,8.5.5,24,.5,24l3.9,1.4,9.2-8.3Z" fill="#1d1d1b" opacity="0.15" style="mix-blend-mode: darken"/>
            <path d="M166.3,81.2c0-9.4-11.7-20.2-23.1-22.8l-5.1,4.4s17.4,4.6,16.8,15.2c-.9,16.1-14.6,22-14.6,22s16.6,6.4,15.4,20.5-22.1,14-22.1,14c-2.6-2-5.2-3.8-7-4.1-3.4-.6-13.3,3.7-13.3,3.7s16.7-.7,15.1,14-25.4,8.5-25.4,8.5l.9,6.9c5.9,2.5,17.3,6,25.8.4,11.8-7.8,7.5-20.5,7.5-20.5s26.1,1,27.8-20.2-12.3-19.5-12.3-19.5S166.3,91.7,166.3,81.2Z" fill="#1d1d1b" opacity="0.15" style="mix-blend-mode: darken"/>
            <path d="M46.2,121.8c0-14.1,18.5-21.8,18.5-21.8S43.7,93.2,46,79.5c2.1-12.2,19.2-16.2,19.2-16.2l-5.3-5.2C53,60,36.1,65.5,35,75.6c-1.4,12.7,6.4,24.4,10.5,25.8,0,0-14.4,11.4-11.8,22.1s23.5,22.9,26.5,22.7a20.8,20.8,0,0,0,1.2,5.5l1.2.2,5.9-20.7S46.1,135.2,46.2,121.8Z" fill="#1d1d1b" opacity="0.15" style="mix-blend-mode: darken"/>
            <path d="M159.6,100A25.7,25.7,0,0,0,170,79.8c0-14.2-12.3-25.8-27.8-26.6C141.6,40.3,129.8,30,115.3,30A28.9,28.9,0,0,0,100,34.3,28.9,28.9,0,0,0,84.7,30C70.3,30,58.4,40.3,57.8,53.2,42.3,54,30,65.6,30,79.8A25.7,25.7,0,0,0,40.4,100,25.7,25.7,0,0,0,30,120.2c0,14.2,12.3,25.8,27.8,26.6.6,12.9,12.5,23.2,26.9,23.2a28.9,28.9,0,0,0,15.3-4.3,28.9,28.9,0,0,0,15.3,4.3c14.5,0,26.3-10.3,26.9-23.2,15.5-.8,27.8-12.4,27.8-26.6A25.7,25.7,0,0,0,159.6,100ZM84.7,161.6c-10.2,0-18.5-7.2-18.5-15.9a10.1,10.1,0,0,1,.2-2.5v-.6h0c0-.1,0-.2.1-.2l.6-1.6a14.3,14.3,0,0,1,1.6-3,14.1,14.1,0,0,1,4.6-4.8,13.4,13.4,0,0,1,3-1.2,13.7,13.7,0,0,1,3.5-.1,10.8,10.8,0,0,1,3.1.7h.1l.3-1.1a26.9,26.9,0,0,0-2.9-1.6,14.3,14.3,0,0,0-4.2-.9,13.8,13.8,0,0,0-4.5.4,19.7,19.7,0,0,0-7.8,4.5,30,30,0,0,0-3,3.2l-1.2,1.6h-.4c-11.6,0-21-8.1-21-18.2,0-6.9,4.7-13.3,11.9-16.3l2.9-1.2L64.7,100,53.2,97.3h0l-2.9-1.2c-7.2-3-11.9-9.4-11.9-16.3,0-10.1,9.4-18.2,21-18.2H60a6.4,6.4,0,0,0,1,1.3,22.7,22.7,0,0,0,3,3.2,19.7,19.7,0,0,0,7.8,4.5,13.8,13.8,0,0,0,4.5.5,14.3,14.3,0,0,0,4.2-1,18.9,18.9,0,0,0,6.6-4.5,19.4,19.4,0,0,1-7.2,2.5,10.3,10.3,0,0,1-3.5-.2,7.9,7.9,0,0,1-3-1.2A13.8,13.8,0,0,1,68.8,62a17.3,17.3,0,0,1-1.6-3l-.6-1.6c-.1-.2-.2-.3-.2-.5h0a10.1,10.1,0,0,1-.2-2.5c0-8.8,8.3-15.9,18.5-15.9a20.3,20.3,0,0,1,11.1,3.2V60.9l-21,41.2-2,4.1h20L85,132.3l-.2.7-1.4,4.5-3.9,13.2L88.3,140l7.5-9.1v27.5A20.3,20.3,0,0,1,84.7,161.6Zm55.9-23.2-1.1-1.6c-1-1.1-2-2.2-3.1-3.2a19.1,19.1,0,0,0-7.8-4.5,13.2,13.2,0,0,0-4.4-.4,14.3,14.3,0,0,0-4.2.9,22.5,22.5,0,0,0-6.7,4.5,21.8,21.8,0,0,1,7.2-2.4,13.6,13.6,0,0,1,3.5.1,16.6,16.6,0,0,1,3.1,1.2,14.1,14.1,0,0,1,4.6,4.8,22.9,22.9,0,0,1,1.4,2.7l.5,2.7a10.1,10.1,0,0,1,.2,2.5c0,8.7-8.3,15.9-18.5,15.9a20.3,20.3,0,0,1-11.1-3.2V120.8l23.1-27.9,3.7-4.6H108.1l11.4-18.4,1.1-1.8h0l4.7-7.6,2.7-4.3H104.2V41.6a20.3,20.3,0,0,1,11.1-3.2c10.2,0,18.5,7.1,18.5,15.9a10.1,10.1,0,0,1-.2,2.5l-.4,2.3a26.4,26.4,0,0,1-1.5,2.9,13.8,13.8,0,0,1-4.6,4.7,9.1,9.1,0,0,1-3.1,1.2l-1,.2h0l-1.1,1.8-.4.7,2.7.5a13.2,13.2,0,0,0,4.4-.5,19.1,19.1,0,0,0,7.8-4.5,31.4,31.4,0,0,0,3.1-3.2,14.7,14.7,0,0,0,1-1.3h.1c11.6,0,21,8.1,21,18.2,0,6.9-4.7,13.3-11.9,16.3l-9.3,3.9,9.3,3.9c7.2,3,11.9,9.4,11.9,16.3C161.6,130.2,152.2,138.4,140.6,138.4Z" fill="#2a2a2b"/>
          </g>
        </g>
      </g>
    </g>
  </g>
</svg>
