<svg xmlns="http://www.w3.org/2000/svg" width="70.6mm" height="70.6mm" viewBox="0 0 200 200">
  <g id="Warstwa_2" data-name="Warstwa 2">
    <g id="Warstwa_1-2" data-name="Warstwa 1">
      <g>
        <g>
          <circle cx="100" cy="100" r="88" fill="#f5f4f5"/>
          <path d="M100,12a88,88,0,1,1-88,88,88,88,0,0,1,88-88m0-12A100,100,0,1,0,200,100,100.2,100.2,0,0,0,100,0Z" fill="#2a2a2b"/>
        </g>
        <g>
          <g>
            <path d="M162.1,48.2H84.9a3.9,3.9,0,0,0-3.7,4.1v55.1a3.9,3.9,0,0,0,3.7,4.1h42.3l8.8,13.7c1.3,2,5.2,1.9,6.3-.2l6.7-13.5h13.1a3.9,3.9,0,0,0,3.7-4.1V52.3A3.9,3.9,0,0,0,162.1,48.2Z" fill="#f5f4f5"/>
            <path d="M139.1,130.9a7.7,7.7,0,0,1-6.6-3.4l-7.6-11.8h-40a8.1,8.1,0,0,1-7.9-8.3V52.3A8.1,8.1,0,0,1,84.9,44h77.2a8.1,8.1,0,0,1,7.9,8.3v55.1a8.1,8.1,0,0,1-7.9,8.3H151.6L146,126.9a7.4,7.4,0,0,1-6.4,4ZM85.4,107.3h44.1l9.5,14.9,7.3-14.9h15.3V52.4H85.4Z" fill="#2a2a2b"/>
          </g>
          <g>
            <rect x="91.6" y="64.6" width="33.4" height="5.6" fill="#2a2a2b"/>
            <g>
              <rect x="91.6" y="74" width="62.2" height="5.6" fill="#2a2a2b"/>
              <rect x="128.2" y="64.6" width="20.1" height="5.6" fill="#2a2a2b"/>
              <rect x="91.6" y="83.5" width="46.7" height="5.6" fill="#2a2a2b"/>
              <rect x="91.6" y="93" width="62.2" height="5.6" fill="#2a2a2b"/>
            </g>
          </g>
          <g>
            <path d="M37.9,73.3h77.2a4,4,0,0,1,3.7,4.1v55.2a3.9,3.9,0,0,1-3.7,4H75a3.7,3.7,0,0,0-3.1,1.5L64,150.4c-1.3,2-5.2,1.8-6.3-.2l-5.8-11.9a3.6,3.6,0,0,0-3.2-1.7H37.9a3.9,3.9,0,0,1-3.7-4V77.4A4,4,0,0,1,37.9,73.3Z" fill="#f5f4f5"/>
            <path d="M60.9,156h-.5a7.4,7.4,0,0,1-6.4-4l-5.6-11.2H37.9a8,8,0,0,1-7.9-8.2V77.4a8.1,8.1,0,0,1,7.9-8.3h77.2a8.1,8.1,0,0,1,7.9,8.3v55.2a8.1,8.1,0,0,1-7.9,8.2h-40l-7.6,11.8A7.7,7.7,0,0,1,60.9,156ZM38.4,132.4H48.7a7.7,7.7,0,0,1,6.9,4L61,147.3l7.4-11.5a7.7,7.7,0,0,1,6.6-3.4h39.6V77.5H38.4Z" fill="#2a2a2b"/>
          </g>
          <g>
            <path d="M75,110.3v-1.2a10.4,10.4,0,0,1,.7-4.1,10.1,10.1,0,0,1,1.5-2.6l2.9-2.8a12.9,12.9,0,0,0,2.7-2.9,4.8,4.8,0,0,0,.6-2.4,5.7,5.7,0,0,0-1.8-4.1,6.4,6.4,0,0,0-4.5-1.7,5.7,5.7,0,0,0-4.2,1.6c-1.2,1-1.9,2.7-2.3,5l-4.1-.5a11,11,0,0,1,3.3-7,10.7,10.7,0,0,1,7.3-2.4,10.9,10.9,0,0,1,7.6,2.6,8.1,8.1,0,0,1,2.8,6.3,7.6,7.6,0,0,1-1,3.9,15.8,15.8,0,0,1-3.9,4.4,18.7,18.7,0,0,0-2.5,2.5,6.6,6.6,0,0,0-.9,1.9,14.4,14.4,0,0,0-.3,3.5Z" fill="#2a2a2b"/>
            <path d="M79.9,111.3H74v-1a5.7,5.7,0,0,1-.1-1.2,11.5,11.5,0,0,1,.8-4.4,7.9,7.9,0,0,1,1.7-2.9,28.8,28.8,0,0,1,3-2.9,19.3,19.3,0,0,0,2.5-2.7,4.1,4.1,0,0,0,.5-1.9A4.6,4.6,0,0,0,80.9,91a5.5,5.5,0,0,0-7.3-.2,7.2,7.2,0,0,0-1.9,4.4l-.2,1-6.1-.7v-1a11.9,11.9,0,0,1,3.6-7.7,11.6,11.6,0,0,1,8-2.7A12,12,0,0,1,85.4,87a9.4,9.4,0,0,1,2.1,11.5,20.5,20.5,0,0,1-4.2,4.7,16.2,16.2,0,0,0-2.4,2.4,5.2,5.2,0,0,0-.7,1.5,12.7,12.7,0,0,0-.3,3.2ZM76,109.2h1.8a13,13,0,0,1,.4-2.6,8,8,0,0,1,1-2.3,33.1,33.1,0,0,1,2.7-2.7,15.8,15.8,0,0,0,3.7-4.1,6.7,6.7,0,0,0,.9-3.4A7,7,0,0,0,84,88.6a9.7,9.7,0,0,0-6.9-2.4,9.7,9.7,0,0,0-6.6,2.2,9.3,9.3,0,0,0-2.8,5.3l2.1.2a8.2,8.2,0,0,1,2.4-4.6,7.1,7.1,0,0,1,4.9-1.9,7,7,0,0,1,5.2,2.1,6.4,6.4,0,0,1,2.2,4.8,5.5,5.5,0,0,1-.8,2.9,12.9,12.9,0,0,1-2.9,3.2c-1.3,1.2-2.3,2.1-2.8,2.7a11.8,11.8,0,0,0-1.4,2.3,10.2,10.2,0,0,0-.6,3.7Z" fill="#2a2a2b"/>
          </g>
          <g>
            <rect x="74.8" y="118.2" width="4.6" height="4.55" fill="#2a2a2b"/>
            <path d="M80.4,123.8H73.7v-6.6h6.7Zm-4.6-2.1h2.5v-2.4H75.8Z" fill="#2a2a2b"/>
          </g>
        </g>
      </g>
    </g>
  </g>
</svg>
