<svg xmlns="http://www.w3.org/2000/svg" width="70.6mm" height="70.6mm" viewBox="0 0 200 200">
  <g style="isolation: isolate">
    <g id="Warstwa_2" data-name="Warstwa 2">
      <g id="Warstwa_1-2" data-name="Warstwa 1">
        <g>
          <g>
            <circle cx="100" cy="100" r="88" fill="#f5f4f5"/>
            <path d="M100,12a88,88,0,1,1-88,88,88,88,0,0,1,88-88m0-12A100,100,0,1,0,200,100,100.2,100.2,0,0,0,100,0Z" fill="#2a2a2b"/>
          </g>
          <g>
            <g>
              <g>
                <rect x="42.1" y="94" width="30.6" height="8.4" fill="#2a2a2b"/>
                <polygon points="44.5 106.6 30 98.2 44.5 89.9 44.5 106.6" fill="#2a2a2b"/>
              </g>
              <g>
                <rect x="127.4" y="94" width="30.6" height="8.4" fill="#2a2a2b"/>
                <polygon points="155.5 89.9 170 98.2 155.5 106.6 155.5 89.9" fill="#2a2a2b"/>
              </g>
            </g>
            <g>
              <path d="M110.3,50.7,100,44.6,89.7,50.7c0,2.5-4.5,84.7-22.4,87.1h65.4C114.8,135.4,110.3,53.2,110.3,50.7Z" fill="#a97259"/>
              <path d="M100,44.6l10.3,6.1c0,2.5,4.5,84.7,22.4,87.1H67.3c17.9-2.4,22.4-84.6,22.4-87.1L100,44.6m0-9.8-4.3,2.6L85.4,43.5,81.3,46v4.7c0,2-1.1,20.7-4,39.7-5.2,34.8-11.7,39.2-11.7,39.3l.6-.2,1.1,16.7h65.4l1.1-16.7.6.2c0-.1-6.5-4.5-11.7-39.3-2.9-19-4-37.7-4-39.7V46l-4.1-2.5-10.3-6.1L100,34.8Z" fill="#2a2a2b"/>
            </g>
            <g>
              <rect x="67.3" y="137.8" width="65.4" height="23.8" fill="#a97259"/>
              <path d="M132.7,137.8v23.8H67.3V137.8h65.4m8.4-8.4H58.9V170h82.2V129.4Z" fill="#2a2a2b"/>
            </g>
            <path d="M112,72.7c-1-9.4-1.5-17-1.6-20.2H89.6c-.1,3.2-.6,10.8-1.6,20.2C94.8,74.9,105.2,74.9,112,72.7Z" fill="#1d1d1b" opacity="0.15" style="mix-blend-mode: darken"/>
            <g>
              <path d="M118.8,52.2c0,10.8-37.6,10.8-37.6,0V38.4h37.6Z" fill="#a97259"/>
              <path d="M118.8,38.4V52.2c0,5.4-9.4,8.1-18.8,8.1s-18.8-2.7-18.8-8.1V38.4h37.6m8.4-8.4H72.8V52.2c0,2.9,1.1,10.1,11.3,13.9A44.9,44.9,0,0,0,100,68.7a44.9,44.9,0,0,0,15.9-2.6c10.2-3.8,11.3-11,11.3-13.9V30Z" fill="#2a2a2b"/>
            </g>
          </g>
        </g>
      </g>
    </g>
  </g>
</svg>
