<svg xmlns="http://www.w3.org/2000/svg" width="70.6mm" height="70.6mm" viewBox="0 0 200 200">
  <g id="Warstwa_2" data-name="Warstwa 2">
    <g id="Warstwa_1-2" data-name="Warstwa 1">
      <g>
        <g>
          <circle cx="100" cy="100" r="88" fill="#f5f4f5"/>
          <path d="M100,12a88,88,0,1,1-88,88,88,88,0,0,1,88-88m0-12A100,100,0,1,0,200,100,100.2,100.2,0,0,0,100,0Z" fill="#2a2a2b"/>
        </g>
        <path d="M72.8,76.6h78.5V87.5H72.8Z" fill="#e3eaef"/>
        <path d="M151.3,76.6V87.5H72.8V76.6h78.5m8.1-8.2H64.6V95.7h94.8V68.4Z" fill="#2a2a2b"/>
        <path d="M146.1,110.3h11a5.4,5.4,0,0,0,5.4-5.4V59.3a5.5,5.5,0,0,0-5.4-5.5h-11a5.5,5.5,0,0,0-5.4,5.5v45.6A5.4,5.4,0,0,0,146.1,110.3Z" fill="#93d3e9"/>
        <path d="M157.1,53.8a5.5,5.5,0,0,1,5.4,5.5v45.6a5.4,5.4,0,0,1-5.4,5.4h-11a5.4,5.4,0,0,1-5.4-5.4V59.3a5.5,5.5,0,0,1,5.4-5.5h11m0-7.5h-11a13,13,0,0,0-12.9,13v45.6a12.9,12.9,0,0,0,12.9,12.9h11A12.9,12.9,0,0,0,170,104.9V59.3a13,13,0,0,0-12.9-13Z" fill="#2a2a2b"/>
        <path d="M53.9,110.3h-11a5.4,5.4,0,0,1-5.4-5.4V59.3a5.5,5.5,0,0,1,5.4-5.5h11a5.5,5.5,0,0,1,5.4,5.5v45.6A5.4,5.4,0,0,1,53.9,110.3Z" fill="#7cb5c4"/>
        <path d="M53.9,53.8a5.5,5.5,0,0,1,5.4,5.5v45.6a5.4,5.4,0,0,1-5.4,5.4h-11a5.4,5.4,0,0,1-5.4-5.4V59.3a5.5,5.5,0,0,1,5.4-5.5h11m0-7.5h-11A13,13,0,0,0,30,59.3v45.6a12.9,12.9,0,0,0,12.9,12.9h11a12.9,12.9,0,0,0,12.9-12.9V59.3a13,13,0,0,0-12.9-13Z" fill="#010101"/>
        <rect x="85.1" y="157" width="34.5" height="15.38" fill="#2a2a2b"/>
        <path d="M86.8,165.4V115.3l-4-3.2a10.6,10.6,0,0,1-5.6-9v-15a7.8,7.8,0,0,0,7.7-7.7V74.7A4.7,4.7,0,0,1,89,70c3-.3,4.9,2.5,5.3,5.4,0-2.7,2.2-5.4,4.8-5.4a4.6,4.6,0,0,1,4.5,3.7l.2,1.7c0-2.7,2.2-5.4,4.8-5.4s4.7,2.7,4.7,5.4c0-3.4,3.6-7,7.2-4.6a5.4,5.4,0,0,1,2.3,4.6v26a22.2,22.2,0,0,1-6.7,15.9v48.1a2.6,2.6,0,0,1-2.5,2.6H89.3A2.6,2.6,0,0,1,86.8,165.4Z" fill="#c9977d"/>
        <path d="M53.9,53.8a5.5,5.5,0,0,1,5.4,5.5v45.6a5.4,5.4,0,0,1-5.4,5.4h-11a5.4,5.4,0,0,1-5.4-5.4V59.3a5.5,5.5,0,0,1,5.4-5.5h11m0-7.5h-11A13,13,0,0,0,30,59.3v45.6a12.9,12.9,0,0,0,12.9,12.9h11a12.9,12.9,0,0,0,12.9-12.9V59.3a13,13,0,0,0-12.9-13Z" fill="#2a2a2b"/>
        <path d="M42.9,53.8a5.5,5.5,0,0,0-5.4,5.5v45.6a4.9,4.9,0,0,0,.4,2.1,5.4,5.4,0,0,0,2.2.5H51a5.5,5.5,0,0,0,5.5-5.5V56.4a5.4,5.4,0,0,0-.5-2.2,7.1,7.1,0,0,0-2.1-.4Z" fill="#93d3e9"/>
        <path d="M157.1,110.3h-11a5.4,5.4,0,0,1-5.4-5.4V59.3a5.5,5.5,0,0,1,5.4-5.5h11a5.5,5.5,0,0,1,5.4,5.5v45.6A5.4,5.4,0,0,1,157.1,110.3Z" fill="#7cb5c4"/>
        <path d="M146.1,53.8a5.5,5.5,0,0,0-5.4,5.5v45.6a4.9,4.9,0,0,0,.4,2.1,5.4,5.4,0,0,0,2.2.5h10.9a5.5,5.5,0,0,0,5.5-5.5V56.4a5.4,5.4,0,0,0-.5-2.2,7.1,7.1,0,0,0-2.1-.4Z" fill="#93d3e9"/>
        <path d="M89.3,165.4h21.5a2.6,2.6,0,0,0,2.6-2.5V114.7a21.8,21.8,0,0,0,6.7-15.8V72.8a5.1,5.1,0,0,0-.6-2.5h0l-.6-.2h-.6a3.8,3.8,0,0,0-2.6.8h-.1l-.4.3h0l-.4.4h0a3.6,3.6,0,0,0-.7,1h0l-.2.4c-.1.1-.1.1-.1.2v.3a.3.3,0,0,0-.1.2c0,.2-.1.3-.1.4v.2a.4.4,0,0,0-.1.3v.2c0,.2-.1.4-.1.6h0v-.8c0-.2-.1-.3-.1-.5h0l-.5-1.2h0l-.3-.5h-.1a5.7,5.7,0,0,0-1.3-1.4h0c-.1.1-.1.1-.1-.1l-.8-.4c0,.1-.1.1-.2-.1h-1.3c-2.6,0-4.8,2.7-4.8,5.4l-.2-1.7a.6.6,0,0,0-.1-.4h0c0-.1-.1-.2-.1-.3s-.1-.1-.1-.2-.1-.2-.1-.3a.1.1,0,0,1-.1-.1l-.2-.3h0a3.2,3.2,0,0,0-1-1h0l-.4-.3h0c0,.1-.1.1-.1-.1l-.8-.4H99.1c-2.6,0-4.8,2.7-4.8,5.4h0a1.3,1.3,0,0,0-.1-.6v-.2a.8.8,0,0,1-.1-.4V74a.8.8,0,0,0-.2-.5h0l-.6-1.1h0a1,1,0,0,0-.4-.5h0a2.4,2.4,0,0,0-.8-.9h-.1a2.1,2.1,0,0,0-1-.6h-.2L89.4,70h-.5a4.8,4.8,0,0,0-4,4.7v5.7h0a7.8,7.8,0,0,1-7.7,7.7v16.5a.4.4,0,0,1,.1.3,4.3,4.3,0,0,0,.1.5v.2a1.4,1.4,0,0,0,.2.7h0a22.6,22.6,0,0,0,1.1,2.2h0l.5.6.6.4,4,3.1v.4l2.8,2.2h0v47.6A2.5,2.5,0,0,0,89.3,165.4Z" fill="#f3b495"/>
        <path d="M124.1,64.2a11.9,11.9,0,0,0-6-1.7,11.3,11.3,0,0,0-4.8,1.1,10.5,10.5,0,0,0-4.7-1.1,12.8,12.8,0,0,0-4.7,1,12.9,12.9,0,0,0-4.8-1,11.3,11.3,0,0,0-4.8,1.1,11.7,11.7,0,0,0-4.9-1.1H88.2A12.1,12.1,0,0,0,77.4,74.7v5.9H69.7v22.7a18.4,18.4,0,0,0,8.9,15l.7.6v49a3.1,3.1,0,0,0,3.1,3.1h4.4V115.3l-4-3.2a10.6,10.6,0,0,1-5.6-9v-15a7.8,7.8,0,0,0,7.7-7.7V72.7a1.1,1.1,0,0,1,.3-.8A6.2,6.2,0,0,1,89.4,70c2.8,0,4.5,2.6,4.9,5.4,0-2.7,2.2-5.4,4.8-5.4a4.6,4.6,0,0,1,4.5,3.7l.2,1.7c0-2.7,2.2-5.4,4.8-5.4s4.7,2.7,4.7,5.4c0-2.7,2.2-5.4,4.8-5.4s3,.8,4.4,2.8a2,2,0,0,1,.3,1.1v27.5a22.2,22.2,0,0,1-6.7,15.9V168H79.3v4.4a3,3,0,0,0,3.1,3h38.1a3,3,0,0,0,3.1-3h0V120.2a29.8,29.8,0,0,0,6.7-18.8v-26A13.1,13.1,0,0,0,124.1,64.2Z" fill="#2a2a2b"/>
      </g>
    </g>
  </g>
</svg>
