<svg xmlns="http://www.w3.org/2000/svg" width="70.6mm" height="70.6mm" viewBox="0 0 200 200">
  <g id="Warstwa_2" data-name="Warstwa 2">
    <g id="Warstwa_1-2" data-name="Warstwa 1">
      <g>
        <g>
          <circle cx="100" cy="100" r="88" fill="#f5f4f5"/>
          <path d="M100,12a88,88,0,1,1-88,88,88,88,0,0,1,88-88m0-12A100,100,0,1,0,200,100,100.2,100.2,0,0,0,100,0Z" fill="#2a2a2b"/>
        </g>
        <g>
          <g>
            <path d="M147.6,46.3V153.7a7.8,7.8,0,0,1-7.7,7.9H60.1a7.8,7.8,0,0,1-7.7-7.9V46.3a7.8,7.8,0,0,1,7.7-7.9h79.8A7.8,7.8,0,0,1,147.6,46.3Z" fill="#f5f4f5"/>
            <path d="M139.9,38.4a7.8,7.8,0,0,1,7.7,7.9V153.7a7.8,7.8,0,0,1-7.7,7.9H60.1a7.8,7.8,0,0,1-7.7-7.9V46.3a7.8,7.8,0,0,1,7.7-7.9h79.8m0-8.4H60.1A16.2,16.2,0,0,0,44,46.3V153.7A16.2,16.2,0,0,0,60.1,170h79.8A16.2,16.2,0,0,0,156,153.7V46.3A16.2,16.2,0,0,0,139.9,30Z" fill="#2a2a2b"/>
          </g>
          <rect x="69" y="126.3" width="62" height="8.4" fill="#2a2a2b"/>
          <rect x="77.1" y="109.1" width="45.8" height="8.4" fill="#2a2a2b"/>
          <rect x="65.8" y="143.5" width="68.4" height="8.4" fill="#2a2a2b"/>
          <path d="M147.6,46.3V62.1H131.8a7.3,7.3,0,0,1-7.1-7.4V38.4h15.2A7.8,7.8,0,0,1,147.6,46.3Z" fill="#55bdbc"/>
          <path d="M100,93a25.5,25.5,0,0,1-20.1-9.8l-2-2.6,2-2.6a25.5,25.5,0,0,1,40.2,0l2,2.6-2,2.6A25.5,25.5,0,0,1,100,93ZM89,80.6a17.1,17.1,0,0,0,22,0,17.1,17.1,0,0,0-22,0Z" fill="#2a2a2b"/>
          <path d="M100,93a25.5,25.5,0,0,1-20.1-9.8l-2-2.6,2-2.6a25.5,25.5,0,0,1,40.2,0l2,2.6-2,2.6A25.5,25.5,0,0,1,100,93ZM89,80.6a17.1,17.1,0,0,0,22,0,17.1,17.1,0,0,0-22,0Z" fill="#2a2a2b"/>
          <path d="M100,76.2A13.2,13.2,0,1,1,113,63,13.1,13.1,0,0,1,100,76.2Zm0-18A4.7,4.7,0,0,0,95.4,63a4.6,4.6,0,1,0,9.2,0A4.7,4.7,0,0,0,100,58.2Z" fill="#2a2a2b"/>
        </g>
      </g>
    </g>
  </g>
</svg>
