<svg xmlns="http://www.w3.org/2000/svg" width="70.6mm" height="70.6mm" viewBox="0 0 200 200">
  <g id="Warstwa_2" data-name="Warstwa 2">
    <g id="Warstwa_1-2" data-name="Warstwa 1">
      <g>
        <g>
          <circle cx="100" cy="100" r="88" fill="#f5f4f5"/>
          <path d="M100,12a88,88,0,1,1-88,88,88,88,0,0,1,88-88m0-12A100,100,0,1,0,200,100,100.2,100.2,0,0,0,100,0Z" fill="#2a2a2b"/>
        </g>
        <g>
          <g>
            <path d="M147.6,46.3V153.7a7.8,7.8,0,0,1-7.8,7.9H60.2a7.8,7.8,0,0,1-7.8-7.9V46.3a7.8,7.8,0,0,1,7.8-7.9h79.6A7.8,7.8,0,0,1,147.6,46.3Z" fill="#f5f4f5"/>
            <path d="M139.8,38.4a7.8,7.8,0,0,1,7.8,7.9V153.7a7.8,7.8,0,0,1-7.8,7.9H60.2a7.8,7.8,0,0,1-7.8-7.9V46.3a7.8,7.8,0,0,1,7.8-7.9h79.6m0-8.4H60.2A16.2,16.2,0,0,0,44.1,46.3V153.7A16.2,16.2,0,0,0,60.2,170h79.6a16.2,16.2,0,0,0,16.1-16.3V46.3A16.2,16.2,0,0,0,139.8,30Z" fill="#2a2a2b"/>
          </g>
          <rect x="59.6" y="60.3" width="21.4" height="8.39" fill="#2a2a2b"/>
          <rect x="87.1" y="60.3" width="30.5" height="8.39" fill="#2a2a2b"/>
          <rect x="59.6" y="76.9" width="68.4" height="8.39" fill="#2a2a2b"/>
          <rect x="59.6" y="90.8" width="45.8" height="8.39" fill="#2a2a2b"/>
          <rect x="59.6" y="107.4" width="68.4" height="8.39" fill="#2a2a2b"/>
          <g>
            <rect x="81" y="142.1" width="7.1" height="7.39" fill="#2a2a2b"/>
            <rect x="96.7" y="142.1" width="7.1" height="7.39" fill="#2a2a2b"/>
            <rect x="112.5" y="142.1" width="7.1" height="7.39" fill="#2a2a2b"/>
          </g>
          <path d="M147.6,46.3V60.2H131.8a7.3,7.3,0,0,1-7.1-7.4V38.4h15.1A7.8,7.8,0,0,1,147.6,46.3Z" fill="#55bdbc"/>
        </g>
      </g>
    </g>
  </g>
</svg>
