<svg id="Layer_1" data-name="Layer 1" xmlns="http://www.w3.org/2000/svg" width="192" height="57.9" viewBox="0 0 192 57.9">
  <g>
    <path d="M120,33.9a2.1,2.1,0,1,1-4.1,0V16h-3.2V33.8A5.2,5.2,0,0,0,118,39a5.2,5.2,0,0,0,5.2-5.2V16H120Z" fill="#010101"/>
    <path d="M104.9,16a5.3,5.3,0,0,0-5.3,5.3V33.8a5.2,5.2,0,0,0,5.3,5.2,5.2,5.2,0,0,0,5.2-5.2V21.3A5.2,5.2,0,0,0,104.9,16Zm2,7.9v10a2.1,2.1,0,0,1-2,2.1,2.2,2.2,0,0,1-2.1-2.1V21.1a2.1,2.1,0,0,1,2.1-2,2,2,0,0,1,2,2Z" fill="#010101"/>
    <path d="M129.6,15.6a5.3,5.3,0,0,0-3.5,4.9V39h3.2V20.4a2.1,2.1,0,0,1,2.1-2.1h.2Z" fill="#010101"/>
    <path d="M80.1,15.2,78.2,18c0-.1.1-.1.2-.1a2,2,0,0,1,2,2.1v4.2H78.1a5.1,5.1,0,0,0-5.2,5.1v4.6A5.1,5.1,0,0,0,78.1,39h5.5V20.1A5.1,5.1,0,0,0,80.1,15.2ZM78.8,36.3a3.6,3.6,0,0,1-3.6-3.5V30.4a3.6,3.6,0,0,1,3.6-3.5h1.6v9.4Z" fill="#010101"/>
    <path d="M98.5,9.8h.3L96.8,7a5.3,5.3,0,0,0-3.5,4.9V39h3.2V19.5h2.3V16.7H96.5V11.8A2,2,0,0,1,98.5,9.8Z" fill="#010101"/>
    <rect x="86.4" y="8.7" width="3.1" height="30.34" fill="#010101"/>
    <path d="M63.6,16V8.7H60.4V39h3.2c3.9,0,7.1-2.3,7.1-5.2V21.3C70.7,18.4,67.5,16,63.6,16Zm3.6,16.7a3.7,3.7,0,0,1-3.6,3.7V18.7a3.7,3.7,0,0,1,3.6,3.7Z" fill="#010101"/>
  </g>
</svg>
