<?xml version="1.0" encoding="utf-8"?>
<!-- Generator: Adobe Illustrator 24.1.1, SVG Export Plug-In . SVG Version: 6.00 Build 0)  -->
<svg version="1.1" id="Warstwa_1" xmlns="http://www.w3.org/2000/svg" xmlns:xlink="http://www.w3.org/1999/xlink" x="0px" y="0px"
	 viewBox="0 0 624.9 381.3" style="enable-background:new 0 0 624.9 381.3;" xml:space="preserve">
<style type="text/css">
	.st0{clip-path:url(#SVGID_2_);}
	.st1{fill:#2A2B38;}
	.st2{fill:#FFFFFF;}
	.st3{fill:#34809B;}
	.st4{fill:#137099;}
	.st5{opacity:0.4;fill:#FFFFFF;enable-background:new    ;}
	.st6{fill:#FEC343;}
	.st7{fill:none;stroke:#FFFFFF;stroke-width:0.5;stroke-miterlimit:10;}
	.st8{fill:none;stroke:#116477;stroke-width:2;stroke-miterlimit:10;}
	.st9{fill:#FFDB92;}
</style>
<g>
	<g id="Warstwa_1_1_">
		<g>
			<defs>
				<rect id="SVGID_1_" width="624.9" height="381.3"/>
			</defs>
			<clipPath id="SVGID_2_">
				<use xlink:href="#SVGID_1_"  style="overflow:visible;"/>
			</clipPath>
			<g class="st0">
				<circle class="st1" cx="104.1" cy="64" r="52.8"/>
				<rect x="104.1" y="56.4" class="st1" width="416.7" height="267.4"/>
				<path class="st2" d="M136.3,75.2h352.2c9.7,0,17.5,7.8,17.5,17.5v197.5c0,9.7-7.8,17.5-17.5,17.5H136.3
					c-9.7,0-17.5-7.8-17.5-17.5V92.7C118.8,83,126.6,75.2,136.3,75.2z"/>
				<path class="st3" d="M142.9,126h126.4c5.4,0,9.8,4.4,9.8,9.8v68.1c0,5.4-4.4,9.8-9.8,9.8H142.9c-5.4,0-9.8-4.4-9.8-9.8v-68.1
					C133.1,130.4,137.5,126,142.9,126z"/>
				<path class="st4" d="M118.8,91.9V108h387.3V91.9c0-9.7-7.8-17.5-17.5-17.5l0,0H136.3C126.6,74.4,118.8,82.2,118.8,91.9
					L118.8,91.9z"/>
				<circle class="st2" cx="206.1" cy="169.6" r="28"/>
				<circle class="st3" cx="206.1" cy="169.6" r="23.3"/>
				<path class="st2" d="M197.5,169.6v-10.3c-0.1-1.2,0.8-2.1,2-2.2c0.4,0,0.9,0.1,1.2,0.3l9,5.2l9,5.2c1,0.7,1.3,2,0.7,3
					c-0.2,0.3-0.4,0.5-0.7,0.7l-9,5.1l-9,5.2c-1,0.6-2.3,0.3-2.9-0.7c-0.2-0.3-0.3-0.7-0.3-1.1V169.6z"/>
				<path class="st3" d="M342.2,126h126.4c5.4,0,9.8,4.4,9.8,9.8v68.1c0,5.4-4.4,9.8-9.8,9.8H342.2c-5.4,0-9.8-4.4-9.8-9.8v-68.1
					C332.4,130.4,336.8,126,342.2,126z"/>
				<path class="st2" d="M379.7,140.9h69.2c2.5,0,4.6,2.1,4.6,4.6v0.4c0,2.5-2.1,4.6-4.6,4.6h-69.2c-2.5,0-4.6-2.1-4.6-4.6v-0.4
					C375.1,143,377.2,140.9,379.7,140.9z"/>
				<path class="st2" d="M342.8,134.3h17.4c2.2,0,4,1.8,4,4v14.8c0,2.2-1.8,4-4,4h-17.4c-2.2,0-4-1.8-4-4v-14.8
					C338.8,136.1,340.6,134.3,342.8,134.3z"/>
				<path class="st2" d="M137.1,82.8h39.5c2.2,0,4,1.8,4,4v8.9c0,2.2-1.8,4-4,4h-39.5c-2.2,0-4-1.8-4-4v-8.9
					C133.1,84.6,134.9,82.8,137.1,82.8z"/>
				<path class="st2" d="M471.8,86.8h17.4c2.2,0,4,1.8,4,4v0.8c0,2.2-1.8,4-4,4h-17.4c-2.2,0-4-1.8-4-4v-0.8
					C467.8,88.6,469.6,86.8,471.8,86.8z"/>
				<path class="st2" d="M436.4,86.8h17.4c2.2,0,4,1.8,4,4v0.8c0,2.2-1.8,4-4,4h-17.4c-2.2,0-4-1.8-4-4v-0.8
					C432.4,88.6,434.2,86.8,436.4,86.8z"/>
				<path class="st2" d="M400.9,86.8h17.4c2.2,0,4,1.8,4,4v0.8c0,2.2-1.8,4-4,4h-17.4c-2.2,0-4-1.8-4-4v-0.8
					C396.9,88.6,398.7,86.8,400.9,86.8z"/>
				<path class="st2" d="M365.5,86.8h17.4c2.2,0,4,1.8,4,4v0.8c0,2.2-1.8,4-4,4h-17.4c-2.2,0-4-1.8-4-4v-0.8
					C361.5,88.6,363.3,86.8,365.5,86.8z"/>
				<path class="st2" d="M330.1,86.8h17.4c2.2,0,4,1.8,4,4v0.8c0,2.2-1.8,4-4,4h-17.4c-2.2,0-4-1.8-4-4v-0.8
					C326.1,88.6,327.9,86.8,330.1,86.8z"/>
				<path class="st2" d="M377.9,160.3h83.3c1.5,0,2.8,1.3,2.8,2.8v0.3c0,1.5-1.3,2.8-2.8,2.8h-83.3c-1.5,0-2.8-1.3-2.8-2.8v-0.3
					C375.1,161.6,376.4,160.3,377.9,160.3z"/>
				<path class="st2" d="M377.9,170.7h83.3c1.5,0,2.8,1.3,2.8,2.8v0.3c0,1.5-1.3,2.8-2.8,2.8h-83.3c-1.5,0-2.8-1.3-2.8-2.8v-0.3
					C375.1,172,376.4,170.7,377.9,170.7z"/>
				<path class="st2" d="M377.9,181.1h83.3c1.5,0,2.8,1.3,2.8,2.8v0.3c0,1.5-1.3,2.8-2.8,2.8h-83.3c-1.5,0-2.8-1.3-2.8-2.8v-0.3
					C375.1,182.4,376.4,181.1,377.9,181.1z"/>
				<path class="st2" d="M377.9,191.5h83.3c1.5,0,2.8,1.3,2.8,2.8v0.3c0,1.5-1.3,2.8-2.8,2.8h-83.3c-1.5,0-2.8-1.3-2.8-2.8v-0.3
					C375.1,192.8,376.4,191.5,377.9,191.5z"/>
				<g>
					<g>
						<g>
							<path class="st1" d="M254.1,141.2h202.1c5.4,0,9.8,4.4,9.8,9.8v96.5c0,5.4-4.4,9.8-9.8,9.8H254.1c-5.4,0-9.8-4.4-9.8-9.8V151
								C244.3,145.6,248.7,141.2,254.1,141.2z"/>
							<path class="st2" d="M261.9,148.4h186.6c5.4,0,9.8,4.4,9.8,9.8v82.1c0,5.4-4.4,9.8-9.8,9.8H261.9c-5.4,0-9.8-4.4-9.8-9.8
								v-82.1C252.1,152.8,256.5,148.4,261.9,148.4z"/>
						</g>
						<path class="st3" d="M340.5,165.6c-6-0.1-10.9,4.8-11,10.8s4.8,10.9,10.8,11c6,0.1,10.9-4.8,11-10.8c0,0,0-0.1,0-0.1
							C351.3,170.5,346.5,165.7,340.5,165.6z M340.5,183.9c-4.1,0.1-7.5-3.3-7.6-7.4s3.3-7.5,7.4-7.6c4.1-0.1,7.5,3.3,7.6,7.4
							c0,0.1,0,0.1,0,0.2C347.9,180.6,344.6,183.9,340.5,183.9L340.5,183.9z"/>
						<g>
							<path class="st5" d="M340.5,165.6c-6-0.1-10.9,4.8-11,10.8s4.8,10.9,10.8,11c6,0.1,10.9-4.8,11-10.8c0,0,0-0.1,0-0.1
								C351.3,170.5,346.5,165.7,340.5,165.6z M340.5,183.9c-4.1,0.1-7.5-3.3-7.6-7.4s3.3-7.5,7.4-7.6c4.1-0.1,7.5,3.3,7.6,7.4
								c0,0.1,0,0.1,0,0.2C347.9,180.6,344.6,183.9,340.5,183.9L340.5,183.9z"/>
							<path class="st3" d="M329.6,176.5v0.4h3.4v-0.4c-0.1-4.1,3.2-7.4,7.3-7.5c0.1,0,0.1,0,0.2,0h0.1v-3.4h-0.1
								C334.5,165.6,329.6,170.5,329.6,176.5z"/>
						</g>
						<g>
							<path class="st3" d="M272,165.6c-6,0-10.9,4.9-10.9,10.9s4.9,10.9,10.9,10.9c6,0,10.9-4.9,10.9-10.9c0,0,0,0,0,0
								c0.1-6-4.7-10.8-10.7-10.9C272.1,165.6,272.1,165.6,272,165.6z M272,183.9c-4.1-0.5-7.1-4.2-6.6-8.3c0.4-3.5,3.1-6.2,6.6-6.6
								c4.1-0.5,7.8,2.5,8.3,6.6s-2.5,7.8-6.6,8.3C273.2,184,272.6,184,272,183.9z"/>
							<path class="st5" d="M272,165.6v3.4c3.9,0,7.2,3,7.5,6.9h3.3C282.5,170.1,277.8,165.6,272,165.6z"/>
						</g>
						<g>
							<path class="st3" d="M306.2,165.6c-6,0-10.9,4.9-10.9,10.9s4.9,10.9,10.9,10.9c6,0,10.9-4.9,10.9-10.9c0,0,0,0,0,0
								C317.1,170.5,312.2,165.6,306.2,165.6z M306.2,183.9c-4.1,0-7.5-3.4-7.5-7.5s3.4-7.5,7.5-7.5c4.1,0,7.5,3.4,7.5,7.5
								c0,0,0,0.1,0,0.1c0,4.1-3.3,7.4-7.4,7.4C306.3,183.9,306.2,183.9,306.2,183.9L306.2,183.9z"/>
							<path class="st5" d="M313.7,176.5c0,4.1-3.3,7.4-7.4,7.4c0,0-0.1,0-0.1,0v3.4c6,0.6,11.3-3.8,11.9-9.8
								c0.6-6-3.8-11.3-9.8-11.9c-0.7-0.1-1.4-0.1-2.1,0v3.4c4.1-0.1,7.4,3.2,7.5,7.3C313.7,176.4,313.7,176.4,313.7,176.5z"/>
						</g>
						<polygon class="st3" points="449.2,232.9 364,232.9 364,165.6 378.8,165.6 449.2,165.6 						"/>
						<path class="st6" d="M266,223.4h43.7c2.7,0,4.8,2.1,4.8,4.8v0c0,2.6-2.1,4.8-4.8,4.8H266c-2.7,0-4.8-2.1-4.8-4.8v0
							C261.2,225.5,263.3,223.4,266,223.4z"/>
						<path class="st3" d="M263.2,193.9H282c1.1,0,2,0.9,2,2v0c0,1.1-0.9,2-2,2h-18.8c-1.1,0-2-0.9-2-2v0
							C261.2,194.8,262.1,193.9,263.2,193.9z"/>
						<path class="st3" d="M263.2,200.9H282c1.1,0,2,0.9,2,2v0c0,1.1-0.9,2-2,2h-18.8c-1.1,0-2-0.9-2-2v0
							C261.2,201.8,262.1,200.9,263.2,200.9z"/>
						<path class="st3" d="M263.2,208H282c1.1,0,2,0.9,2,2v0c0,1.1-0.9,2-2,2h-18.8c-1.1,0-2-0.9-2-2v0
							C261.2,208.9,262.1,208,263.2,208z"/>
						<path class="st3" d="M296.8,193.9h18.8c1.1,0,2,0.9,2,2v0c0,1.1-0.9,2-2,2h-18.8c-1.1,0-2-0.9-2-2v0
							C294.8,194.8,295.7,193.9,296.8,193.9z"/>
						<path class="st3" d="M296.8,200.9h18.8c1.1,0,2,0.9,2,2v0c0,1.1-0.9,2-2,2h-18.8c-1.1,0-2-0.9-2-2v0
							C294.8,201.8,295.7,200.9,296.8,200.9z"/>
						<path class="st3" d="M296.8,208h18.8c1.1,0,2,0.9,2,2v0c0,1.1-0.9,2-2,2h-18.8c-1.1,0-2-0.9-2-2v0
							C294.8,208.9,295.7,208,296.8,208z"/>
						<path class="st3" d="M331,193.9h18.8c1.1,0,2,0.9,2,2v0c0,1.1-0.9,2-2,2H331c-1.1,0-2-0.9-2-2v0
							C329,194.8,329.9,193.9,331,193.9z"/>
						<path class="st3" d="M331,200.9h18.8c1.1,0,2,0.9,2,2v0c0,1.1-0.9,2-2,2H331c-1.1,0-2-0.9-2-2v0
							C329,201.8,329.9,200.9,331,200.9z"/>
						<path class="st3" d="M331,208h18.8c1.1,0,2,0.9,2,2v0c0,1.1-0.9,2-2,2H331c-1.1,0-2-0.9-2-2v0C329,208.9,329.9,208,331,208z"
							/>
					</g>
					<g>
						<line class="st7" x1="377.3" y1="232.9" x2="377.3" y2="165.6"/>
						<line class="st7" x1="392" y1="232.9" x2="392" y2="165.6"/>
						<line class="st7" x1="406.8" y1="232.9" x2="406.8" y2="165.6"/>
						<line class="st7" x1="421.6" y1="232.9" x2="421.6" y2="165.6"/>
						<line class="st7" x1="436.3" y1="232.9" x2="436.3" y2="165.6"/>
						<line class="st7" x1="364" y1="177.6" x2="449.2" y2="177.6"/>
						<line class="st7" x1="449.2" y1="191" x2="364" y2="191"/>
						<line class="st7" x1="449.2" y1="204.4" x2="364" y2="204.4"/>
						<line class="st7" x1="364" y1="217.8" x2="449.2" y2="217.8"/>
					</g>
					<g>
						<polyline class="st8" points="366.3,207.4 377.3,217 392.1,191.4 406.7,204.2 421.5,178.1 436.3,191 						"/>
						<circle class="st6" cx="436.3" cy="191" r="2.2"/>
						<circle class="st6" cx="421.6" cy="177.6" r="2.2"/>
						<circle class="st6" cx="406.8" cy="204.9" r="2.2"/>
						<circle class="st6" cx="392" cy="191" r="2.2"/>
						<circle class="st6" cx="377.3" cy="217.8" r="2.2"/>
					</g>
				</g>
				<g>
					<g>
						<polygon class="st6" points="694.5,43.8 343.4,43.8 343.4,38 688.6,38 688.6,5.1 389.7,5.9 389.7,0.1 694.5,0.1 						"/>
						
							<rect x="621.3" y="-6.8" transform="matrix(0.682 -0.7314 0.7314 0.682 182.7379 463.3997)" class="st6" width="5.8" height="56.6"/>
						<polygon class="st6" points="605.5,43.6 601.5,39.4 642.1,0.1 647,3.6 						"/>
						
							<rect x="579.9" y="-6.8" transform="matrix(0.682 -0.7314 0.7314 0.682 169.5777 433.0893)" class="st6" width="5.8" height="56.6"/>
						<polygon class="st6" points="564.1,43.6 560.1,39.4 600.6,0.2 605.5,3.6 						"/>
						
							<rect x="538.5" y="-6.8" transform="matrix(0.682 -0.7314 0.7314 0.682 156.4174 402.7788)" class="st6" width="5.8" height="56.6"/>
						<polygon class="st6" points="522.7,43.6 518.6,39.4 559,0.4 564.1,3.6 						"/>
						
							<rect x="497.1" y="-6.7" transform="matrix(0.682 -0.7314 0.7314 0.682 143.2138 372.5149)" class="st6" width="5.8" height="56.6"/>
						<polygon class="st6" points="481.2,43.6 477.2,39.4 517.7,0.3 522.7,3.6 						"/>
						<polygon class="st6" points="477.2,43 435.8,4.4 439.4,0.8 481.2,38.7 						"/>
						<polygon class="st6" points="439.8,43.6 435.8,39.4 476.6,0 481.2,3.6 						"/>
					</g>
					<rect x="553.5" y="364.2" class="st6" width="61.3" height="17.1"/>
					<rect x="561.9" y="40.3" class="st6" width="5.8" height="326.7"/>
					<rect x="600.6" y="43" class="st6" width="5.8" height="324"/>
					
						<rect x="555.9" y="309.1" transform="matrix(0.682 -0.7314 0.7314 0.682 -42.4429 526.4649)" class="st6" width="56.6" height="5.8"/>
					
						<rect x="581.3" y="283.3" transform="matrix(0.7193 -0.6947 0.6947 0.7193 -52.8717 493.4305)" class="st6" width="5.8" height="57.6"/>
					
						<rect x="555.9" y="349.6" transform="matrix(0.682 -0.7314 0.7314 0.682 -72.0133 539.3631)" class="st6" width="56.6" height="5.8"/>
					
						<rect x="581.4" y="323.7" transform="matrix(0.7193 -0.6947 0.6947 0.7193 -80.891 504.8029)" class="st6" width="5.8" height="57.6"/>
					
						<rect x="555.9" y="267.7" transform="matrix(0.682 -0.7314 0.7314 0.682 -12.1325 513.3047)" class="st6" width="56.6" height="5.8"/>
					
						<rect x="581.3" y="241.9" transform="matrix(0.7193 -0.6947 0.6947 0.7193 -24.0453 481.817)" class="st6" width="5.8" height="57.6"/>
					
						<rect x="555.9" y="226.4" transform="matrix(0.682 -0.7314 0.7314 0.682 18.1048 500.1762)" class="st6" width="56.6" height="5.8"/>
					
						<rect x="581.4" y="200.5" transform="matrix(0.7193 -0.6947 0.6947 0.7193 4.7117 470.2317)" class="st6" width="5.8" height="57.6"/>
					
						<rect x="555.9" y="184.9" transform="matrix(0.682 -0.7314 0.7314 0.682 48.4153 487.016)" class="st6" width="56.6" height="5.8"/>
					
						<rect x="581.4" y="159.1" transform="matrix(0.7193 -0.6947 0.6947 0.7193 33.4687 458.6464)" class="st6" width="5.8" height="57.6"/>
					
						<rect x="555.9" y="143.4" transform="matrix(0.682 -0.7314 0.7314 0.682 78.7523 473.7805)" class="st6" width="56.6" height="5.8"/>
					
						<rect x="581.4" y="117.5" transform="matrix(0.7193 -0.6947 0.6947 0.7193 62.3256 446.9646)" class="st6" width="5.8" height="57.6"/>
					
						<rect x="555.9" y="102" transform="matrix(0.682 -0.7314 0.7314 0.682 109.0627 460.6203)" class="st6" width="56.6" height="5.8"/>
					
						<rect x="581.4" y="76.2" transform="matrix(0.7193 -0.6947 0.6947 0.7193 91.0826 435.3792)" class="st6" width="5.8" height="57.6"/>
					
						<rect x="555.9" y="60.7" transform="matrix(0.682 -0.7314 0.7314 0.682 139.3 447.4918)" class="st6" width="56.6" height="5.8"/>
					
						<rect x="581.4" y="34.8" transform="matrix(0.7193 -0.6947 0.6947 0.7193 119.8115 423.7244)" class="st6" width="5.8" height="57.6"/>
					<path class="st6" d="M523.3,43.8l-34.2,46.9c-1.1,1.5-1.7,3.3-1.7,5.1v33.1c0,4.7,3.8,8.6,8.6,8.6c0,0,0.1,0,0.1,0H558
						c4.7,0.1,8.6-3.8,8.7-8.5c0,0,0-0.1,0-0.1V49c0-4.8-3.9-8.7-8.7-8.7l0,0h-27.7C527.5,40.3,524.9,41.6,523.3,43.8z"/>
					<path class="st9" d="M526.3,60.1l-21,31.6c-0.7,1-1.1,2.2-1.1,3.5v22.3c-0.1,3.1,2.3,5.7,5.4,5.8c0,0,0,0,0,0h38.1
						c3.1-0.1,5.5-2.7,5.4-5.8c0,0,0,0,0,0V63.6c0.2-3.1-2.2-5.7-5.3-5.9c0,0-0.1,0-0.1,0h-17.1C528.9,57.7,527.2,58.6,526.3,60.1z"
						/>
					<g>
						
							<rect x="419" y="-4.4" transform="matrix(0.682 -0.7314 0.7314 0.682 118.1969 315.3683)" class="st6" width="5.4" height="52.3"/>
						<polygon class="st6" points="404.4,42.1 400.7,38.2 438.6,1.9 442.7,5.1 						"/>
					</g>
					<polygon class="st6" points="358,149.4 352.2,149.4 352.2,39.7 393.5,0 397.5,4.2 358,42.1 					"/>
					<rect x="395.8" y="2.3" class="st6" width="5.4" height="36.4"/>
					<path class="st6" d="M354.2,144h1.9c6.5,0,11.8,5.3,11.9,11.8v1.2l0,0h-25.6l0,0v-1.2C342.5,149.3,347.7,144.1,354.2,144z"/>
				</g>
				<g>
					<path class="st1" d="M47.8,229.4h155.7c5.4,0,9.8,4.4,9.8,9.8v96.5c0,5.4-4.4,9.8-9.8,9.8H47.8c-5.4,0-9.8-4.4-9.8-9.8v-96.5
						C38,233.8,42.4,229.4,47.8,229.4z"/>
					<path class="st2" d="M53.9,236.5h143.5c5.4,0,9.8,4.4,9.8,9.8v82.2c0,5.4-4.4,9.8-9.8,9.8H53.9c-5.4,0-9.8-4.4-9.8-9.8v-82.2
						C44.1,240.9,48.5,236.5,53.9,236.5z"/>
					<path class="st3" d="M207.2,328.5v-36.9L179,265.8l-46.6,50.3l-45.6-28.7c0,0-24.2,20.2-42.7,38.6v2.5c0,5.4,3.5,9.8,7.8,9.8
						h147.6C203.7,338.3,207.2,333.9,207.2,328.5z"/>
					<circle class="st3" cx="129.3" cy="282.4" r="9"/>
				</g>
				<path class="st2" d="M115.3,89c-4.9,2.5-10.3,3.8-15.8,3.6c-14.6,0-26.9-10.7-26.9-27.8S85.3,30.7,105,30.7
					c15.5,0,25.9,10.8,25.9,25.7c0,13.3-7.5,21.1-15.8,21.1c-3.6,0-6.9-2.4-6.6-7.8h-0.4c-3.1,5.3-7.2,7.8-12.5,7.8S86,73.4,86,66.3
					c-0.1-11.5,9.3-20.9,20.8-21c0.1,0,0.2,0,0.3,0c3.3,0,6.5,0.6,9.5,1.8l-3,16.1c-1.4,6.8-0.3,9.9,2.6,10c4.6,0.1,9.6-6,9.6-16.3
					c0-12.9-7.7-22.1-21.5-22.1S77.6,46.2,77.6,64.3c0,14.8,9.7,24,22.9,24c4.7,0.1,9.3-1,13.4-3.1L115.3,89z M110.4,50.6
					c-1.4-0.4-2.9-0.6-4.4-0.6c-7.8,0-14.1,7.3-14.1,16c0,3.9,1.9,6.7,5.8,6.7s9.9-6.5,10.9-12.1L110.4,50.6z"/>
			</g>
		</g>
	</g>
</g>
</svg>
