<svg id="Warstwa_1" data-name="Warstwa 1" xmlns="http://www.w3.org/2000/svg" xmlns:xlink="http://www.w3.org/1999/xlink" width="540" height="760" viewBox="0 0 540 760">
  <defs>
    <linearGradient id="Gradient_bez_nazwy_7" data-name="Gradient bez nazwy 7" x1="160" y1="461.73" x2="180.16" y2="493.44" gradientUnits="userSpaceOnUse">
      <stop offset="0" stop-color="#ffda8f"/>
      <stop offset="0.79" stop-color="#fec343"/>
    </linearGradient>
  </defs>
  <g>
    <g id="Group_572" data-name="Group 572">
      <g id="Group_571" data-name="Group 571">
        <path id="Path_937" data-name="Path 937" d="M508.6,106.3c-7.5-55.9-67.4-93.9-133.8-85s-114,61.5-106.5,117.4c5.2,38.3,34.9,68.2,74.4,80.4,1.3,12.3-2.3,25.9-19.2,35a2.2,2.2,0,0,0-.9,3,2.3,2.3,0,0,0,1.7,1.1c14.8,1.6,44.2-1.9,58.7-33.2a135.2,135.2,0,0,0,19.1-1.3C468.5,214.8,516.1,162.2,508.6,106.3Z" fill="#fafafa"/>
        <g id="Group_563" data-name="Group 563" opacity="0.2">
          <g id="Group_559" data-name="Group 559">
            <path id="Path_938" data-name="Path 938" d="M355.8,160.5a13.4,13.4,0,1,1-17.5-7.3l12.4-5.1Z"/>
            <path id="Path_939" data-name="Path 939" d="M362,157.9a13.4,13.4,0,0,1,24.8-10.3l12.9,31a13.4,13.4,0,0,1-24.6,10.6l-.2-.4Z"/>
          </g>
          <g id="Group_560" data-name="Group 560">
            <path id="Path_940" data-name="Path 940" d="M353.7,103.1A13.4,13.4,0,1,1,361,85.6l5.1,12.3Z"/>
            <path id="Path_941" data-name="Path 941" d="M356.3,109.3A13.4,13.4,0,0,1,367,133.9h-.4l-30.9,12.9A13.4,13.4,0,1,1,325,122.3h.4Z"/>
          </g>
          <g id="Group_561" data-name="Group 561">
            <path id="Path_942" data-name="Path 942" d="M411.1,101a13.4,13.4,0,1,1,17.6,7.2l-12.4,5.2Z"/>
            <path id="Path_943" data-name="Path 943" d="M404.9,103.6a13.4,13.4,0,0,1-24.6,10.6c0-.1-.1-.2-.1-.3l-12.9-31a13.4,13.4,0,1,1,24.6-10.6c0,.1.1.2.1.3Z"/>
          </g>
          <g id="Group_562" data-name="Group 562">
            <path id="Path_944" data-name="Path 944" d="M413.2,158.4a13.4,13.4,0,1,1-7.2,17.5l-5.2-12.4Z"/>
            <path id="Path_945" data-name="Path 945" d="M410.6,152.2a13.4,13.4,0,0,1-10.3-24.8l31-12.8a13.4,13.4,0,0,1,10.3,24.7Z"/>
          </g>
        </g>
        <g id="Group_568" data-name="Group 568">
          <g id="Group_564" data-name="Group 564">
            <path id="Path_946" data-name="Path 946" d="M352.1,157.9a13.4,13.4,0,1,1-24.7,10.3,13.5,13.5,0,0,1,7.2-17.6l12.4-5.1Z" fill="#e01e5a"/>
            <path id="Path_947" data-name="Path 947" d="M358.4,155.3A13.4,13.4,0,0,1,383.1,145L396,176a13.4,13.4,0,0,1-24.8,10.2Z" fill="#e01e5a"/>
          </g>
          <g id="Group_565" data-name="Group 565">
            <path id="Path_948" data-name="Path 948" d="M350.1,100.5A13.4,13.4,0,1,1,357.3,83l5.1,12.3Z" fill="#36c5f0"/>
            <path id="Path_949" data-name="Path 949" d="M352.7,106.7a13.4,13.4,0,0,1,10.6,24.6h-.4L332,144.3a13.4,13.4,0,0,1-10.3-24.7Z" fill="#36c5f0"/>
          </g>
          <g id="Group_566" data-name="Group 566">
            <path id="Path_950" data-name="Path 950" d="M407.5,98.4a13.4,13.4,0,1,1,17.5,7.2l-12.4,5.2Z" fill="#2eb67d"/>
            <path id="Path_951" data-name="Path 951" d="M401.2,101a13.4,13.4,0,0,1-6.9,17.6,13.5,13.5,0,0,1-17.7-7c0-.1-.1-.2-.1-.3l-12.9-31A13.4,13.4,0,0,1,388.4,70Z" fill="#2eb67d"/>
          </g>
          <g id="Group_567" data-name="Group 567">
            <path id="Path_952" data-name="Path 952" d="M409.5,155.8a13.4,13.4,0,1,1-7.2,17.5l-5.1-12.4Z" fill="#ecb22e"/>
            <path id="Path_953" data-name="Path 953" d="M406.9,149.6A13.4,13.4,0,1,1,396.3,125l.4-.2,30.9-12.9a13.4,13.4,0,0,1,10.6,24.6l-.3.2Z" fill="#ecb22e"/>
          </g>
        </g>
        <g id="Group_570" data-name="Group 570" opacity="0.2">
          <g id="Group_569" data-name="Group 569">
            <path id="Path_954" data-name="Path 954" d="M508.6,106.3a90.6,90.6,0,0,0-26-51.7,88.2,88.2,0,0,1,19.1,44c7.5,55.9-40.2,108.5-106.5,117.4a154.5,154.5,0,0,1-19.1,1.3c-11.3,24.2-31.5,31.8-46.9,33.2a55,55,0,0,1-5.7,3.6,2.2,2.2,0,0,0-.9,3,2,2,0,0,0,1.7,1.1c14.8,1.6,44.2-1.9,58.7-33.2a151.9,151.9,0,0,0,19.1-1.2C468.5,214.8,516.1,162.2,508.6,106.3Z"/>
            <path id="Path_955" data-name="Path 955" d="M482.6,54.6a90.6,90.6,0,0,1,26,51.7c7.5,55.9-40.1,108.5-106.5,117.4A135.2,135.2,0,0,1,383,225c-12.8,27.5-37,33.5-52.7,33.5q-3,0-6-.3a2.2,2.2,0,0,1-2-2.4,2.4,2.4,0,0,1,1.2-1.7,55,55,0,0,0,5.7-3.6c15.4-1.4,35.6-9,46.9-33.2a153.2,153.2,0,0,0,19.1-1.3c66.3-9,114-61.5,106.5-117.4a88.2,88.2,0,0,0-19.1-44m.4-.4-.9.8a87.9,87.9,0,0,1,19,43.7c3.6,26.8-5.4,53.7-25.4,75.8s-48.7,36.6-80.6,40.9a151.6,151.6,0,0,1-19,1.3h-.5v.3a55.3,55.3,0,0,1-46.4,32.9h-.3a47.3,47.3,0,0,1-5.6,3.5,3,3,0,0,0-1.2,3.9,3.1,3.1,0,0,0,2.2,1.5c2,.2,4.1.3,6.1.3,11.2,0,38.8-3.3,53.1-33.5a169.6,169.6,0,0,0,18.8-1.3c32.2-4.4,61.1-19,81.3-41.3a103.8,103.8,0,0,0,21.6-35.9,88.8,88.8,0,0,0,4.1-40.9A91,91,0,0,0,483,54.2Z" fill="#fff"/>
          </g>
        </g>
        <path id="Path_956" data-name="Path 956" d="M451.3,51.1c18.2,14.3,33.9,37.7,32,84.3a1.6,1.6,0,0,0,1.6,1.6,1.4,1.4,0,0,0,1.5-1c18.4-50.5-12.7-76.5-33.4-87.6a1.6,1.6,0,0,0-2.1.7A1.6,1.6,0,0,0,451.3,51.1Z" fill="#fff"/>
      </g>
      <path id="Path_957" data-name="Path 957" d="M333.8,258.8l-7-1.5c-23-5.1-47.9-19.1-49.8-33.7-.5-3.4.1-9.8,8.8-14.4a15,15,0,0,1,12.6-.7c17,6.2,31.2,39.9,32.7,43.7Zm-41-43.8a7.3,7.3,0,0,0-3.5.9c-5.4,2.8-5,5.8-4.9,6.7,1.1,7.7,15.9,19.2,36.6,25.4-5.6-11.6-15.7-29-25.2-32.5a10.5,10.5,0,0,0-3-.5Z" fill="#fafafa"/>
      <path id="Path_958" data-name="Path 958" d="M370.7,291.5h-.5c-18.2-.4-42.3-27.8-45-31l-4.7-5.4,7.2-.8c23.4-2.5,51.4,2.8,57.9,16,1.6,3.1,3.1,9.3-3.7,16.5A14.9,14.9,0,0,1,370.7,291.5Zm-34.5-30.2c8.9,9.2,24,22.4,34.2,22.7a7.8,7.8,0,0,0,6-2.4c4.2-4.4,2.9-7.1,2.5-8-3.4-6.9-21.2-13-42.7-12.3Z" fill="#fafafa"/>
      <path id="Path_959" data-name="Path 959" d="M324.1,565.9l-34.3,55.9h8.8l31.9-52c18.8-30.7,25.4-62.5,20-97.1s-20.8-66.3-36.8-96.9-20.2-56.9-13-79.6A71.4,71.4,0,0,1,332.5,257l-1.7-3.4-1.7-3.4a77.5,77.5,0,0,0-35.5,43.6c-8,24.7-3.5,53.5,13.4,85.5C339,440.1,364.3,500.2,324.1,565.9Z" fill="#fafafa"/>
    </g>
    <path d="M253.5,526.7s42.3-19.8,37-36.3,20.3-19.7,30.3.6,4.8,64.7-39.1,69S253.5,526.7,253.5,526.7Z" fill="#fe674a"/>
    <path d="M290.5,490.4s1.7-8.1,11.5-7.5c15.7,1,36.5,43.1-11.2,71.3-8.1,4.8-15.3,3.7-17.1,6.2a77.7,77.7,0,0,0,8-.4c43.9-4.3,49-48.7,39.1-69S285.2,473.8,290.5,490.4Z" fill="#fe454a"/>
    <path d="M174.3,740c136.4-.3,147-102.1,116.6-132.5s8.1-38.6,4.6-74.8c-4.2-42.5-71-92-110.5-64.9-62.3,42.5-34.6,102.1-34.6,102.1s-25.1,64.2-101.1,19.8c-8.8-5.2-19.8,2.3-19.3,12.5C32.2,647.3,51.5,740.3,174.3,740Z" fill="#fec343"/>
    <path d="M173.6,481.8s-6.9-22.4,14.4-31.5c0,0-9.5,23.9,1.5,33Z" fill="#fec343"/>
    <path d="M181.1,480.5s-2.5-23.3,20.2-28.2c0,0-13.9,21.7-4.8,32.7Z" fill="#fec343"/>
    <path d="M186.4,480.8s-24.2-12.3-40.6,6.3c0,0,31.6-5,35.2,8.8Z" fill="#fec343"/>
    <path d="M293.6,610.6c-28.2,13.3-38.8,31.4-88.5,29.5,0,0,49,20.2,38.3,41.8,15.6,5.3,37.5,3.7,55.4-4.5C309.3,652.1,305.4,625.4,293.6,610.6Z" fill="#ff9f2e"/>
    <path d="M196.1,631.6c56.3,7.6,127.1-61.4,140.4-33.5,9.5,19.8-14.9,21.4-10.1,34.5a13,13,0,0,0,4.2,5.8,8.7,8.7,0,0,1-1.4,13.9c-19.3,11.9-57.5,32.5-85.7,29.5" fill="#fec343"/>
    <path d="M313.6,615.9a59.6,59.6,0,0,0-12.7-17.3l-3.6,1.5-.6.8a57.5,57.5,0,0,1,12.9,17.2c6.9,14.4,6.6,29.7-1,45.3h.2l6.2-3.3C322.3,641.3,318.5,625.9,313.6,615.9Z" fill="#ff9f2e"/>
    <ellipse cx="250.8" cy="502.9" rx="17.3" ry="21.8" transform="translate(-305 420.1) rotate(-55)" fill="#fff"/>
    <path d="M260.9,491.6a8,8,0,0,1-.8,7.4c-2.7,3.8-8.7,4.3-13.4,1s-5.3-6.3-4.9-9.7a10,10,0,0,0-2.9,2.9c-4.4,6.3-1.8,15.7,5.9,21.1s17.4,4.6,21.8-1.7S268.4,497,260.9,491.6Z" fill="#2a2b38"/>
    <path d="M183.6,481.5c-3.5-1.5-4.7-20.2-4.7-20.2-4.2,4.2-3.1,17.1-3.1,17.1s-17.4,1.9-21.2,4.9c0,0,27.3-.4,30.4,3.4" fill="url(#Gradient_bez_nazwy_7)"/>
    <path d="M217.3,736c-116.8,22.8-174-71.9-175.5-120.5-.5-17.2,10.6-24.1,10.6-24.1h0l-3.1-1.7c-8.8-5.2-19.8,2.3-19.3,12.5C32.2,647.3,51.5,740.3,174.3,740A221.6,221.6,0,0,0,217.3,736Z" fill="#ff9f2e"/>
    <path d="M261.3,584.7c-91.2,17.8-110.9-14.8-110.9-14.8a52,52,0,0,1-2.5,5.1h0a2.5,2.5,0,0,0-.4.7h-.1l-.4.7h0l-1,1.7h0l-.6.8h0l-.6.8h0l-.6.8h0l-1.4,1.8h0l-.7.9H142l-.7,1h-.1c-.5.7-1.1,1.3-1.7,2h0C191.6,625.5,261.3,584.7,261.3,584.7Z" fill="#ff9f2e"/>
    <path d="M317,614.4A60.4,60.4,0,0,0,304.3,597l-3.6,1.6-.6.8A52.7,52.7,0,0,1,313,616.6c7,14.4,6.6,29.6-1,45.3h.2l6.2-3.3C325.7,639.8,321.9,624.4,317,614.4Z" fill="#fafafa"/>
    <path d="M309.6,604.3l6.9-11.6a122.7,122.7,0,0,0-16.9,6.4Z" fill="#fafafa"/>
  </g>
</svg>
