<svg id="Layer_1" data-name="Layer 1" xmlns="http://www.w3.org/2000/svg" width="192" height="57.9" viewBox="0 0 192 57.9">
  <g>
    <path d="M72.5,34.6A15.4,15.4,0,0,0,78,35.7c1.1,0,2.3-.5,2.3-1.7s-1.8-1.9-2.8-2.2c-2.8-.7-5.2-1.6-5.2-4.8s2.9-5.6,6.5-5.6c1.8,0,3.6,0,4.9.7v3.2c-.8-.5-2.8-.5-4-.5s-2.9.1-2.9,1.4,1.8,1.7,2.7,2l1.2.3c2.2.7,4.2,2.3,4.2,4.8a5.2,5.2,0,0,1-2,4.4,7.4,7.4,0,0,1-4.8,1.4c-2.3,0-4.1-.1-5.6-.9V34.6Z" fill="#1b1b1b"/>
    <path d="M58.5,24.6a8.1,8.1,0,0,0-2.4,6,8.1,8.1,0,0,0,2.6,6,9.6,9.6,0,0,0,6.8,2.5c.9,0,3.7,0,4.9-.7V35.3a12.6,12.6,0,0,1-4.5.8,5.6,5.6,0,0,1-5.5-5.6,5.4,5.4,0,0,1,5.5-5.6,11.8,11.8,0,0,1,4.3.8V22.8a13.3,13.3,0,0,0-5.1-.9A9.6,9.6,0,0,0,58.5,24.6Z" fill="#1b1b1b"/>
    <path d="M86.6,34.6a15.4,15.4,0,0,0,5.5,1.1c1.1,0,2.3-.5,2.3-1.7s-1.8-1.9-2.8-2.2c-2.7-.7-5.2-1.6-5.2-4.8s2.9-5.6,6.5-5.6c1.8,0,3.6,0,4.9.7v3.2c-.8-.5-2.8-.5-4-.5s-2.9.1-2.9,1.4,1.8,1.7,2.7,2l1.2.3c2.2.7,4.2,2.3,4.2,4.8a5.2,5.2,0,0,1-2,4.4,7.4,7.4,0,0,1-4.8,1.4c-2.3,0-4.1-.1-5.6-.9V34.6Z" fill="#1b1b1b"/>
    <polygon points="119.1 22.5 124.5 22.5 130.5 33 130.6 33 130.6 22.5 134.8 22.5 134.8 39.1 129.4 39.1 123.4 28.7 123.4 28.7 123.4 39.1 119.1 39.1 119.1 22.5 119.1 22.5" fill="#1b1b1b"/>
    <polygon points="53.5 39.1 48.9 39.1 48.9 22.5 53.5 22.5 53.5 39.1 53.5 39.1" fill="#1b1b1b"/>
    <polygon points="20.5 26.2 20.5 28.9 28.6 28.9 28.6 32.6 20.5 32.6 20.5 35.5 28.9 35.5 28.9 39.1 16 39.1 16 22.5 28.9 22.5 28.9 26.2 20.5 26.2 20.5 26.2" fill="#1b1b1b"/>
    <path d="M44.2,32.6c0,.1,2.5,6.5,2.5,6.5H41.8a50.3,50.3,0,0,0-1.6-5c-.5-.9-1-1.4-1.7-1.4H36.9v6.4H32.3V22.5h7.6c4,0,6,1,6,4.5a4.4,4.4,0,0,1-3.1,3.9,3.5,3.5,0,0,1,1.4,1.7Zm-7.4-3.1h2.1c1.1,0,2.2-.2,2.2-1.9s-1.1-1.8-2.2-1.8H36.8v3.7Z" fill="#1b1b1b"/>
    <path d="M117.1,29.8c0,5.5-3.5,9.3-8.5,9.3s-8.6-3.8-8.6-9.3a8.6,8.6,0,1,1,17.1,0Zm-12.3,0c0,3.3,1.1,5.7,3.8,5.7s3.7-2.4,3.7-5.7-1.1-5.1-3.7-5.1-3.8,2.4-3.8,5.1Z" fill="#1b1b1b"/>
  </g>
  <path d="M173.9,17.9a3.1,3.1,0,0,0,1.9-4,3.2,3.2,0,0,0-4.1-1.9l-17.8,6.6a3.1,3.1,0,0,0-1.8,4,3.2,3.2,0,0,0,4.1,1.8l17.7-6.5Z" fill="#1b1b1b"/>
  <path d="M171.8,12.2h0L154,18.8a2.6,2.6,0,0,0-1.6,1.5,2.4,2.4,0,0,0-.1,2.2,3,3,0,0,0,3.8,1.7l17.8-6.6a2.6,2.6,0,0,0,1.6-1.5,2.8,2.8,0,0,0,.1-2.2A3,3,0,0,0,171.8,12.2Z" fill="#1b1b1b"/>
  <path d="M173.9,27.5a3.1,3.1,0,0,0,1.9-4,3.2,3.2,0,0,0-4.1-1.8l-17.8,6.5a3.1,3.1,0,0,0-1.8,4,3.2,3.2,0,0,0,4.1,1.8l17.7-6.5Z" fill="#1b1b1b"/>
  <path d="M171.8,21.9h0L154,28.4a2.9,2.9,0,0,0-1.6,1.5,2.4,2.4,0,0,0-.1,2.2,3,3,0,0,0,3.8,1.7l17.8-6.5a2.9,2.9,0,0,0,1.6-1.5,2.8,2.8,0,0,0,.1-2.2A3,3,0,0,0,171.8,21.9Z" fill="#1b1b1b"/>
  <path d="M173.9,37.1a3.1,3.1,0,0,0,1.9-4,3.2,3.2,0,0,0-4.1-1.8l-17.8,6.5a3.1,3.1,0,0,0-1.8,4,3.2,3.2,0,0,0,4.1,1.8l17.7-6.5Z" fill="#1b1b1b"/>
  <path d="M171.8,31.5,154,38a2.8,2.8,0,0,0-1.6,1.6,2.2,2.2,0,0,0-.1,2.1,2.9,2.9,0,0,0,3.8,1.7l17.8-6.5a2.9,2.9,0,0,0,1.6-1.5,2.8,2.8,0,0,0,.1-2.2A3,3,0,0,0,171.8,31.5Z" fill="#1b1b1b"/>
</svg>
