<svg id="Layer_1" data-name="Layer 1" xmlns="http://www.w3.org/2000/svg" width="192" height="57.9" viewBox="0 0 192 57.9">
  <path d="M28.7,25.7a5.8,5.8,0,0,0-3.8-1.3A6.1,6.1,0,0,0,21,25.7a4.8,4.8,0,0,0,0,6.6,6.7,6.7,0,0,0,3.9,1.3,5.8,5.8,0,0,0,3.8-1.3A4,4,0,0,0,30,29a4.7,4.7,0,0,0-1.3-3.3m10.6-6.4V38.7h5.6V29a5.4,5.4,0,0,1,1.3-3.3A5.6,5.6,0,0,1,50,24.4a10.8,10.8,0,0,1,1.9.3,13.3,13.3,0,0,1,2.8-4.3l.6-.5a10.5,10.5,0,0,0-4.4-1,8.1,8.1,0,0,0-6,2.1V19.3Zm28.3,6.4a5.9,5.9,0,0,0-3.9-1.3,6,6,0,0,0-3.8,1.3A4,4,0,0,0,58.6,29a5.2,5.2,0,0,0,1.3,3.3,5.6,5.6,0,0,0,3.8,1.3,6.1,6.1,0,0,0,3.9-1.3A4,4,0,0,0,68.9,29,4.3,4.3,0,0,0,67.6,25.7Zm-4.1-6.8a9.2,9.2,0,0,1,6,2V19.3h5.4V38.7H69.3V37.1a8.5,8.5,0,0,1-6,2A10.1,10.1,0,0,1,53,29,10.4,10.4,0,0,1,63.5,18.9Zm21.7,6.8A5.6,5.6,0,0,1,89,24.4a6.1,6.1,0,0,1,3.9,1.3A4.4,4.4,0,0,1,94.2,29a5.2,5.2,0,0,1-1.3,3.3A5.9,5.9,0,0,1,89,33.6a6,6,0,0,1-3.8-1.3A4,4,0,0,1,83.9,29,4.3,4.3,0,0,1,85.2,25.7Zm4.1-6.8a8.3,8.3,0,0,0-5.8,2V19.3H77.9V45.7h5.6V37.1a8.5,8.5,0,0,0,6,2A10,10,0,0,0,99.7,29,10.3,10.3,0,0,0,89.3,18.9Zm27.9,8.5a5.1,5.1,0,0,0-5-3.7,5.2,5.2,0,0,0-5,3.7Zm-5,6.9a4.5,4.5,0,0,0,3.8-1.6h6.3a11.3,11.3,0,0,1-2.4,3.6,11.4,11.4,0,0,1-7.6,2.8,10.9,10.9,0,0,1-7.6-2.8,10.1,10.1,0,0,1,0-14.6,11.4,11.4,0,0,1,7.6-2.8,10.9,10.9,0,0,1,7.6,2.8A9.8,9.8,0,0,1,123,29a8.1,8.1,0,0,1-.1,1.6H107.3A5.5,5.5,0,0,0,112.2,34.3Zm51.4-8.6a5.9,5.9,0,0,1,3.9-1.3,6,6,0,0,1,3.8,1.3,4,4,0,0,1,1.3,3.3,4.3,4.3,0,0,1-1.3,3.3,5.6,5.6,0,0,1-3.8,1.3,6.1,6.1,0,0,1-3.9-1.3,4,4,0,0,1-1.3-3.3A4.3,4.3,0,0,1,163.6,25.7Zm4.3-6.8a9.2,9.2,0,0,0-6,2V19.3h-5.6V45.7h5.6V37.1a8.5,8.5,0,0,0,6,2,10.1,10.1,0,1,0,0-20.2Zm-14.4.4V38.7h-5.6V37.1c-1.4,1.5-3.3,2-5.6,2a9.9,9.9,0,0,1-10-10.1V19.3h5.6V29a4.4,4.4,0,0,0,1.3,3.3,4.8,4.8,0,0,0,3.5,1.3,6.1,6.1,0,0,0,3.9-1.3,4,4,0,0,0,1.3-3.3V19.3ZM34.2,23.9a10,10,0,0,1,1.3,5,10.2,10.2,0,0,1-3,7.1,8.2,8.2,0,0,1,3,6.1A8,8,0,0,1,32,48.6a12,12,0,0,1-7.3,2.3,11.9,11.9,0,0,1-7.2-2.3A8,8,0,0,1,14,42.1v-.4h5.6v.6a2.3,2.3,0,0,0,1.1,2,6.8,6.8,0,0,0,4,1.1,6.2,6.2,0,0,0,4-1.1,2.6,2.6,0,0,0,1.2-2,2.1,2.1,0,0,0-1.2-2,6.6,6.6,0,0,0-4-1.2,10.9,10.9,0,0,1-7.5-2.8,9.9,9.9,0,0,1,0-14.6,11.4,11.4,0,0,1,7.7-2.8c2.1,0,3.8.4,6.1.4h5.6V24H34.2Z" fill="#010101"/>
</svg>
