<svg xmlns="http://www.w3.org/2000/svg" width="589.3" height="393.5" viewBox="0 0 589.3 393.5">
  <defs>
    <style>
      .cls-1 {
        isolation: isolate;
      }

      .cls-2 {
        fill: #95cde8;
      }

      .cls-3 {
        fill: #e8e8e8;
      }

      .cls-4 {
        fill: #137099;
      }

      .cls-5 {
        fill: #2a2b38;
      }

      .cls-6 {
        fill: #fff;
      }

      .cls-7 {
        opacity: 0.2;
        mix-blend-mode: multiply;
      }

      .cls-8 {
        fill: #ffe933;
      }

      .cls-9 {
        fill: #ff9f2e;
      }
    </style>
  </defs>
  <g class="cls-1">
    <g id="Warstwa_2" data-name="Warstwa 2">
      <g id="Warstwa_1-2" data-name="Warstwa 1">
        <g>
          <rect class="cls-2" width="380" height="312.14"/>
          <polygon class="cls-3" points="554.8 393.5 589.3 393.5 589.3 27 60.2 27 60.2 393.5 359.9 393.5 554.8 393.5"/>
          <g>
            <rect class="cls-4" x="272.5" y="219.8" width="274.3" height="140.06"/>
            <g>
              <rect class="cls-5" x="287.9" y="247.9" width="147.9" height="10.24" rx="2"/>
              <rect class="cls-5" x="287.9" y="271.8" width="243.4" height="10.24" rx="2"/>
              <rect class="cls-5" x="287.9" y="295.8" width="243.4" height="10.24" rx="2"/>
              <rect class="cls-5" x="287.9" y="321.5" width="174.6" height="10.24" rx="1.7"/>
              <rect class="cls-5" x="472" y="321.5" width="59.3" height="10.24" rx="2"/>
              <rect class="cls-5" x="457.7" y="247.9" width="73.5" height="10.24" rx="2"/>
            </g>
          </g>
          <rect class="cls-6" x="273.8" y="60.6" width="273" height="140.06"/>
          <g>
            <rect class="cls-5" x="288.6" y="88.7" width="147.9" height="10.24" rx="2"/>
            <rect class="cls-5" x="288.6" y="112.7" width="243.4" height="10.24" rx="2"/>
            <rect class="cls-5" x="288.6" y="136.7" width="243.4" height="10.24" rx="2"/>
            <rect class="cls-5" x="288.6" y="162.4" width="174.6" height="10.24" rx="1.7"/>
            <rect class="cls-5" x="472.7" y="162.4" width="59.3" height="10.24" rx="2"/>
            <rect class="cls-5" x="458.4" y="88.7" width="73.5" height="10.24" rx="2"/>
          </g>
          <g>
            <rect class="cls-4" x="102.7" y="60.6" width="140.1" height="140.06"/>
            <g>
              <rect class="cls-5" x="115.4" y="88.7" width="69.6" height="10.24" rx="2"/>
              <rect class="cls-5" x="115.4" y="112.7" width="114.5" height="10.24" rx="2"/>
              <rect class="cls-5" x="115.4" y="136.7" width="114.5" height="10.24" rx="2"/>
              <rect class="cls-5" x="115.4" y="162.4" width="82.2" height="10.24" rx="1.7"/>
              <rect class="cls-5" x="202.1" y="162.4" width="27.9" height="10.24" rx="2"/>
              <rect class="cls-5" x="195.3" y="88.7" width="34.6" height="10.24" rx="2"/>
            </g>
          </g>
          <g>
            <rect class="cls-4" x="102.7" y="219.8" width="140.1" height="140.06"/>
            <g>
              <rect class="cls-5" x="115.4" y="247.9" width="69.6" height="10.24" rx="2"/>
              <rect class="cls-5" x="115.4" y="271.8" width="114.5" height="10.24" rx="2"/>
              <rect class="cls-5" x="115.4" y="295.8" width="53.6" height="10.24" rx="2"/>
              <rect class="cls-5" x="176.4" y="295.8" width="53.6" height="10.24" rx="2"/>
              <rect class="cls-5" x="115.4" y="321.5" width="82.2" height="10.24" rx="1.7"/>
              <rect class="cls-5" x="202.1" y="321.5" width="27.9" height="10.24" rx="2"/>
              <rect class="cls-5" x="195.3" y="247.9" width="34.6" height="10.24" rx="2"/>
            </g>
          </g>
          <polygon class="cls-5" points="113.4 49.8 94.2 49.8 94.2 0.2 112.1 0.2 112.1 3.2 96.7 3.2 96.7 46.8 110.8 46.8 110.8 23.8 105.1 23.8 105.1 35.3 102.5 35.3 102.5 20.8 113.4 20.8 113.4 49.8"/>
          <g class="cls-7">
            <rect x="404.7" y="161.2" width="110.9" height="106.95"/>
          </g>
          <rect class="cls-8" x="394.2" y="150.8" width="110.9" height="106.95"/>
          <rect class="cls-5" x="399.7" y="173.4" width="57" height="5.59" rx="1"/>
          <rect class="cls-5" x="460.7" y="173.4" width="29.6" height="5.59" rx="1.1"/>
          <rect class="cls-5" x="399.7" y="189.8" width="84.9" height="5.59" rx="1.1"/>
          <rect class="cls-5" x="399.7" y="206.3" width="46.6" height="5.59" rx="0.9"/>
          <rect class="cls-5" x="451.1" y="206.3" width="18" height="5.59" rx="0.8"/>
          <g>
            <path class="cls-9" d="M194.7,240.7a2.7,2.7,0,0,1-1.8-.8,2.6,2.6,0,0,1-.6-1.9c1.5-34.4,13.1-60.3,34.6-77s47.2-20.3,65.6-20.9h5.7a163,163,0,0,1,29.5,2.6,2.5,2.5,0,0,1,2,3l-.7,3.1a2.6,2.6,0,0,1-2.5,2.1h-.6a156.9,156.9,0,0,0-27.6-2.3c-18.9,0-45.8,3.3-66.3,19.2s-30,38.9-31.4,70.8a2.5,2.5,0,0,1-2.6,2.4Z"/>
            <path class="cls-9" d="M198,238.3l-3.1-.2c1.4-33.6,12.8-58.9,33.6-75s46.1-19.8,64.1-20.5a165,165,0,0,1,34.5,2.5l-.6,3.1c-.6-.1-58.4-11.8-96,17.4C210.4,181.2,199.5,205.6,198,238.3Z"/>
            <g>
              <polygon class="cls-9" points="171.8 228.6 221.4 228.2 196.9 271.3 171.8 228.6"/>
              <polygon class="cls-9" points="180.8 233.7 196.9 261 212.5 233.4 180.8 233.7"/>
            </g>
          </g>
        </g>
      </g>
    </g>
  </g>
</svg>
