<svg xmlns="http://www.w3.org/2000/svg" xmlns:xlink="http://www.w3.org/1999/xlink" width="683.8" height="523.9" viewBox="0 0 683.8 523.9">
  <defs>
    <style>
      .cls-1 {
        isolation: isolate;
      }

      .cls-2 {
        fill: #d3d3d3;
      }

      .cls-14, .cls-3 {
        opacity: 0.2;
      }

      .cls-3 {
        mix-blend-mode: multiply;
      }

      .cls-4 {
        fill: #f9ad73;
      }

      .cls-5 {
        fill: #874d26;
      }

      .cls-6 {
        fill: #e8e8e8;
      }

      .cls-7 {
        fill: #23d8a4;
      }

      .cls-8 {
        fill: url(#Gradient_bez_nazwy_24);
      }

      .cls-9 {
        fill: url(#Gradient_bez_nazwy_15);
      }

      .cls-10 {
        fill: #fff;
      }

      .cls-11 {
        fill: #2a2b38;
      }

      .cls-12 {
        fill: #3e004c;
      }

      .cls-13 {
        fill: #376f92;
      }

      .cls-14 {
        mix-blend-mode: lighten;
      }
    </style>
    <linearGradient id="Gradient_bez_nazwy_24" data-name="Gradient bez nazwy 24" x1="109.74" y1="167.89" x2="96.88" y2="349.14" gradientUnits="userSpaceOnUse">
      <stop offset="0" stop-color="#13c899" stop-opacity="0.3"/>
      <stop offset="0.56" stop-color="#10aa81" stop-opacity="0.47"/>
      <stop offset="1" stop-color="#054a35" stop-opacity="0.99"/>
      <stop offset="1" stop-color="#054934"/>
    </linearGradient>
    <linearGradient id="Gradient_bez_nazwy_15" data-name="Gradient bez nazwy 15" x1="167.63" y1="178.13" x2="155.37" y2="350.95" gradientUnits="userSpaceOnUse">
      <stop offset="0" stop-color="#13c899"/>
      <stop offset="1" stop-color="#07664b"/>
    </linearGradient>
  </defs>
  <g class="cls-1">
    <g id="Warstwa_2" data-name="Warstwa 2">
      <g id="Warstwa_1-2" data-name="Warstwa 1">
        <g>
          <path class="cls-2" d="M492.2,503.3l30.5-156.5c.8-4.4-2.4-8.5-7.2-9.3s-9.4,2.2-10.3,6.5l-31,159.3Z"/>
          <path class="cls-2" d="M664.4,503.3h18L651.4,344c-.9-4.3-5.4-7.2-10.3-6.5h0c-4.8.8-8,4.9-7.1,9.3Z"/>
          <g class="cls-3">
            <path d="M634,346.8l2,10.6h18L651.4,344a8.5,8.5,0,0,0-1.1-2.6H635A7.3,7.3,0,0,0,634,346.8Z"/>
          </g>
          <g class="cls-3">
            <path d="M505.2,344l-2.6,13.4h18l2.1-10.6a7.8,7.8,0,0,0-1.1-5.4H506.3A8.5,8.5,0,0,0,505.2,344Z"/>
          </g>
          <rect class="cls-2" x="498.5" y="413.8" width="153.7" height="8.86"/>
          <path class="cls-2" d="M677,130.4l6.8,207.9c.2,6-6.3,11-14.1,10.8l-33.6-.6,30.5-218.4c.3-2,2.5-3.6,5.2-3.6h0C674.6,126.5,676.9,128.3,677,130.4Z"/>
          <path class="cls-2" d="M597.3,336.1l73.7.8V126.5h-8.7s-26.5-.2-48-.1Z"/>
          <path class="cls-2" d="M659.1,349.4H483.7a8.3,8.3,0,0,1-8.6-8h0a8.3,8.3,0,0,1,8.6-8H672.6l.2,1.7C673.8,342.7,667.4,349.4,659.1,349.4Z"/>
          <g class="cls-3">
            <path d="M597.3,334.8l75.3-1.4L671,126.5h-8.7s-26.5-.2-48-.1Z"/>
          </g>
          <g>
            <path class="cls-2" d="M191.6,503.3,161.1,346.8c-.8-4.4,2.4-8.5,7.2-9.3s9.4,2.2,10.2,6.5l31.1,159.3Z"/>
            <path class="cls-2" d="M19.3,503.3H1.4L32.4,344c.8-4.3,5.4-7.2,10.2-6.5h0c4.9.8,8.1,4.9,7.2,9.3Z"/>
            <g class="cls-3">
              <path d="M49.8,346.8l-2.1,10.6H29.8L32.4,344a8.2,8.2,0,0,1,1-2.6H48.8A7.3,7.3,0,0,1,49.8,346.8Z"/>
            </g>
            <g class="cls-3">
              <path d="M178.5,344l2.7,13.4h-18l-2.1-10.6a7.3,7.3,0,0,1,1.1-5.4h15.3A6.4,6.4,0,0,1,178.5,344Z"/>
            </g>
            <rect class="cls-2" x="31.6" y="413.8" width="153.7" height="8.86" transform="translate(216.8 836.5) rotate(-180)"/>
            <path class="cls-2" d="M6.8,130.4,0,338.3c-.2,6,6.2,11,14.1,10.8l33.6-.6L17.2,130.1c-.3-2-2.5-3.6-5.2-3.6h0C9.2,126.5,6.9,128.3,6.8,130.4Z"/>
            <path class="cls-2" d="M86.5,336.1l-73.7.8V126.5H43.6c2.7,0,5.3.1,26.7,1Z"/>
            <path class="cls-2" d="M24.7,349.4H200.1c4.7,0,8.6-3.6,8.6-8h0c0-4.4-3.9-8-8.6-8H11.2l-.2,1.7C10,342.7,16.4,349.4,24.7,349.4Z"/>
          </g>
          <g class="cls-3">
            <path d="M86.3,333.4l-16-205.9c-21.4-.9-24-1-26.7-1H12.8V336.9a394.9,394.9,0,0,0,74.3,7.4c38,0,68.8-4.9,68.8-10.9Z"/>
          </g>
          <path class="cls-4" d="M437.8,468.2c31.7-40,36.4-130.8,90.2-181.7-21.9-14.8-43.3,25.9-75.9,64a40.7,40.7,0,0,0-9.4,20.9c-6.6,47.1-11,66.9-16.8,112.5-5.8,9.4-17.6,18.8-17.6,18.8v6h11.6l18.9-12.6-5.4-8.6C434.6,479.6,434.6,472.2,437.8,468.2Z"/>
          <g class="cls-3">
            <path d="M481.5,339.5c3.3,0-4.7-12.5-1.4-12.6,4.4-9.3,20.7-5.9,26.4-14.5l-12.2-7.1s-1.3-.6-6.3.2c-10.6,12.6-22.3,29-35.9,45a29.8,29.8,0,0,0-3,4c6.4,13.6,13.3,28.6,19.9,43.5,5.4-16.1,11.1-33,18.2-49.4C485.5,345.6,483.6,342.6,481.5,339.5Z"/>
          </g>
          <path class="cls-5" d="M530.4,54.3s-9.4,8.1-6.2,13.6,9,0,9,0Z"/>
          <rect class="cls-2" x="323.3" y="220.3" width="22.9" height="303.59"/>
          <g class="cls-3">
            <path d="M323.3,261.7h22.9V220.3H323.3Z"/>
          </g>
          <polygon class="cls-2" points="567.8 245.5 93.1 245.5 93.1 234.2 151.6 193.7 509.2 193.7 567.8 234.2 567.8 245.5"/>
          <polygon class="cls-6" points="567.8 234.2 93.1 234.2 151.6 193.7 509.2 193.7 567.8 234.2"/>
          <path class="cls-7" d="M113.7,89c-48.2-1.9-45.4,40.7-52.8,112.8-3.8,37.3-36,51.9-23.1,64.1s16.5-4.5,28.9,4.9c8.8,6.6-1.9,25.4,17.3,27s16.1-19.8,25.6-18.9-2.8,17.2,10,18.2c20.6,1.6,13.3-28.1,21.2-26.9s1.5,11,11.3,12.1,17.3-8.8,19.6-24.1A63.8,63.8,0,0,0,168,227C144.8,165.1,168.5,91.1,113.7,89Z"/>
          <g>
            <path class="cls-8" d="M165.2,218.6c6.4,22.7-5.3,50.2-10.9,49.6s-2.4-22.5-11.7-23.4S126,281.1,122.3,281s3.1-44.9-.2-67.3a2.9,2.9,0,0,0-5.8.2c-3.2,31.5-21.7,68.6-29.2,67s1.4-50.4-14.5-54.7-23.2,7.8-24.4,9.5c-9.1,14.2-18.4,22.7-10.4,30.2,12.1,11.5,16.5-4.5,28.9,4.9,8.8,6.6-1.9,25.4,17.3,27s16.1-19.8,25.6-18.9-2.8,17.2,10,18.2c20.6,1.6,13.3-28.1,21.2-26.9s1.5,11,11.3,12.1,17.3-8.8,19.5-24.1a63.2,63.2,0,0,0-3.6-31.3C167,224.2,166,221.4,165.2,218.6Z"/>
            <path class="cls-9" d="M164.9,217.6v-.3h0Z"/>
          </g>
          <g>
            <path class="cls-10" d="M279.8,3.2H159a6.6,6.6,0,0,0-6.5,6.5V94.5l23.3-29h104a6.5,6.5,0,0,0,6.5-6.5V9.7A6.6,6.6,0,0,0,279.8,3.2Z"/>
            <path class="cls-11" d="M149.3,103.8V9.7A9.7,9.7,0,0,1,159,0H279.8a9.8,9.8,0,0,1,9.8,9.7V59a9.7,9.7,0,0,1-9.8,9.7H177.4ZM159,6.5a3.3,3.3,0,0,0-3.3,3.2V85.3l18.5-23.1H279.8a3.2,3.2,0,0,0,3.3-3.2V9.7a3.3,3.3,0,0,0-3.3-3.2Z"/>
          </g>
          <path class="cls-4" d="M514,465.4c-11.7-24.4,12.5-71.2-27.9-130.8,36.3-.2,71.9,0,71.9,0l-59.2-34.2s-5.9-2.8-43,12.1a16.7,16.7,0,0,0-8.9,22.9c23.2,48,57.2,124.2,57.2,145.5,0,7-11.8,25.2-11.8,25.2l-14.8,3.3,3.7,8.3h15l26.6-28.4S528.7,475.4,514,465.4Z"/>
          <path class="cls-4" d="M555.2,109.7l10.6,24.7c13.9,4.3,21.8-2.1,27-13.1L572.7,97.4Z"/>
          <path class="cls-11" d="M496.9,503a18.8,18.8,0,0,1-7.1.1c-4.7-.7-16.9-1.7-16.9,8.4v5.3a4.5,4.5,0,0,0,4.2,4.6h17.7c2.1,0,3.8-1.2,5.5-2.8,0,0,16.6-17.7,25.3-29.4a13,13,0,0,0,2.4-8.8c-.7-5.4-2.5-6.7-14-15-8.7,4.1-2.6,22.1-6.1,29.3A15.6,15.6,0,0,1,496.9,503Z"/>
          <path class="cls-11" d="M419.7,503a22.1,22.1,0,0,1-7.7.1c-5.1-.7-18.3-1.7-18.3,8.4v5.3a4.6,4.6,0,0,0,4.6,4.6h19.1c2.2,0,4.1-1.2,6-2.8,0,0,17.9-17.7,27.3-29.4a11.7,11.7,0,0,0,2.6-8.8c-.7-5.4-3-6.2-15.1-15-9.4,4.1-2.8,22.1-6.6,29.3C428.7,500.1,423.6,502.2,419.7,503Z"/>
          <line class="cls-12" x1="446.3" y1="489.2" x2="451.8" y2="487.2"/>
          <path class="cls-11" d="M634.1,241c-13-75-38.8-118-38.8-118s-10.6,14.7-28.4,10c-23.3,30.8-29,41.2-9.1,65.8,12.5,15.4,16.2,30.4,19.4,42.3a18.6,18.6,0,0,1-12.8,22.6c-57.1,16.2-69.2,18.4-102.8,30.1,0,0,40.3,25.4,67.5,40.8,22.4.4,45.3,0,67.7,0C630.1,334.5,645.8,308.2,634.1,241Z"/>
          <g class="cls-3">
            <path d="M566.9,133c-4.3,6.5-8.6,11.8-12.2,16.8a17.2,17.2,0,0,0,2.5,4.6c11.3,13.8,28.2,12.9,37.3,11.1a18,18,0,0,0,14.7-17.8,17,17,0,0,0-.1-2.2A201.3,201.3,0,0,0,595.3,123S584.7,137.7,566.9,133Z"/>
          </g>
          <path class="cls-4" d="M572.1,193.8a4.5,4.5,0,0,0-4.2,1.4c-3.2,3.1-9.4,9.9-9.9,14.3-.7,6-46.2,11.3-68.5,7.9-6.4-3-22.6-6-24.8,1.1s21.9,11.5,28.6,10.4c1-.2,1.8-.9,2.8-.8,9.2.2,49.7,1.4,60.3.5,8.3-.8,18.1-16,23.5-25.4,1.9-3.5.1-8.1-3.5-8.7Z"/>
          <g class="cls-3">
            <path d="M569.5,166.5l-11.7,32.3a131.1,131.1,0,0,1,14.8,28.3l27.2-36.8Z"/>
          </g>
          <polygon class="cls-11" points="565.1 163.8 547.9 210.9 567.3 225.2 602.5 188.5 565.1 163.8"/>
          <polygon class="cls-13" points="192.4 142.7 224.7 165.6 198.8 224 169.2 202.5 192.4 142.7"/>
          <polygon class="cls-2" points="187.7 141.7 220 164.6 194.1 223 164.6 201.5 187.7 141.7"/>
          <g class="cls-3">
            <path d="M512,334.5c6.1,3.6,11.7,6,17.1,9,22.4.5,45.3.1,67.7,0,11.6,0,21-2.3,27.9-9.2Z"/>
          </g>
          <path class="cls-4" d="M539,116.6c-9.8-4.2-11.5-39.5-11.7-45.6-.8-26.4,17.5-26.7,26.3-26.1s11.7,35.6,14.2,47.9S548,120.4,539,116.6Z"/>
          <path class="cls-4" d="M539,116.6c-9.8-4.2-11.5-39.5-11.7-45.6-.8-26.4,17.5-26.7,26.3-26.1s17.5,35.8,14.2,47.9C565.4,101.8,548,120.4,539,116.6Z"/>
          <path class="cls-5" d="M599.5,120.3a74.3,74.3,0,0,1-12.8-28.5c-7.4-33.3-14.5-53.5-41.3-50-19.2,2.5-18.4,27-18.4,27a27.9,27.9,0,0,1,11.7-7.5,14.9,14.9,0,0,1,18.6,18.2h0c-3.3,12.3-1,19.6,2.1,19s-1.2-13.4,2.5-20.5c20.3,6-20.9,51.5-5.6,70.2,11.4,13.8,28.2,12.9,37.3,11.1a18,18,0,0,0,14.7-17.8C608.2,136.1,606,129.1,599.5,120.3Z"/>
          <g class="cls-14">
            <path class="cls-10" d="M542.8,44.1c32.5-4.6,33.6,18.7,41,52a74.3,74.3,0,0,0,12.8,28.5c6.5,8.7,8.8,15.8,8.9,21.3a17.6,17.6,0,0,1-1.7,7.6,17.1,17.1,0,0,0,4.5-11.9c-.1-5.5-2.3-12.5-8.8-21.3a72.9,72.9,0,0,1-12.8-28.5c-7.4-33.3-14.6-53.5-41.4-50-7.6,1-12,5.5-14.6,10.5C533.3,49.2,537.5,44.9,542.8,44.1Z"/>
          </g>
          <path class="cls-4" d="M561.9,78.1c-.3.2,2.5,3.9,2.1,4,3.2,3.8,2.4,3.3,1.6,11.6,4.8-1.3,8.3-6.2,6.8-11.1S565.8,75,561.9,78.1Z"/>
          <g>
            <circle class="cls-11" cx="192.9" cy="35.4" r="7.9"/>
            <circle class="cls-11" cx="219.4" cy="35.4" r="7.9"/>
            <circle class="cls-11" cx="245.9" cy="35.4" r="7.9"/>
          </g>
          <g>
            <path class="cls-10" d="M371,39.6H491.8a6.5,6.5,0,0,1,6.5,6.5v84.8L475,101.8H371a6.5,6.5,0,0,1-6.5-6.5V46.1A6.5,6.5,0,0,1,371,39.6Z"/>
            <path class="cls-11" d="M501.5,140.1l-28.1-35H371a9.8,9.8,0,0,1-9.8-9.8V46.1a9.8,9.8,0,0,1,9.8-9.8H491.8a9.7,9.7,0,0,1,9.7,9.8ZM371,42.8a3.3,3.3,0,0,0-3.3,3.3V95.3a3.3,3.3,0,0,0,3.3,3.3H476.5l18.5,23V46.1a3.2,3.2,0,0,0-3.2-3.3Z"/>
          </g>
          <g>
            <circle class="cls-11" cx="457.9" cy="71.7" r="7.9"/>
            <circle class="cls-11" cx="431.4" cy="71.7" r="7.9"/>
            <circle class="cls-11" cx="404.9" cy="71.7" r="7.9"/>
          </g>
        </g>
      </g>
    </g>
  </g>
</svg>
