<svg id="Layer_1" data-name="Layer 1" xmlns="http://www.w3.org/2000/svg" width="192" height="57.9" viewBox="0 0 192 57.9">
  <path d="M54.3,15.1h-16A1.8,1.8,0,0,0,36.4,17V32.5h.2A17.8,17.8,0,0,0,54.3,15.1" fill="#3a5c8e"/>
  <path d="M62.5,15.1H60.4A23.9,23.9,0,0,1,36.6,38.6h-.2v2.7a1.9,1.9,0,0,0,1.9,1.9H62.5a2,2,0,0,0,1.9-1.9V17a1.9,1.9,0,0,0-1.9-1.9" fill="#3a5c8e"/>
  <path d="M75.3,44.9A1.6,1.6,0,0,1,74,43.4a1.5,1.5,0,0,1,1.5-1.5h.7c1.7,0,2.9-.6,2.9-3V23.6a1.7,1.7,0,0,1,1.8-1.8,1.7,1.7,0,0,1,1.7,1.8V39.3c0,3.9-2.3,5.8-5.8,5.8l-1.5-.2M83.2,16a2.3,2.3,0,0,1-2.3,2.3,2.3,2.3,0,1,1,0-4.6A2.3,2.3,0,0,1,83.2,16m9.2,14.3a2.7,2.7,0,0,1-5.3,0,2.6,2.6,0,0,1,2.6-2.5,2.6,2.6,0,0,1,2.7,2.5" fill="#272c49"/>
  <path d="M96.9,37.2V14.9a1.7,1.7,0,0,1,1.8-1.8,1.7,1.7,0,0,1,1.7,1.8V37.2A1.7,1.7,0,0,1,98.7,39a1.7,1.7,0,0,1-1.8-1.8" fill="#272c49"/>
  <path d="M118.6,28.7v8.5a1.7,1.7,0,0,1-1.7,1.8,1.7,1.7,0,0,1-1.8-1.8V37a6.5,6.5,0,0,1-5,2c-3.5,0-5.8-1.9-5.8-4.7s2.4-4.7,6.1-4.7h4.7V28.5a3.3,3.3,0,0,0-3.6-3.6,5.2,5.2,0,0,0-3.6,1.6,1.7,1.7,0,0,1-1.2.5,1.6,1.6,0,0,1-1.6-1.4,2.3,2.3,0,0,1,.7-1.5,8.1,8.1,0,0,1,6-2.3c4.3,0,6.8,2.5,6.8,6.9m-3.5,3.7v-.3h-4.3c-1.9,0-2.9.7-2.9,2s1.1,2.2,2.9,2.2a4.1,4.1,0,0,0,4.3-3.9" fill="#272c49"/>
  <path d="M140.5,30.4c0,5-3.4,8.6-8.1,8.6a7.3,7.3,0,0,1-5.6-2.4v.6a1.7,1.7,0,0,1-1.7,1.8,1.7,1.7,0,0,1-1.8-1.8V14.9a1.8,1.8,0,0,1,1.8-1.8,1.7,1.7,0,0,1,1.8,1.8v9.3a6.9,6.9,0,0,1,5.5-2.4c4.7,0,8.1,3.7,8.1,8.6m-3.6,0a5.1,5.1,0,0,0-5.1-5.4c-3,0-5,2.2-5,5.4s2.1,5.4,5,5.4a5.1,5.1,0,0,0,5.1-5.4" fill="#272c49"/>
  <path d="M143.5,36.5a1.3,1.3,0,0,1-.5-1.2,1.5,1.5,0,0,1,1.5-1.5,1.3,1.3,0,0,1,1.1.5,6.1,6.1,0,0,0,3.9,1.7c1.5,0,2.7-.6,2.7-1.9s-1-1.5-2.4-2l-1.6-.7c-2.7-1.1-4.3-2.4-4.3-4.8s2.5-4.8,5.8-4.8a7.6,7.6,0,0,1,5.2,2,1.4,1.4,0,0,1,.6,1.2,1.5,1.5,0,0,1-1.5,1.5,1.8,1.8,0,0,1-1.1-.5,5.2,5.2,0,0,0-3.3-1.1c-1.3,0-2.2.5-2.2,1.5s.6,1.4,2.1,2l1.6.6c3,1.3,4.5,2.6,4.5,5s-2.8,5-6.1,5a8.1,8.1,0,0,1-6-2.5" fill="#272c49"/>
</svg>
