<svg id="Capa_1" data-name="Capa 1" xmlns="http://www.w3.org/2000/svg" width="256" height="256" viewBox="0 0 256 256">
  <g>
    <g>
      <path d="M76,113.5c-16.8,0-25.7-16.2-26.1-16.9l-1.8-3.4,3.7-1C65.7,88.4,79.4,67,86.7,55.6,91.8,47.4,93.4,45,96.1,45a3.5,3.5,0,0,1,3.1,2l13.3,22.2-.2,1.1c-.3,1.5-6.6,35.4-28.1,42a29.1,29.1,0,0,1-8.2,1.2Z" fill="#f5222d"/>
      <path d="M96.1,48.1a.5.5,0,0,1,.4.3l12.8,21.4s-6,33.4-25.9,39.5a25.1,25.1,0,0,1-7.4,1.1c-15.1,0-23.4-15.2-23.4-15.2,21.6-5.9,40.2-47.1,43.5-47.1m0-6.2c-3.9,0-6,3.1-7.5,5.1l-4.5,6.9C77,65,63.8,85.8,51,89.2l-7.5,2.1,3.6,6.8c.4.7,10.2,18.5,28.8,18.5a30,30,0,0,0,9.2-1.5c5.6-1.7,10.8-5.3,15.3-10.6a61.8,61.8,0,0,0,8.9-14.8,83.8,83.8,0,0,0,5.9-18.9l.4-2.2-1.1-2L101.8,45.5a6.4,6.4,0,0,0-5.7-3.6Z" fill="#2a2b38"/>
    </g>
    <path d="M96.5,48.4C94.7,43.8,75.3,89,52.6,95.2c0,0,10.9,20.2,30.8,14.2s25.9-39.6,25.9-39.6Z" fill="#fff" opacity="0.2" style="isolation: isolate"/>
    <g>
      <path d="M77.8,67.9c-7.3,0-13.8-3.7-19.3-11l-4.8-6.3,7.8,1.5a25,25,0,0,0,4,.3h0c23.7,0,60-32.6,60.3-32.9l5.1-4.6v9.4L101.6,55.6c-.8,1-11.1,12.3-23.8,12.3Z" fill="#f5222d"/>
      <path d="M127.9,21.8v1.3L99.4,53.6S89.5,64.9,77.8,64.9c-5.4,0-11.3-2.5-16.8-9.8a22.2,22.2,0,0,0,4.5.5c25.3-.1,62.4-33.8,62.4-33.8M134,8l-10.2,9.3h0c-9.9,8.9-39.6,32.1-58.3,32.1a17.9,17.9,0,0,1-3.4-.3L46.5,46.2l9.6,12.6C63.7,68.9,72.1,71,77.8,71c13.8,0,24.9-11.9,26.1-13.3l28.5-30.4,1.6-1.8V8Z" fill="#2a2b38"/>
    </g>
    <path d="M127.9,21.8S85.9,59.9,61,55.1c17.2,22.8,38.3-1.5,38.3-1.5l28.6-30.5V21.8Z" fill="#fff" opacity="0.2" style="isolation: isolate"/>
    <g>
      <path d="M169.9,140.7c-4.3,42.5,11.9,85.8-16.9,98.6-7.2,3.1-15.1,2.9-22.9,1.9C21.9,226.2,80-13.3,176.1,37.6,216.6,58.9,172.6,114.4,169.9,140.7Z" fill="#d7dadd"/>
      <path d="M149.8,30.5c8.3,0,17.2,2.2,26.4,7.1,40.5,21.4-3.6,76.9-6.3,103.1-4.3,42.5,11.9,85.8-16.9,98.6a33.8,33.8,0,0,1-13.7,2.6,69.7,69.7,0,0,1-9.1-.7C32.3,227.7,70.4,30.5,149.8,30.5m-.1-6.2c-11.5,0-22.7,3.7-33.2,11S98.5,51.2,91,62.9c-13.9,22-23.1,51.1-25.1,80-1.7,26,2.3,49.3,11.7,67.4,10.9,21,28.8,33.8,51.6,36.9a78.3,78.3,0,0,0,10,.8,39,39,0,0,0,16.2-3.2c10.9-4.8,17.4-13.6,19.9-26.8,2.1-10.9,1.4-23.9.7-37.6s-1.4-26-.1-39.1c.7-6.8,5-16.7,9.4-27.2,5.8-13.6,12.3-29,13.7-43.3,1.8-17.7-5-30.7-20-38.6-9.7-5.2-19.6-7.9-29.3-7.9Z" fill="#2a2b38"/>
    </g>
    <g>
      <path d="M143.4,164.8a100.5,100.5,0,0,1-38.9-7.9,82.9,82.9,0,0,1-33.3-25.5l-.8-1,.2-1.3c7.5-50.5,37.1-101.7,79.1-101.7,9.2,0,18.6,2.5,27.9,7.5,13.8,7.2,19.9,19.2,18.4,35.6-1.3,13.8-7.7,29-13.4,42.4-4.6,10.7-8.9,20.8-9.6,28.1-.5,5.2-.8,10.7-.8,17v2.2l-2.1.7a92.6,92.6,0,0,1-26.7,3.9Z" fill="#ff7875"/>
      <path d="M149.7,30.5c8.4,0,17.3,2.2,26.5,7.1,40.5,21.3-3.6,76.8-6.3,103.1a143.8,143.8,0,0,0-.7,17.3,86.1,86.1,0,0,1-25.8,3.8c-24.9,0-52.4-9.7-69.8-32.2,7.5-50.6,36.8-99.1,76.1-99.1m0-6.1A56.5,56.5,0,0,0,119,33.7c-8.8,5.6-17,13.6-24.3,23.8-13.5,18.9-23.1,44.2-27.1,71.1l-.4,2.6,1.6,2a85.6,85.6,0,0,0,34.5,26.4,102.3,102.3,0,0,0,40.1,8.2,94.7,94.7,0,0,0,27.5-4l4.3-1.3v-4.6c0-6.1.3-11.6.8-16.7.6-6.8,4.9-16.6,9.4-27.2,5.7-13.6,12.3-29,13.6-43.3,1.7-17.7-5-30.7-20-38.6a62.9,62.9,0,0,0-29.3-7.7Z" fill="#2a2b38"/>
    </g>
    <circle cx="139.3" cy="89.9" r="8.1" fill="#2a2b38"/>
    <circle cx="111.6" cy="82.7" r="7.1" fill="#2a2b38"/>
    <path d="M139.5,241.2c-96-13.3-61.2-203,15-210.5C72,22.6,30.3,227.4,130.2,241.2a62,62,0,0,0,13.6.5Z" fill="#fff" opacity="0.2" style="isolation: isolate"/>
    <path d="M139.5,241.2c-96-13.3-61.2-203,15-210.5C72,22.6,30.3,227.4,130.2,241.2a62,62,0,0,0,13.6.5Z" fill="#fff" opacity="0.2" style="isolation: isolate"/>
    <path d="M170.1,140.7c2.6-26.3,46.7-81.7,6.2-103.1a56.6,56.6,0,0,0-25.5-7.1l3.7.2a50.3,50.3,0,0,0-5.6.9,65.7,65.7,0,0,1,16,6c40.4,21.4-3.6,76.9-6.3,103.1-4.3,42.6,11.9,85.8-16.9,98.6a26.9,26.9,0,0,1-4.5,1.6l2.3.3,4.2.5-3.3.2a33.3,33.3,0,0,0,12.8-2.6C181.9,226.4,165.7,183.2,170.1,140.7Z" opacity="0.2" style="isolation: isolate"/>
    <g>
      <path d="M172.1,103c10.2-24.8,18.4-51.9-7.2-65.4a61.8,61.8,0,0,0-16-6,50.3,50.3,0,0,1,5.6-.9l-3.7-.2h1.5c-18.9-1-35.6,9.2-48.8,25.6,11,.4,37.3,2.2,52,11.1C168.6,76.2,171.8,90,172.1,103Z" opacity="0.2" style="isolation: isolate"/>
      <path d="M152.4,30.6h0Z" opacity="0.2" style="isolation: isolate"/>
    </g>
    <circle cx="139.3" cy="89.9" r="8.1" fill="#2a2b38"/>
    <circle cx="111.6" cy="82.7" r="7.1" fill="#2a2b38"/>
    <circle cx="139.3" cy="89.9" r="8.1" fill="#2a2b38"/>
    <circle cx="111.6" cy="82.7" r="7.1" fill="#2a2b38"/>
    <circle cx="139.3" cy="89.9" r="8.1" fill="#2a2b38"/>
    <circle cx="111.6" cy="82.7" r="7.1" fill="#2a2b38"/>
    <g>
      <g>
        <path d="M182.1,157.3c-20.2-13.2-24.4-46-28.5-77.6-.7-5.3-1.3-10.3-2-15.3-33.4-9.1-56.3-38-57.3-39.2l-2.4-3,3.5-1.6c12.6-6,26.9-9.5,39.1-9.5,15.5,0,28.4,5.4,37.4,15.7,8.3.6,15,2.3,20.8,7.8S203.6,50.9,206.8,67c6.6,33.6-.9,60.1-8.5,76.4l-2.3,4.9-3-4.5a93.9,93.9,0,0,1-9.2-18.5c1,13.7,2.9,28.8,3,29.1l.9,6.6Z" fill="#f5222d"/>
        <path d="M134.6,14.1c13.3,0,26.5,4,35.9,15.6,15.9,1,26.8,5.1,33.4,37.8s-.5,57.9-8.3,74.5c-8.2-12-15-35.4-15-35.4-1.6,11.9,3.2,48.2,3.2,48.2-22.7-14.9-24.2-58.4-29.4-92.8-33.9-8.3-57.6-38.7-57.6-38.7,10-4.8,24-9.2,37.8-9.2m0-6.1V8c-12.7,0-27.5,3.6-40.5,9.8L87.3,21l4.6,6.1a137.6,137.6,0,0,0,17,17.1c9.1,7.7,23.2,17.6,40,22.6.6,4.3,1.1,8.7,1.7,13.3,2,15.5,4,31.5,8.1,45.4,4.8,16.7,11.9,28,21.7,34.4l11.2,7.3L189.8,154c-.3-2.7-.8-6.9-1.3-11.7a34.5,34.5,0,0,0,2,3.2l6.1,9,4.5-9.8a117.7,117.7,0,0,0,9.9-33.3,128.6,128.6,0,0,0-1.1-45c-3.3-16.8-8.1-27.6-15-34.1s-14-7.8-21.5-8.4C164,13.5,150.6,8,134.6,8Z" fill="#2a2b38"/>
      </g>
      <g opacity="0.2" style="isolation: isolate">
        <path d="M110,28.9c13.3-6.4,33.3-11.9,50.9-7.7-19.7-12.7-47.3-5.9-64.2,2.1,0,0,21.1,27,51.8,37C125.2,48.3,110,28.9,110,28.9Z" fill="#fff"/>
      </g>
      <path d="M154.3,62c5.2,34.5,6.7,77.9,29.5,92.8,0,0-4.8-36.2-3.3-48.2,0,0,6.9,23.4,15,35.4,7.8-16.7,14.6-42.7,8.3-74.5s-17.5-36.8-33.4-37.8C170.5,29.7,186.4,53.6,154.3,62Z" opacity="0.2" style="isolation: isolate"/>
    </g>
  </g>
</svg>
