<svg id="Capa_1" data-name="Capa 1" xmlns="http://www.w3.org/2000/svg" width="256" height="256" viewBox="0 0 256 256">
  <g>
    <g>
      <path d="M154.8,140.7c-4.3,42.5,11.9,85.8-16.9,98.6-7.2,3.1-15.1,2.9-22.9,1.9C6.8,226.2,64.9-13.3,161.1,37.6,201.5,58.9,157.5,114.4,154.8,140.7Z" fill="#d7dadd"/>
      <path d="M134.7,30.5c8.3,0,17.2,2.2,26.4,7.1,40.4,21.4-3.6,76.9-6.3,103.1-4.3,42.5,11.9,85.8-16.9,98.6a33.8,33.8,0,0,1-13.7,2.6,69.7,69.7,0,0,1-9.1-.7c-98-13.5-59.7-210.7,19.6-210.7m-.1-6.2c-11.5,0-22.8,3.7-33.3,11S83.4,51.2,75.9,62.9c-14,22-23.1,51.1-25.1,80-1.7,26,2.3,49.3,11.7,67.4,10.9,21,28.8,33.8,51.6,36.9a78.3,78.3,0,0,0,10,.8,39.7,39.7,0,0,0,16.2-3.2c10.8-4.8,17.4-13.6,19.9-26.8,2.1-10.9,1.4-23.9.7-37.6s-1.4-26-.1-39.1c.7-6.8,5-16.7,9.4-27.2,5.8-13.6,12.3-29,13.7-43.3,1.7-17.7-5-30.7-20-38.6-9.7-5.2-19.6-7.9-29.3-7.9Z" fill="#2a2b38"/>
    </g>
    <g>
      <path d="M128.3,164.8a100.1,100.1,0,0,1-38.9-7.9,82.2,82.2,0,0,1-33.3-25.5l-.8-1,.2-1.3C63,78.6,92.6,27.4,134.6,27.4c9.2,0,18.6,2.5,27.9,7.5,13.8,7.2,19.9,19.2,18.4,35.6-1.3,13.8-7.7,29-13.5,42.4-4.5,10.7-8.8,20.8-9.5,28.1-.5,5.2-.8,10.7-.8,17v2.2l-2.1.7a92.6,92.6,0,0,1-26.7,3.9Z" fill="#4d7dc4"/>
      <path d="M134.6,30.5c8.4,0,17.3,2.2,26.5,7.1,40.4,21.3-3.6,76.8-6.3,103.1A168.2,168.2,0,0,0,154,158a84.9,84.9,0,0,1-25.7,3.8c-24.9,0-52.4-9.7-69.8-32.2C66,79,95.3,30.5,134.6,30.5m0-6.1a56.5,56.5,0,0,0-30.7,9.3c-8.8,5.6-17,13.6-24.3,23.8-13.5,18.9-23.2,44.2-27.1,71.1l-.4,2.6,1.6,2a86,86,0,0,0,34.4,26.4,103.2,103.2,0,0,0,40.2,8.2,94.7,94.7,0,0,0,27.5-4l4.3-1.3v-4.6c0-6.1.3-11.6.8-16.7.6-6.8,4.9-16.6,9.3-27.2,5.8-13.6,12.4-29,13.7-43.3,1.7-17.7-5-30.7-20-38.6-9.8-5.1-19.6-7.7-29.3-7.7Z" fill="#2a2b38"/>
    </g>
    <circle cx="124.2" cy="89.9" r="8.1" fill="#2a2b38"/>
    <circle cx="96.5" cy="82.7" r="7.1" fill="#2a2b38"/>
    <path d="M124.4,241.2c-96-13.3-61.2-203,15-210.5C56.8,22.6,15.2,227.4,115.1,241.2a62,62,0,0,0,13.6.5Z" fill="#fff" opacity="0.2" style="isolation: isolate"/>
    <path d="M124.4,241.2c-96-13.3-61.2-203,15-210.5C56.8,22.6,15.2,227.4,115.1,241.2a62,62,0,0,0,13.6.5Z" fill="#fff" opacity="0.2" style="isolation: isolate"/>
    <path d="M155,140.7c2.6-26.3,46.6-81.7,6.2-103.1a56.9,56.9,0,0,0-25.5-7.1l3.7.2a50.3,50.3,0,0,0-5.6.9,65.7,65.7,0,0,1,16,6c40.4,21.4-3.6,76.9-6.3,103.1-4.3,42.6,11.9,85.8-16.9,98.6a26.9,26.9,0,0,1-4.5,1.6l2.3.3,4.2.5-3.3.2a32.4,32.4,0,0,0,12.7-2.6C166.8,226.4,150.6,183.2,155,140.7Z" opacity="0.2" style="isolation: isolate"/>
    <g>
      <path d="M157,103c10.1-24.8,18.3-51.9-7.2-65.4a61.8,61.8,0,0,0-16-6,50.3,50.3,0,0,1,5.6-.9l-3.7-.2h1.5c-18.9-1-35.7,9.2-48.9,25.6,11.1.4,37.4,2.2,52.1,11.1C153.5,76.2,156.7,90,157,103Z" opacity="0.2" style="isolation: isolate"/>
      <path d="M137.3,30.6h0Z" opacity="0.2" style="isolation: isolate"/>
    </g>
    <g>
      <path d="M158.5,122.5c-1.2-3.6-.8-8.9-.3-15.6,1.1-14.9,2.7-35.2-13.8-46.7C128,50.4,95.6,50.1,92,50.1H89l-.8-5.7a26,26,0,0,1,5.7-21.6c6.1-7.5,15.5-11.7,26-11.7,7.7,0,15.7,2.4,23.3,6.9h3.1c15.9,0,36.8,7.6,47.9,24.3,9,13.7,9,26.3,7.5,34.7-1.8,10.4-6.9,18.3-11.1,22.3s-6.4,5.1-10.2,7.6c-6.7,4.3-13.6,8.7-16.2,15.8l-3,8.3Z" fill="#25486b"/>
      <path d="M119.9,14.1c7,0,14.7,2.1,22.5,7h3.9c15.1,0,35.1,7.4,45.4,22.9,15.2,23.2,4.6,45.6-3.2,53.1s-22.7,12.3-27.1,24.6c-3.5-10.6,10-46.4-15.3-63.9-17-10.4-50.6-10.6-54-10.6h-.3l-.5-3.2c-3.1-15.1,10.1-29.8,28.6-29.8m0-6.1h0c-11.4,0-21.7,4.7-28.4,12.9a29,29,0,0,0-6.3,24l.4,3,.8,5.3H92c12.9,0,38,2,50.8,9.6,14.9,10.5,13.5,29,12.4,43.9-.6,7.1-1,12.6.4,16.8l5.6,16.7,6-16.6c2.2-6.1,8.4-10.1,14.9-14.3a70.4,70.4,0,0,0,10.7-7.9c4.5-4.3,10-12.9,12-24,1.6-8.9,1.5-22.4-8-36.8-5.3-8.1-13.5-14.9-23.3-19.5a66.4,66.4,0,0,0-27.1-6.2H144A49.5,49.5,0,0,0,119.9,8Z" fill="#2a2b38"/>
    </g>
    <g opacity="0.2" style="isolation: isolate">
      <path d="M150.3,29c10.6-1,24.8,2.3,36.3,10-12.1-12.4-30.9-17.7-44.1-16.5C113.7,4.4,87,24.6,91.3,45.3l.5,3.2h6.9C97.6,29.1,123,11.9,150.3,29Z" fill="#fff"/>
    </g>
    <circle cx="124.2" cy="89.9" r="8.1" fill="#2a2b38"/>
    <circle cx="96.5" cy="82.7" r="7.1" fill="#2a2b38"/>
    <circle cx="124.2" cy="89.9" r="8.1" fill="#2a2b38"/>
    <circle cx="96.5" cy="82.7" r="7.1" fill="#2a2b38"/>
    <circle cx="124.2" cy="89.9" r="8.1" fill="#2a2b38"/>
    <circle cx="96.5" cy="82.7" r="7.1" fill="#2a2b38"/>
  </g>
</svg>
