<svg id="Layer_1" data-name="Layer 1" xmlns="http://www.w3.org/2000/svg" width="192" height="57.9" viewBox="0 0 192 57.9">
  <polygon points="89.3 22.5 81.8 22.5 78.4 26.5 78.4 15.3 71 15.3 71 39.1 78.4 39.1 78.4 34.2 82 39.1 89 39.1 83 30.1 89.3 22.5" fill="#010101"/>
  <path d="M96,22.8A8.2,8.2,0,0,0,87.8,31a8.2,8.2,0,0,0,16.4,0A8.2,8.2,0,0,0,96,22.8Zm0,10.7A2.5,2.5,0,1,1,98.5,31,2.5,2.5,0,0,1,96,33.5Z" fill="#010101"/>
  <g>
    <circle cx="117.4" cy="18.1" r="2.7" fill="#010101"/>
    <rect x="113.8" y="22.5" width="7.2" height="16.69" fill="#010101"/>
  </g>
  <g>
    <circle cx="109.1" cy="18.1" r="2.7" fill="#010101"/>
    <path d="M112.7,30.1V22.5h-7.2v11h0v3.8c0,1.8-.9,3.7-3.3,3.7v5.9h4c3.5-.1,6.5-2.6,6.5-6.2Z" fill="#010101"/>
  </g>
</svg>
