<svg xmlns="http://www.w3.org/2000/svg" xmlns:xlink="http://www.w3.org/1999/xlink" width="1280" height="1509" viewBox="0 0 1280 1509">
  <defs>
    <linearGradient id="Gradient_bez_nazwy_10" data-name="Gradient bez nazwy 10" x1="621.54" y1="330.06" x2="630.1" y2="958.27" gradientUnits="userSpaceOnUse">
      <stop offset="0" stop-color="#89aee8"/>
      <stop offset="1" stop-color="#077f9b"/>
    </linearGradient>
  </defs>
  <g style="isolation: isolate">
    <g id="Warstwa_1" data-name="Warstwa 1">
      <rect x="40" y="40" width="1200" height="1429" fill="#5f78a9"/>
      <g>
        <g>
          <polygon points="1122 752.3 1122 739.3 1122 489.6 1122 478.8 1122 442.2 909.3 442.2 909.3 752.3 572.7 752.3 477.4 665.1 351.4 665.1 259.9 751.5 476.3 751.5 476.3 756.6 259 756.6 259 896.3 909.3 896.3 1027.2 896.3 1122 896.3 1122 752.3" opacity="0.2" style="mix-blend-mode: multiply"/>
          <polygon points="1130.3 489.6 1130.3 752.3 1130.1 752.3 1130.1 896.3 1130.3 896.3 1239.8 896.3 1239.8 752.3 1239.8 743.4 1239.8 739.4 1239.8 489.6 1130.3 489.6" opacity="0.2" style="mix-blend-mode: multiply"/>
        </g>
        <polygon points="40.1 896.3 252.8 896.3 252.8 752.3 252.8 748.6 252.8 513.3 40.1 513.3 40.1 896.3" opacity="0.2" style="mix-blend-mode: multiply"/>
        <g>
          <rect x="63.1" y="555" width="50.7" height="55.61" opacity="0.2" style="mix-blend-mode: multiply"/>
          <rect x="162.5" y="555" width="50.7" height="55.61" opacity="0.2" style="mix-blend-mode: multiply"/>
        </g>
        <g>
          <rect x="63.1" y="646.4" width="50.7" height="55.61" opacity="0.2" style="mix-blend-mode: multiply"/>
          <rect x="162.5" y="646.4" width="50.7" height="55.61" opacity="0.2" style="mix-blend-mode: multiply"/>
        </g>
        <g>
          <rect x="63.1" y="737.8" width="50.7" height="55.61" opacity="0.2" style="mix-blend-mode: multiply"/>
          <rect x="162.5" y="737.8" width="50.7" height="55.61" opacity="0.2" style="mix-blend-mode: multiply"/>
        </g>
        <path d="M1147,291.5a35.6,35.6,0,0,0,.1-7.3,40.3,40.3,0,0,0-37.4-37,40.9,40.9,0,0,0-9.3.5,18.8,18.8,0,0,1-17.6-6.5,40.1,40.1,0,0,0-62.8.7,17.7,17.7,0,0,1-17.5,6.2,35.7,35.7,0,0,0-10.4-.9A40.2,40.2,0,0,0,963,313.1a18.1,18.1,0,0,1,3.9,14,40,40,0,0,0,36.7,46,40.1,40.1,0,0,0,19.6-3.5,15.8,15.8,0,0,1,17.6,3.3,40.2,40.2,0,0,0,28.5,11.8,39.8,39.8,0,0,0,26-9.5,18.2,18.2,0,0,1,16.4-3.5,41.8,41.8,0,0,0,13.8,1.4,40.2,40.2,0,0,0,26.4-67.4A18.5,18.5,0,0,1,1147,291.5Z" opacity="0.2" style="mix-blend-mode: multiply"/>
        <path d="M408.7,424.2a36,36,0,0,0,.1-5.7,31.3,31.3,0,0,0-29-28.6,34.4,34.4,0,0,0-7.2.4,14.6,14.6,0,0,1-13.6-5,31,31,0,0,0-48.6.5,13.6,13.6,0,0,1-13.6,4.8,29.8,29.8,0,0,0-8-.7,31.1,31.1,0,0,0-22.6,51,13.7,13.7,0,0,1,3,10.8,29.9,29.9,0,0,0-.2,6.7,31.1,31.1,0,0,0,43.9,26.3,12.3,12.3,0,0,1,13.6,2.5,30.9,30.9,0,0,0,42.1,1.8,14.2,14.2,0,0,1,12.7-2.7,31.7,31.7,0,0,0,10.7,1.1A31.3,31.3,0,0,0,420.7,458a30.9,30.9,0,0,0-8.2-22.8A14.5,14.5,0,0,1,408.7,424.2Z" opacity="0.2" style="mix-blend-mode: multiply"/>
        <rect x="293.8" y="783.2" width="51.4" height="51.4" opacity="0.2" style="mix-blend-mode: multiply"/>
        <g>
          <g>
            <rect x="1145.9" y="515.1" width="28.5" height="31.25" opacity="0.2" style="mix-blend-mode: multiply"/>
            <rect x="1201.8" y="515.1" width="28.5" height="31.25" opacity="0.2" style="mix-blend-mode: multiply"/>
          </g>
          <g>
            <rect x="1145.9" y="565.6" width="28.5" height="31.25" opacity="0.2" style="mix-blend-mode: multiply"/>
            <rect x="1201.8" y="565.6" width="28.5" height="31.25" opacity="0.2" style="mix-blend-mode: multiply"/>
          </g>
          <g>
            <rect x="1145.9" y="616.1" width="28.5" height="31.25" opacity="0.2" style="mix-blend-mode: multiply"/>
            <rect x="1201.8" y="616.1" width="28.5" height="31.25" opacity="0.2" style="mix-blend-mode: multiply"/>
          </g>
          <g>
            <rect x="1145.9" y="666.6" width="28.5" height="31.25" opacity="0.2" style="mix-blend-mode: multiply"/>
            <rect x="1201.8" y="666.6" width="28.5" height="31.25" opacity="0.2" style="mix-blend-mode: multiply"/>
          </g>
          <g>
            <rect x="1145.9" y="717" width="28.5" height="31.25" opacity="0.2" style="mix-blend-mode: multiply"/>
            <rect x="1201.8" y="717" width="28.5" height="31.25" opacity="0.2" style="mix-blend-mode: multiply"/>
          </g>
          <g>
            <rect x="1145.9" y="767.5" width="28.5" height="31.25" opacity="0.2" style="mix-blend-mode: multiply"/>
            <rect x="1201.8" y="767.5" width="28.5" height="31.25" opacity="0.2" style="mix-blend-mode: multiply"/>
          </g>
          <g>
            <rect x="1145.9" y="818" width="28.5" height="31.25" opacity="0.2" style="mix-blend-mode: multiply"/>
            <rect x="1201.8" y="818" width="28.5" height="31.25" opacity="0.2" style="mix-blend-mode: multiply"/>
          </g>
        </g>
        <g>
          <rect x="954.2" y="464.7" width="28.5" height="31.25" opacity="0.2" style="mix-blend-mode: multiply"/>
          <rect x="954.2" y="515.1" width="28.5" height="31.25" opacity="0.2" style="mix-blend-mode: multiply"/>
          <rect x="954.2" y="565.6" width="28.5" height="31.25" opacity="0.2" style="mix-blend-mode: multiply"/>
          <rect x="954.2" y="616.1" width="28.5" height="31.25" opacity="0.2" style="mix-blend-mode: multiply"/>
          <rect x="954.2" y="666.6" width="28.5" height="31.25" opacity="0.2" style="mix-blend-mode: multiply"/>
          <rect x="954.2" y="717" width="28.5" height="31.25" opacity="0.2" style="mix-blend-mode: multiply"/>
          <rect x="954.2" y="767.5" width="28.5" height="31.25" opacity="0.2" style="mix-blend-mode: multiply"/>
        </g>
        <g>
          <rect x="1005.7" y="464.7" width="28.5" height="31.25" opacity="0.2" style="mix-blend-mode: multiply"/>
          <rect x="1005.7" y="515.1" width="28.5" height="31.25" opacity="0.2" style="mix-blend-mode: multiply"/>
          <rect x="1005.7" y="565.6" width="28.5" height="31.25" opacity="0.2" style="mix-blend-mode: multiply"/>
          <rect x="1005.7" y="616.1" width="28.5" height="31.25" opacity="0.2" style="mix-blend-mode: multiply"/>
          <rect x="1005.7" y="666.6" width="28.5" height="31.25" opacity="0.2" style="mix-blend-mode: multiply"/>
          <rect x="1005.7" y="717" width="28.5" height="31.25" opacity="0.2" style="mix-blend-mode: multiply"/>
          <rect x="1005.7" y="767.5" width="28.5" height="31.25" opacity="0.2" style="mix-blend-mode: multiply"/>
        </g>
        <g>
          <rect x="1057.2" y="464.7" width="28.5" height="31.25" opacity="0.2" style="mix-blend-mode: multiply"/>
          <rect x="1057.2" y="515.1" width="28.5" height="31.25" opacity="0.2" style="mix-blend-mode: multiply"/>
          <rect x="1057.2" y="565.6" width="28.5" height="31.25" opacity="0.2" style="mix-blend-mode: multiply"/>
          <rect x="1057.2" y="616.1" width="28.5" height="31.25" opacity="0.2" style="mix-blend-mode: multiply"/>
          <rect x="1057.2" y="666.6" width="28.5" height="31.25" opacity="0.2" style="mix-blend-mode: multiply"/>
          <rect x="1057.2" y="717" width="28.5" height="31.25" opacity="0.2" style="mix-blend-mode: multiply"/>
          <rect x="1057.2" y="767.5" width="28.5" height="31.25" opacity="0.2" style="mix-blend-mode: multiply"/>
        </g>
      </g>
      <g>
        <path d="M330.3,1184.2v33.6h-4.7v-29.5H318v-4.1Z" fill="#fff"/>
        <path d="M344.3,1216.1a13.6,13.6,0,0,1-4.8-5.9,21.9,21.9,0,0,1-1.8-9.2,21.3,21.3,0,0,1,1.8-9.2,14.6,14.6,0,0,1,4.8-6,13.3,13.3,0,0,1,7.1-2,13.1,13.1,0,0,1,7.1,2,14.7,14.7,0,0,1,4.9,6,22.9,22.9,0,0,1,1.7,9.2,23.6,23.6,0,0,1-1.7,9.2,13.8,13.8,0,0,1-4.9,5.9,12.4,12.4,0,0,1-7.1,2.1A12.6,12.6,0,0,1,344.3,1216.1Zm13.6-5.5q2.4-3.3,2.4-9.6t-2.4-9.6a8.1,8.1,0,0,0-13,0q-2.4,3.3-2.4,9.6t2.4,9.6a8.1,8.1,0,0,0,13,0Z" fill="#fff"/>
        <path d="M392.1,1188.3H380.6v-4.1h27.8v4.1H396.8v29.5h-4.7Z" fill="#fff"/>
        <path d="M433.2,1206.6H412.6a7.7,7.7,0,0,0,2.9,5.4,10.6,10.6,0,0,0,13.6-1l2.6,3a11.9,11.9,0,0,1-4.3,3,15.7,15.7,0,0,1-12.9-.6,12.1,12.1,0,0,1-4.9-4.6,14.1,14.1,0,0,1,0-13.4,11.6,11.6,0,0,1,4.6-4.7,12.8,12.8,0,0,1,6.5-1.6,12.5,12.5,0,0,1,6.5,1.6,12,12,0,0,1,4.5,4.7,13.7,13.7,0,0,1,1.6,6.8A7.6,7.6,0,0,1,433.2,1206.6Zm-18-8.6a7.7,7.7,0,0,0-2.6,5.3h16.3a7.9,7.9,0,0,0-8.2-7.3A8.1,8.1,0,0,0,415.2,1198Z" fill="#fff"/>
        <path d="M443.9,1216.4a11.8,11.8,0,0,1-4.8-4.6,12.7,12.7,0,0,1-1.8-6.7,12.4,12.4,0,0,1,1.8-6.7,11.5,11.5,0,0,1,4.8-4.7,14.1,14.1,0,0,1,6.9-1.6,13.8,13.8,0,0,1,6.2,1.4,10.1,10.1,0,0,1,4.2,4l-3.5,2.3a8,8,0,0,0-3-2.8,8.6,8.6,0,0,0-3.9-.9,9.4,9.4,0,0,0-4.5,1.1,8.2,8.2,0,0,0-3.2,3.2,9.9,9.9,0,0,0-1.1,4.7,10.2,10.2,0,0,0,1.1,4.7,7.4,7.4,0,0,0,3.2,3.1,8.4,8.4,0,0,0,4.5,1.1,8.6,8.6,0,0,0,3.9-.9,7.7,7.7,0,0,0,3-2.7l3.5,2.2a10.4,10.4,0,0,1-4.2,4.1,13.8,13.8,0,0,1-6.2,1.4A14.1,14.1,0,0,1,443.9,1216.4Z" fill="#fff"/>
        <path d="M488.1,1194.9c1.9,1.9,2.9,4.6,2.9,8.2v14.7h-4.6v-14.1c0-2.5-.6-4.4-1.8-5.6a6.6,6.6,0,0,0-5.1-1.9,7.7,7.7,0,0,0-5.9,2.2,8.5,8.5,0,0,0-2.2,6.3v13.1h-4.6v-35.7h4.6v13.8a9.9,9.9,0,0,1,3.8-2.8,12.4,12.4,0,0,1,5.2-1A10.4,10.4,0,0,1,488.1,1194.9Z" fill="#fff"/>
        <path d="M520.8,1194.9c1.9,1.9,2.9,4.6,2.9,8.2v14.7h-4.6v-14.1c0-2.5-.6-4.4-1.8-5.6a6.6,6.6,0,0,0-5.1-1.9,7.7,7.7,0,0,0-5.9,2.2,8.9,8.9,0,0,0-2.2,6.3v13.1h-4.6v-25.5h4.4v3.9a9.7,9.7,0,0,1,3.8-3.1,13.3,13.3,0,0,1,5.4-1C516.4,1192.1,518.9,1193,520.8,1194.9Z" fill="#fff"/>
        <path d="M532.3,1186.6a2.9,2.9,0,0,1-.9-2.2,2.9,2.9,0,0,1,.9-2.1,3.2,3.2,0,0,1,2.3-.9,2.9,2.9,0,0,1,2.2.9,2.6,2.6,0,0,1,.9,2.1,2.9,2.9,0,0,1-.9,2.1,2.9,2.9,0,0,1-2.2.9A3.6,3.6,0,0,1,532.3,1186.6Zm-.1,5.7h4.7v25.5h-4.7Z" fill="#fff"/>
        <path d="M549.8,1216.4a13.2,13.2,0,0,1-4.8-4.6,13.6,13.6,0,0,1-1.7-6.7,13.3,13.3,0,0,1,1.7-6.7,12.7,12.7,0,0,1,4.8-4.7,14.5,14.5,0,0,1,7-1.6,13.4,13.4,0,0,1,6.1,1.4,10.1,10.1,0,0,1,4.2,4l-3.5,2.3a8,8,0,0,0-3-2.8,8.3,8.3,0,0,0-3.9-.9,9.4,9.4,0,0,0-4.5,1.1,8,8,0,0,0-3.1,3.2,8.8,8.8,0,0,0-1.1,4.7,9.1,9.1,0,0,0,1.1,4.7,7.1,7.1,0,0,0,3.1,3.1,9.3,9.3,0,0,0,8.4.2,7.7,7.7,0,0,0,3-2.7l3.5,2.2a10.4,10.4,0,0,1-4.2,4.1,13.4,13.4,0,0,1-6.1,1.4A14.5,14.5,0,0,1,549.8,1216.4Z" fill="#fff"/>
        <path d="M590.5,1194.7c1.8,1.7,2.8,4.3,2.8,7.7v15.4h-4.4v-3.4a7.3,7.3,0,0,1-3.3,2.7,11.3,11.3,0,0,1-5.1,1,10.4,10.4,0,0,1-6.8-2.1,6.7,6.7,0,0,1-2.6-5.4,6.4,6.4,0,0,1,2.5-5.4q2.4-2.1,7.8-2.1h7.3v-.9a5.5,5.5,0,0,0-1.8-4.5c-1.1-1.1-2.8-1.6-5.1-1.6a13.5,13.5,0,0,0-4.4.7,12.5,12.5,0,0,0-3.6,2l-2-3.4a14.6,14.6,0,0,1,4.8-2.5,21.4,21.4,0,0,1,5.8-.8C585.9,1192.1,588.6,1193,590.5,1194.7Zm-4.6,18.6a6.1,6.1,0,0,0,2.8-3.3v-3.5h-7.2c-3.9,0-5.8,1.3-5.8,3.9a3.4,3.4,0,0,0,1.5,3,6.3,6.3,0,0,0,4.1,1.1A8.5,8.5,0,0,0,585.9,1213.3Z" fill="#fff"/>
        <path d="M601.8,1182.1h4.6v35.7h-4.6Z" fill="#fff"/>
        <path d="M628.8,1184.2h4.8v33.6h-4.8Z" fill="#fff"/>
        <path d="M664.4,1194.9c1.9,1.9,2.8,4.6,2.8,8.2v14.7h-4.6v-14.1c0-2.5-.6-4.4-1.8-5.6a6.6,6.6,0,0,0-5.1-1.9,7.8,7.8,0,0,0-5.9,2.2,8.9,8.9,0,0,0-2.1,6.3v13.1h-4.6v-25.5h4.4v3.9a9.3,9.3,0,0,1,3.7-3.1,13.3,13.3,0,0,1,5.4-1C659.9,1192.1,662.5,1193,664.4,1194.9Z" fill="#fff"/>
        <path d="M690.1,1216.3a6.6,6.6,0,0,1-2.5,1.3,10.6,10.6,0,0,1-3.1.5,8,8,0,0,1-5.9-2.1,7.9,7.9,0,0,1-2.2-5.9v-14h-4.3v-3.8h4.3v-5.5h4.7v5.5h7.3v3.8h-7.3v13.8a4.6,4.6,0,0,0,1,3.2,4,4,0,0,0,2.9,1.1,5.7,5.7,0,0,0,3.7-1.2Z" fill="#fff"/>
        <path d="M717.7,1206.6H697.1a7.7,7.7,0,0,0,2.9,5.4,10.6,10.6,0,0,0,13.6-1l2.6,3a11.9,11.9,0,0,1-4.3,3,15,15,0,0,1-5.8,1.1,15.2,15.2,0,0,1-7.1-1.7,11.2,11.2,0,0,1-4.8-4.6,12.7,12.7,0,0,1-1.8-6.7,13.6,13.6,0,0,1,1.7-6.7,11.6,11.6,0,0,1,4.6-4.7,12.8,12.8,0,0,1,6.5-1.6,12.5,12.5,0,0,1,6.5,1.6,12,12,0,0,1,4.5,4.7,13.7,13.7,0,0,1,1.6,6.8A7.6,7.6,0,0,1,717.7,1206.6Zm-18-8.6a7.7,7.7,0,0,0-2.6,5.3h16.3a7.9,7.9,0,0,0-8.2-7.3A8.1,8.1,0,0,0,699.7,1198Z" fill="#fff"/>
        <path d="M732.2,1193.2a14.1,14.1,0,0,1,5.7-1.1v4.5h-1.1a7.8,7.8,0,0,0-5.8,2.2,8.7,8.7,0,0,0-2.2,6.4v12.7h-4.6v-25.5h4.4v4.3A7.9,7.9,0,0,1,732.2,1193.2Z" fill="#fff"/>
        <path d="M767.2,1192.3,756,1217.8h-4.7l-11.1-25.5H745l8.7,20.4,8.9-20.4Z" fill="#fff"/>
        <path d="M771.6,1186.6a2.9,2.9,0,0,1-.9-2.2,2.9,2.9,0,0,1,.9-2.1,3.1,3.1,0,0,1,4.4,0,2.6,2.6,0,0,1,.9,2.1,2.9,2.9,0,0,1-.9,2.1,2.9,2.9,0,0,1-2.2.9A3.3,3.3,0,0,1,771.6,1186.6Zm-.1,5.7h4.6v25.5h-4.6Z" fill="#fff"/>
        <path d="M807.8,1206.6H787.2a7.7,7.7,0,0,0,2.9,5.4,10.6,10.6,0,0,0,13.6-1l2.6,3a11.9,11.9,0,0,1-4.3,3,15.4,15.4,0,0,1-5.8,1.1,14.9,14.9,0,0,1-7.1-1.7,12.1,12.1,0,0,1-4.9-4.6,14.1,14.1,0,0,1,0-13.4,11.6,11.6,0,0,1,4.6-4.7,12.8,12.8,0,0,1,6.5-1.6,12.5,12.5,0,0,1,6.5,1.6,12,12,0,0,1,4.5,4.7,13.7,13.7,0,0,1,1.6,6.8A7.6,7.6,0,0,1,807.8,1206.6Zm-18-8.6a7.7,7.7,0,0,0-2.6,5.3h16.3a7.9,7.9,0,0,0-8.2-7.3A8.1,8.1,0,0,0,789.8,1198Z" fill="#fff"/>
        <path d="M852.4,1192.3l-9.6,25.5h-4.4l-7.3-19.3-7.5,19.3h-4.4l-9.5-25.5h4.4l7.4,20.3,7.7-20.3h3.9l7.5,20.4,7.6-20.4Z" fill="#fff"/>
        <path d="M877.3,1188.3H865.8v-4.1h27.8v4.1H882.1v29.5h-4.8Z" fill="#fff"/>
        <path d="M897.6,1186.6a2.9,2.9,0,0,1-.9-2.2,2.9,2.9,0,0,1,.9-2.1,2.9,2.9,0,0,1,2.2-.9,3.2,3.2,0,0,1,2.3.9,2.6,2.6,0,0,1,.9,2.1,2.9,2.9,0,0,1-.9,2.1,3.2,3.2,0,0,1-2.3.9A3.3,3.3,0,0,1,897.6,1186.6Zm-.1,5.7h4.6v25.5h-4.6Z" fill="#fff"/>
        <path d="M931.1,1193.7a12.7,12.7,0,0,1,4.6,4.6,13.4,13.4,0,0,1,1.6,6.8,13.9,13.9,0,0,1-1.6,6.8,12.4,12.4,0,0,1-4.6,4.5,13.6,13.6,0,0,1-6.7,1.7,11.8,11.8,0,0,1-5-1.1,11.4,11.4,0,0,1-3.9-3v13.1h-4.6v-34.8h4.5v4.1a9.8,9.8,0,0,1,3.8-3.2,11.3,11.3,0,0,1,5.2-1.1A13.5,13.5,0,0,1,931.1,1193.7Zm-2.7,19.2a7.4,7.4,0,0,0,3.1-3.2,8.7,8.7,0,0,0,1.1-4.6,8.8,8.8,0,0,0-1.1-4.7,8,8,0,0,0-3.1-3.2,9,9,0,0,0-4.4-1.1,8,8,0,0,0-4.3,1.2,8.4,8.4,0,0,0-3.1,3.1,9.9,9.9,0,0,0-1.1,4.7,9.8,9.8,0,0,0,1.1,4.6,7.4,7.4,0,0,0,3.1,3.2,7.9,7.9,0,0,0,4.3,1.1A8,8,0,0,0,928.4,1212.9Z" fill="#fff"/>
        <path d="M945,1217.2a11.8,11.8,0,0,1-4.5-2.1l1.9-3.6a14.2,14.2,0,0,0,4.1,1.9,15.9,15.9,0,0,0,4.8.7c4.1,0,6.1-1.2,6.1-3.5a2.5,2.5,0,0,0-.8-1.8,5.9,5.9,0,0,0-2.1-1l-3.4-.7a33.7,33.7,0,0,1-5.1-1.1,7.2,7.2,0,0,1-3.3-2.1,6.1,6.1,0,0,1-1.4-4.2,6.5,6.5,0,0,1,2.9-5.5,12.8,12.8,0,0,1,7.7-2.1,22.2,22.2,0,0,1,5.1.6,13.6,13.6,0,0,1,4.2,1.7l-2,3.6a13.5,13.5,0,0,0-7.3-2,7.9,7.9,0,0,0-4.5,1,2.9,2.9,0,0,0-1.5,2.5,2.6,2.6,0,0,0,.8,2,6.5,6.5,0,0,0,2.2,1.1l3.5.7a41.3,41.3,0,0,1,5,1.2,7,7,0,0,1,3.3,2,5.7,5.7,0,0,1,1.3,4,6.4,6.4,0,0,1-2.9,5.5,13.9,13.9,0,0,1-8.1,2.1A19.8,19.8,0,0,1,945,1217.2Z" fill="#fff"/>
      </g>
      <g>
        <path d="M597,1078.5h86v52.9H597Z" fill="#a2dae7"/>
        <path d="M597,1078.5h86v6.6H597Z" fill="#8dd3e7"/>
        <path d="M592,1061.9h96v16.6H592Z" fill="#a2dae7"/>
        <path d="M633.4,1061.9h13.2v69.5H633.4Z" fill="#fc5b68"/>
        <path d="M633.4,1061.9l-16.6,36.4-4.9-6.6h-8.3l14.9-29.8Z" fill="#fc5b68"/>
        <path d="M638.5,1043.4a13.2,13.2,0,0,0-12.1-8H613.1a13.7,13.7,0,0,1,12.2,8l8.1,18.5h13.2Z" fill="#f04855"/>
        <path d="M611.9,1048.7a13.2,13.2,0,0,1,7.2-11.8,12.4,12.4,0,0,0-6-1.5h-1.2a13.3,13.3,0,1,0,0,26.5h13.2A13.2,13.2,0,0,1,611.9,1048.7Z" fill="#fc5b68"/>
        <path d="M641.5,1043.4a13.2,13.2,0,0,1,12.1-8h13.3a13.7,13.7,0,0,0-12.2,8l-8.1,18.5H633.4Z" fill="#fc5b68"/>
        <path d="M668.1,1048.7a13.2,13.2,0,0,0-7.2-11.8,12.4,12.4,0,0,1,6-1.5h1.2a13.3,13.3,0,1,1,0,26.5H654.9A13.2,13.2,0,0,0,668.1,1048.7Z" fill="#fc5b68"/>
        <path d="M646.6,1061.9l16.6,36.4,4.9-6.6h8.3l-14.9-29.8Z" fill="#fc5b68"/>
        <path d="M633.4,1061.9h13.2v8.3H633.4Z" fill="#f04855"/>
      </g>
      <g>
        <path d="M431.9,169.5a10.9,10.9,0,0,1,3.1,8,12.4,12.4,0,0,1-1.7,6.3,12.1,12.1,0,0,1-5.2,4.5,19.5,19.5,0,0,1-8.5,1.6,25.3,25.3,0,0,1-8.3-1.3,18.9,18.9,0,0,1-6.6-3.6l2.7-4.6a15.3,15.3,0,0,0,5.3,3.2,22.6,22.6,0,0,0,6.9,1.1c3,0,5.4-.6,7.1-1.9a6.2,6.2,0,0,0,2.5-5.3,6,6,0,0,0-2.5-5.2,12.9,12.9,0,0,0-7.5-1.9h-3.3v-4l10.2-12.6H406.5v-5h26.9v3.9l-10.6,13.2A14.3,14.3,0,0,1,431.9,169.5Z" fill="#12152d"/>
        <path d="M447.3,187.4a16.7,16.7,0,0,1-5.9-7.1,30.9,30.9,0,0,1,0-22.4,16.7,16.7,0,0,1,5.9-7.1,15,15,0,0,1,8.6-2.5,14.7,14.7,0,0,1,8.5,2.5,16.1,16.1,0,0,1,5.9,7.1,29.6,29.6,0,0,1,0,22.4,16.1,16.1,0,0,1-5.9,7.1,14.7,14.7,0,0,1-8.5,2.5A15,15,0,0,1,447.3,187.4Zm16.4-6.7c2-2.6,2.9-6.5,2.9-11.6s-.9-8.9-2.9-11.6a9.1,9.1,0,0,0-7.8-4,9.3,9.3,0,0,0-7.9,4c-1.9,2.7-2.9,6.5-2.9,11.6s1,9,2.9,11.6a9.3,9.3,0,0,0,7.9,4A9.1,9.1,0,0,0,463.7,180.7Z" fill="#12152d"/>
        <path d="M536.6,193.2a14.1,14.1,0,0,1-4.6,3.5,13.5,13.5,0,0,1-5.7,1.2,14.7,14.7,0,0,1-7.1-1.8,34.1,34.1,0,0,1-7.7-6.2,23,23,0,0,1-10.4-3.1,22.1,22.1,0,0,1-7.2-7.4,20.9,20.9,0,0,1-2.5-10.3A20.3,20.3,0,0,1,501.9,151a24.2,24.2,0,0,1,22.2,0,19.6,19.6,0,0,1,7.7,7.4,20.6,20.6,0,0,1,2.8,10.7,21.7,21.7,0,0,1-2,9.2,19.1,19.1,0,0,1-5.6,7,22.5,22.5,0,0,1-8.4,4,16.4,16.4,0,0,0,3.9,3.1,9.2,9.2,0,0,0,3.9.9,9.4,9.4,0,0,0,7.4-3.4Zm-37.4-16.1a14.6,14.6,0,0,0,5.7,5.6,17.4,17.4,0,0,0,16.2,0,14.4,14.4,0,0,0,5.6-5.6,15.4,15.4,0,0,0,2.1-8,15.7,15.7,0,0,0-2.1-8,15,15,0,0,0-5.6-5.6,17.4,17.4,0,0,0-16.2,0,15.3,15.3,0,0,0-5.7,5.6,16.7,16.7,0,0,0-2,8A16.4,16.4,0,0,0,499.2,177.1Z" fill="#12152d"/>
        <path d="M572.1,190.1l-5.4-5.4a20.6,20.6,0,0,1-20.9,3.9,11.8,11.8,0,0,1-5.1-3.8,8.9,8.9,0,0,1-1.9-5.5,10.8,10.8,0,0,1,2.3-6.6,30.3,30.3,0,0,1,7.6-5.9,18.9,18.9,0,0,1-3.8-4.8,10,10,0,0,1-1.1-4.5,8.3,8.3,0,0,1,3-6.6,12,12,0,0,1,8-2.5,11.3,11.3,0,0,1,7.4,2.3,7.7,7.7,0,0,1,2.7,6.2,8,8,0,0,1-2,5.5,20.9,20.9,0,0,1-6.6,5.1l10,10a24.2,24.2,0,0,0,2.5-7.3l4.5,1.4a27.7,27.7,0,0,1-3.5,9.3l5.4,5.5Zm-8.7-8.7-11.6-11.5a20.1,20.1,0,0,0-5.8,4.4,6.8,6.8,0,0,0-1.7,4.5,5.7,5.7,0,0,0,2.5,4.7,11.2,11.2,0,0,0,6.6,1.8A13.5,13.5,0,0,0,563.4,181.4Zm-12.8-27.6a4.6,4.6,0,0,0-1.6,3.6,5.3,5.3,0,0,0,.9,3,20.2,20.2,0,0,0,3.2,4,23.5,23.5,0,0,0,5.6-3.9,5.2,5.2,0,0,0,1.5-3.5,3.9,3.9,0,0,0-1.4-3.3,6,6,0,0,0-4-1.2A6,6,0,0,0,550.6,153.8Z" fill="#12152d"/>
        <path d="M607.7,179.3H586l-4.4,10.2h-6L594,148.8h5.8l18.4,40.7h-6.1Zm-2.1-4.7-8.7-19.9-8.8,19.9Z" fill="#12152d"/>
        <path d="M643.4,153.8V168h20.4v5H643.4v16.5h-5.8V148.8h28.7v5Z" fill="#12152d"/>
        <path d="M676.5,187.8a15.3,15.3,0,0,1-5.7-5.6,16.9,16.9,0,0,1,0-16.3,14.4,14.4,0,0,1,5.7-5.5,18,18,0,0,1,16.5,0,15.1,15.1,0,0,1,5.7,5.5,17.6,17.6,0,0,1,0,16.3,16.1,16.1,0,0,1-5.7,5.6,18,18,0,0,1-16.5,0Zm13.6-4.2a10.7,10.7,0,0,0,3.7-3.9,11.4,11.4,0,0,0,1.3-5.7,11.3,11.3,0,0,0-1.3-5.6,9.7,9.7,0,0,0-3.7-3.8,10.9,10.9,0,0,0-10.7,0,9.7,9.7,0,0,0-3.7,3.8,12.1,12.1,0,0,0,0,11.3,9.6,9.6,0,0,0,9,5.2A10.8,10.8,0,0,0,690.1,183.6Z" fill="#12152d"/>
        <path d="M717,159.7a16,16,0,0,1,6.9-1.3v5.4h-1.3a9.3,9.3,0,0,0-7.1,2.7c-1.8,1.8-2.6,4.4-2.6,7.7v15.4h-5.6V158.6h5.4v5.2A9.5,9.5,0,0,1,717,159.7Z" fill="#12152d"/>
        <path d="M760.8,175.4v14.1h-5.7V175.3l-16.2-26.5h6.2l13.1,21.4,13-21.4H777Z" fill="#12152d"/>
        <path d="M782.3,187.8a16.1,16.1,0,0,1-5.7-5.6,17.6,17.6,0,0,1,0-16.3,15.1,15.1,0,0,1,5.7-5.5,16.5,16.5,0,0,1,8.3-2,15.8,15.8,0,0,1,8.2,2,15.1,15.1,0,0,1,5.7,5.5,16.9,16.9,0,0,1,0,16.3,16.1,16.1,0,0,1-5.7,5.6,16.9,16.9,0,0,1-8.2,2A17.6,17.6,0,0,1,782.3,187.8Zm13.6-4.2a9.9,9.9,0,0,0,3.7-3.9,11.4,11.4,0,0,0,1.3-5.7,11.3,11.3,0,0,0-1.3-5.6,9,9,0,0,0-3.7-3.8,10.2,10.2,0,0,0-5.3-1.4,10.5,10.5,0,0,0-5.3,1.4,9,9,0,0,0-3.7,3.8,12.1,12.1,0,0,0,0,11.3,9.9,9.9,0,0,0,3.7,3.9,10.4,10.4,0,0,0,5.3,1.3A10.2,10.2,0,0,0,795.9,183.6Z" fill="#12152d"/>
        <path d="M841.9,158.6v30.9h-5.3v-4.7a11,11,0,0,1-4.5,3.7,13.2,13.2,0,0,1-6,1.3c-4.1,0-7.3-1.1-9.7-3.4s-3.5-5.6-3.5-10V158.6h5.5v17.1c0,3,.8,5.3,2.2,6.8a8.1,8.1,0,0,0,6.2,2.3,9,9,0,0,0,6.9-2.7,10.5,10.5,0,0,0,2.6-7.5v-16Z" fill="#12152d"/>
        <path d="M861,159.7a16,16,0,0,1,6.9-1.3v5.4h-1.3a9.3,9.3,0,0,0-7.1,2.7c-1.7,1.8-2.6,4.4-2.6,7.7v15.4h-5.6V158.6h5.4v5.2A10,10,0,0,1,861,159.7Z" fill="#12152d"/>
        <path d="M256.2,224.3v48.9h-9.3l-24.3-29.7v29.7H211.4V224.3h9.4L245,254V224.3Z" fill="#12152d"/>
        <path d="M302.2,257.5H273.8a9,9,0,0,0,3.6,5.5,12.4,12.4,0,0,0,7.1,2,13.8,13.8,0,0,0,5.2-.9,13.7,13.7,0,0,0,4.2-2.7l5.8,6.3c-3.5,4-8.7,6-15.5,6a24,24,0,0,1-11.2-2.5,17.7,17.7,0,0,1-7.5-6.8,19,19,0,0,1-2.7-10,19.2,19.2,0,0,1,2.6-9.9,18.4,18.4,0,0,1,7.2-6.9,20.9,20.9,0,0,1,10.3-2.5,21.9,21.9,0,0,1,9.9,2.3,17.6,17.6,0,0,1,7,6.8,20.5,20.5,0,0,1,2.6,10.3C302.4,254.7,302.3,255.7,302.2,257.5Zm-25.5-12.1a9,9,0,0,0-3.1,5.7h18.5a9.1,9.1,0,0,0-3-5.7,10.2,10.2,0,0,0-12.4,0Z" fill="#12152d"/>
        <path d="M331.1,273.2l-8.3-11.5-8.5,11.5H302.5l14.4-18.9-14-18.7h12.2l8,11,8.2-11h11.5L328.9,254l14.5,19.2Z" fill="#12152d"/>
        <path d="M371.5,271.3a11.7,11.7,0,0,1-3.9,1.8,19.9,19.9,0,0,1-4.9.6c-4.5,0-8-1.1-10.4-3.4s-3.7-5.6-3.7-10V244.8h-5.8v-8.3h5.8v-9.2h10.9v9.2h9.4v8.3h-9.4v15.3a5.3,5.3,0,0,0,1.2,3.7,4.8,4.8,0,0,0,3.5,1.3,7.2,7.2,0,0,0,4.4-1.4Z" fill="#12152d"/>
        <path d="M405.7,233.4v12.9h22.6v9.1H405.7v17.8H394.4V224.3h36.9v9.1Z" fill="#12152d"/>
        <path d="M451.8,236.5a18.1,18.1,0,0,1,7.6-1.4v10H457a10.3,10.3,0,0,0-7.4,2.6c-1.7,1.7-2.6,4.4-2.6,7.8v17.8H436.1V235.6h10.4v5A12.1,12.1,0,0,1,451.8,236.5Z" fill="#12152d"/>
        <path d="M471.4,271.2a18,18,0,0,1-7.4-6.8,20.5,20.5,0,0,1,0-20,18,18,0,0,1,7.4-6.8,21.8,21.8,0,0,1,10.6-2.5,21.6,21.6,0,0,1,10.6,2.5,17.8,17.8,0,0,1,7.3,6.8,19.9,19.9,0,0,1,0,20,17.8,17.8,0,0,1-7.3,6.8,21.6,21.6,0,0,1-10.6,2.5A21.8,21.8,0,0,1,471.4,271.2Zm17.5-9.2a12,12,0,0,0,0-15.2,9.9,9.9,0,0,0-13.8,0,12,12,0,0,0,0,15.2,9.9,9.9,0,0,0,13.8,0Z" fill="#12152d"/>
        <path d="M542.5,239.3c2.9,2.8,4.3,6.9,4.3,12.4v21.5H535.9V253.4c0-3-.6-5.2-1.9-6.7a7.1,7.1,0,0,0-5.7-2.2,8.5,8.5,0,0,0-6.5,2.5c-1.7,1.7-2.5,4.3-2.5,7.6v18.6H508.4V235.6h10.4V240a14.2,14.2,0,0,1,5.4-3.6,18,18,0,0,1,7.1-1.3C535.9,235.1,539.7,236.5,542.5,239.3Z" fill="#12152d"/>
        <path d="M579.5,271.3a11.3,11.3,0,0,1-4,1.8,19.3,19.3,0,0,1-4.9.6c-4.5,0-7.9-1.1-10.4-3.4s-3.6-5.6-3.6-10V244.8h-5.8v-8.3h5.8v-9.2h10.9v9.2h9.3v8.3h-9.3v15.3a5.3,5.3,0,0,0,1.2,3.7,4.6,4.6,0,0,0,3.4,1.3,7.2,7.2,0,0,0,4.4-1.4Z" fill="#12152d"/>
        <path d="M619.6,257.5H591.2a9,9,0,0,0,3.6,5.5,12.4,12.4,0,0,0,7.1,2,13.8,13.8,0,0,0,5.2-.9,13.7,13.7,0,0,0,4.2-2.7l5.8,6.3c-3.5,4-8.7,6-15.5,6a24,24,0,0,1-11.2-2.5,17.1,17.1,0,0,1-7.5-6.8,19,19,0,0,1-2.7-10,19.2,19.2,0,0,1,2.6-9.9,18.4,18.4,0,0,1,7.2-6.9,20.8,20.8,0,0,1,10.2-2.5,22,22,0,0,1,10,2.3,17.6,17.6,0,0,1,7,6.8,20.5,20.5,0,0,1,2.6,10.3C619.8,254.7,619.7,255.7,619.6,257.5Zm-25.5-12.1a9,9,0,0,0-3.1,5.7h18.5a9.2,9.2,0,0,0-3.1-5.7,9,9,0,0,0-6.1-2.1A9.3,9.3,0,0,0,594.1,245.4Z" fill="#12152d"/>
        <path d="M659.7,239.3c2.9,2.8,4.3,6.9,4.3,12.4v21.5H653.1V253.4c0-3-.6-5.2-1.9-6.7a7.1,7.1,0,0,0-5.7-2.2A8.5,8.5,0,0,0,639,247c-1.7,1.7-2.5,4.3-2.5,7.6v18.6H625.6V235.6H636V240a14.2,14.2,0,0,1,5.4-3.6,17.8,17.8,0,0,1,7-1.3C653.1,235.1,656.8,236.5,659.7,239.3Z" fill="#12152d"/>
        <path d="M711.1,221.4v51.8H700.7v-4.4c-2.7,3.3-6.6,4.9-11.7,4.9a19,19,0,0,1-9.6-2.4,16.9,16.9,0,0,1-6.8-6.7,22.9,22.9,0,0,1,0-20.4,17.8,17.8,0,0,1,6.8-6.8,20,20,0,0,1,9.6-2.3c4.8,0,8.5,1.5,11.2,4.5V221.4ZM697.7,262a12,12,0,0,0,0-15.2,9,9,0,0,0-6.8-2.8,9.4,9.4,0,0,0-7,2.8,12,12,0,0,0,0,15.2,9.8,9.8,0,0,0,7,2.8A9.4,9.4,0,0,0,697.7,262Z" fill="#12152d"/>
        <path d="M738.8,224.3h11.3v48.9H738.8Z" fill="#12152d"/>
        <path d="M793.6,239.3c2.9,2.8,4.3,6.9,4.3,12.4v21.5H787V253.4c0-3-.6-5.2-1.9-6.7a7.1,7.1,0,0,0-5.7-2.2,8.5,8.5,0,0,0-6.5,2.5c-1.6,1.7-2.5,4.3-2.5,7.6v18.6H759.6V235.6H770V240a13.2,13.2,0,0,1,5.3-3.6,18.3,18.3,0,0,1,7.1-1.3C787,235.1,790.8,236.5,793.6,239.3Z" fill="#12152d"/>
        <path d="M830.6,271.3a11.3,11.3,0,0,1-4,1.8,19.3,19.3,0,0,1-4.9.6c-4.5,0-7.9-1.1-10.3-3.4s-3.7-5.6-3.7-10V244.8h-5.8v-8.3h5.8v-9.2h10.9v9.2h9.3v8.3h-9.3v15.3a5.3,5.3,0,0,0,1.2,3.7,4.8,4.8,0,0,0,3.4,1.3,7,7,0,0,0,4.4-1.4Z" fill="#12152d"/>
        <path d="M870.7,257.5H842.3a9,9,0,0,0,3.6,5.5,12.4,12.4,0,0,0,7.1,2,13.8,13.8,0,0,0,5.2-.9,13.7,13.7,0,0,0,4.2-2.7l5.8,6.3c-3.5,4-8.7,6-15.4,6a24.1,24.1,0,0,1-11.3-2.5,18.3,18.3,0,0,1-7.5-6.8,19,19,0,0,1-2.7-10,18.4,18.4,0,0,1,2.7-9.9,17.5,17.5,0,0,1,7.1-6.9,20.9,20.9,0,0,1,10.3-2.5,21.6,21.6,0,0,1,9.9,2.3,17.6,17.6,0,0,1,7,6.8,20.5,20.5,0,0,1,2.6,10.3C870.9,254.7,870.8,255.7,870.7,257.5Zm-25.5-12.1a9,9,0,0,0-3.1,5.7h18.5a9.1,9.1,0,0,0-3-5.7,10.2,10.2,0,0,0-12.4,0Z" fill="#12152d"/>
        <path d="M892.4,236.5a18.4,18.4,0,0,1,7.6-1.4v10h-2.4a10,10,0,0,0-7.3,2.6c-1.8,1.7-2.7,4.4-2.7,7.8v17.8H876.7V235.6h10.4v5A12.1,12.1,0,0,1,892.4,236.5Z" fill="#12152d"/>
        <path d="M943.7,235.6l-15.8,37.6H916.7l-15.8-37.6h11.2l10.4,25.6,10.8-25.6Z" fill="#12152d"/>
        <path d="M947.3,228.7a5.9,5.9,0,0,1-1.8-4.4,5.8,5.8,0,0,1,1.8-4.3,6.8,6.8,0,0,1,4.9-1.7,7.1,7.1,0,0,1,4.9,1.6,5.4,5.4,0,0,1,1.9,4.2,5.8,5.8,0,0,1-1.9,4.5,6.7,6.7,0,0,1-4.9,1.8A7.3,7.3,0,0,1,947.3,228.7Zm-.5,6.9h10.9v37.6H946.8Z" fill="#12152d"/>
        <path d="M1002.9,257.5H974.5a9.6,9.6,0,0,0,3.7,5.5,12.4,12.4,0,0,0,7.1,2,14.2,14.2,0,0,0,5.2-.9,13.7,13.7,0,0,0,4.2-2.7l5.8,6.3c-3.5,4-8.7,6-15.5,6a23.7,23.7,0,0,1-11.2-2.5,18,18,0,0,1-7.6-6.8,19.9,19.9,0,0,1-2.6-10,19.2,19.2,0,0,1,2.6-9.9,17.7,17.7,0,0,1,7.2-6.9,20.3,20.3,0,0,1,10.2-2.5,22,22,0,0,1,10,2.3,17.6,17.6,0,0,1,7,6.8,20.4,20.4,0,0,1,2.5,10.3A27.2,27.2,0,0,1,1002.9,257.5Zm-25.4-12.1a9,9,0,0,0-3.1,5.7h18.5a8.9,8.9,0,0,0-9.2-7.8A9.3,9.3,0,0,0,977.5,245.4Z" fill="#12152d"/>
        <path d="M1068.6,235.6,1055,273.2h-10.5l-8.4-23.3-8.7,23.3h-10.5l-13.5-37.6h10.2l8.9,25.4,9.2-25.4h9.2l8.9,25.4,9.2-25.4Z" fill="#12152d"/>
      </g>
      <g>
        <path d="M431.9,166.8a10.6,10.6,0,0,1,3.1,7.9,11.9,11.9,0,0,1-1.7,6.3,12.1,12.1,0,0,1-5.2,4.5,19.5,19.5,0,0,1-8.5,1.7,29.5,29.5,0,0,1-8.4-1.3,17.9,17.9,0,0,1-6.5-3.7l2.7-4.6a13.9,13.9,0,0,0,5.3,3.2,20,20,0,0,0,6.9,1.2c3,0,5.4-.6,7.1-1.9a6.3,6.3,0,0,0,2.5-5.3,5.9,5.9,0,0,0-2.5-5.2c-1.7-1.3-4.2-1.9-7.5-1.9h-3.3v-4.1l10.2-12.5H406.5V146h26.9v4l-10.6,13.1C426.8,163.5,429.8,164.7,431.9,166.8Z" fill="#fff"/>
        <path d="M447.3,184.7a16.5,16.5,0,0,1-5.9-7.2,26.8,26.8,0,0,1-2.1-11.1,27.3,27.3,0,0,1,2.1-11.2,17.7,17.7,0,0,1,5.9-7.2,15.7,15.7,0,0,1,8.6-2.4,15.3,15.3,0,0,1,8.5,2.4,16.9,16.9,0,0,1,5.9,7.2,27.3,27.3,0,0,1,2.2,11.2,26.8,26.8,0,0,1-2.2,11.1,15.8,15.8,0,0,1-5.9,7.2,14.7,14.7,0,0,1-8.5,2.5A15,15,0,0,1,447.3,184.7Zm16.4-6.7c2-2.7,2.9-6.6,2.9-11.6s-.9-9-2.9-11.7a9.4,9.4,0,0,0-7.8-4,9.5,9.5,0,0,0-7.9,4c-1.9,2.7-2.9,6.6-2.9,11.7s1,8.9,2.9,11.6a9.3,9.3,0,0,0,7.9,4A9.1,9.1,0,0,0,463.7,178Z" fill="#fff"/>
        <path d="M536.6,190.4A13.1,13.1,0,0,1,532,194a13.5,13.5,0,0,1-5.7,1.2,14.7,14.7,0,0,1-7.1-1.8,35,35,0,0,1-7.7-6.3,21.8,21.8,0,0,1-10.4-3.1,20.4,20.4,0,0,1-7.2-7.4,20.8,20.8,0,0,1-2.5-10.2,20.4,20.4,0,0,1,2.8-10.7,19.6,19.6,0,0,1,7.7-7.4,24.2,24.2,0,0,1,22.2,0,18.9,18.9,0,0,1,7.7,7.4,20.4,20.4,0,0,1,2.8,10.7,20.9,20.9,0,0,1-2,9.1,19.4,19.4,0,0,1-5.6,7.1,20.9,20.9,0,0,1-8.4,3.9,14.2,14.2,0,0,0,3.9,3.1,8.1,8.1,0,0,0,3.9,1,9.5,9.5,0,0,0,7.4-3.5Zm-37.4-16a16.1,16.1,0,0,0,5.7,5.6,17,17,0,0,0,8.1,2,16.8,16.8,0,0,0,8.1-2,15.5,15.5,0,0,0,7.7-13.6,15.4,15.4,0,0,0-2.1-8,14.4,14.4,0,0,0-5.6-5.6,15.8,15.8,0,0,0-8.1-2.1,16,16,0,0,0-8.1,2.1,14.6,14.6,0,0,0-5.7,5.6,16.4,16.4,0,0,0-2,8A16.7,16.7,0,0,0,499.2,174.4Z" fill="#fff"/>
        <path d="M572.1,187.3l-5.4-5.4a20,20,0,0,1-20.9,3.9,11.7,11.7,0,0,1-5.1-3.7,9.2,9.2,0,0,1-1.9-5.5,10.4,10.4,0,0,1,2.3-6.6,28.2,28.2,0,0,1,7.6-5.9,23.1,23.1,0,0,1-3.8-4.8,10.6,10.6,0,0,1-1.1-4.5,8,8,0,0,1,3-6.6,12,12,0,0,1,8-2.5c3.1,0,5.6.7,7.4,2.2a7.7,7.7,0,0,1,2.7,6.3,8.1,8.1,0,0,1-2,5.5,24.3,24.3,0,0,1-6.6,5.1l10,10a24.8,24.8,0,0,0,2.5-7.4l4.5,1.5a29.5,29.5,0,0,1-3.5,9.3l5.4,5.4Zm-8.7-8.6-11.6-11.5a20.1,20.1,0,0,0-5.8,4.3,6.8,6.8,0,0,0-1.7,4.5,5.6,5.6,0,0,0,2.5,4.7,11.2,11.2,0,0,0,6.6,1.8A13.8,13.8,0,0,0,563.4,178.7Zm-12.8-27.6a4.4,4.4,0,0,0-1.6,3.6,5.8,5.8,0,0,0,.9,3,20.2,20.2,0,0,0,3.2,4,31.3,31.3,0,0,0,5.6-3.9,5.3,5.3,0,0,0,1.5-3.6,3.9,3.9,0,0,0-1.4-3.2,5.5,5.5,0,0,0-4-1.3A6.1,6.1,0,0,0,550.6,151.1Z" fill="#fff"/>
        <path d="M607.7,176.5H586l-4.4,10.2h-6L594,146h5.8l18.4,40.7h-6.1Zm-2.1-4.6-8.7-20-8.8,20Z" fill="#fff"/>
        <path d="M643.4,151.1v14.2h20.4v5H643.4v16.4h-5.8V146h28.7v5.1Z" fill="#fff"/>
        <path d="M676.5,185a14,14,0,0,1-5.7-5.6,16.7,16.7,0,0,1,0-16.2,14.6,14.6,0,0,1,5.7-5.6,18,18,0,0,1,16.5,0,15.3,15.3,0,0,1,5.7,5.6,17.4,17.4,0,0,1,0,16.2A14.6,14.6,0,0,1,693,185a17.3,17.3,0,0,1-16.5,0Zm13.6-4.2a10.4,10.4,0,0,0,3.7-3.8,13.1,13.1,0,0,0,0-11.4,10.4,10.4,0,0,0-3.7-3.8,10.8,10.8,0,0,0-5.4-1.3,10.7,10.7,0,0,0-5.3,1.3,10.4,10.4,0,0,0-3.7,3.8,12.3,12.3,0,0,0,0,11.4,10.4,10.4,0,0,0,3.7,3.8,10.9,10.9,0,0,0,10.7,0Z" fill="#fff"/>
        <path d="M717,157a16,16,0,0,1,6.9-1.4V161h-1.3a9.3,9.3,0,0,0-7.1,2.7c-1.8,1.8-2.6,4.3-2.6,7.7v15.3h-5.6V155.9h5.4v5.2A9,9,0,0,1,717,157Z" fill="#fff"/>
        <path d="M760.8,172.6v14.1h-5.7V172.5L738.9,146h6.2l13.1,21.5,13-21.5H777Z" fill="#fff"/>
        <path d="M782.3,185a14.6,14.6,0,0,1-5.7-5.6,17.4,17.4,0,0,1,0-16.2,15.3,15.3,0,0,1,5.7-5.6,17.6,17.6,0,0,1,8.3-2,16.9,16.9,0,0,1,8.2,2,15.3,15.3,0,0,1,5.7,5.6,16.7,16.7,0,0,1,0,16.2,14.6,14.6,0,0,1-5.7,5.6,15.9,15.9,0,0,1-8.2,2.1A16.5,16.5,0,0,1,782.3,185Zm13.6-4.2a9.7,9.7,0,0,0,3.7-3.8,13.1,13.1,0,0,0,0-11.4,9.7,9.7,0,0,0-3.7-3.8,10.2,10.2,0,0,0-5.3-1.3,10.4,10.4,0,0,0-5.3,1.3,9.7,9.7,0,0,0-3.7,3.8,12.3,12.3,0,0,0,0,11.4,9.7,9.7,0,0,0,3.7,3.8,10.5,10.5,0,0,0,5.3,1.4A10.2,10.2,0,0,0,795.9,180.8Z" fill="#fff"/>
        <path d="M841.9,155.9v30.8h-5.3v-4.6a10.8,10.8,0,0,1-4.5,3.6,13.3,13.3,0,0,1-6,1.4,13.8,13.8,0,0,1-9.7-3.4c-2.4-2.3-3.5-5.7-3.5-10.1V155.9h5.5V173a9.9,9.9,0,0,0,2.2,6.8,8.1,8.1,0,0,0,6.2,2.3,9,9,0,0,0,6.9-2.7c1.7-1.8,2.6-4.3,2.6-7.6V155.9Z" fill="#fff"/>
        <path d="M861,157a16,16,0,0,1,6.9-1.4V161h-1.3a9.3,9.3,0,0,0-7.1,2.7c-1.7,1.8-2.6,4.3-2.6,7.7v15.3h-5.6V155.9h5.4v5.2A9.5,9.5,0,0,1,861,157Z" fill="#fff"/>
        <path d="M256.2,221.6v48.8h-9.3l-24.3-29.6v29.6H211.4V221.6h9.4L245,251.2V221.6Z" fill="#fff"/>
        <path d="M302.2,254.7H273.8a8.7,8.7,0,0,0,3.6,5.5,11.7,11.7,0,0,0,7.1,2.1,13.8,13.8,0,0,0,5.2-.9,12.4,12.4,0,0,0,4.2-2.8l5.8,6.3c-3.5,4.1-8.7,6.1-15.5,6.1a25.3,25.3,0,0,1-11.2-2.5,17.9,17.9,0,0,1-7.5-6.9,18.4,18.4,0,0,1-2.7-9.9,18.6,18.6,0,0,1,9.8-16.9,22.1,22.1,0,0,1,10.3-2.5,20.4,20.4,0,0,1,9.9,2.4,17.6,17.6,0,0,1,7,6.8,20.5,20.5,0,0,1,2.6,10.3C302.4,251.9,302.3,252.9,302.2,254.7Zm-25.5-12a8.7,8.7,0,0,0-3.1,5.7h18.5a8.9,8.9,0,0,0-3-5.7,10.2,10.2,0,0,0-12.4,0Z" fill="#fff"/>
        <path d="M331.1,270.4l-8.3-11.5-8.5,11.5H302.5l14.4-18.9-14-18.6h12.2l8,10.9,8.2-10.9h11.5l-13.9,18.3,14.5,19.2Z" fill="#fff"/>
        <path d="M371.5,268.6a11.7,11.7,0,0,1-3.9,1.8,19.9,19.9,0,0,1-4.9.6c-4.5,0-8-1.2-10.4-3.4s-3.7-5.7-3.7-10.1V242.1h-5.8v-8.4h5.8v-9.1h10.9v9.1h9.4v8.4h-9.4v15.3a4.9,4.9,0,0,0,1.2,3.6,4.5,4.5,0,0,0,3.5,1.3,6.6,6.6,0,0,0,4.4-1.4Z" fill="#fff"/>
        <path d="M405.7,230.7v12.9h22.6v9H405.7v17.8H394.4V221.6h36.9v9.1Z" fill="#fff"/>
        <path d="M451.8,233.7a19.8,19.8,0,0,1,7.6-1.4v10.1l-2.4-.2a9.9,9.9,0,0,0-7.4,2.7c-1.7,1.7-2.6,4.3-2.6,7.8v17.7H436.1V232.9h10.4v4.9A12.9,12.9,0,0,1,451.8,233.7Z" fill="#fff"/>
        <path d="M471.4,268.5a19,19,0,0,1,0-33.7,23,23,0,0,1,10.6-2.5,22.7,22.7,0,0,1,10.6,2.5,18,18,0,0,1,7.3,6.9,19.7,19.7,0,0,1,0,19.9,18,18,0,0,1-7.3,6.9A22.7,22.7,0,0,1,482,271,23,23,0,0,1,471.4,268.5Zm17.5-9.3a11.9,11.9,0,0,0,0-15.1,9.9,9.9,0,0,0-13.8,0,11.9,11.9,0,0,0,0,15.1,9.9,9.9,0,0,0,13.8,0Z" fill="#fff"/>
        <path d="M542.5,236.5c2.9,2.8,4.3,6.9,4.3,12.4v21.5H535.9V250.6c0-3-.6-5.2-1.9-6.7a7.4,7.4,0,0,0-5.7-2.2,8.6,8.6,0,0,0-6.5,2.6c-1.7,1.7-2.5,4.2-2.5,7.6v18.5H508.4V232.9h10.4v4.4a15.8,15.8,0,0,1,5.4-3.7,19.9,19.9,0,0,1,7.1-1.3C535.9,232.3,539.7,233.7,542.5,236.5Z" fill="#fff"/>
        <path d="M579.5,268.6a11.3,11.3,0,0,1-4,1.8,19.3,19.3,0,0,1-4.9.6c-4.5,0-7.9-1.2-10.4-3.4s-3.6-5.7-3.6-10.1V242.1h-5.8v-8.4h5.8v-9.1h10.9v9.1h9.3v8.4h-9.3v15.3a4.9,4.9,0,0,0,1.2,3.6,4.2,4.2,0,0,0,3.4,1.3,6.6,6.6,0,0,0,4.4-1.4Z" fill="#fff"/>
        <path d="M619.6,254.7H591.2a8.7,8.7,0,0,0,3.6,5.5,11.7,11.7,0,0,0,7.1,2.1,13.8,13.8,0,0,0,5.2-.9,12.4,12.4,0,0,0,4.2-2.8l5.8,6.3c-3.5,4.1-8.7,6.1-15.5,6.1a25.3,25.3,0,0,1-11.2-2.5,17.3,17.3,0,0,1-7.5-6.9,18.4,18.4,0,0,1-2.7-9.9,18.6,18.6,0,0,1,9.8-16.9,22,22,0,0,1,10.2-2.5,20.8,20.8,0,0,1,10,2.4,17.6,17.6,0,0,1,7,6.8,20.5,20.5,0,0,1,2.6,10.3C619.8,251.9,619.7,252.9,619.6,254.7Zm-25.5-12a8.7,8.7,0,0,0-3.1,5.7h18.5a8.9,8.9,0,0,0-9.2-7.8A9.3,9.3,0,0,0,594.1,242.7Z" fill="#fff"/>
        <path d="M659.7,236.5c2.9,2.8,4.3,6.9,4.3,12.4v21.5H653.1V250.6c0-3-.6-5.2-1.9-6.7a7.4,7.4,0,0,0-5.7-2.2,8.6,8.6,0,0,0-6.5,2.6c-1.7,1.7-2.5,4.2-2.5,7.6v18.5H625.6V232.9H636v4.4a15.8,15.8,0,0,1,5.4-3.7,19.8,19.8,0,0,1,7-1.3C653.1,232.3,656.8,233.7,659.7,236.5Z" fill="#fff"/>
        <path d="M711.1,218.7v51.7H700.7v-4.3c-2.7,3.2-6.6,4.9-11.7,4.9a19,19,0,0,1-9.6-2.4,17.1,17.1,0,0,1-6.8-6.8,22.7,22.7,0,0,1,0-20.3,17.1,17.1,0,0,1,6.8-6.8,19,19,0,0,1,9.6-2.4c4.8,0,8.5,1.5,11.2,4.6V218.7Zm-13.4,40.5a11.9,11.9,0,0,0,0-15.1,9,9,0,0,0-6.8-2.8,9.4,9.4,0,0,0-7,2.8,11.9,11.9,0,0,0,0,15.1,9.4,9.4,0,0,0,7,2.8A9,9,0,0,0,697.7,259.2Z" fill="#fff"/>
        <path d="M738.8,221.6h11.3v48.8H738.8Z" fill="#fff"/>
        <path d="M793.6,236.5c2.9,2.8,4.3,6.9,4.3,12.4v21.5H787V250.6c0-3-.6-5.2-1.9-6.7a7.4,7.4,0,0,0-5.7-2.2,8.6,8.6,0,0,0-6.5,2.6c-1.6,1.7-2.5,4.2-2.5,7.6v18.5H759.6V232.9H770v4.4a14.5,14.5,0,0,1,5.3-3.7,20.4,20.4,0,0,1,7.1-1.3C787,232.3,790.8,233.7,793.6,236.5Z" fill="#fff"/>
        <path d="M830.6,268.6a11.3,11.3,0,0,1-4,1.8,19.3,19.3,0,0,1-4.9.6c-4.5,0-7.9-1.2-10.3-3.4s-3.7-5.7-3.7-10.1V242.1h-5.8v-8.4h5.8v-9.1h10.9v9.1h9.3v8.4h-9.3v15.3a4.9,4.9,0,0,0,1.2,3.6,4.4,4.4,0,0,0,3.4,1.3,6.5,6.5,0,0,0,4.4-1.4Z" fill="#fff"/>
        <path d="M870.7,254.7H842.3a8.7,8.7,0,0,0,3.6,5.5,11.7,11.7,0,0,0,7.1,2.1,13.8,13.8,0,0,0,5.2-.9,12.4,12.4,0,0,0,4.2-2.8l5.8,6.3c-3.5,4.1-8.7,6.1-15.4,6.1a25.4,25.4,0,0,1-11.3-2.5,18.5,18.5,0,0,1-10.2-16.8,19.1,19.1,0,0,1,9.8-16.9,22.1,22.1,0,0,1,10.3-2.5,20.4,20.4,0,0,1,9.9,2.4,17.6,17.6,0,0,1,7,6.8,20.5,20.5,0,0,1,2.6,10.3C870.9,251.9,870.8,252.9,870.7,254.7Zm-25.5-12a8.7,8.7,0,0,0-3.1,5.7h18.5a8.9,8.9,0,0,0-3-5.7,10.2,10.2,0,0,0-12.4,0Z" fill="#fff"/>
        <path d="M892.4,233.7a20.2,20.2,0,0,1,7.6-1.4v10.1l-2.4-.2c-3.1,0-5.6.9-7.3,2.7s-2.7,4.3-2.7,7.8v17.7H876.7V232.9h10.4v4.9A12.9,12.9,0,0,1,892.4,233.7Z" fill="#fff"/>
        <path d="M943.7,232.9l-15.8,37.5H916.7l-15.8-37.5h11.2l10.4,25.5,10.8-25.5Z" fill="#fff"/>
        <path d="M947.3,225.9a5.8,5.8,0,0,1-1.8-4.3,5.7,5.7,0,0,1,1.8-4.3,6.9,6.9,0,0,1,4.9-1.8,7.1,7.1,0,0,1,4.9,1.7,5.2,5.2,0,0,1,1.9,4.2,5.8,5.8,0,0,1-1.9,4.5,6.7,6.7,0,0,1-4.9,1.8A6.9,6.9,0,0,1,947.3,225.9Zm-.5,7h10.9v37.5H946.8Z" fill="#fff"/>
        <path d="M1002.9,254.7H974.5a9.3,9.3,0,0,0,3.7,5.5,11.7,11.7,0,0,0,7.1,2.1,14.2,14.2,0,0,0,5.2-.9,12.4,12.4,0,0,0,4.2-2.8l5.8,6.3C997,269,991.8,271,985,271a25,25,0,0,1-11.2-2.5,18.2,18.2,0,0,1-7.6-6.9,19.2,19.2,0,0,1-2.6-9.9,19.9,19.9,0,0,1,2.6-10,19.1,19.1,0,0,1,7.2-6.9,21.4,21.4,0,0,1,10.2-2.5,20.8,20.8,0,0,1,10,2.4,17.6,17.6,0,0,1,7,6.8,20.4,20.4,0,0,1,2.5,10.3A27.5,27.5,0,0,1,1002.9,254.7Zm-25.4-12a8.7,8.7,0,0,0-3.1,5.7h18.5a9,9,0,0,0-3.1-5.7,10.1,10.1,0,0,0-12.3,0Z" fill="#fff"/>
        <path d="M1068.6,232.9,1055,270.4h-10.5l-8.4-23.3-8.7,23.3h-10.5l-13.5-37.5h10.2l8.9,25.4,9.2-25.4h9.2l8.9,25.4,9.2-25.4Z" fill="#fff"/>
      </g>
      <circle cx="626.4" cy="686.1" r="269.3" fill="#76aacc"/>
      <circle cx="626.4" cy="686.1" r="236" fill="url(#Gradient_bez_nazwy_10)"/>
      <path d="M759,698c0-72.7-12.2-150.1-127.5-147.6-48.8,1.1-148.3,101.2-49.8,209.1,16.4,18-36,84.1-50.2,142.8a236,236,0,0,0,94.9,19.8c101,0,187.2-63.5,220.9-152.7C817.7,740.2,759,708,759,698Z" fill="#fec343"/>
      <ellipse cx="634.5" cy="645" rx="38.6" ry="27.3" transform="translate(-119.8 1144.6) rotate(-79)" fill="#fff"/>
      <ellipse cx="564.9" cy="645" rx="18.6" ry="10.7" transform="translate(-137.5 1136.6) rotate(-83.8)" fill="#fff"/>
      <ellipse cx="633.1" cy="652" rx="21.6" ry="15.2" transform="translate(-55.1 1245.5) rotate(-86.6)" fill="#2a2b38"/>
      <path d="M619.8,557.6s18.7-40.2,70.9-28.6c0,0-24.6,18.7-15.1,43.3S619.8,557.6,619.8,557.6Z" fill="#fec343"/>
      <path d="M639.8,562.4s27.8-34.6,75.6-10.9c0,0-29.9,1.7-24.9,38.4C694.1,616.1,639.8,562.4,639.8,562.4Z" fill="#fec343"/>
      <path d="M650.4,560.6s-34.4-35.1-78.2-20.8c0,0,35.7,10.6,27.4,48.3C593.9,613.9,650.4,560.6,650.4,560.6Z" fill="#fec343"/>
      <path d="M626.4,416.8c-148.7,0-269.3,120.6-269.3,269.3S477.7,955.4,626.4,955.4,895.7,834.9,895.7,686.1,775.1,416.8,626.4,416.8Zm0,505.3c-130.3,0-236-105.6-236-236s105.7-236,236-236,236,105.7,236,236S756.7,922.1,626.4,922.1Z" fill="#76aacc"/>
      <path d="M696.4,713.1S813,699.3,884.5,637c57.3-50,92.9,26.8,19.9,61.5,0,0-17.7,7.8,1.3,22.6,20.9,16.4,17.4,39.7,1.8,53.5-61.5,54.5-216.4-3.1-216.4-3.1Z" fill="#fec343"/>
      <path d="M602.9,744.3s-119.7,21.9-209.7-18.1c-72-32-83.8,54.9-.9,67.1,0,0,20,2.3,5.7,22.8-15.8,22.6-5.2,44.6,14.5,53.6C490,904.8,626,800.4,626,800.4Z" fill="#fec343"/>
      <path d="M567.6,709.4a54.3,54.3,0,0,0-17.3,4c3.5,8,1.6,5.9,7.2,14.1,31.6,23.1,67.3-24.5,66.7-32.3C603.8,688.2,584.2,708.2,567.6,709.4Z" fill="#e02735"/>
      <path d="M624.2,695.2c-20.4-7-40,13-56.6,14.2a60.9,60.9,0,0,0-10.8,1.8c1,2.3,1.3,3.2,5.1,8.7,24.2,17.6,50.6-6,61.5-21.5A8.2,8.2,0,0,0,624.2,695.2Z" fill="#c61026"/>
      <path d="M624.5,694c-40.1-31.4-64.4-28.7-88.8-18.3s-46.1-6.9-63.5-8.4-15,86,76.4,62.9C548.6,730.2,627.5,709.7,624.5,694Z" fill="#fe674a"/>
      <path d="M558.7,721.4c-72.1,18.2-88.9-32.4-84.2-53.8l-2.3-.3c-17.6-1.6-15,86,76.4,62.9,0,0,67.4-17.6,75.2-32.6C602.8,709.9,558.7,721.4,558.7,721.4Z" fill="#fe454a"/>
      <g>
        <rect x="40" y="1321" width="1200" height="148" fill="#fafafa"/>
        <g>
          <circle id="Ellipse_2" data-name="Ellipse 2" cx="596.3" cy="1395" r="27.7" fill="#262626"/>
          <path id="Path_21" data-name="Path 21" d="M600.5,1404.6h0a3.3,3.3,0,0,0,3.3,3.3l1-.2c5.3-1.9,12.2-8.8,12.7-12.7s-11.3-12.7-17-12.7-6.8,20.1-9.7,20.1-9.6-4.4-9.6-7.4,6.6-4.8,9.6-7.1a3.1,3.1,0,0,0,1.3-2.5h0a3.3,3.3,0,0,0-3.2-3.3l-1,.2c-5.5,1.8-12.7,8.6-12.7,12.7s11.6,12.7,16.9,12.7,4.1-20.4,9.7-20.2c3.5.1,9.6,4.4,9.6,7.5s-6.7,4.7-9.7,7.1A3.3,3.3,0,0,0,600.5,1404.6Z" fill="#fff"/>
          <path id="Path_22" data-name="Path 22" d="M652.4,1385.6a4.4,4.4,0,0,1,.8,2.5,3.4,3.4,0,0,1-1.4,2.9,6.7,6.7,0,0,1-4.1,1.1H641v-15h6.3a6.6,6.6,0,0,1,3.8,1,3.1,3.1,0,0,1,1.3,2.8,3.4,3.4,0,0,1-.7,2.2,3.2,3.2,0,0,1-1.8,1.2A4.7,4.7,0,0,1,652.4,1385.6Zm-10.3-7.6v6h5.1a5,5,0,0,0,3.1-.8,2.9,2.9,0,0,0,.4-4l-.4-.4a5.8,5.8,0,0,0-3.1-.8Zm8.9,12.4a2.6,2.6,0,0,0,1.1-2.4,2.4,2.4,0,0,0-1.1-2.3,6.4,6.4,0,0,0-3.3-.8h-5.6v6.2h5.6a6.4,6.4,0,0,0,3.3-.7Z" opacity="0.65"/>
          <path id="Path_23" data-name="Path 23" d="M656.9,1377.9a.6.6,0,0,1-.3-.6.8.8,0,0,1,.9-.8h0a.5.5,0,0,1,.6.2.9.9,0,0,1,.3.6.9.9,0,0,1-.9.9h0A.7.7,0,0,1,656.9,1377.9Zm.1,3h1v11.2h-1Z" opacity="0.65"/>
          <path id="Path_24" data-name="Path 24" d="M672.8,1380.9v10a4.8,4.8,0,0,1-4,5.4,3.3,3.3,0,0,1-1.4,0,9.3,9.3,0,0,1-2.9-.5,5,5,0,0,1-2.2-1.3l.6-.8a5.6,5.6,0,0,0,2,1.2,6.9,6.9,0,0,0,2.5.4,3.7,3.7,0,0,0,4.3-4.3v-1.9a4.4,4.4,0,0,1-1.9,1.9,4.9,4.9,0,0,1-2.7.6,5.2,5.2,0,0,1-2.8-.6,4.8,4.8,0,0,1-2-2,5.6,5.6,0,0,1,0-5.6,4.1,4.1,0,0,1,2-1.9,5.3,5.3,0,0,1,2.8-.7,5.5,5.5,0,0,1,2.8.7,5,5,0,0,1,1.9,1.9v-2.5Zm-3.3,9.2a3.7,3.7,0,0,0,1.7-1.6,4.7,4.7,0,0,0,0-4.6,4.4,4.4,0,0,0-1.7-1.6,5.9,5.9,0,0,0-2.3-.5,6.9,6.9,0,0,0-2.4.5,4.9,4.9,0,0,0-1.6,1.6,4.7,4.7,0,0,0,0,4.6,4.1,4.1,0,0,0,1.6,1.6,5.3,5.3,0,0,0,2.4.6,4.6,4.6,0,0,0,2.3-.6Z" opacity="0.65"/>
          <path id="Path_25" data-name="Path 25" d="M677.8,1391.7a5,5,0,0,1-1.9-1l.5-.8a5.1,5.1,0,0,0,1.8.9,5.4,5.4,0,0,0,2.2.4,3.7,3.7,0,0,0,2.5-.6,1.8,1.8,0,0,0,.8-1.5,1.5,1.5,0,0,0-.4-1.1,2.4,2.4,0,0,0-1.1-.6l-1.8-.4-2.1-.5a3.4,3.4,0,0,1-1.4-.9,2.7,2.7,0,0,1-.6-1.7,2.7,2.7,0,0,1,1.1-2.2,4.4,4.4,0,0,1,3.1-.9,6.6,6.6,0,0,1,2.1.3,5.8,5.8,0,0,1,1.8.8l-.5.9a4.8,4.8,0,0,0-1.6-.8,5.5,5.5,0,0,0-1.8-.2,3.7,3.7,0,0,0-2.3.5,1.9,1.9,0,0,0-.8,1.5,1.6,1.6,0,0,0,.4,1.2,2.4,2.4,0,0,0,1.1.6l1.9.5,2.1.5a2.6,2.6,0,0,1,1.3.8,2.7,2.7,0,0,1,.6,1.7,2.5,2.5,0,0,1-1.2,2.2,5.3,5.3,0,0,1-3.2.8A7.5,7.5,0,0,1,677.8,1391.7Z" opacity="0.65"/>
          <path id="Path_26" data-name="Path 26" d="M689.5,1391.4a4.8,4.8,0,0,1-2-2,6,6,0,0,1,0-5.8,4.5,4.5,0,0,1,2-2.1,6.4,6.4,0,0,1,5.7,0,5.8,5.8,0,0,1,2,2.1,6.6,6.6,0,0,1,0,5.8,6.4,6.4,0,0,1-2,2A5.8,5.8,0,0,1,689.5,1391.4Zm5.1-.8a3.7,3.7,0,0,0,1.6-1.7,5.3,5.3,0,0,0,0-4.9,3.5,3.5,0,0,0-1.6-1.6,4.7,4.7,0,0,0-4.6,0,4.9,4.9,0,0,0-1.6,1.6,5.3,5.3,0,0,0,0,4.9,5.2,5.2,0,0,0,1.6,1.7A4.7,4.7,0,0,0,694.6,1390.6Z" opacity="0.65"/>
          <path id="Path_27" data-name="Path 27" d="M710.2,1382a4.7,4.7,0,0,1,1.2,3.5v6.6h-1.1v-6.5a3.7,3.7,0,0,0-.9-2.8,3.4,3.4,0,0,0-2.7-1,3.8,3.8,0,0,0-3.1,1.2,4,4,0,0,0-1.1,3.1v6h-1.1v-11.2h1.1v2.4a3.3,3.3,0,0,1,1.7-1.8,5,5,0,0,1,2.7-.7A4.5,4.5,0,0,1,710.2,1382Z" opacity="0.65"/>
          <g>
            <path d="M651.3,1399.1a8.7,8.7,0,0,0-4.2-1h-6.8v15.7h6.8a10,10,0,0,0,4.2-1,6.8,6.8,0,0,0,3-2.8,8.3,8.3,0,0,0,0-8.1A6.8,6.8,0,0,0,651.3,1399.1Zm-8.1,1.6H647a7.2,7.2,0,0,1,2.9.6,5,5,0,0,1,1.9,1.9,5.7,5.7,0,0,1,.1,5.5,4.9,4.9,0,0,1-2,1.8,5.9,5.9,0,0,1-2.9.7h-3.8Z" fill="#262626"/>
            <path d="M665.9,1402.4a6,6,0,0,0-2.9-.8h-.2a6.1,6.1,0,0,0-3,.8,5.8,5.8,0,0,0-2.2,2.2,7.2,7.2,0,0,0-.8,3.2,6.5,6.5,0,0,0,.8,3.1,6,6,0,0,0,2.3,2.2,8.1,8.1,0,0,0,3.4.8,8.6,8.6,0,0,0,2.7-.5,4.8,4.8,0,0,0,2-1.5l.2-.2-1.6-1.9-.3.3a3.7,3.7,0,0,1-2.8,1.3h-.3a4.1,4.1,0,0,1-2.4-.8,2.9,2.9,0,0,1-1.1-1.8h9v-1a7.1,7.1,0,0,0-.7-3.2A5.8,5.8,0,0,0,665.9,1402.4Zm-6.3,4.2a3.2,3.2,0,0,1,1-1.7,3.6,3.6,0,0,1,2.3-.8,3.5,3.5,0,0,1,2.2.8,3.7,3.7,0,0,1,1,1.7Z" fill="#262626"/>
            <polygon points="679.1 1401.7 675.4 1410.3 671.7 1401.7 668.8 1401.7 674 1413.8 676.6 1413.8 681.9 1401.7 679.1 1401.7" fill="#262626"/>
          </g>
        </g>
      </g>
      <ellipse cx="627" cy="635.7" rx="9" ry="10.8" fill="#fff"/>
      <ellipse cx="565.8" cy="648" rx="9.9" ry="7" transform="translate(-114.5 1174.6) rotate(-86.6)" fill="#2a2b38"/>
      <ellipse cx="562.8" cy="640.6" rx="4.2" ry="5" fill="#fff"/>
    </g>
  </g>
</svg>
