<svg xmlns="http://www.w3.org/2000/svg" xmlns:xlink="http://www.w3.org/1999/xlink" width="610.9" height="538.6" viewBox="0 0 610.9 538.6">
  <defs>
    <linearGradient id="Gradient_bez_nazwy_10" data-name="Gradient bez nazwy 10" x1="286.98" y1="-86.78" x2="295.54" y2="541.44" gradientUnits="userSpaceOnUse">
      <stop offset="0" stop-color="#89aee8"/>
      <stop offset="1" stop-color="#077f9b"/>
    </linearGradient>
  </defs>
  <g id="Warstwa_2" data-name="Warstwa 2">
    <g id="Warstwa_1-2" data-name="Warstwa 1">
      <g>
        <circle cx="291.8" cy="269.3" r="236" fill="url(#Gradient_bez_nazwy_10)"/>
        <path d="M424.5,281.2c0-72.7-12.3-150.1-127.6-147.6-48.8,1.1-148.3,101.2-49.8,209.1,16.4,18-35.9,84-50.2,142.7a235.1,235.1,0,0,0,94.9,19.9c101.1,0,187.2-63.5,220.9-152.7C483.2,323.4,424.5,291.1,424.5,281.2Z" fill="#fec343"/>
        <ellipse cx="299.9" cy="228.1" rx="38.6" ry="27.3" transform="translate(18.7 479) rotate(-79)" fill="#fff"/>
        <ellipse cx="230.4" cy="228.1" rx="18.6" ry="10.7" transform="translate(-21.4 432.4) rotate(-83.8)" fill="#fff"/>
        <ellipse cx="298.5" cy="235.2" rx="21.6" ry="15.2" transform="translate(46.1 519.3) rotate(-86.6)" fill="#2a2b38"/>
        <path d="M285.2,140.8s18.8-40.2,70.9-28.6c0,0-24.6,18.7-15,43.3S285.2,140.8,285.2,140.8Z" fill="#fec343"/>
        <path d="M305.2,145.6s27.8-34.6,75.7-11c0,0-30,1.7-24.9,38.5C359.6,199.2,305.2,145.6,305.2,145.6Z" fill="#fec343"/>
        <path d="M315.8,143.7s-34.4-35-78.2-20.8c0,0,35.8,10.7,27.4,48.4C259.3,197,315.8,143.7,315.8,143.7Z" fill="#fec343"/>
        <path d="M291.8,0C143.1,0,22.5,120.6,22.5,269.3S143.1,538.6,291.8,538.6,561.1,418,561.1,269.3,440.6,0,291.8,0Zm0,505.3c-130.3,0-236-105.7-236-236s105.7-236,236-236,236,105.7,236,236S422.2,505.3,291.8,505.3Z" fill="#76aacc"/>
        <path d="M361.9,296.3S478.4,282.5,550,220.1c57.2-49.9,92.9,26.8,19.9,61.6,0,0-17.8,7.8,1.2,22.6,21,16.4,17.4,39.7,1.8,53.5-61.4,54.4-216.4-3.2-216.4-3.2Z" fill="#fec343"/>
        <path d="M268.3,327.4s-119.7,22-209.6-18c-72-32-83.9,54.9-1,67,0,0,20,2.4,5.7,22.8-15.8,22.7-5.1,44.7,14.5,53.6,77.6,35.2,213.6-69.2,213.6-69.2Z" fill="#fec343"/>
        <path d="M233.1,292.6a54.3,54.3,0,0,0-17.4,4c3.6,8,1.6,5.9,7.3,14.1,31.6,23,67.2-24.5,66.6-32.3C269.2,271.4,249.6,291.3,233.1,292.6Z" fill="#e02735"/>
        <path d="M289.6,278.4c-20.4-7-40,12.9-56.5,14.2a67.9,67.9,0,0,0-10.8,1.7c.9,2.4,1.3,3.3,5,8.8,24.2,17.6,50.7-6,61.6-21.6A7.3,7.3,0,0,0,289.6,278.4Z" fill="#c61026"/>
        <path d="M289.9,277.2c-40-31.4-64.4-28.8-88.8-18.3s-46.1-6.9-63.5-8.5-14.9,86,76.5,62.9C214.1,313.3,292.9,292.8,289.9,277.2Z" fill="#fe674a"/>
        <path d="M224.2,304.6c-72.1,18.2-89-32.4-84.3-53.9l-2.3-.3c-17.5-1.5-14.9,86,76.5,62.9,0,0,67.4-17.5,75.2-32.5C268.3,293.1,224.2,304.6,224.2,304.6Z" fill="#fe454a"/>
        <ellipse cx="292.4" cy="218.9" rx="9" ry="10.8" fill="#fff"/>
        <ellipse cx="231.2" cy="231.2" rx="9.9" ry="7" transform="translate(-13.2 448.4) rotate(-86.6)" fill="#2a2b38"/>
        <ellipse cx="228.2" cy="223.8" rx="4.2" ry="5" fill="#fff"/>
      </g>
    </g>
  </g>
</svg>
