<svg xmlns="http://www.w3.org/2000/svg" width="1018.2" height="985.4" viewBox="0 0 1018.2 985.4">
  <defs>
    <style>
      .cls-1 {
        isolation: isolate;
      }

      .cls-2 {
        fill: #137099;
      }

      .cls-28, .cls-3 {
        opacity: 0.2;
      }

      .cls-3, .cls-8 {
        mix-blend-mode: multiply;
      }

      .cls-4 {
        fill: #12d2e0;
      }

      .cls-5 {
        fill: #f9b060;
      }

      .cls-6 {
        fill: #bfbfbf;
      }

      .cls-7 {
        fill: #88a3aa;
      }

      .cls-8 {
        opacity: 0.3;
      }

      .cls-9 {
        fill: #718589;
      }

      .cls-10 {
        fill: #47312f;
      }

      .cls-11 {
        fill: #e7958b;
      }

      .cls-12 {
        fill: #d8bf2b;
      }

      .cls-13 {
        fill: #2a2b38;
      }

      .cls-14 {
        fill: #fff;
      }

      .cls-15 {
        fill: #2d5b72;
      }

      .cls-16 {
        fill: #1297e0;
      }

      .cls-17 {
        fill: #376f92;
      }

      .cls-18 {
        fill: #e8e8e8;
      }

      .cls-19 {
        fill: #dfdddd;
      }

      .cls-20 {
        fill: #0d2133;
      }

      .cls-21 {
        fill: #fec343;
      }

      .cls-22 {
        fill: #ff9f2e;
      }

      .cls-23 {
        fill: #fe674a;
      }

      .cls-24 {
        fill: #fe454a;
      }

      .cls-25 {
        fill: #ffc933;
      }

      .cls-26 {
        fill: #2ecc71;
      }

      .cls-27 {
        fill: #58f497;
      }

      .cls-28, .cls-31 {
        mix-blend-mode: overlay;
      }

      .cls-29 {
        fill: #24b2db;
      }

      .cls-30 {
        fill: #ffe933;
      }

      .cls-31 {
        opacity: 0.4;
      }
    </style>
  </defs>
  <g class="cls-1">
    <g id="Warstwa_2" data-name="Warstwa 2">
      <g id="Warstwa_1-2" data-name="Warstwa 1">
        <g>
          <ellipse class="cls-2" cx="464.1" cy="914" rx="421.7" ry="71.4"/>
          <g class="cls-3">
            <path d="M42.5,915.4v.3l.3,1.3v.2c.2.5.3,1,.5,1.4h0l.6,1.3a.3.3,0,0,0,.1.2c.2.5.5.9.7,1.4l.2.2.9,1.3h.1a6.9,6.9,0,0,0,1.1,1.3.3.3,0,0,0,.1.2,8,8,0,0,0,1.3,1.3l.2.3,1.4,1.3h.2l1.5,1.3h.2a10.9,10.9,0,0,0,1.7,1.3l.3.3,1.9,1.2c.1.1.2.1.2.2l2,1.2c.1.1.2.1.2.2l2.2,1.2.4.2,2.3,1.3h.3l2.4,1.2.3.2,2.6,1.2.5.2,2.8,1.2.3.2,2.9,1.2h.2l3.1,1.3H79l3.2,1.2.4.2,3.4,1.2h.1l3.6,1.2.5.2,3.6,1.1h.5l7.9,2.4h.5l4.1,1.2h.5l8.8,2.3h.4l4.6,1.1h.4l9.7,2.2h.4l5,1.1h.4l10.6,2.1h.2l5.4,1.1h.4l11.5,2.1h.1l5.8,1h.4l18.5,2.9h.3l19.6,2.7h.2l20.7,2.5h0l21.7,2.3h.1c32,3.1,66.6,5.6,103.3,7.2,7.5-15.1,12.9-24-3.4-43.5s61.2-63,113.5-46.5c20.9,6.5,66.2,40.7,197.6,42.8,108.9,1.7,189.6-26.3,203.5-43h0l-2.7-1.4h-.2l-2.8-1.4h-.4l-2.9-1.4h-.3l-3.3-1.4h-.1c-2.3-1-4.7-1.9-7.2-2.8h-.2l-3.7-1.3-.4-.2-3.8-1.2-.4-.2-4.1-1.3h-.1l-9-2.6a.1.1,0,0,0-.1-.1l-4.6-1.3h-.4l-4.7-1.3h-.3l-4.9-1.2h-.2l-10.7-2.5h0l-5.5-1.2h-.3l-5.5-1.1h-.4l-5.6-1.1H782l-18.4-3.4h-.3l-6.2-1.1h-.4l-6.4-1c0-.1-.1-.1-.2-.1l-20.5-3h-.2l-6.9-.9h-.4l-7-.9h-.3l-22.4-2.7h0l-26-.2a71.4,71.4,0,0,1-25.1-4.5c-46.9-3.7-98.5-6-152.9-6.5H464.1c-32.8,0-64.7.6-95.4,1.8l-10,.4-15,.7L314,847.2l-9.3.7-4.7.3-27.9,2.2-9,.8-8.5.8-4.8.5-8.7.9-16.9,1.9-8.3,1-15.6,2-8.3,1.1-18.8,2.9-14.3,2.4-13.1,2.5-3.8.7-3.3.7-6.3,1.3c-11.5,2.5-22.1,5.1-31.6,7.8-4.3,1.2-8.4,2.5-12.3,3.8s-10.4,3.6-14.9,5.5l-3.8,1.6-5.2,2.5-3.2,1.7-1.5.8L57,895.3a45.5,45.5,0,0,0-7,5.2,33.8,33.8,0,0,0-2.7,2.6,21.1,21.1,0,0,0-2.7,3.6,13.5,13.5,0,0,0-2.2,7.3A6.6,6.6,0,0,0,42.5,915.4Z"/>
          </g>
          <path class="cls-4" d="M185,731.2c-.2,2.5-.2,5.1-.2,7.7a162.4,162.4,0,0,0,15.3,68.8,115.9,115.9,0,0,0,8.4,16c28.6,48.1,80.7,84.2,143.4,97.1H196.8a206.5,206.5,0,0,1-34.9-2.4C82.6,884.1,28.1,813.6,28.1,732.2c0-74.1,45.3-139.3,113.4-176.2a194.6,194.6,0,0,1,47.9-6.4l129.2,4h.1l44,1.4-1.6.2c-91,15.2-161.8,78.9-174.3,158.4h0A128,128,0,0,0,185,731.2Z"/>
          <path class="cls-4" d="M185,731.2c-.2,2.5-.2,5.1-.2,7.7a162.4,162.4,0,0,0,15.3,68.8,115.9,115.9,0,0,0,8.4,16c28.6,48.1,80.7,84.2,143.4,97.1H196.8a206.5,206.5,0,0,1-34.9-2.4C82.6,884.1,28.1,813.6,28.1,732.2c0-74.1,45.3-139.3,113.4-176.2a194.6,194.6,0,0,1,47.9-6.4l129.2,4h.1l44,1.4-1.6.2c-91,15.2-161.8,78.9-174.3,158.4h0A128,128,0,0,0,185,731.2Z"/>
          <path class="cls-5" d="M185,731.2c-.2,2.5-.2,5.1-.2,7.7a162.4,162.4,0,0,0,15.3,68.8,115.9,115.9,0,0,0,8.4,16c28.6,48.1,80.7,84.2,143.4,97.1H196.8a206.5,206.5,0,0,1-34.9-2.4C82.6,884.1,28.1,813.6,28.1,732.2c0-74.1,45.3-139.3,113.4-176.2a194.6,194.6,0,0,1,47.9-6.4l129.2,4h.1l44,1.4-1.6.2c-91,15.2-161.8,78.9-174.3,158.4h0A128,128,0,0,0,185,731.2Z"/>
          <g class="cls-3">
            <polygon points="188.4 704.2 188.4 704.2 188.4 704.2 188.4 704.2"/>
            <path d="M362.7,554.4l-1.6.3c-91,15.2-161.8,78.8-174.3,158.3,10.9-131.6-57.4-150-57.4-150l189.2-10h.1Z"/>
          </g>
          <polygon class="cls-6" points="505.8 509 463.8 509 456.6 497.7 505.8 497.7 505.8 509"/>
          <rect class="cls-7" x="605.7" y="682.6" width="28.1" height="68.46"/>
          <path class="cls-8" d="M605.7,696.9a53.2,53.2,0,0,0,15.1,1.3,59.9,59.9,0,0,0,13-2V682.6H605.7Z"/>
          <path class="cls-9" d="M600,751h34.1a5.3,5.3,0,0,1,5.3,5.3v40.3a0,0,0,0,1,0,0H600a0,0,0,0,1,0,0V751A0,0,0,0,1,600,751Z"/>
          <path class="cls-7" d="M621.4,691.1c20.9-.9,37.4-12.6,36.8-26.1l-75.7,3.4C583.1,681.9,600.5,692,621.4,691.1Z"/>
          <path class="cls-9" d="M621.2,782.1c-55.1,0-110.1,17.5-110.1,52.5v33.5h25.8c0-30.9,4.6-40.2,22-45.6s40.4-8.5,62.3-8.5,43.9,2.9,62.3,8.5,22.1,14.7,22.1,45.6h25.7V834.6C731.3,799.6,676.3,782.1,621.2,782.1Z"/>
          <path class="cls-8" d="M658.2,665l-75.7,3.4c.4,7.9,6.5,14.6,15.7,18.7,16.9-1.2,33.5-2.7,49.9-4.5C654.6,677.9,658.5,671.6,658.2,665Z"/>
          <path class="cls-8" d="M719.1,844.8c0-30.3-47.7-45.5-95.3-45.5s-95.3,15.2-95.3,45.5v23.3h8.4c0-30.9,4.6-40.2,22-45.6s40.4-8.5,62.3-8.5,43.9,2.9,62.3,8.5,22.1,14.7,22.1,45.6h13.5Z"/>
          <path class="cls-8" d="M658.2,665l-75.7,3.4c.3,5.7,3.5,10.8,8.8,14.7,21.1-1.9,42-3.8,62.5-5.9A17.9,17.9,0,0,0,658.2,665Z"/>
          <path class="cls-10" d="M674.5,281.3a14,14,0,0,0-14-12.2h-.1a1.4,1.4,0,0,1-1.3-1.7,13.2,13.2,0,0,0,.1-5.6,13.8,13.8,0,0,0-27.3,2.5,13.3,13.3,0,0,0,1.7,6.7,13.8,13.8,0,0,0,5.5,26.2,13.4,13.4,0,0,0,7-1.6,14.4,14.4,0,0,0-.9,5.1,13.6,13.6,0,0,0,4.7,10.3l-6.2,3.1s8.2,16.4,12.8,19.1c-3-7.5-1.9-13.4-.6-16.8a3.3,3.3,0,0,1,3-2h0a13.7,13.7,0,0,0,13.8-13.7,14,14,0,0,0-1.2-5.8,3.7,3.7,0,0,1,.3-3.8A13.8,13.8,0,0,0,674.5,281.3Z"/>
          <path class="cls-6" d="M663.6,345.4s10.5-6,15.9-2.8-8.5,25.5-8.5,25.5-32.6,44.4-42.9,31.4C628,377.6,663.6,345.4,663.6,345.4Z"/>
          <polygon class="cls-11" points="684.7 360.6 656.7 333.5 628.8 352.2 637.9 403.8 684.7 360.6"/>
          <rect class="cls-12" x="505.1" y="478.9" width="17.8" height="30.12"/>
          <path class="cls-11" d="M462.4,810.5l-5.8,15.6c4.8,6.8,10.3,9.4,17.2,10l7.8-13.7Z"/>
          <g>
            <path class="cls-13" d="M489.2,828.4c-1.5,4.4-5.1,9.3-5.1,11.9.3,6.8,1.3,14.7-7.1,21.5l-2.1,8.5L370.5,845.4s2-21.8,14.1-19.9c0,0,43.2-.6,53.7-7.6,13.5-9.2,1.7-22,9.5-23.1s13.3,10.6,9,19.2c-7.4,14.6,25.5,22.3,28.7,12.5C487.2,827.4,487.6,827.7,489.2,828.4Z"/>
            <path class="cls-14" d="M402,824.8h0l9.1,6.8a.6.6,0,0,0,1-.2l3.6-7.7a1,1,0,0,1,.9-.2l11.5,6.1a.6.6,0,0,0,.8-.3l4-8.9a.6.6,0,0,1,.7-.3l8.7,2.1a.7.7,0,0,0,.7-.6l.8-9.5a.6.6,0,0,1,.8-.6,21.2,21.2,0,0,1,11.5,9.4c4.9,8.2,5.4,19.7,1.6,34.2a.7.7,0,0,1-.8.5h0a.7.7,0,0,1-.5-.9c3.7-14.1,3.2-25.3-1.5-33.2-3.1-5.1-6.8-7.3-9-8.1a.7.7,0,0,0-.9.5l-.7,9.5a.6.6,0,0,1-.8.6l-8.9-2.2a.7.7,0,0,0-.7.4l-4.1,9a.6.6,0,0,1-.8.3l-11.5-6.1a.7.7,0,0,0-.8.3l-3.8,8.4a.6.6,0,0,1-1,.2Z"/>
            <path class="cls-14" d="M476.9,862.1c-1.9-.4-26.4-5.4-106-19.5h0a1.1,1.1,0,0,0-.1.5h0a.9.9,0,0,0-.1.5h0a4.3,4.3,0,0,1-.1.5h0v.4h0a4.5,4.5,0,0,0-.1.8l104.4,24.9Z"/>
          </g>
          <g class="cls-3">
            <path d="M459.4,818.7a23.5,23.5,0,0,0,19.3,8.9l2.9-5.2-19.2-11.9Z"/>
          </g>
          <path class="cls-15" d="M465.3,798.2l-6.1,16.4c3.6,6.1,12.9,11.9,22.8,10.2l7.5-13.5Z"/>
          <g class="cls-3">
            <path d="M486.4,816.9l3.1-5.6L472,801.8l-7.8-.6h0v.2C464.5,802,470.6,811.9,486.4,816.9Z"/>
          </g>
          <path class="cls-11" d="M627.4,834l24.1,23.5c8.8-2.9,8.1-9.2,12-16.1l-20.4-22.1Z"/>
          <g class="cls-3">
            <path d="M627.5,834.1l6.5,6.3c6.9-2.8,12.4-7.2,15.6-14l-6.5-7Z"/>
          </g>
          <path class="cls-15" d="M611.2,824.4l15.4,15.4c11.6-3.1,20.4-9.2,23.5-21.4l-11.8-15.3Z"/>
          <g class="cls-3">
            <path d="M620.9,816.8,614.8,828h0c.2-.1,21.6-5.3,29.3-17.3l-5.8-7.6Z"/>
          </g>
          <path class="cls-16" d="M747,330.1h0A40.5,40.5,0,0,0,709.1,373l13.6,219.8L499.6,632.5l5.7,55.8c89.4-3,172.1-8.6,248.5-27.5,17.4-4.3,31.7-16.3,30.5-34.3L765,345.9A17,17,0,0,0,747,330.1Z"/>
          <path class="cls-13" d="M662.6,823c3.4,3.4,6.2,9,8.6,10.1,6.3,3,14,5.6,16.3,16.6l6.9,6-46,60.1a14.9,14.9,0,0,1-11.2,5l-34.6-.4-1.1-5.2a10.2,10.2,0,0,1,7.8-11.9l6.1-1.3a7.3,7.3,0,0,0,4.9-3.6c3.5-6.1,10.7-20.8,9.1-33.6-2.1-16.7-19.4-11.8-16.8-19.4s15.9-7.3,21.8.6c10,13.5,32.3-13,24.8-20.5C660.8,824.3,661.3,824.1,662.6,823Z"/>
          <path class="cls-14" d="M618.6,901.3h0l10.8-5.3a.6.6,0,0,0,.3-.9l-4.1-6.7a.8.8,0,0,1,.2-.9l9.6-7.9a.6.6,0,0,0,.1-.9l-5.7-7.7a.7.7,0,0,1,0-.9l5.4-7a.8.8,0,0,0-.2-1l-8.1-5.1a.7.7,0,0,1-.1-1,20.5,20.5,0,0,1,13.6-6.1c9.8-.7,20.6,4.1,32.1,14.3a.7.7,0,0,1,0,1h0a.6.6,0,0,1-.9,0c-11.3-9.9-21.7-14.6-31.1-14-6.2.5-9.6,2.8-11.4,4.4a.7.7,0,0,0,.1,1.1l8.1,5.1a.7.7,0,0,1,.1,1l-5.6,7.3a.6.6,0,0,0,0,.8l5.9,7.8a.7.7,0,0,1-.1.9l-9.6,7.9a.6.6,0,0,0-.1.9l4.7,7.2a.8.8,0,0,1-.4,1Z"/>
          <rect class="cls-5" y="509.3" width="592.7" height="53.73" rx="26.9"/>
          <g class="cls-3">
            <path d="M710.1,365.4a31.9,31.9,0,0,0-.3,7.6l13.6,219.8L503.9,631.9a48.7,48.7,0,0,0-3.2,4.7l5.3,51.7h.4c12.1-1.3,24.7-1.3,37.1-1.5,10.2-.4,20.3-1,30.4-1.6-1.2-3.1-3.8-9.4-4.6-12.3a1.4,1.4,0,0,1-.2-.6,13.2,13.2,0,0,1,12.6-16.2c33.7-1,120.8-5.3,141.1-23.2,10-8.9,15.8-18.4,18.6-27.6l2.9.9c4.4,1.6,4-15.1,4.3-19.8,2.6-46.8-1.8-145.4-11.4-188.3C734.5,386.5,727,377.1,710.1,365.4Z"/>
          </g>
          <path class="cls-17" d="M502.1,663.7,464,800c-1.7,3.5,24.4,16.5,26.1,13.1,27.3-33.1,39.8-54.7,49.1-94.1Z"/>
          <g class="cls-3">
            <path d="M490.6,705c9.6,17.1,22.7,34.7,36.7,51.2A226.4,226.4,0,0,0,539.2,719l-37.1-55.3Z"/>
          </g>
          <path class="cls-17" d="M708.8,620.7c43.4-38.4,6.3-86.4,6.3-86.4-42.5,12.5-231.6,37-235.5,112.5C476.3,710.6,594.1,813.6,610,827.3a4.4,4.4,0,0,0,4.1.9c12.3-3.7,20.3-12.3,25.9-20.7a4.4,4.4,0,0,0-.2-5.2c-11.3-14.7-70.5-93-84.5-141.6-.1-.2-.1-.4-.2-.6a13.3,13.3,0,0,1,12.6-16.2C601.4,642.9,688.5,638.6,708.8,620.7Z"/>
          <path class="cls-14" d="M608.4,920.5l28.8.3h.8l1.5-.2a14.8,14.8,0,0,0,8.9-4.8h0l46-60.1-6.6-5.8-31,47.7c-6.9,10.6-15.5,17.1-31.2,17.2l-24,.4h-.1l.6,2.6.5,2.6Z"/>
          <g class="cls-3">
            <path d="M711.4,618.3l1.2-1.2.7-.7,1.1-1.1a2.7,2.7,0,0,1,.7-.8l.9-1.1.7-.8.8-1,.7-.9.7-.9.7-.9a3.6,3.6,0,0,1,.7-1l.6-.9.6-.9.5-1,.6-.9a3.1,3.1,0,0,0,.5-1,4.1,4.1,0,0,0,.5-.9,3.1,3.1,0,0,0,.5-1,5.6,5.6,0,0,0,.5-.8,10.4,10.4,0,0,1,.4-1,3.6,3.6,0,0,0,.4-.9c.2-.3.3-.7.5-1l.3-.8c.1-.4.3-.7.4-1.1l.3-.8a4.9,4.9,0,0,1,.4-1.1,1.9,1.9,0,0,1,.2-.7l.3-1.2a1.4,1.4,0,0,0,.2-.7l.3-1.1c.1-.2.1-.5.2-.7a5,5,0,0,0,.2-1.2c.1-.2.1-.4.2-.6s.1-.8.2-1.2.1-.4.1-.6.1-.9.2-1.3a.9.9,0,0,1,.1-.5c0-.5.1-.9.1-1.3v-.5a6.2,6.2,0,0,0,.1-1.3.9.9,0,0,0,.1-.5v-1.3a.9.9,0,0,1,.1-.5v-1.7a6.6,6.6,0,0,0-.1-1.4v-2c-.1-.5-.1-1-.2-1.5v-.2c0-.5-.1-1-.1-1.5v-.2a7.7,7.7,0,0,1-.2-1.5.1.1,0,0,1-.1-.1,7.7,7.7,0,0,0-.2-1.5h0l-.3-1.6h0l-.3-1.6L715.5,560l-6.3,15.9s-4.1,26.3-28.4,34.3c-33.8,11-119.1,17.7-125.2,42.4h0a13.3,13.3,0,0,1,12.1-8.7c23.3-.7,72.1-2.9,106.8-10.2,15.5-3.8,28.1-8,33.7-12.5l.6-.5,2-1.8Z"/>
          </g>
          <path class="cls-18" d="M618.1,549.1S612,557,612.6,560c20.6,33.3,67.4,33.8,113,48.4a4.2,4.2,0,0,0,5.3-2.7c2.3-6.8-2.4-16.3-2.4-16.3Z"/>
          <g class="cls-3">
            <path d="M619.9,553.2a8.1,8.1,0,0,1-2.2-3.6h0c11.3,40.7,78.2,35.6,114.1,50.5a43.9,43.9,0,0,0-1.5-6C697.6,582.9,648.7,589.7,619.9,553.2Z"/>
          </g>
          <path class="cls-18" d="M734.6,574.2c2.6-46.7-1.8-145.3-11.4-188.2-3.4-15-14.8-26.1-43.7-43.4,2.8,9.1-37.4,50.9-50.6,50.7-7.7,33.7,22.8,83.4-5,117.2-9.7,16-12.6,37.5-4,42.7,28.8,36.5,77.7,29.7,110.4,40.9C734.8,595.6,734.4,579,734.6,574.2Z"/>
          <g class="cls-3">
            <path d="M630.1,360.4c21.6-6.1,25.3-16.6,25.3-16.6-7.1,7.4-25.7,9.6-25.7,9.6s-.4-.4-.7-.2Z"/>
          </g>
          <path class="cls-11" d="M656.7,333.5s-6.3-9.1-7.9-13.4a6.1,6.1,0,0,1,1.2-6.7,12.8,12.8,0,0,0,4.3-9.4,13.2,13.2,0,0,0-19.7-11.7l-9.7-19.1-58.2,10.6s23.5,73.5,62.2,70.2S656.7,333.5,656.7,333.5Z"/>
          <g class="cls-3">
            <path d="M631.8,310.4c6.5-.5-1.5-13.3,1.4-21.3.2-.7,1.9-1.2,0,0L623.5,270l-58.3,10.5a188.1,188.1,0,0,0,9,22.1l1.7-1.1a6,6,0,0,1,7,.2,18,18,0,0,0,11.1,3.9c5.7,0,11.2-2.5,14.2-6.8,4.4-6.4,8.3-3.7,10.5-1.7S627.9,310.7,631.8,310.4Z"/>
          </g>
          <path class="cls-10" d="M634.5,273.7v-.6A12.5,12.5,0,0,0,633,267a13.8,13.8,0,1,0-21.4-16.5,14.1,14.1,0,0,0-10.6-5,13.7,13.7,0,0,0-13.4,10.8,11.8,11.8,0,0,0-8.1-.7c-13.6,4.6-7.8,14.3-10.2,17.5s-15,.7-14.3,15.4c.4,6.4,5.9,11.5,12.3,12.1a13.4,13.4,0,0,0,9.5-2.5,5.7,5.7,0,0,1,7,.2,18.2,18.2,0,0,0,11.1,3.8c5.8,0,11.4-2.3,14.2-6.8s8.4-3.6,10.6-1.7,9.1,13.6,13,13.3c6.5-.5-4-15,6.9-21.5C643.8,282.9,637.9,276.5,634.5,273.7Z"/>
          <path class="cls-11" d="M505.1,485.6c-18.1-6.1-51,2.7-51.5,13.1-.1,2.7.1,4.7.8,6.1,1.5,3.6,4.3,4.2,9.3,4.2h.1c14-14.7,34.8-10.1,41.3,0Z"/>
          <g class="cls-3">
            <path d="M455.7,507c1.7,1.6,4.2,2,8,2h.1c12.1-13.6,33.3-11.4,41.3,0V498.3C491.1,490.8,464.1,493.9,455.7,507Z"/>
          </g>
          <path class="cls-6" d="M293.1,368.7h99.6a6.2,6.2,0,0,1,6,3.8L448.9,509H330.2L287,375.8C285.8,372.2,288.9,368.7,293.1,368.7Z"/>
          <path class="cls-19" d="M286.7,368.7h99.7a6.3,6.3,0,0,1,6,3.8L442.6,509H323.9L280.7,375.8C279.5,372.2,282.5,368.7,286.7,368.7Z"/>
          <circle class="cls-14" cx="358.3" cy="438.8" r="13.9"/>
          <path class="cls-20" d="M527.8,246.6a21.4,21.4,0,0,1-1.3,1.9,4.4,4.4,0,0,0,1.5,6.1l13.7,8a4.3,4.3,0,0,0,5.8-1.4h0a4.3,4.3,0,0,0-.9-5.9L534,245.6A4.4,4.4,0,0,0,527.8,246.6Z"/>
          <path class="cls-20" d="M520.1,284a19.5,19.5,0,0,0,.2,2.3,4.3,4.3,0,0,0,4.9,3.8l15.6-2.1a4.6,4.6,0,0,0,3.8-4.7h0a4.5,4.5,0,0,0-4.5-4.1l-15.8.3A4.3,4.3,0,0,0,520.1,284Z"/>
          <path class="cls-20" d="M528,314l1.3,2a4.4,4.4,0,0,0,6.2.9l12.6-9.4a4.3,4.3,0,0,0,1-5.9h0a4.4,4.4,0,0,0-5.8-1.5l-13.7,7.9A4.4,4.4,0,0,0,528,314Z"/>
          <g>
            <path class="cls-21" d="M390.7,877.9c5.2-.5,4.4,10,18.7,6.2a22.5,22.5,0,0,1-2.9-11.2,23,23,0,1,1,42.4,12.2c2.5,1.3,7.2,5.1,7.2,15.6,0,8.8-9.6,18.4-36.8,17.7C386.8,917.6,378.4,879.2,390.7,877.9Z"/>
            <path class="cls-22" d="M416.3,867.6c.1,13.8,12.4,20.4,12.4,20.4-7.7-.2-15-.7-19.3-3.9a22.5,22.5,0,0,1-2.9-11.2,23,23,0,0,1,22.9-23S416.1,853.8,416.3,867.6Z"/>
            <ellipse class="cls-13" cx="436.8" cy="872.3" rx="3.4" ry="4.1"/>
            <path class="cls-23" d="M451.8,869.4s3.7,6,6.8,7.2-.7,4.3-4.3,5.6-10.1-1.4-10.1-1.4C448.4,878.6,450.8,873.9,451.8,869.4Z"/>
            <path class="cls-24" d="M454.3,880.9a8.5,8.5,0,0,0,4.7-4.1c.8,1.1-1.4,4.2-4.7,5.4s-10.1-1.4-10.1-1.4a5.7,5.7,0,0,0,1.3-.8C447.6,880.7,451.8,881.8,454.3,880.9Z"/>
            <path class="cls-22" d="M427.1,893.2a7.2,7.2,0,0,1,0,14.4c-12.7.3-20-4.3-24.1-13.5a2.4,2.4,0,0,1,3-3.2C416,894.8,425.8,893.2,427.1,893.2Z"/>
            <path class="cls-21" d="M426,890.5a7.2,7.2,0,0,1,7.2,7.2,7.3,7.3,0,0,1-7.2,7.1c-12.6.3-20-4.3-24.1-13.5a2.4,2.4,0,0,1,3-3.2C415,892,424.7,890.5,426,890.5Z"/>
            <path class="cls-22" d="M456,899.8c-4.1,6.9-15,13.1-36.4,12.5-19.7-.4-30.9-15.1-34.2-26.9-.8,11.5,10,32.4,33.9,33,27.2.7,36.8-8.9,36.8-17.7C456.1,900.4,456,900.1,456,899.8Z"/>
          </g>
          <g class="cls-3">
            <path d="M623.9,510.5c-.9,1.5-1.8,3-2.6,4.6,77.9-7.1,108.3-117.9,79.1-131.9-40.2-19.3-33.3,29.7-66.1,71.3C637.1,474.4,637.2,494.3,623.9,510.5Z"/>
          </g>
          <path class="cls-25" d="M695.2,377c30.1,14.4-3.3,132.3-87.1,132.3-74.1,0-89.3-.3-89.3-.3V479.2s2.6-5,9.6-4.3a8.7,8.7,0,0,1,4.6,2.7,4.4,4.4,0,0,0,5,.8c2.6-1.2,4.9-2.8,8-2.7,7.3.2,15.2,5.6,19.2,5.5,18.5-.5,31.5-6.7,41-11.1C666,427.3,647.5,354.1,695.2,377Z"/>
          <g>
            <path class="cls-17" d="M206.2,509H148l-7.9-50.2c-1-6,3-11.6,8.3-11.6h57.3c5.3,0,9.4,5.6,8.4,11.6Z"/>
            <g class="cls-3">
              <path d="M162.2,478.1c-1-24.8,14-30.9,14-30.9H148.4c-5.3,0-9.3,5.6-8.3,11.6L148,509h15.8C163.6,507.4,163,499.7,162.2,478.1Z"/>
            </g>
          </g>
          <g>
            <g>
              <path class="cls-26" d="M174.8,447.2s-17.2-34,25.2-49.3C200,397.9,211.1,443.7,174.8,447.2Z"/>
              <path class="cls-27" d="M198.8,400.8s4.2,17.4-1.1,31.5c7.1-14.5,2.3-34.4,2.3-34.4-16.2,5.9-23.7,14.5-26.8,22.9C176.9,413.3,184.4,406,198.8,400.8Z"/>
              <g class="cls-3">
                <path d="M188.1,417.6s-12.8,11.8-13.2,29.4C174.9,447,188.1,429.5,188.1,417.6Z"/>
              </g>
            </g>
            <g>
              <path class="cls-26" d="M175,447.2s-28.3-2.5-21.3-35.5C153.7,411.7,187.1,422.7,175,447.2Z"/>
              <path class="cls-27" d="M155,413.6s12.7,4.2,19.6,13.2c-6.4-10.3-20.9-15.1-20.9-15.1-2.7,12.7-.2,20.8,3.9,26.1C154.3,432.5,152.6,424.8,155,413.6Z"/>
              <g class="cls-3">
                <path d="M161.5,427.1s2.5,12.7,13.5,20C175,447.1,169.1,431.8,161.5,427.1Z"/>
              </g>
            </g>
          </g>
          <path class="cls-21" d="M535.1,95.9C525.8,88.5,514,85,502.2,83.1c-41-6.7-84.3,4.2-118,28.2-19.8,14.1-33.6,35.2-37.5,59.1-1.7,10.2-1.7,20.8,2.4,29.2,6.6,13.4,19.1,22.8,33.3,27.8A61.3,61.3,0,0,1,408.7,246l3.9,4.5a3.8,3.8,0,0,0,3.4,1.4c1.8-.3,2.2-1.7,2.5-3s.7-2.9,1.1-4.4a22,22,0,0,1,16.5-15.7,280.8,280.8,0,0,0,27.2-7.6c28.2-9.2,57.2-21.4,75.1-45S558.2,114.5,535.1,95.9Z"/>
          <g class="cls-28">
            <path d="M535.1,95.9l-2-1.5c3.4,21.9,1.8,44-9.1,63.1-14.6,25.7-43.1,40.1-70.6,51-10.1,4-24.9,5.3-32.8,12.7s-7.2,18.7-8.6,28.6c1.2,1.2,2.8,2.2,4.2,2a1.2,1.2,0,0,0,.9-.3h0l.4-.3.3-.4v-.2c.1-.1.1-.2.2-.4h.1c0-.2.1-.3.1-.4s0-.2.1-.2a1.3,1.3,0,0,1,.1-.6c.4-1.4.7-2.9,1.1-4.4a22,22,0,0,1,16.5-15.7,280.8,280.8,0,0,0,27.2-7.6c28.2-9.2,57.2-21.4,75.1-45S558.2,114.5,535.1,95.9Z"/>
          </g>
          <path class="cls-14" d="M407.8,187.2c-13.5-5.5,5-44-12.3-36.6-3.2,10.4,6.2,13.6-11,24.3-1.7-7.1,4-14.5-.1-21.2-4.6-4.2-11.8-1.7-8.1,4.6,1.3,4.9,1.1,11.9,1.9,19.4-17.3,0-15.4,10.2.4,7.1.3,5,.4,8.7.4,11-5.6,5.6,8.9,8.6,7.9,0-4.4-11.2.6-15.2,8.9-21.4a49,49,0,0,0,2.6,15.2C400.5,195,409.9,193.3,407.8,187.2Z"/>
          <path class="cls-14" d="M441.4,140c-3.2-4.4-39.9,2-35,10.2s10.2-4.8,18.5-3.4c2.8,5.3,1.6,43.3,9.5,31.4,3.1-7.3-3.7-25.3-1.7-32.4C436.3,145.5,442.5,145.2,441.4,140Z"/>
          <path class="cls-14" d="M488.9,152.8c-.2-.7-.8-1.7-3.1-4.1-3.9-29.4-11.7-32.6-20.7-3.5-4-6.6-3.3-20.5-11.8-21.7a3.2,3.2,0,0,0-3.2,3.8c-1.8,9.9-14.6,56.1,1,42.1,3.6-1.6,1.4-7-.2-10,.4-6.1,2.4-16.8,3.8-23,3.6,6.4,2.7,22.1,13,19.4,3.8-3.6,4.7-12.5,8.1-19.1,3.1,6.1.7,21.7,9.2,21.8C487.4,158.7,489.4,155,488.9,152.8Z"/>
          <path class="cls-14" d="M523.9,129.2c-2.8-3.8-6.6-1.3-8.3,2.4-6.2,10.3-9.5,12.7-10.9,13.3-8,0-6.4-23.7-4.3-27.5,6.1-4.7-4-15.2-6.3-6.9C485.3,140.9,502.6,175.7,523.9,129.2Z"/>
          <path class="cls-29" d="M798.5,31.9l-.5-.3c-83.2-53.7-186.4-34.4-203.8,24-16.6,56,35.9,89.1,97.2,96.1a11.6,11.6,0,0,1,8.4,17.6l-4.2,6.9a1.8,1.8,0,0,0,2.2,2.5c16.9-6.2,33.4-14.2,48.1-24.5a31.2,31.2,0,0,1,11.7-5,165.8,165.8,0,0,0,31.6-9.5C834.5,120.8,839.7,58.6,798.5,31.9Z"/>
          <g class="cls-28">
            <path d="M823.4,102.9c0-.1.1-.2.1-.3l.9-3.3c.1-.1.1-.2.1-.4a29.9,29.9,0,0,0,.8-3.2.9.9,0,0,1,.1-.5c.2-1.1.4-2.1.5-3.2a.7.7,0,0,1,.1-.5l.3-3.3v-.5c.1-1.1.2-2.2.2-3.3V84c0-1.2,0-2.3-.1-3.4v-.3a19.8,19.8,0,0,0-.3-3.5,12.3,12.3,0,0,0-.2-2l-.3-2-.6-2.9c0-.2-.1-.4-.1-.6s-.5-1.8-.7-2.7-.1-.4-.2-.5a25.8,25.8,0,0,0-.8-2.6.4.4,0,0,0-.1-.3c-.3-.9-.6-1.8-1-2.7s-.1-.4-.2-.6l-1.2-2.7c0-.1-.1-.2-.1-.3s-.8-1.6-1.3-2.4-.1-.3-.2-.5l-1.5-2.5-.3-.5-1.6-2.6h0L814,46.2l-.4-.6-1.8-2.2-1.4-1.5L808,39.4a.8.8,0,0,1-.4-.4l-2.5-2.2-.5-.4L802,34.3l-.5-.3-3-2.1-.5-.3-4.8-3-.5-.3c-1.5-.9-3.1-1.9-4.7-2.7h0c15.5,15.3,31,35,31.8,54.9,1.2,26.5-22.1,48.8-47,58.2-6.4,2.4-15,3-21.1,6.1-11,5.5-28.9,20.3-55,29.7a17.4,17.4,0,0,0-1.1,1.8,1.7,1.7,0,0,0,2.1,2.4h.8l4.6-1.8,1.5-.6,4.9-2,1.4-.6,4.9-2.2,1.3-.6,5-2.4,1.1-.6,5-2.6.3-.2.7-.3,5-2.9.8-.5,5.1-3.1a1,1,0,0,0,.5-.4l5.3-3.5a27.7,27.7,0,0,1,5.6-3.1l1-.4a24.6,24.6,0,0,1,5.1-1.5l4.1-.9,5.5-1.3,1.3-.3,5.4-1.5c4-1.2,7.8-2.5,11.6-4l3.7-1.5,2.4-1,.7-.4,1.7-.8.7-.4,1.6-.9.7-.4a36.2,36.2,0,0,0,4.1-2.7l.7-.4,1.3-1,.7-.6,1.3-1,.6-.5,1.8-1.6.5-.5,2.4-2.5,2.2-2.4.3-.4c.6-.8,1.3-1.6,1.9-2.5l.3-.5,1.8-2.5.2-.4,1.7-2.8c.9-1.8,1.8-3.6,2.6-5.4a15.4,15.4,0,0,0,.8-1.9Z"/>
          </g>
          <path class="cls-14" d="M661.5,97.5c-10.2-1-14.8-10.3-14-18.5,1.9-19.7,21.1-31.8,30.8-30.9,14.9.7,16.2,20.1,6.3,21.3-1.5-.2-3.8-1.3-3.3-3.2,6.7-24.5-25.8-2.6-25.3,11.9-1.9,16.9,13.9,12.8,24.9,7.4C691.8,90.5,674.6,98.7,661.5,97.5Z"/>
          <path class="cls-14" d="M699.6,104.4c-16.7-1.9-13.2-20.8-4.7-17.1,1.8,2.1-.3,6.9,1.7,8.3,2.8,3.3,12.5,1.6,14.1-4,.1-11.4-12.7-39.3,4.6-43.1,8.9,1.3,24.6,20.1,14.5,22.1-4.2-.2-6.8-9.2-10.3-11-.5-.4-1.5-1.5-1.9-1.5s-1.5,3.1-2.1,4.1a65.7,65.7,0,0,0,2.2,24.5c.9,4.1,1.6,7,1.4,8.9C718.5,102.4,702.5,104.7,699.6,104.4Z"/>
          <path class="cls-14" d="M746.3,108.7c-10-1-17.1-5.7-18.9-9.9h0c-1.6-2.1,1.4-14.8,6.1-9.5.8,2.1-1.8,5-1,7s14.3,10.3,14.9,2-.6-25.6.4-34.5,4.6-14.2,11.2-8.9c8.3,2.6,11.5,16.5,11.2,19.1-.9,7.3-9.3,5.1-9-1.1a19.6,19.6,0,0,0-4.4-11.4c-3.4,8.3-2.1,21-2.1,31.9S756.2,109.7,746.3,108.7Z"/>
          <path class="cls-30" d="M1017.3,263.8a48.2,48.2,0,0,0-5.3-16.2c-15.5-27.5-65.3-53.7-93-69.4s-60.7-25.3-91.6-17.4-49.3,37.5-53.9,69.1c-3,20.5-1.1,39.2,13.3,57.7a52.2,52.2,0,0,1,9.7,20.1A97.8,97.8,0,0,0,811.7,341a2.4,2.4,0,0,0,1.5,1.1c1.1.1,1.7-1.3,1.8-2.5.5-3.4.7-6.8.9-10.3a8.7,8.7,0,0,1,13.2-7c30.7,18.5,65.7,29.3,101.4,27.4,17.6-.9,35.2-4.6,50.6-13s28.4-22.1,33.9-38.8C1018.6,287,1018.9,275.2,1017.3,263.8Z"/>
          <path class="cls-14" d="M849.5,277c-11.8-6.2-13.6-34.1-.5-34.8,4.3,1.9.4,5.1-1.1,7.2s-1.2,13.9,2.4,18.4c1.4,1.4.7,1.4,2.4,0,3.5-3.9,15.1-18.1,21.4-29.5-3.8-1.1-6.3-2.4-10.1-2.5-7.5-2.9-12.2-8.9-5.4-11.7a1.8,1.8,0,0,1,2.1.2c2.9,2.3,44.2,17.7,41,25.6a3,3,0,0,1-3.4,1.2c-4.4-3.5-7.2-6.7-17.3-10.3-6.1,10.1-19.5,27.9-24.2,33.4C853.8,277.7,850.9,277.4,849.5,277Z"/>
          <path class="cls-14" d="M886.4,303.6c-6.7-2.1-12.3-10.3-7.5-15.7,1-2,3.3-3.3,5.3-2.6s2.4,1.7,1.9,3c-5.2,10.5,10.5,11.3,13.5,5.5,2.5-10.9-3.6-40.1,13.7-40,8,2.7,14.1,19,13.2,21.7s-3.4,2.5-4.2,2.5c-2.4.1-2.5-3.1-3.5-4.8-1.6-4-2.9-7-5.3-9.6-1.2,0-2.1,2.6-2.9,3.3a61.6,61.6,0,0,0-3.2,23.8c0,4,.1,6.9-.5,8.7C904.8,305.7,889.1,304.5,886.4,303.6Z"/>
          <g class="cls-31">
            <path d="M1018,270.3c-.2-2.2-.4-4.3-.7-6.5a50.8,50.8,0,0,0-1.9-8.4,32.5,32.5,0,0,0-1.5-4l-.9-1.9a11.4,11.4,0,0,0-1-1.9l-1-1.7c0-.1-.1-.1-.1-.2,1.3,15.3,1.5,44.5-14.7,62-53.1,57.3-107.5,22.1-149.6,6.4-10.7-4-31.8-2.6-37.5,8.4a27.1,27.1,0,0,0-3.3,9,83.8,83.8,0,0,0,5.9,9.5,2.4,2.4,0,0,0,1.5,1.1,1,1,0,0,0,1-.4l.3-.4a3.1,3.1,0,0,0,.5-1.7l.3-2.5.3-2.6.3-5.2a8.7,8.7,0,0,1,13.2-7,195.2,195.2,0,0,0,55.3,23l3.2.7a158.1,158.1,0,0,0,42.9,3.7c3.3-.2,6.6-.4,9.9-.8s6.5-.9,9.8-1.5a113.7,113.7,0,0,0,19-5.2l3-1.2a91.3,91.3,0,0,0,8.9-4.3l5.7-3.4a80.6,80.6,0,0,0,12.7-10.5,65.4,65.4,0,0,0,15.5-24.9,59.3,59.3,0,0,0,2.1-8.3,68.8,68.8,0,0,0,1.1-12.9C1018.2,274.6,1018.1,272.4,1018,270.3Z"/>
          </g>
        </g>
      </g>
    </g>
  </g>
</svg>
