<svg id="Warstwa_1" data-name="Warstwa 1" xmlns="http://www.w3.org/2000/svg" width="512" height="512" viewBox="0 0 512 512">
  <g>
    <path d="M312.1,70.3c29.6-1.5,58.8,11.2,80.9,30.9s37.4,46.1,47.9,73.8c6.7,17.9,11.5,36.5,13.2,55.5,6.7,75.6-42.9,152.6-114.4,177.8-26.5,9.3-54.9,12-82.9,14.1-43.9,3.3-89.9,4.9-130.2-13S53.8,348.5,62.5,305.3c4.1-20.5,16.6-38.3,29.2-55,39.4-52.6,83-103,136-142.1C227.7,108.2,270.4,72.4,312.1,70.3Z" fill="#fff3e0"/>
    <circle cx="406.7" cy="79.3" r="7.7" fill="#fff3e0"/>
    <circle cx="68.1" cy="410.2" r="7.7" fill="#fff3e0"/>
    <circle cx="130.7" cy="158.3" r="11.1" fill="#fff3e0"/>
    <circle cx="76.9" cy="210.7" r="19.6" fill="#fff3e0"/>
    <circle cx="416.6" cy="398.2" r="7.7" fill="#fff3e0"/>
  </g>
  <g>
    <g>
      <g>
        <g>
          <path d="M173,371.6H130.8V191c0-11.6,9.5-28.9,21.1-28.9h0c11.7,0,21.1,17.3,21.1,28.9Z" fill="#f7bb7f"/>
          <path d="M175.7,374.3H128.2V191c0-12.4,10.2-31.6,23.7-31.6s23.8,19.2,23.8,31.6ZM133.5,369h36.9V191c0-10.1-8.5-26.3-18.5-26.3s-18.4,16.2-18.4,26.3Z" fill="#ef740f"/>
        </g>
        <g>
          <path d="M151.9,162.1h0c-11.6,0-21.1,17.3-21.1,28.9v5.1H173V191C173,179.4,163.6,162.1,151.9,162.1Z" fill="#f7bb7f"/>
          <path d="M175.7,198.7H128.2V191c0-12.4,10.2-31.6,23.7-31.6s23.8,19.2,23.8,31.6Zm-42.2-5.3h36.9V191c0-10.1-8.5-26.3-18.5-26.3s-18.4,16.2-18.4,26.3Z" fill="#ef740f"/>
        </g>
      </g>
      <g>
        <g>
          <path d="M381.2,371.6H339V191c0-11.6,9.4-28.9,21.1-28.9h0c11.6,0,21.1,17.3,21.1,28.9Z" fill="#f7bb7f"/>
          <path d="M383.5,373.9H336V190.7c0-12.4,10.2-31.6,23.8-31.6s23.7,19.2,23.7,31.6Zm-42.2-5.3h36.9V190.7c0-10.2-8.4-26.3-18.4-26.3s-18.5,16.1-18.5,26.3Z" fill="#ef740f"/>
        </g>
        <g>
          <path d="M360.1,162.1h0c-11.7,0-21.1,17.3-21.1,28.9v5.1h42.2V191C381.2,179.4,371.7,162.1,360.1,162.1Z" fill="#f7bb7f"/>
          <path d="M383.8,198.7H336.3V191c0-12.4,10.2-31.6,23.8-31.6s23.7,19.2,23.7,31.6Zm-42.2-5.3h36.9V191c0-10.1-8.4-26.3-18.4-26.3s-18.5,16.2-18.5,26.3Z" fill="#ef740f"/>
        </g>
      </g>
    </g>
    <g>
      <g>
        <g>
          <g>
            <path d="M359.5,446.4s-13.3-3.4-13.3,0c0,14.8,13.3,25.7,13.3,25.7s13.3-10.9,13.3-25.7C372.8,443,359.5,446.4,359.5,446.4Z" fill="#fff"/>
            <path d="M359.5,475.5l-1.7-1.3c-.6-.5-14.2-11.9-14.2-27.8a3.7,3.7,0,0,1,1.4-3c2.6-2,9.2-1,14.5.2,5.3-1.2,11.9-2.2,14.5-.2a3.7,3.7,0,0,1,1.4,3c0,15.9-13.6,27.3-14.2,27.8Zm-10.6-28c.5,9.9,7.4,17.8,10.6,21,3.2-3.2,10.1-11.1,10.6-21a46.6,46.6,0,0,0-10,1.4l-.6.2-.6-.2A46.6,46.6,0,0,0,348.9,447.5Z" fill="#ef740f"/>
          </g>
          <g>
            <rect x="338.1" y="432.5" width="42.9" height="15.6" rx="6" fill="#f4983d"/>
            <path d="M374.9,450.8H344.1a8.7,8.7,0,0,1-8.7-8.7v-3.6a8.7,8.7,0,0,1,8.7-8.6h30.8a8.7,8.7,0,0,1,8.7,8.6v3.6A8.7,8.7,0,0,1,374.9,450.8Zm-30.8-15.6a3.4,3.4,0,0,0-3.4,3.3v3.6a3.4,3.4,0,0,0,3.4,3.4h30.8a3.4,3.4,0,0,0,3.4-3.4v-3.6a3.4,3.4,0,0,0-3.4-3.3Z" fill="#ef740f"/>
          </g>
          <g>
            <path d="M326.5,411.8h66a0,0,0,0,1,0,0v15a8.9,8.9,0,0,1-8.9,8.9H335.5a8.9,8.9,0,0,1-8.9-8.9v-15A0,0,0,0,1,326.5,411.8Z" fill="#f4983d"/>
            <path d="M383.5,438.5h-48a11.6,11.6,0,0,1-11.6-11.6V409.2h71.2v17.7A11.6,11.6,0,0,1,383.5,438.5Zm-54.3-24v12.4a6.3,6.3,0,0,0,6.3,6.3h48a6.3,6.3,0,0,0,6.3-6.3V414.5Z" fill="#ef740f"/>
          </g>
        </g>
        <g>
          <g>
            <path d="M152.5,446.4s-13.3-3.4-13.3,0c0,14.8,13.3,25.7,13.3,25.7s13.3-10.9,13.3-25.7C165.8,443,152.5,446.4,152.5,446.4Z" fill="#fff"/>
            <path d="M152.5,475.5l-1.7-1.3c-.6-.5-14.2-11.9-14.2-27.8a3.7,3.7,0,0,1,1.4-3c2.6-2,9.2-1,14.5.2,5.3-1.2,11.9-2.2,14.5-.2a3.7,3.7,0,0,1,1.4,3c0,15.9-13.6,27.3-14.2,27.8Zm-10.6-28c.5,9.9,7.4,17.8,10.6,21,3.2-3.2,10.1-11.1,10.6-21a45.8,45.8,0,0,0-10,1.4l-.6.2-.6-.2A46.6,46.6,0,0,0,141.9,447.5Z" fill="#ef740f"/>
          </g>
          <g>
            <rect x="131.1" y="432.5" width="42.9" height="15.6" rx="6" fill="#f4983d"/>
            <path d="M167.9,450.8H137.1a8.7,8.7,0,0,1-8.7-8.7v-3.6a8.7,8.7,0,0,1,8.7-8.6h30.8a8.7,8.7,0,0,1,8.7,8.6v3.6A8.7,8.7,0,0,1,167.9,450.8Zm-30.8-15.6a3.4,3.4,0,0,0-3.4,3.3v3.6a3.4,3.4,0,0,0,3.4,3.4h30.8a3.4,3.4,0,0,0,3.4-3.4v-3.6a3.4,3.4,0,0,0-3.4-3.3Z" fill="#ef740f"/>
          </g>
          <g>
            <path d="M119.5,411.8h66a0,0,0,0,1,0,0v15a8.9,8.9,0,0,1-8.9,8.9H128.5a8.9,8.9,0,0,1-8.9-8.9v-15A0,0,0,0,1,119.5,411.8Z" fill="#f4983d"/>
            <path d="M176.5,438.5h-48a11.6,11.6,0,0,1-11.6-11.6V409.2h71.2v17.7A11.6,11.6,0,0,1,176.5,438.5Zm-54.3-24v12.4a6.3,6.3,0,0,0,6.3,6.3h48a6.3,6.3,0,0,0,6.3-6.3V414.5Z" fill="#ef740f"/>
          </g>
        </g>
      </g>
      <g>
        <path d="M331,413.8H181c-8.6,0-15.6-5.1-15.6-11.3l23-287.9a126.2,126.2,0,0,1,18-56.1C237.7,7.4,286.6,10.7,313,70a127.5,127.5,0,0,1,10.4,41.2l23.2,291.3C346.6,408.7,339.6,413.8,331,413.8Z" fill="#f7bb7f"/>
        <path d="M331,416.4H181c-10,0-18.2-6.2-18.2-13.9v-.2l22.9-288a130,130,0,0,1,18.4-57.2c15.5-25.2,35.5-38.4,56.4-37s41.6,18.8,54.9,48.8A126.6,126.6,0,0,1,326,111l23.3,291.4h0C349.3,410.2,341,416.4,331,416.4ZM168,402.6c.1,4.6,6,8.5,13,8.5H331c7,0,12.9-3.9,13-8.5L320.7,111.4a120.7,120.7,0,0,0-10.1-40.3c-12.5-28.2-30.4-44.4-50.4-45.7s-37.2,11-51.6,34.5A125.2,125.2,0,0,0,191,114.8Z" fill="#ef740f"/>
      </g>
      <g>
        <g>
          <path d="M206.7,245.2s-38.9,87.2-71,100.6S111.6,421,111.6,421l90.7-.7Z" fill="#f4983d"/>
          <path d="M108.7,424.2l-.3-2.9c-.3-2.6-7.1-64.7,26-78.5,30.6-12.8,68.9-98,69.3-98.9l6.6-14.8-4.8,194.4ZM203,260.4c-12.5,25.5-40.9,77.8-66.1,88.4s-23.2,56.8-22.4,68.9l84.7-.7Z" fill="#ef740f"/>
        </g>
        <g>
          <path d="M305.3,245.2s38.9,87.2,71,100.6S400.4,421,400.4,421l-90.7-.7Z" fill="#f4983d"/>
          <path d="M403.3,424.2l-96.8-.7-4.8-194.4,6.6,14.8c.4.9,38.7,86.1,69.3,98.9,33.1,13.8,26.3,75.9,26,78.5ZM312.8,417l84.7.7c.8-12.1,2.5-58.5-22.4-68.9s-53.6-62.9-66.1-88.4Z" fill="#ef740f"/>
        </g>
        <g>
          <g>
            <path d="M301.6,408.4c6.3,0,11.6-5.6,12.4-13,5.2-43.9,3.2-94.7,3.2-152.5,0-93.6-36.2-140.9-52.8-157.6a11.1,11.1,0,0,0-16.2,0c-16.7,16.6-53.4,63.9-53.4,157.6,0,58.1-2,108.8,3,152.5.9,7.4,6.2,13,12.5,13Z" fill="#f4983d"/>
            <path d="M301.3,411.3H209.9c-7.8,0-14.6-6.8-15.6-15.9-3.9-33.7-3.6-70.7-3.3-113.6.2-12.6.3-25.7.3-39.2,0-95.5,38-143.6,54.3-159.9A14.7,14.7,0,0,1,256,78.2h0a14.6,14.6,0,0,1,10.4,4.5c16.2,16.3,53.7,64.5,53.7,159.9,0,12.9.1,25.5.2,37.7.4,43.4.7,80.9-3.4,115.1C315.9,404.5,309.1,411.3,301.3,411.3ZM256,84.7a8.2,8.2,0,0,0-5.8,2.6c-15.8,15.7-52.4,62.3-52.4,155.3,0,13.5-.2,26.6-.3,39.3-.3,42.6-.7,79.5,3.2,112.8.7,5.7,4.6,10.1,9.2,10.1h91.4c4.6,0,8.5-4.3,9.2-10.1,4-33.9,3.7-71.2,3.4-114.4-.1-12.2-.2-24.8-.2-37.7,0-93-36.3-139.6-51.9-155.3a8.2,8.2,0,0,0-5.8-2.6Z" fill="#ef740f"/>
          </g>
          <g>
            <circle cx="256" cy="213.4" r="25.9" fill="#fff"/>
            <path d="M256,242.6a29.2,29.2,0,1,1,29.2-29.2A29.2,29.2,0,0,1,256,242.6Zm0-51.9a22.7,22.7,0,1,0,22.7,22.7A22.7,22.7,0,0,0,256,190.7Z" fill="#ef740f"/>
          </g>
          <g>
            <path d="M214.9,135.8h82.2c-11.2-25.9-24.5-42.1-32.8-50.5a11.1,11.1,0,0,0-16.2,0C239.7,93.7,226.2,109.8,214.9,135.8Z" fill="#f4983d"/>
            <path d="M301.7,138.7H209.6l2-4.6c11.3-25.8,24.7-42.2,33.9-51.4a14.7,14.7,0,0,1,10.4-4.5h0a14.7,14.7,0,0,1,10.4,4.5c9.1,9.2,22.3,25.6,33.5,51.5Zm-82.1-6.5h72.2c-10.3-22.3-21.9-36.6-30.1-44.9a8.2,8.2,0,0,0-5.8-2.6h0a8.2,8.2,0,0,0-5.8,2.6C241.8,95.5,230,109.9,219.6,132.2Z" fill="#ef740f"/>
          </g>
          <g>
            <path d="M256,442s-23.6-5.9-23.6,0c0,26.5,23.6,45.8,23.6,45.8s23.6-19.3,23.6-45.8C279.6,436.1,256,442,256,442Z" fill="#fff"/>
            <path d="M256,492l-2.1-1.7c-1-.8-24.7-20.6-24.7-48.3a4.9,4.9,0,0,1,2-4c4.6-3.6,18.3-.9,24.8.7,6.5-1.6,20.2-4.3,24.8-.7a4.9,4.9,0,0,1,2,4c0,27.7-23.7,47.5-24.7,48.3Zm-20.4-49.1c.4,19.7,14.9,35.3,20.4,40.5,5.5-5.2,20-20.8,20.4-40.5-2.7-.8-11.4.2-19.6,2.3l-.8.2-.8-.2C247,443.1,238.3,442.1,235.6,442.9Z" fill="#ef740f"/>
          </g>
          <g>
            <rect x="217.9" y="417.5" width="76.2" height="27.72" rx="4.8" fill="#f4983d"/>
            <path d="M289.3,448.4H222.7a8,8,0,0,1-8.1-8V422.2a8,8,0,0,1,8.1-8h66.6a8,8,0,0,1,8.1,8v18.2A8,8,0,0,1,289.3,448.4Zm-66.6-27.7a1.6,1.6,0,0,0-1.6,1.5v18.2a1.6,1.6,0,0,0,1.6,1.5h66.6a1.6,1.6,0,0,0,1.6-1.5V422.2a1.6,1.6,0,0,0-1.6-1.5Z" fill="#ef740f"/>
          </g>
          <g>
            <path d="M197.4,380.7H314.6a0,0,0,0,1,0,0v35.5a7.1,7.1,0,0,1-7.1,7.1h-103a7.1,7.1,0,0,1-7.1-7.1V380.7A0,0,0,0,1,197.4,380.7Z" fill="#f4983d"/>
            <path d="M307.5,426.6h-103a10.5,10.5,0,0,1-10.4-10.4V377.4H317.9v38.8A10.5,10.5,0,0,1,307.5,426.6ZM200.6,383.9v32.3a4,4,0,0,0,3.9,3.9h103a4,4,0,0,0,3.9-3.9V383.9Z" fill="#ef740f"/>
          </g>
        </g>
      </g>
    </g>
  </g>
</svg>
