<svg id="Warstwa_1" data-name="Warstwa 1" xmlns="http://www.w3.org/2000/svg" width="512" height="512" viewBox="0 0 512 512">
  <g>
    <path d="M312.1,60.3c29.6-1.5,58.8,11.2,80.9,30.9s37.4,46.1,47.9,73.8c6.7,17.9,11.5,36.5,13.2,55.5,6.7,75.6-42.9,152.6-114.4,177.8-26.5,9.3-54.9,12-82.9,14.1-43.9,3.3-89.9,4.9-130.2-13S53.8,338.5,62.5,295.3c4.1-20.5,16.6-38.3,29.2-55,39.4-52.6,83-103,136-142.1C227.7,98.2,270.4,62.4,312.1,60.3Z" fill="#dcffea"/>
    <circle cx="406.7" cy="69.3" r="7.7" fill="#dcffea"/>
    <circle cx="68.1" cy="400.2" r="7.7" fill="#dcffea"/>
    <circle cx="130.7" cy="148.3" r="11.1" fill="#dcffea"/>
    <circle cx="76.9" cy="200.7" r="19.6" fill="#dcffea"/>
    <circle cx="416.6" cy="388.2" r="7.7" fill="#dcffea"/>
  </g>
  <g>
    <g>
      <polygon points="307 333.5 353.9 377.2 354.3 412.6 307 370.8 307 333.5" fill="#119948"/>
      <g>
        <path d="M355.1,342.8h0a18.2,18.2,0,0,1,18.2,18.2v65a0,0,0,0,1,0,0H336.8a0,0,0,0,1,0,0v-65a18.2,18.2,0,0,1,18.2-18.2Z" fill="#96eab8"/>
        <path d="M376.1,428.8h-42V361.1a21,21,0,0,1,42,0Zm-36.5-5.5h31V361.1a15.5,15.5,0,0,0-31,0Z" fill="#119948"/>
      </g>
      <g>
        <path d="M355.8,450.6s-11-2.8-11,0c0,12.4,11,21.4,11,21.4s11.1-9,11.1-21.4C366.9,447.8,355.8,450.6,355.8,450.6Z" fill="#fff"/>
        <path d="M355.8,475.6l-1.7-1.4c-.5-.4-12.1-10.1-12.1-23.6a3.6,3.6,0,0,1,1.4-2.9c1.9-1.5,6.1-1.5,12.4,0,6.4-1.5,10.5-1.5,12.4,0a3.6,3.6,0,0,1,1.5,2.9c0,13.5-11.6,23.2-12.1,23.6Zm-8.2-23.5c.6,7.4,5.5,13.4,8.2,16.1,2.7-2.7,7.6-8.8,8.3-16.1a44.5,44.5,0,0,0-7.6,1.1l-.7.2-.6-.2A37.2,37.2,0,0,0,347.6,452.1Z" fill="#119948"/>
      </g>
      <g>
        <rect x="338" y="439" width="35.7" height="13" rx="5" fill="#71cc96"/>
        <path d="M368.7,454.8H343a7.8,7.8,0,0,1-7.8-7.8v-3a7.8,7.8,0,0,1,7.8-7.7h25.7a7.8,7.8,0,0,1,7.8,7.7v3A7.8,7.8,0,0,1,368.7,454.8Zm-25.7-13a2.2,2.2,0,0,0-2.3,2.2v3a2.3,2.3,0,0,0,2.3,2.3h25.7a2.2,2.2,0,0,0,2.2-2.3v-3a2.2,2.2,0,0,0-2.2-2.2Z" fill="#119948"/>
      </g>
      <g>
        <path d="M328.3,421.8h55a0,0,0,0,1,0,0v12.5a7.5,7.5,0,0,1-7.5,7.5H335.8a7.5,7.5,0,0,1-7.5-7.5V421.8A0,0,0,0,1,328.3,421.8Z" fill="#71cc96"/>
        <path d="M375.9,444.5H335.8a10.2,10.2,0,0,1-10.2-10.2V419h60.5v15.3A10.2,10.2,0,0,1,375.9,444.5Zm-44.8-19.9v9.7a4.7,4.7,0,0,0,4.7,4.7h40.1a4.8,4.8,0,0,0,4.7-4.7v-9.7Z" fill="#119948"/>
      </g>
    </g>
    <g>
      <polygon points="205 333.5 158.1 377.2 157.7 412.6 205 370.8 205 333.5" fill="#119948"/>
      <g>
        <path d="M138.7,342.8h36.5a0,0,0,0,1,0,0v65a18.2,18.2,0,0,1-18.2,18.2h0a18.2,18.2,0,0,1-18.2-18.2v-65A0,0,0,0,1,138.7,342.8Z" transform="translate(313.8 768.9) rotate(-180)" fill="#96eab8"/>
        <path d="M177.9,428.8h-42V361.1a21,21,0,0,1,42,0Zm-36.5-5.5h31V361.1a15.5,15.5,0,0,0-31,0Z" fill="#119948"/>
      </g>
      <g>
        <path d="M156.2,450.6s11-2.8,11,0c0,12.4-11,21.4-11,21.4s-11.1-9-11.1-21.4C145.1,447.8,156.2,450.6,156.2,450.6Z" fill="#fff"/>
        <path d="M156.2,475.6l-1.8-1.4c-.5-.4-12.1-10.1-12.1-23.6a3.6,3.6,0,0,1,1.5-2.9c1.9-1.5,6-1.5,12.4,0,6.3-1.5,10.5-1.5,12.4,0a3.6,3.6,0,0,1,1.4,2.9c0,13.5-11.6,23.2-12.1,23.6Zm-8.3-23.5c.6,7.4,5.6,13.4,8.3,16.1,2.7-2.7,7.6-8.8,8.2-16.1a44.5,44.5,0,0,0-7.6,1.1l-.6.2-.7-.2A36.3,36.3,0,0,0,147.9,452.1Z" fill="#119948"/>
      </g>
      <g>
        <rect x="138.3" y="439" width="35.7" height="13" rx="5" transform="translate(312.3 891.1) rotate(-180)" fill="#71cc96"/>
        <path d="M169,454.8H143.3a7.8,7.8,0,0,1-7.8-7.8v-3a7.8,7.8,0,0,1,7.8-7.7H169a7.8,7.8,0,0,1,7.8,7.7v3A7.8,7.8,0,0,1,169,454.8Zm-25.7-13a2.2,2.2,0,0,0-2.2,2.2v3a2.2,2.2,0,0,0,2.2,2.3H169a2.3,2.3,0,0,0,2.3-2.3v-3a2.2,2.2,0,0,0-2.3-2.2Z" fill="#119948"/>
      </g>
      <g>
        <path d="M136.1,421.8h40.1a7.5,7.5,0,0,1,7.5,7.5v12.5a0,0,0,0,1,0,0h-55a0,0,0,0,1,0,0V429.2a7.5,7.5,0,0,1,7.5-7.5Z" transform="translate(312.3 863.6) rotate(-180)" fill="#71cc96"/>
        <path d="M176.2,444.5H136.1a10.2,10.2,0,0,1-10.2-10.2V419h60.5v15.3A10.2,10.2,0,0,1,176.2,444.5Zm-44.8-19.9v9.7a4.8,4.8,0,0,0,4.7,4.7h40.1a4.7,4.7,0,0,0,4.7-4.7v-9.7Z" fill="#119948"/>
      </g>
    </g>
    <g>
      <g>
        <path d="M303.8,404.6c6.6,0,12.1-5.8,13-13.5,5.4-45.9,3.3-99,3.3-159.4,0-97.8-37.8-147.2-55.1-164.6a11.6,11.6,0,0,0-16.9-.1c-17.5,17.4-55.8,66.8-55.8,164.7,0,60.7-2.2,113.7,3.1,159.3.9,7.8,6.4,13.6,13,13.6Z" fill="#71cc96"/>
        <path d="M303.8,408H208.4c-8.3,0-15.3-7.1-16.4-16.6-4.1-35.2-3.7-73.9-3.4-118.7.2-13.2.3-26.9.3-41,0-99.7,39.7-150,56.8-167.1A15.2,15.2,0,0,1,256.5,60h.1a15.4,15.4,0,0,1,10.8,4.7c16.9,17,56.1,67.4,56.1,167,0,13.5.1,26.7.2,39.4.4,45.4.7,84.6-3.5,120.3C319.1,400.9,312,408,303.8,408ZM256.5,66.8a8.4,8.4,0,0,0-6,2.6c-16.5,16.5-54.8,65.2-54.8,162.3,0,14.1-.2,27.8-.3,41.1-.4,44.6-.7,83,3.3,117.8.7,6.1,4.9,10.6,9.7,10.6h95.4c4.8,0,8.9-4.5,9.7-10.5,4.1-35.4,3.8-74.4,3.5-119.6-.1-12.7-.2-25.9-.2-39.4,0-97.1-37.9-145.8-54.2-162.2a8.5,8.5,0,0,0-6.1-2.7Z" fill="#119948"/>
      </g>
      <g>
        <circle cx="256.2" cy="200.9" r="27.1" fill="#fff"/>
        <path d="M256.2,231.4a30.5,30.5,0,1,1,30.5-30.5A30.6,30.6,0,0,1,256.2,231.4Zm0-54.2a23.7,23.7,0,1,0,23.7,23.7A23.7,23.7,0,0,0,256.2,177.2Z" fill="#119948"/>
      </g>
      <g>
        <path d="M213.2,119.8h85.9c-11.6-27.1-25.5-43.9-34.2-52.7A11.6,11.6,0,0,0,248,67C239.2,75.8,225.1,92.7,213.2,119.8Z" fill="#71cc96"/>
        <path d="M304.3,123.2H208.1l2-4.8c11.8-27,25.8-44.1,35.5-53.8A15.2,15.2,0,0,1,256.4,60h0a15.5,15.5,0,0,1,10.9,4.7c9.5,9.6,23.3,26.8,35,53.7Zm-85.8-6.8h75.4C283.2,93.1,271,78.1,262.4,69.5a8.2,8.2,0,0,0-6-2.7h0a8.8,8.8,0,0,0-6.1,2.6C241.7,78.1,229.4,93.1,218.5,116.4Z" fill="#119948"/>
      </g>
      <g>
        <path d="M256.2,439.8s-24.7-6.2-24.7,0c0,27.6,24.7,47.8,24.7,47.8s24.6-20.2,24.6-47.8C280.8,433.6,256.2,439.8,256.2,439.8Z" fill="#fff"/>
        <path d="M256.2,492l-2.2-1.8c-1-.8-25.9-21.5-25.9-50.4a5.6,5.6,0,0,1,2.1-4.3c4.8-3.7,19.2-.8,26,.8,6.8-1.6,21.1-4.5,25.9-.8a5.3,5.3,0,0,1,2.1,4.3c0,28.9-24.8,49.6-25.9,50.4Zm-21.3-51.3c.4,20.5,15.6,36.9,21.3,42.4,5.7-5.5,20.8-21.9,21.2-42.4-2.7-.8-11.8.2-20.4,2.4l-.8.2-.8-.2C246.8,440.9,237.7,439.9,234.9,440.7Z" fill="#119948"/>
      </g>
      <g>
        <rect x="216.4" y="414.1" width="79.6" height="28.96" rx="5" fill="#71cc96"/>
        <path d="M291,446.5H221.4a8.4,8.4,0,0,1-8.4-8.4v-19a8.4,8.4,0,0,1,8.4-8.4H291a8.5,8.5,0,0,1,8.4,8.4v19A8.5,8.5,0,0,1,291,446.5Zm-69.6-29a1.7,1.7,0,0,0-1.7,1.6v19a1.7,1.7,0,0,0,1.7,1.6H291a1.6,1.6,0,0,0,1.6-1.6v-19a1.6,1.6,0,0,0-1.6-1.6Z" fill="#119948"/>
      </g>
      <g>
        <path d="M194.9,375.7H317.4a0,0,0,0,1,0,0v37.1a7.5,7.5,0,0,1-7.5,7.5H202.4a7.5,7.5,0,0,1-7.5-7.5V375.7A0,0,0,0,1,194.9,375.7Z" fill="#71cc96"/>
        <path d="M310,423.6H202.4a10.8,10.8,0,0,1-10.9-10.8V372.3H320.8v40.5A10.8,10.8,0,0,1,310,423.6ZM198.3,379.1v33.7a4.1,4.1,0,0,0,4.1,4.1H310a4.2,4.2,0,0,0,4.1-4.1V379.1Z" fill="#119948"/>
      </g>
    </g>
  </g>
</svg>
