<svg id="Warstwa_1" data-name="Warstwa 1" xmlns="http://www.w3.org/2000/svg" width="512" height="512" viewBox="0 0 512 512">
  <g>
    <path d="M312.1,57.8c29.6-1.5,58.8,11.1,80.9,30.9s37.4,46.1,47.9,73.8c6.7,17.8,11.5,36.5,13.2,55.5,6.7,75.5-42.9,152.5-114.4,177.7-26.5,9.4-54.9,12.1-82.9,14.2-43.9,3.2-89.9,4.8-130.2-13s-72.8-61-64.1-104.2c4.1-20.5,16.6-38.2,29.2-55,39.4-52.6,83-102.9,136-142C227.7,95.7,270.4,59.9,312.1,57.8Z" fill="#e3f2fd"/>
    <circle cx="406.7" cy="66.7" r="7.7" fill="#e3f2fd"/>
    <circle cx="68.1" cy="397.7" r="7.7" fill="#e3f2fd"/>
    <circle cx="130.7" cy="145.8" r="11.1" fill="#e3f2fd"/>
    <circle cx="76.9" cy="198.2" r="19.6" fill="#e3f2fd"/>
    <circle cx="416.6" cy="385.6" r="7.7" fill="#e3f2fd"/>
  </g>
  <g>
    <g>
      <g>
        <path d="M311.6,299.8l31.5,32.8a4.5,4.5,0,0,1,1.2,2.9v69a4.3,4.3,0,0,1-7.1,3.2L305.7,380a3.9,3.9,0,0,1-1.5-3.2V302.7A4.3,4.3,0,0,1,311.6,299.8Z" fill="#6dc8f2"/>
        <path d="M340,412.4a7.8,7.8,0,0,1-5.2-1.9l-31.6-27.7a8,8,0,0,1-2.7-6V302.7a7.9,7.9,0,0,1,5-7.3,7.8,7.8,0,0,1,8.7,1.8h0L345.7,330a7.7,7.7,0,0,1,2.2,5.5v69a7.8,7.8,0,0,1-7.9,7.9ZM308.5,302.1h-.2a.5.5,0,0,0-.4.5v74.1a.8.8,0,0,0,.2.5l31.5,27.6a.4.4,0,0,0,.6.1.5.5,0,0,0,.4-.5v-69a.8.8,0,0,0-.2-.4l-31.5-32.8A.7.7,0,0,0,308.5,302.1Z" fill="#137099"/>
      </g>
      <g>
        <path d="M200.4,299.8l-31.5,32.8a4.5,4.5,0,0,0-1.2,2.9v69a4.3,4.3,0,0,0,7.1,3.2L206.3,380a3.9,3.9,0,0,0,1.5-3.2V302.7A4.3,4.3,0,0,0,200.4,299.8Z" fill="#6dc8f2"/>
        <path d="M172,412.4a7.8,7.8,0,0,1-7.9-7.9v-69a7.7,7.7,0,0,1,2.2-5.5l31.5-32.8h0a7.8,7.8,0,0,1,8.7-1.8,7.9,7.9,0,0,1,5,7.3v74.1a8,8,0,0,1-2.7,6l-31.6,27.7A7.8,7.8,0,0,1,172,412.4Zm31.5-110.3-.4.2h0l-31.5,32.8a.8.8,0,0,0-.2.4v69a.5.5,0,0,0,.4.5.4.4,0,0,0,.6-.1l31.5-27.6a.8.8,0,0,0,.2-.5V302.7a.5.5,0,0,0-.4-.5Z" fill="#137099"/>
      </g>
    </g>
    <g>
      <path d="M256,452.1s-18.1-4.5-18.1,0c0,20.3,18.1,35.1,18.1,35.1s18.1-14.8,18.1-35.1C274.1,447.6,256,452.1,256,452.1Z" fill="#fff"/>
      <path d="M256,492l-2.3-1.9c-.8-.7-19.5-16.2-19.5-38a4.9,4.9,0,0,1,2-4c3.6-2.8,12.6-1.5,19.8.3,7.2-1.8,16.2-3.1,19.8-.3a4.9,4.9,0,0,1,2,4c0,21.8-18.7,37.3-19.5,38Zm-14.4-38.2c.8,13.3,10,24,14.4,28.4,4.4-4.4,13.6-15.1,14.4-28.4-2.6-.2-8.3.6-13.5,1.9l-.9.2-.9-.2C249.9,454.4,244.2,453.6,241.6,453.8Z" fill="#137099"/>
    </g>
    <g>
      <rect x="226.8" y="433.3" width="58.4" height="21.25" rx="9.9" fill="#6dc8f2"/>
      <path d="M279.8,458.2H232.2a9.1,9.1,0,0,1-9.1-9.1V438.7a9.1,9.1,0,0,1,9.1-9.1h47.6a9.1,9.1,0,0,1,9.1,9.1v10.4A9.1,9.1,0,0,1,279.8,458.2ZM232.2,437a1.7,1.7,0,0,0-1.7,1.7v10.4a1.7,1.7,0,0,0,1.7,1.8h47.6a1.7,1.7,0,0,0,1.7-1.8V438.7a1.7,1.7,0,0,0-1.7-1.7Z" fill="#137099"/>
    </g>
    <g>
      <path d="M211,405.1H301a0,0,0,0,1,0,0V423a14.8,14.8,0,0,1-14.8,14.8H225.8A14.8,14.8,0,0,1,211,423V405.1A0,0,0,0,1,211,405.1Z" fill="#6dc8f2"/>
      <path d="M292.9,441.5H219.1a11.8,11.8,0,0,1-11.7-11.8V401.4h97.2v28.3A11.8,11.8,0,0,1,292.9,441.5Zm-78.2-32.7v20.9a4.4,4.4,0,0,0,4.4,4.4h73.8a4.4,4.4,0,0,0,4.4-4.4V408.8Z" fill="#137099"/>
    </g>
    <g>
      <path d="M300.3,408.4a12.2,12.2,0,0,0,12-10.5c5.1-35.6,3.1-76.8,3.1-123.6,0-75.9-35.2-114.2-51.2-127.7a12.1,12.1,0,0,0-15.7-.1c-16.2,13.5-51.9,51.8-51.9,127.8,0,47-2,88.2,2.9,123.5a12.3,12.3,0,0,0,12.1,10.6Z" fill="#6dc8f2"/>
      <path d="M300.3,412.1H211.6a15.9,15.9,0,0,1-15.7-13.8c-3.8-27.4-3.5-57.4-3.2-92.2.1-10.3.2-20.9.2-31.8,0-78,37.2-117.3,53.2-130.6a16,16,0,0,1,20.4,0c15.8,13.4,52.6,52.7,52.6,130.6,0,10.4.1,20.6.2,30.5.3,33.8.6,65.7-3.3,93.6A16,16,0,0,1,300.3,412.1Zm-44-264.7a8.8,8.8,0,0,0-5.5,1.9c-15.2,12.7-50.5,50.2-50.5,125,0,10.9-.1,21.6-.2,31.8-.4,34.6-.7,64.4,3.1,91.2a8.5,8.5,0,0,0,8.4,7.4h88.7a8.6,8.6,0,0,0,8.4-7.4c3.9-27.3,3.6-57.5,3.2-92.4-.1-9.9-.2-20.2-.2-30.6,0-74.8-34.9-112.3-49.9-124.9A8.1,8.1,0,0,0,256.3,147.4Z" fill="#137099"/>
    </g>
    <g>
      <circle cx="256" cy="268.2" r="29.4" fill="#fff"/>
      <path d="M256,301.3a33.1,33.1,0,1,1,33.1-33.1A33.1,33.1,0,0,1,256,301.3Zm0-58.8a25.8,25.8,0,1,0,25.7,25.7A25.7,25.7,0,0,0,256,242.5Z" fill="#137099"/>
    </g>
    <g>
      <path d="M248.5,146.5c-11.5,9.5-32.6,31.4-44,70.2H307.7c-11.3-38.7-32.2-60.6-43.5-70.1A12.1,12.1,0,0,0,248.5,146.5Z" fill="#6dc8f2"/>
      <path d="M312.6,220.4H199.5l1.4-4.7c11.7-39.7,33.4-62.1,45.2-72h0a16,16,0,0,1,20.4,0c11.8,9.9,33.1,32.4,44.7,72Zm-103.1-7.3h93.2c-11.3-34.9-30.3-54.8-40.9-63.7a8.6,8.6,0,0,0-11-.1h0C240.1,158.3,220.9,178.2,209.5,213.1Z" fill="#137099"/>
    </g>
  </g>
</svg>
