<svg id="Layer_1" data-name="Layer 1" xmlns="http://www.w3.org/2000/svg" width="192" height="57.9" viewBox="0 0 192 57.9">
  <g>
    <path d="M50,31.8l-4.7,3s2.6,4.4,9.7,4.4,9.4-3.2,9.4-6.5-1.8-7.2-8.7-7.2c-2.9,0-4.1-1.4-4.1-2.6s1.5-2.1,2.9-2a7.1,7.1,0,0,1,4.8,2.2l4.4-2.5s-1.8-4.1-9.3-4.1S46,21.1,46,23.9c0,8.2,15.8,5.4,12,10C54.3,36.2,50,31.8,50,31.8Z" fill="#2c3c46"/>
    <polygon points="67.7 19.6 73.2 16.5 73.2 39.2 67.7 39.2 67.7 19.6" fill="#2c3c46"/>
    <path d="M87.5,16.7h0A10.6,10.6,0,0,0,76.9,27.4V39.2h5.6V27.4a5,5,0,0,1,5-5.1,5.1,5.1,0,0,1,5.1,5.1V39.2h5.6V27.4A10.7,10.7,0,0,0,87.5,16.7Z" fill="#2c3c46"/>
    <path d="M136,16.7h0a11.4,11.4,0,0,0-5.2,1.3V7.2l-5.5,3.1V39.2h5.6V27.4a5.1,5.1,0,0,1,5.1-5.1,5,5,0,0,1,5,5.1V39.2h5.7V27.4A10.7,10.7,0,0,0,136,16.7Z" fill="#2c3c46"/>
    <path d="M117.7,31.1a6,6,0,0,1-11.1-3.3,6,6,0,0,1,11.2-3l4.5-2.9a11.5,11.5,0,0,0-9.7-5.4,11.4,11.4,0,1,0,9.7,17.2Z" fill="#2c3c46"/>
  </g>
</svg>
