<svg xmlns="http://www.w3.org/2000/svg" xmlns:xlink="http://www.w3.org/1999/xlink" width="1280" height="720" viewBox="0 0 1280 720">
  <defs>
    <clipPath id="clip-path">
      <rect width="1280" height="720" fill="none"/>
    </clipPath>
    <linearGradient id="Gradient_bez_nazwy_10" data-name="Gradient bez nazwy 10" x1="686.14" y1="381.35" x2="-719.14" y2="-269" gradientUnits="userSpaceOnUse">
      <stop offset="0" stop-color="#c4d3ff"/>
      <stop offset="0.72" stop-color="#1ca7d2"/>
    </linearGradient>
    <clipPath id="clip-path-2">
      <path d="M801.1,261.9s-6.9,16.1,5.7,28.7,16.3,23.1,19,32.9-1.7,43.9,12.4,48.6c0,0-60.1,41.9-60.4,56.8s46,78.5,46,78.5-3.5,47-32.1,44.8S658.9,278.4,658.9,278.4L674.1,256Z" fill="none"/>
    </clipPath>
  </defs>
  <g style="isolation: isolate">
    <g id="Warstwa_10" data-name="Warstwa 10">
      <g clip-path="url(#clip-path)">
        <rect width="1280" height="720" fill="url(#Gradient_bez_nazwy_10)"/>
        <path d="M0,609.5V749.3H1280V609.5s-496.7,113.7-679.7,0C364.4,463.1,0,609.5,0,609.5Z" fill="#7e7e93"/>
        <ellipse cx="294.8" cy="580.3" rx="147.9" ry="21" opacity="0.3" style="mix-blend-mode: darken"/>
        <ellipse cx="227.7" cy="623.5" rx="74" ry="10.5" opacity="0.3" style="mix-blend-mode: darken"/>
        <ellipse cx="488" cy="612.1" rx="74" ry="10.5" opacity="0.3" style="mix-blend-mode: darken"/>
        <ellipse cx="117" cy="628.4" rx="76.2" ry="10.5" opacity="0.3" style="mix-blend-mode: darken"/>
        <g opacity="0.2" style="mix-blend-mode: lighten">
          <circle cx="1171.7" cy="339.6" r="598.1" fill="#fff"/>
        </g>
        <g opacity="0.2" style="mix-blend-mode: lighten">
          <circle cx="1205.3" cy="334.5" r="598.1" fill="#fff"/>
        </g>
        <circle cx="277.3" cy="352.6" r="214.1" fill="#0264a3"/>
        <circle cx="315" cy="352.6" r="214.1" fill="#83a5db"/>
        <circle cx="315" cy="352.6" r="184.5" fill="#fff"/>
        <g>
          <g>
            <polyline points="307.4 239.1 307.4 354.8 382.5 429.9" fill="#fff"/>
            <polygon points="375.5 437 297.4 358.9 297.4 239.1 317.4 239.1 317.4 350.6 389.6 422.8 375.5 437" fill="#383838"/>
          </g>
          <polygon points="307.4 260.1 285.3 260.1 296.4 241 307.4 221.9 318.4 241 329.4 260.1 307.4 260.1" fill="#383838"/>
          <polygon points="378.6 440.8 357 436.2 371.8 419.8 386.5 403.4 393.3 424.4 400.1 445.4 378.6 440.8" fill="#383838"/>
        </g>
        <g>
          <path d="M89.9,381.2,74.6,366l-7.8,10.4,12.5,12.5A98.6,98.6,0,0,1,89.9,381.2Z" fill="#999cbc"/>
          <path d="M202.6,512.2l10.6,10.7,10.4-7.9-12.9-13.9A80.9,80.9,0,0,1,202.6,512.2Z" fill="#999cbc"/>
        </g>
        <g>
          <path d="M140.2,585.8c-38.9,0-70.4,17.4-70.4,38.7,0,16.7,140.9,16.7,140.9,0C210.7,603.2,179.1,585.8,140.2,585.8Z" fill="#999cbc"/>
          <rect x="131.7" y="555.4" width="17.2" height="34.93" fill="#999cbc"/>
          <path d="M131.7,572.8a107.7,107.7,0,0,0,17.1-1.7V555.4H131.7Z" fill="#696c84"/>
          <circle cx="136.1" cy="455.4" r="87.4" fill="#3eb3ce"/>
          <path d="M181.2,539A98.5,98.5,0,0,1,79.4,370.8L74.6,366a108.9,108.9,0,1,0,149,149l-4.8-4.7A93.6,93.6,0,0,1,181.2,539Z" fill="#999cbc"/>
          <path d="M149.1,479.8c-6.7,31.3,10.4,40.6-1.4,46.7-17.1,8.9-55.3-11.4-46.1-30.5s5.1-25.2-3.6-32.2-37.3-21.3-29.4-30.7S165.8,401.7,149.1,479.8Z" fill="#7ae264"/>
          <path d="M63.2,407.2a3.9,3.9,0,0,0,.8,2.1c7.5,9.8,30.8,3.5,34.6-7.7s27.5-10.6,34.6-10.9c18-.6,17.7-21.4,17.7-21.5a89.6,89.6,0,0,0-14.8-1.2A87.5,87.5,0,0,0,63.2,407.2Z" fill="#7ae264"/>
          <path d="M135.2,550.4a98.5,98.5,0,0,1-98.5-98.5,95.1,95.1,0,0,1,1.7-17.8,89.7,89.7,0,0,0,84.9,119.2,88.3,88.3,0,0,0,26.8-4.1A92.6,92.6,0,0,1,135.2,550.4Z" fill="#696c84"/>
          <path d="M223.6,455.4a87.2,87.2,0,0,0-25.9-62.1,52.1,52.1,0,0,0-15.7,3.8c-47.5,19.8,7.6,70.3,14.1,86.2s-28.1,27.9-24.7,41.4a25.9,25.9,0,0,0,3.9,8.9A87.6,87.6,0,0,0,223.6,455.4Z" fill="#7ae264"/>
        </g>
        <g>
          <ellipse cx="527.8" cy="599.5" rx="68.4" ry="13.5" fill="#ffd400"/>
          <rect x="459.4" y="580.3" width="136.7" height="19.2" fill="#ffd400"/>
          <ellipse cx="527.8" cy="580.3" rx="68.4" ry="13.5" fill="#ffe933"/>
        </g>
        <g>
          <ellipse cx="491.4" cy="569.8" rx="68.4" ry="13.5" fill="#ffd400"/>
          <rect x="423" y="550.6" width="136.7" height="19.2" fill="#ffd400"/>
          <ellipse cx="491.4" cy="550.6" rx="68.4" ry="13.5" fill="#ffe933"/>
        </g>
        <g>
          <ellipse cx="524.4" cy="545" rx="68.4" ry="13.5" fill="#ffd400"/>
          <rect x="456.1" y="525.8" width="136.7" height="19.2" fill="#ffd400"/>
          <ellipse cx="524.4" cy="525.8" rx="68.4" ry="13.5" fill="#ffe933"/>
        </g>
        <g>
          <ellipse cx="488" cy="515" rx="68.4" ry="13.5" fill="#ffd400"/>
          <rect x="419.6" y="495.8" width="136.7" height="19.2" fill="#ffd400"/>
          <ellipse cx="488" cy="495.8" rx="68.4" ry="13.5" fill="#ffe933"/>
        </g>
        <g>
          <ellipse cx="257.4" cy="617.4" rx="55.8" ry="11" fill="#ffd400"/>
          <rect x="201.7" y="601.7" width="111.5" height="15.66" fill="#ffd400"/>
          <ellipse cx="257.4" cy="601.7" rx="55.8" ry="11" fill="#ffe933"/>
        </g>
        <g>
          <ellipse cx="227.7" cy="593.2" rx="55.8" ry="11" fill="#ffd400"/>
          <rect x="172" y="577.5" width="111.5" height="15.66" fill="#ffd400"/>
          <ellipse cx="227.7" cy="577.5" rx="55.8" ry="11" fill="#ffe933"/>
        </g>
        <g>
          <ellipse cx="254.7" cy="572.9" rx="55.8" ry="11" fill="#ffd400"/>
          <rect x="198.9" y="557.3" width="111.5" height="15.66" fill="#ffd400"/>
          <ellipse cx="254.7" cy="557.3" rx="55.8" ry="11" fill="#ffe933"/>
        </g>
        <g>
          <ellipse cx="224.9" cy="548.5" rx="55.8" ry="11" fill="#ffd400"/>
          <rect x="169.2" y="532.8" width="111.5" height="15.66" fill="#ffd400"/>
          <ellipse cx="224.9" cy="532.8" rx="55.8" ry="11" fill="#ffe933"/>
        </g>
        <ellipse cx="897.5" cy="610.4" rx="157.3" ry="22.3" opacity="0.3" style="mix-blend-mode: darken"/>
        <g>
          <path d="M1153.8,536.7s17.3-23.2,37-18.2,5.1,37,5.1,37-3.4.5-2.8-2.3c1.5-7.7,3.7-22.7-4.2-26.1-15.1-6.4-33.1,10.9-33.1,10.9Z" fill="#294e60"/>
          <ellipse cx="1155.5" cy="657.4" rx="63.9" ry="9.1" opacity="0.3" style="mix-blend-mode: darken"/>
          <path d="M1196.5,647.8v-7.9c2.8,3.4,14.1,17.2,22.5,22.2s19.2,1.6,10.8-4c-11.4-7.6-10.4-23.2-10.8-48.4-.4-19.5-16.4-38.8-23.6-46.5l-4.4-24s42.7,27.8,39.4,68c-.9,10.5-5.7,33.5,5.4,41.1s9.3,19.1.5,22.4C1218.9,677.4,1189.5,653.7,1196.5,647.8Z" fill="#294e60"/>
          <g>
            <path d="M1219,615.4c-.1-1.9-.1-3.7-.1-5.7-.4-19.5-16.4-38.8-23.6-46.5l-4.4-24a111.1,111.1,0,0,1,17.7,15.4C1217.5,571.6,1220.6,595.2,1219,615.4Z" fill="#21404c"/>
            <path d="M1196.5,647.8v-7.9c1.6,1.9,5.9,7.1,10.8,12.2a14.6,14.6,0,0,1-6.2,4.2l-1.9.7C1195.7,653.2,1194.4,649.6,1196.5,647.8Z" fill="#21404c"/>
          </g>
          <path d="M1173.9,530.7c49,7.7,47.3,115.7,20.9,124.7-28.4,9.6-72.2,5-83.7-13.6C1096.1,617.7,1119.1,522.1,1173.9,530.7Z" fill="#294e60"/>
          <g>
            <path d="M1133.5,575.8l1.3-7.3c10.2,10.7,47.1,13.8,47.1,13.8l-1.3,6.5C1171.2,587.8,1145,584.2,1133.5,575.8Z" fill="#ef7a62"/>
            <path d="M1133,578.9c12.1,8.2,38.6,11.7,47.1,12.6l-4.6,24.2c-14.4.9-46.7-13.3-46.7-13.3Z" fill="#ef7a62"/>
          </g>
          <path d="M1107.4,608.2c11.7,13.3,23.2,4.7,41.8,15.4,24.7,14.2,48,1.5,62.9-3.1-1.3,9.8-3.8,18.5-7.2,24.8-2.4,3.6-5.2,6.1-8.4,7.1-29.2,9.9-74,5.1-85.9-13.9a29.3,29.3,0,0,1-3.4-9.1A84,84,0,0,1,1107.4,608.2Z" fill="#c46353"/>
          <path d="M1111.1,641.8c-4-6.4-5.3-17.7-4.1-30.6,11.8,14.5,23.1,5.5,41.7,16.1,24.9,14.3,48.5.5,62.9-3.5-2.8,16.2-8.6,28.8-16.8,31.6C1166.4,665,1122.6,660.4,1111.1,641.8Z" fill="#ef7a62"/>
        </g>
        <polyline points="1049 426.5 1034.8 435.3 1040.6 446.5 1059 436.5 1049.5 426.5" fill="#ffd1b8"/>
        <path d="M822.7,482.2c-3.3-4.9-24,14.6-22,16.6S825,485.6,822.7,482.2Z" fill="#76798e"/>
        <polygon points="812.8 505.1 828.5 523.2 838.2 512.7 823.4 492.2 812.8 505.1" fill="#ffd1b8"/>
        <path d="M800.6,498.7c7,8.3,8.2,9.2,9.4,10.5s22.5-12.4,20.9-14.7-3.2-4.9-8.2-12.3h0C824.8,484.9,802.7,501.4,800.6,498.7Z" fill="#80839b"/>
        <path d="M1000.2,324.3c75.8,16.3,123.7,29.6,128.6-2.2,17.6-115.6-459.1-213.5-502.9-154.4C578,232.5,807.4,341.3,807.4,341.3c-63.8-13.6-171.3-88.2-187-57.8-24.8,48.1,34.1,58.7,117,97.5-24.1-3.5-49.5-3.4-55.7,10.8-12,27.7,150.6,75.5,166.8,80.2-13.8-4-111.2-31.3-125.6-2.6S937.1,553,987.8,542.6s-77.3-65-77.3-65,59.6,17.8,98.6,19.1c14.7.4,21.6-17.9,10.3-27.2-127.8-105.1,132.3,56.7,155.6,2.8C1210.9,389.3,1058.3,362.3,1000.2,324.3Z" fill="#f3f7ff"/>
        <path d="M1013.3,418.8c6-2.1,16.4,22.6,13.5,25.5S1007.3,420.8,1013.3,418.8Z" fill="#4d5059"/>
        <polyline points="1042.4 410 1028.1 418.8 1033.9 430 1052.4 420 1042.8 410" fill="#ffd1b8"/>
        <path d="M1023.5,418.3c-23.7,9.9-74.6,23.3-92.5-34.8-15.3-50-53.3,1.3-53.3,1.3,1.1,2.1,47.4,71.8,81.7,70.4,27.6-1.1,57-13.1,73.4-20.9A68.4,68.4,0,0,0,1023.5,418.3Z" fill="#727487"/>
        <path d="M1037.4,410.5s17.5-13.8,21-10.5,21.5,35,22.2,45.3-4.1,18.6-10.9,13.8-24.9-30.8-24.9-30.8C1046,420,1042.7,413.5,1037.4,410.5Z" fill="#786de2"/>
        <path d="M1056.6,434.5s-8.6,12.4-13.4,6.3,4-16.3,4-16.3l9.1-.6Z" fill="#786de2"/>
        <path d="M817,470.3c-3.3-5-24,14.6-22,16.5S819.4,473.7,817,470.3Z" fill="#76798e"/>
        <path d="M781.6,309.5s-7,11.3-14,12.3c-22.1-2-53.6-21.1-73.6-38.1,0,0-2.6,4.7-9.8,8.2,0,0,52.1,51,83.6,51.9,17.2.5,29-20.3,29-20.3Z" fill="#fcbea2"/>
        <polygon points="807.1 493.2 822.8 511.2 832.5 500.7 817.7 480.3 807.1 493.2" fill="#ffd1b8"/>
        <path d="M908.9,368.4l-58.6-1.6s-82.4,40.6-80.9,65.5c1.1,17.1,22.5,47,35.9,64.2,5.2-2.5,13.9-9.1,17.1-13-10.6-16.9-23.6-41-15.8-46.6,12.2-8.8,87.1-16.5,100.6-34.5S908.9,368.4,908.9,368.4Z" fill="#999cbc"/>
        <path d="M827.7,488.5s22.3,10.1,20.8,15.2-23.3,38.7-32.9,44.6-20.4,5.4-19-3.7S814,504.7,814,504.7C822.7,501.7,827.4,495.2,827.7,488.5Z" fill="#786de2"/>
        <path d="M809.1,518.9s-16.5-2.1-12.9-9.9,17.8-4.3,17.8-4.3l5.3,8.5Z" fill="#786de2"/>
        <path d="M796,274.1s-13.8,24.5-19.8,34.7c1,8,10.3,17.4,24.7,20l13.2-17.5Z" fill="#514da0"/>
        <path d="M795,275.6s26.9,49,28.8,68.1-3.4,33.7,12.6,33.9,25.4-3.7,35.8,1.2,31.4,20.6,49.6,9.4c13.9-8.5,11.5-16.3,9.6-19.5a4.3,4.3,0,0,0-2.6-2c-3.9-1.2-15-5.4-18.9-16.7-4.8-13.8-48.9-95-94.4-98.5Z" fill="#786de2"/>
        <path d="M687.6,269.8s-.3-6.6,4.1-5.8,14.9,15.4.1,26.4-25.3-8.5-25.6-11.1c-.3-4.2,6.4-11.8,11-14.1S687.6,269.8,687.6,269.8Z" fill="#ffd1b8"/>
        <path d="M674.9,279.4s3.3,4,3,5.7l2-.8Z" fill="#fcbea2"/>
        <path d="M682,274.4s3.3,4,3,5.7l2-.8Z" fill="#fcbea2"/>
        <path d="M695.3,272c-2.5,3.3-7.1-.4-7.1-.4s-.7,3.4-4.8,9-12.4,6.6-12.4,6.6a24.2,24.2,0,0,0,3.2,3.2c4.4,3.6,10.5,5.3,17.6,0a19.1,19.1,0,0,0,4.9-5,5.6,5.6,0,0,1,.5-.8C697.6,279.1,697.1,274.6,695.3,272Z" fill="#fcbea2"/>
        <path d="M672.8,289.1l2.1-.5c3.7-1.4,3-4.1,3-4.1l-7.5,2A19.5,19.5,0,0,0,672.8,289.1Z" fill="#ffd1b8"/>
        <path d="M678.9,283.5a2.6,2.6,0,0,0,2.9.8c5-2.6,2.7-6.2,2.7-6.2l-6.9,3.9Z" fill="#ffd1b8"/>
        <path d="M685.9,278.2a2.7,2.7,0,0,0,2.7-.4c3.5-2.6-.4-6.6-.4-6.6l-3.5,5.8Z" fill="#ffd1b8"/>
        <g>
          <polygon points="829.4 301.7 829.4 313.7 875.7 353.6 875.8 341.6 829.4 301.7" fill="#fff"/>
          <g>
            <path d="M831,315.1h0Z" fill="#89f476"/>
            <path d="M830.5,312.7c-.3-3.5-.1-9.7.6-9.7l-1.7-1.3c-.9,0-.9,12,0,12l1.5,1.3h0l44.8,38.6v-2.3h0Z" fill="#89f476"/>
          </g>
          <polygon points="899.9 239.6 829.4 301.7 875.8 341.6 948.1 273.5 899.9 239.6" fill="#7fe870"/>
        </g>
        <polygon points="949.3 284.7 948.1 273.5 875.8 341.6 875.7 353.6 949.3 284.7" fill="#f4f4f4"/>
        <polygon points="949.2 283.3 949.2 283.3 875.7 351.3 875.7 353.6 949.3 284.7 949.2 283.3" fill="#89f476"/>
        <path d="M907.5,256.9l-14.8-.9-18.9,16.8c10.3.1,22.9-.1,29.1-2,18.2,18.2,10.5,26.6,10.5,26.6a12.3,12.3,0,0,0,7.1,3.7l8.4-7.9C927.2,265.9,907.5,256.9,907.5,256.9Z" fill="#020202" opacity="0.1" style="mix-blend-mode: darken"/>
        <path d="M847.7,251.1l60.4,3.5S931,265,929.6,297.5c0,0-8.7,4.6-15.6-2.4,0,0,7.7-8.4-10.5-26.6-11.5,3.6-45.4,1.3-45.4,1.3Z" fill="#ffd1b8"/>
        <path d="M915.3,295l-.3-.4-7.7,1.1a12.8,12.8,0,0,0-9.7,6.6c-1.2,2.3-.2,5.3,2.6,5.2,8.6-.5,10.3-.2,10.3-.2l1.3,12.5s-11.9,5.2-5.1,9.9c4.9,3.5,15-.7,20.5-2.5a5.9,5.9,0,0,0,3.9-4.6c1.5-8.4,5.9-23.1-2-26.4" fill="#ffd1b8"/>
        <path d="M858.3,274.8c4.5-.4,8.1-1.2,8.8-2.5,2-3.8-1.7-15.9-10.9-21.6-6.8-4.2-24.8-.4-34.2,2C834.6,255.6,847,264.1,858.3,274.8Z" fill="#6555bb"/>
        <path d="M799.9,239.3s5.7,3,5-8.7c-.3-5-5.3-1.6-7.1-.2a1.1,1.1,0,0,0-.4,1.3Z" fill="#fcbea2"/>
        <path d="M824.7,253.4c6.4,5.6,4.8,15.9-2.5,24.3s-18.3,10.8-24.8,5.2-3.9-14.8,3.3-23.3S818.2,247.9,824.7,253.4Z" fill="#fff"/>
        <ellipse cx="810.4" cy="269.5" rx="13.1" ry="10" transform="translate(77.8 708.5) rotate(-49.3)" fill="#ffd1b8"/>
        <ellipse cx="810.4" cy="269.5" rx="9.3" ry="6.3" transform="translate(77.8 708.5) rotate(-49.3)" fill="#fcbea2"/>
        <path d="M804.7,275.2l-22.5-12.5,17-14.5,16,15.5C819.5,267.5,812.7,278.9,804.7,275.2Z" fill="#ffd1b8"/>
        <path d="M752.6,215.5s-6.8,7.2-1.4,27.7c0,0,7.7,29.1,24.2,27.6s25.7-23.1,25.7-23.1l-3.3-22.8L794.6,205Z" fill="#fcbea2"/>
        <path d="M777,270.6c15.5-2.6,24.1-22.9,24.1-22.9l-3.3-22.8-3-18.6L758,215.5s-6.7,7.2-1.4,27.7C756.6,243.2,763.2,267.8,777,270.6Z" fill="#ffd1b8"/>
        <path d="M797.8,224.9l-2.1-13.1c-2.6,1.9-4.1,5.7-8.7,5.1-7.4-1-7.6-3.9-16.1-3.5s-1.2,11.5-1.2,11.5a72.8,72.8,0,0,0-10.9-11l-6.2,1.6s-4.8,5-3.1,18.7c17,3.9,37.8,1.9,40.3-1.9,1.2-1.9,6.2-2,8.9-1.1Z" fill="#fcbea2"/>
        <path d="M730.2,216.1c.3-13.7,15.3,1.2,15.3,1.2s-7.8-13,1.4-12.3,21.5,16,21.5,16-7.3-11,1.2-11.5,8.7,2.5,16.1,3.5,6.9-9.4,15.3-5,6.2,28.5,2.9,24-10.8-7.1-13.1-3.6C786.9,234.5,729.7,235.9,730.2,216.1Z" fill="#e79e39"/>
        <path d="M800.9,207.6c-8.6-4.6-8.1,6.3-15.6,5.2s-7.8-4.1-16.4-3.6-1.2,12.1-1.2,12.1-11.6-15.3-21.1-16.8l1.8,16.2c.4,7.2,49.1,4.5,58.1-2C805.8,213.9,804.1,209.3,800.9,207.6Z" fill="#e58d23"/>
        <path d="M797.2,246.9s15.2,4.6,11.9-19.7c-2.1-15.1-20.5-1.3-19.4,5.2" fill="#ffd1b8"/>
        <path d="M758.1,222.1l3.1-8.9c-4.2-3.9-9.5-7.9-14.3-8.2-9.2-.7-1.4,12.3-1.4,12.3s-15-14.9-15.3-1.2c-.2,7.7,8.3,12.1,18.9,14.4C747.4,226.5,752.4,224.2,758.1,222.1Z" fill="#e58d23"/>
        <path d="M746.6,194.7l2.7,22.9c.5,7.5,55.2,4.2,54.8-3.3l.3-20.3Z" fill="#a5576c"/>
        <polygon points="803.9 208.2 804.6 196.1 803.1 195.1 746.9 193.5 747.9 206.2 760.3 212.1 803.9 208.2" fill="#873554"/>
        <polygon points="728.2 194.1 763.5 208.9 824.6 200.9 790.7 181.8 728.2 194.1" fill="#b06481"/>
        <ellipse cx="775.8" cy="191.3" rx="4.8" ry="1.3" fill="#873554"/>
        <path d="M811.9,202.4a5.6,5.6,0,0,1-.4-1.2c-.3-.7-.6-1.5-1-2.3a16.6,16.6,0,0,0-6.7-7.2,22.3,22.3,0,0,0-9.3-2.8,37.7,37.7,0,0,0-9.5.3,49,49,0,0,0-9.2,2.1,56.5,56.5,0,0,1,9.3-1.6,41.4,41.4,0,0,1,9.3.3,21.3,21.3,0,0,1,8.5,3.1,14.9,14.9,0,0,1,5.6,6.8,12.9,12.9,0,0,1,.7,2.1l.3.8,2.4-.3Z" fill="#632940"/>
        <path d="M775.8,191.4a59.8,59.8,0,0,1,8.8-5.2,56,56,0,0,1,9.6-3.7,26.8,26.8,0,0,1,10.6-1,14.8,14.8,0,0,1,5.4,1.7,13.6,13.6,0,0,1,4.5,3.8,20,20,0,0,1,2.8,4.9,16.1,16.1,0,0,1,.9,2.6,21.8,21.8,0,0,0,.9,2.3,35,35,0,0,0,4.3,8.4,25.1,25.1,0,0,0,6.3,6.3,16.2,16.2,0,0,0,3.7,1.9l1.9.6H837l-.7,9h-1.1l-.8-.2-1.6-.5L830,221a28.5,28.5,0,0,1-4.9-3.4,31.7,31.7,0,0,1-7-9.1,39.4,39.4,0,0,1-3.8-10.2,19.8,19.8,0,0,1-.6-2.6c-.2-.8-.3-1.5-.5-2.3a18.1,18.1,0,0,0-1.8-4,11.3,11.3,0,0,0-7.1-4.9,23.9,23.9,0,0,0-9.6,0,48.3,48.3,0,0,0-9.7,2.7A58.1,58.1,0,0,0,775.8,191.4Z" fill="#720f37"/>
        <path d="M1023.5,418.3c-23.7,9.9-74.6,23.3-92.5-34.8-15.3-50-53.3,1.3-53.3,1.3,1.1,2.1,47.4,71.8,81.7,70.4,27.6-1.1,57-13.1,73.4-20.9A68.4,68.4,0,0,0,1023.5,418.3Z" fill="#727487"/>
        <path d="M781.6,309.5s-7,11.3-14,12.3c-22.1-2-53.6-21.1-73.6-38.1,0,0-2.6,4.7-9.8,8.2,0,0,52.1,51,83.6,51.9,17.2.5,29-20.3,29-20.3Z" fill="#fcbea2"/>
        <path d="M908.9,368.4l-58.6-1.6s-82.4,40.6-80.9,65.5c1.1,17.1,22.5,47,35.9,64.2,5.2-2.5,13.9-9.1,17.1-13-10.6-16.9-23.6-41-15.8-46.6,12.2-8.8,87.1-16.5,100.6-34.5S908.9,368.4,908.9,368.4Z" fill="#999cbc"/>
        <path d="M796,274.1s-13.8,24.5-19.8,34.7c1,8,10.3,17.4,24.7,20l13.2-17.5Z" fill="#514da0"/>
        <path d="M795,275.6s26.9,49,28.8,68.1-3.4,33.7,12.6,33.9,25.4-3.7,35.8,1.2,31.4,20.6,49.6,9.4c13.9-8.5,11.5-16.3,9.6-19.5a4.3,4.3,0,0,0-2.6-2c-3.9-1.2-15-5.4-18.9-16.7-4.8-13.8-48.9-95-94.4-98.5Z" fill="#786de2"/>
        <path d="M687.6,269.8s-.3-6.6,4.1-5.8,14.9,15.4.1,26.4-25.3-8.5-25.6-11.1c-.3-4.2,6.4-11.8,11-14.1S687.6,269.8,687.6,269.8Z" fill="#ffd1b8"/>
        <path d="M901.7,333.1c-9-16.3-24.4-40-42.6-57.6l-32.6,28.6c-.9,0-.9,12,0,12l1.5,1.2h0L875.8,357Z" fill="#6866c6"/>
        <path d="M674.9,279.4s3.3,4,3,5.7l2-.8Z" fill="#fcbea2"/>
        <path d="M682,274.4s3.3,4,3,5.7l2-.8Z" fill="#fcbea2"/>
        <path d="M695.3,272c-2.5,3.3-7.1-.4-7.1-.4s-.7,3.4-4.8,9-12.4,6.6-12.4,6.6a24.2,24.2,0,0,0,3.2,3.2c4.4,3.6,10.5,5.3,17.6,0a19.1,19.1,0,0,0,4.9-5,5.6,5.6,0,0,1,.5-.8C697.6,279.1,697.1,274.6,695.3,272Z" fill="#fcbea2"/>
        <path d="M672.8,289.1l2.1-.5c3.7-1.4,3-4.1,3-4.1l-7.5,2A19.5,19.5,0,0,0,672.8,289.1Z" fill="#ffd1b8"/>
        <path d="M678.9,283.5a2.6,2.6,0,0,0,2.9.8c5-2.6,2.7-6.2,2.7-6.2l-6.9,3.9Z" fill="#ffd1b8"/>
        <path d="M685.9,278.2a2.7,2.7,0,0,0,2.7-.4c3.5-2.6-.4-6.6-.4-6.6l-3.5,5.8Z" fill="#ffd1b8"/>
        <g>
          <polygon points="829.4 301.7 829.4 313.7 875.7 353.6 875.8 341.6 829.4 301.7" fill="#fff"/>
          <g>
            <path d="M831,315.1h0Z" fill="#89f476"/>
            <path d="M830.5,312.7c-.3-3.5-.1-9.7.6-9.7l-1.7-1.3c-.9,0-.9,12,0,12l1.5,1.3h0l44.8,38.6v-2.3h0Z" fill="#89f476"/>
          </g>
          <polygon points="899.9 239.6 829.4 301.7 875.8 341.6 948.1 273.5 899.9 239.6" fill="#7fe870"/>
        </g>
        <polygon points="949.3 284.7 948.1 273.5 875.8 341.6 875.7 353.6 949.3 284.7" fill="#f4f4f4"/>
        <polygon points="949.2 283.3 949.2 283.3 875.7 351.3 875.7 353.6 949.3 284.7 949.2 283.3" fill="#89f476"/>
        <path d="M907.5,256.9l-14.8-.9-26.5,15.4c10.2,1,30.5,1.3,36.7-.6,18.2,18.2,10.5,26.6,10.5,26.6a12.3,12.3,0,0,0,7.1,3.7l8.4-7.9C927.2,265.9,907.5,256.9,907.5,256.9Z" fill="#020202" opacity="0.1" style="mix-blend-mode: darken"/>
        <path d="M847.7,251.1l60.4,3.5S931,265,929.6,297.5c0,0-8.7,4.6-15.6-2.4,0,0,7.7-8.4-10.5-26.6-11.5,3.6-45.4,1.3-45.4,1.3Z" fill="#ffd1b8"/>
        <path d="M913.5,300.5l1.4-6.9-8.4.7a13,13,0,0,0-9.7,6.6c-1.2,2.3-.2,5.3,2.6,5.2,8.6-.5,10.3-.2,10.3-.2l1.3,12.5s-11.9,5.2-5.1,9.9c4.9,3.5,15-.7,20.5-2.5a5.9,5.9,0,0,0,3.9-4.6c1.5-8.4,5.1-19.2-2.7-22.5" fill="#020202" opacity="0.1" style="mix-blend-mode: darken"/>
        <path d="M858.3,274.8c4.5-.4,8.1-1.2,8.8-2.5,2-3.8-1.7-15.9-10.9-21.6-6.8-4.2-24.8-.4-34.2,2C834.6,255.6,847,264.1,858.3,274.8Z" fill="#6555bb"/>
        <path d="M799.9,239.3s5.7,3,5-8.7c-.3-5-5.3-1.6-7.1-.2a1.1,1.1,0,0,0-.4,1.3Z" fill="#fcbea2"/>
        <path d="M824.7,253.4c6.4,5.6,4.8,15.9-2.5,24.3s-18.3,10.8-24.8,5.2-3.9-14.8,3.3-23.3S818.2,247.9,824.7,253.4Z" fill="#fff"/>
        <ellipse cx="810.4" cy="269.5" rx="13.1" ry="10" transform="translate(77.8 708.5) rotate(-49.3)" fill="#ffd1b8"/>
        <ellipse cx="810.4" cy="269.5" rx="9.3" ry="6.3" transform="translate(77.8 708.5) rotate(-49.3)" fill="#fcbea2"/>
        <path d="M804.7,275.2l-22.5-12.5,17-14.5,16,15.5C819.5,267.5,812.7,278.9,804.7,275.2Z" fill="#ffd1b8"/>
        <path d="M752.6,215.5s-6.8,7.2-1.4,27.7c0,0,7.7,29.1,24.2,27.6s25.7-23.1,25.7-23.1l-3.3-22.8L794.6,205Z" fill="#fcbea2"/>
        <path d="M777,270.6c15.5-2.6,24.1-22.9,24.1-22.9l-3.3-22.8-3-18.6L758,215.5s-6.7,7.2-1.4,27.7C756.6,243.2,763.2,267.8,777,270.6Z" fill="#ffd1b8"/>
        <path d="M797.8,224.9l-2.1-13.1c-2.6,1.9-4.1,5.7-8.7,5.1-7.4-1-7.6-3.9-16.1-3.5s-1.2,11.5-1.2,11.5a72.8,72.8,0,0,0-10.9-11l-6.2,1.6s-4.8,5-3.1,18.7c17,3.9,37.8,1.9,40.3-1.9,1.2-1.9,6.2-2,8.9-1.1Z" fill="#fcbea2"/>
        <path d="M730.2,216.1c.3-13.7,15.3,1.2,15.3,1.2s-7.8-13,1.4-12.3,21.5,16,21.5,16-7.3-11,1.2-11.5,8.7,2.5,16.1,3.5,6.9-9.4,15.3-5,6.2,28.5,2.9,24-10.8-7.1-13.1-3.6C786.9,234.5,729.7,235.9,730.2,216.1Z" fill="#e79e39"/>
        <path d="M800.9,207.6c-8.6-4.6-8.1,6.3-15.6,5.2s-7.8-4.1-16.4-3.6-1.2,12.1-1.2,12.1-11.6-15.3-21.1-16.8l1.8,16.2c.4,7.2,49.1,4.5,58.1-2C805.8,213.9,804.1,209.3,800.9,207.6Z" fill="#e58d23"/>
        <path d="M797.2,246.9s15.2,4.6,11.9-19.7c-2.1-15.1-20.5-1.3-19.4,5.2" fill="#ffd1b8"/>
        <path d="M758.1,222.1l3.1-8.9c-4.2-3.9-9.5-7.9-14.3-8.2-9.2-.7-1.4,12.3-1.4,12.3s-15-14.9-15.3-1.2c-.2,7.7,8.3,12.1,18.9,14.4C747.4,226.5,752.4,224.2,758.1,222.1Z" fill="#e58d23"/>
        <path d="M746.6,194.7l2.7,22.9c.5,7.5,55.2,4.2,54.8-3.3l.3-20.3Z" fill="#a5576c"/>
        <polygon points="803.9 208.2 804.6 196.1 803.1 195.1 746.9 193.5 747.9 206.2 760.3 212.1 803.9 208.2" fill="#873554"/>
        <polygon points="728.2 194.1 763.5 208.9 824.6 200.9 790.7 181.8 728.2 194.1" fill="#b06481"/>
        <ellipse cx="775.8" cy="191.3" rx="4.8" ry="1.3" fill="#873554"/>
        <path d="M811.9,202.4a5.6,5.6,0,0,1-.4-1.2c-.3-.7-.6-1.5-1-2.3a16.6,16.6,0,0,0-6.7-7.2,22.3,22.3,0,0,0-9.3-2.8,37.7,37.7,0,0,0-9.5.3,49,49,0,0,0-9.2,2.1,56.5,56.5,0,0,1,9.3-1.6,41.4,41.4,0,0,1,9.3.3,21.3,21.3,0,0,1,8.5,3.1,14.9,14.9,0,0,1,5.6,6.8,12.9,12.9,0,0,1,.7,2.1l.3.8,2.4-.3Z" fill="#632940"/>
        <path d="M775.8,191.4a59.8,59.8,0,0,1,8.8-5.2,56,56,0,0,1,9.6-3.7,26.8,26.8,0,0,1,10.6-1,14.8,14.8,0,0,1,5.4,1.7,13.6,13.6,0,0,1,4.5,3.8,20,20,0,0,1,2.8,4.9,16.1,16.1,0,0,1,.9,2.6,21.8,21.8,0,0,0,.9,2.3,35,35,0,0,0,4.3,8.4,25.1,25.1,0,0,0,6.3,6.3,16.2,16.2,0,0,0,3.7,1.9l1.9.6H837l-.7,9h-1.1l-.8-.2-1.6-.5L830,221a28.5,28.5,0,0,1-4.9-3.4,31.7,31.7,0,0,1-7-9.1,39.4,39.4,0,0,1-3.8-10.2,19.8,19.8,0,0,1-.6-2.6c-.2-.8-.3-1.5-.5-2.3a18.1,18.1,0,0,0-1.8-4,11.3,11.3,0,0,0-7.1-4.9,23.9,23.9,0,0,0-9.6,0,48.3,48.3,0,0,0-9.7,2.7A58.1,58.1,0,0,0,775.8,191.4Z" fill="#720f37"/>
        <path d="M915.3,295l-.3-.4-7.7,1.1a12.8,12.8,0,0,0-9.7,6.6c-1.2,2.3-.2,5.3,2.6,5.2,8.6-.5,10.3-.2,10.3-.2l1.3,12.5s-11.9,5.2-5.1,9.9c4.9,3.5,15-.7,20.5-2.5a5.9,5.9,0,0,0,3.9-4.6c1.5-8.4,5.9-23.1-2-26.4" fill="#ffd1b8"/>
        <path d="M828.2,317.5l-.2-.2C828.1,317.4,828.1,317.5,828.2,317.5Z" fill="#6866c6"/>
        <path d="M1026.8,444.3c9.6-5.9,10.7-7,12.3-8s-9.2-25.3-11.8-24c-4.2,2.3-5.6,2.5-14,6.5h0C1016.4,417.1,1029.9,442.6,1026.8,444.3Z" fill="#5b5e6b"/>
        <path d="M794.9,486.7c7.1,8.3,8.2,9.2,9.4,10.5s22.5-12.4,20.9-14.6c-2.7-3.7-3.2-5-8.2-12.3h0C819.1,473,797,489.5,794.9,486.7Z" fill="#80839b"/>
        <g clip-path="url(#clip-path-2)">
          <g>
            <path d="M1013.2,418.8c6-2,16.4,22.6,13.5,25.5S1007.3,420.9,1013.2,418.8Z" fill="#4d5059"/>
            <polyline points="1043.3 414.5 1029 423.3 1034.9 434.5 1053.3 424.5 1043.8 414.5" fill="#ffd1b8"/>
            <path d="M1023.5,418.3c-23.7,9.9-74.6,23.3-92.5-34.8-15.4-49.9-53.3,1.3-53.3,1.3,1.1,2.1,47.4,71.8,81.7,70.4,27.6-1.1,57-13.1,73.4-20.9A72.1,72.1,0,0,0,1023.5,418.3Z" fill="#727487"/>
            <path d="M1038.3,415s17.5-13.8,21-10.5,21.5,35,22.3,45.3-4.2,18.7-11,13.8-24.9-30.8-24.9-30.8C1046.9,424.5,1043.6,418,1038.3,415Z" fill="#786de2"/>
            <path d="M1057.5,439s-8.5,12.4-13.4,6.3,4.1-16.2,4.1-16.2l9-.7Z" fill="#786de2"/>
            <path d="M817,470.3c-3.3-4.9-24,14.6-22,16.5S819.3,473.7,817,470.3Z" fill="#76798e"/>
            <path d="M781.5,309.6s-6.9,11.3-13.9,12.3c-22.1-2.1-53.6-21.2-73.6-38.2,0,0-2.6,4.7-9.8,8.2,0,0,52.1,51.1,83.5,51.9,17.3.5,29-20.2,29-20.2Z" fill="#fcbea2"/>
            <polygon points="807.1 493.2 822.8 511.2 832.5 500.8 817.7 480.3 807.1 493.2" fill="#fcbea2"/>
            <path d="M908.9,368.5l-58.6-1.6s-82.4,40.5-80.9,65.5c1.1,17,22.5,46.9,35.9,64.1,5.2-2.5,13.8-9.1,17.1-13-10.6-16.8-23.7-40.9-15.9-46.5,12.3-8.9,87.2-16.5,100.6-34.6S908.9,368.5,908.9,368.5Z" fill="#777b93"/>
            <path d="M794.9,486.8c7,8.2,8.2,9.1,9.4,10.4s22.5-12.4,20.9-14.6c-2.7-3.7-3.2-5-8.2-12.3h0C819.1,473,797,489.5,794.9,486.8Z" fill="#80839b"/>
            <path d="M827.7,488.5s22.3,10.1,20.7,15.2-23.2,38.7-32.9,44.6-20.3,5.4-19-3.6,17.5-40,17.5-40C822.7,501.7,827.4,495.2,827.7,488.5Z" fill="#5e5cbc"/>
            <path d="M809,518.9s-16.4-2.1-12.9-9.9,17.9-4.3,17.9-4.3l5.3,8.6Z" fill="#5e5cbc"/>
            <path d="M796,274.1s-13.8,24.5-19.8,34.7c.9,8.1,10.3,17.5,24.7,20l13.2-17.4Z" fill="#3a3a77"/>
            <path d="M794.9,275.6s27,49,28.9,68.1-3.5,33.8,12.6,33.9,25.4-3.7,35.8,1.2,31.4,20.7,49.6,9.4c13.8-8.5,11.5-16.3,9.6-19.5a4.3,4.3,0,0,0-2.6-2c-3.9-1.2-15-5.4-18.9-16.7-4.8-13.8-48.9-95-94.5-98.5Z" fill="#6260c6"/>
            <path d="M687.5,269.8s-.2-6.5,4.2-5.8,14.9,15.4.1,26.4-25.3-8.5-25.6-11.1c-.4-4.2,6.4-11.8,10.9-14.1S687.5,269.8,687.5,269.8Z" fill="#ffd1b8"/>
            <path d="M674.9,279.4s3.3,4,3,5.7l2-.8Z" fill="#fcbea2"/>
            <path d="M682,274.4s3.3,4.1,3,5.7l2-.8Z" fill="#fcbea2"/>
            <path d="M695.2,272c-2.5,3.4-7-.4-7-.4s-.8,3.4-4.8,9-12.4,6.7-12.4,6.7,2,2.1,3.2,3.2c4.4,3.5,10.5,5.2,17.6-.1a25.2,25.2,0,0,0,4.9-4.9l.5-.9C697.5,279.1,697.1,274.6,695.2,272Z" fill="#fcbea2"/>
            <path d="M672.8,289.1a5.4,5.4,0,0,0,2.1-.5c3.7-1.4,3-4.1,3-4.1l-7.6,2A30.7,30.7,0,0,0,672.8,289.1Z" fill="#ffd1b8"/>
            <path d="M678.9,283.5a2.5,2.5,0,0,0,2.9.8c5-2.6,2.7-6.1,2.7-6.1l-6.9,3.8A9.3,9.3,0,0,0,678.9,283.5Z" fill="#ffd1b8"/>
            <path d="M685.9,278.2c.7.5,2,.1,2.7-.4,3.5-2.6-.5-6.6-.5-6.6l-3.4,5.9Z" fill="#ffd1b8"/>
            <g>
              <polygon points="829.3 301.8 829.3 313.7 875.6 353.6 875.7 341.6 829.3 301.8" fill="#fff"/>
              <g>
                <path d="M831,315.1h0Z" fill="#89f476"/>
                <path d="M830.4,312.7c-.2-3.5,0-9.6.6-9.6l-1.7-1.3c-.8,0-.8,11.9,0,11.9l1.5,1.3h0l44.8,38.6v-2.3h0Z" fill="#89f476"/>
              </g>
              <polygon points="899.8 239.6 829.3 301.8 875.7 341.6 948.1 273.6 899.8 239.6" fill="#7fe870"/>
            </g>
            <polygon points="949.3 284.8 948.1 273.6 875.7 341.6 875.6 353.6 949.3 284.8" fill="#f4f4f4"/>
            <polygon points="949.1 283.3 949.1 283.3 875.7 351.3 875.6 353.6 949.3 284.8 949.1 283.3" fill="#89f476"/>
            <path d="M907.4,256.9l-14.7-.9-19,16.8c10.4.2,23-.1,29.1-2,18.3,18.3,10.6,26.6,10.6,26.6a12.9,12.9,0,0,0,7,3.8l8.5-8C927.2,265.9,907.4,256.9,907.4,256.9Z" fill="#020202" opacity="0.1" style="mix-blend-mode: darken"/>
            <path d="M847.7,251.1l60.4,3.5s22.9,10.5,21.5,42.9c0,0-8.7,4.7-15.6-2.4,0,0,7.7-8.3-10.5-26.6-11.5,3.6-45.4,1.3-45.4,1.3Z" fill="#ffd1b8"/>
            <path d="M915.3,295l-.3-.3-7.7,1a13,13,0,0,0-9.7,6.6c-1.3,2.3-.2,5.3,2.6,5.2,8.6-.5,10.3-.2,10.3-.2l1.3,12.5s-11.9,5.2-5.2,9.9c5,3.5,15.1-.7,20.6-2.5a5.8,5.8,0,0,0,3.8-4.6c1.6-8.4,5.9-23-1.9-26.4" fill="#ffd1b8"/>
            <path d="M858.2,274.9c4.6-.5,8.2-1.3,8.8-2.5,2.1-3.9-1.7-15.9-10.9-21.7-6.7-4.2-24.7-.4-34.2,2C834.6,255.6,846.9,264.1,858.2,274.9Z" fill="#6555bb"/>
            <path d="M799.9,239.3s5.7,3,5-8.7c-.3-5-5.3-1.6-7.2-.2a1.5,1.5,0,0,0-.4,1.4Z" fill="#fcbea2"/>
            <path d="M824.7,253.4c6.4,5.6,4.7,15.9-2.5,24.4s-18.3,10.7-24.8,5.2-4-14.9,3.3-23.3S818.2,247.9,824.7,253.4Z" fill="#eaeaea"/>
            <ellipse cx="810.4" cy="269.6" rx="13.1" ry="10" transform="translate(77.8 708.5) rotate(-49.3)" fill="#ffd1b8"/>
            <ellipse cx="810.4" cy="269.6" rx="9.3" ry="6.3" transform="translate(77.8 708.5) rotate(-49.3)" fill="#fcbea2"/>
            <path d="M804.7,275.3l-22.6-12.6,17.1-14.5,16,15.5C819.4,267.6,812.7,279,804.7,275.3Z" fill="#ffd1b8"/>
            <path d="M752.5,215.5s-6.7,7.2-1.3,27.7c0,0,7.7,29.1,24.2,27.7s25.7-23.1,25.7-23.1l-3.3-22.9L794.6,205Z" fill="#fcbea2"/>
            <path d="M777,270.7c15.5-2.7,24.1-22.9,24.1-22.9l-3.3-22.9-3-18.6L758,215.5s-6.8,7.2-1.4,27.7C756.6,243.2,763.1,267.8,777,270.7Z" fill="#ffd1b8"/>
            <path d="M797.8,224.9l-2.1-13c-2.6,1.9-4.1,5.7-8.7,5-7.5-1-7.6-3.9-16.2-3.4s-1.1,11.4-1.1,11.4A69.6,69.6,0,0,0,758.8,214l-6.3,1.5s-4.7,5.1-3.1,18.7c17,3.9,37.9,1.9,40.3-1.9,1.2-1.9,6.3-2,9-1Z" fill="#fcbea2"/>
            <path d="M730.1,216.1c.4-13.7,15.4,1.3,15.4,1.3s-7.8-13.1,1.4-12.4,21.5,16,21.5,16-7.3-11,1.2-11.4,8.7,2.4,16.1,3.4,6.9-9.3,15.3-5,6.1,28.5,2.9,24-10.8-7.1-13.1-3.6C786.9,234.5,729.7,235.9,730.1,216.1Z" fill="#e79e39"/>
            <path d="M800.9,207.6c-8.6-4.6-8.1,6.3-15.6,5.3s-7.8-4.2-16.5-3.7-1.1,12.1-1.1,12.1-11.6-15.3-21.1-16.8l1.8,16.2c.4,7.2,49.1,4.5,58-1.9C805.8,213.9,804.1,209.3,800.9,207.6Z" fill="#e58d23"/>
            <path d="M797.2,246.9s15.2,4.6,11.9-19.7c-2.1-15.1-20.6-1.2-19.5,5.2" fill="#ffd1b8"/>
            <path d="M758.1,222.2l3.1-9c-4.2-3.9-9.6-7.9-14.3-8.2-9.2-.7-1.4,12.4-1.4,12.4s-15-15-15.4-1.3c-.1,7.7,8.3,12.2,19,14.4C747.4,226.5,752.4,224.3,758.1,222.2Z" fill="#e58d23"/>
            <path d="M746.6,194.7l2.7,22.9c.4,7.5,55.2,4.2,54.8-3.2l.2-20.4Z" fill="#a5576c"/>
            <polygon points="803.9 208.2 804.6 196.1 803 195.1 746.9 193.5 747.9 206.3 760.3 212.1 803.9 208.2" fill="#873554"/>
            <polygon points="728.2 194.1 763.4 208.9 824.6 200.9 790.7 181.8 728.2 194.1" fill="#b06481"/>
            <ellipse cx="775.7" cy="191.3" rx="4.8" ry="1.3" fill="#873554"/>
            <path d="M811.8,202.4l-.3-1.1a16,16,0,0,0-1-2.3,23.6,23.6,0,0,0-2.8-4.2,19,19,0,0,0-3.9-3.1,22.3,22.3,0,0,0-9.3-2.8,43,43,0,0,0-9.5.3,48.3,48.3,0,0,0-9.3,2.1,60.3,60.3,0,0,1,9.3-1.6,42.1,42.1,0,0,1,9.4.3,22.9,22.9,0,0,1,8.5,3.1,16.1,16.1,0,0,1,5.6,6.8,17.2,17.2,0,0,1,.7,2.1,2.9,2.9,0,0,1,.2.9l2.5-.4Z" fill="#632940"/>
            <path d="M775.7,191.4a86.4,86.4,0,0,1,8.9-5.2,50.3,50.3,0,0,1,9.6-3.7,26.8,26.8,0,0,1,10.6-1,17.8,17.8,0,0,1,5.4,1.7,16.1,16.1,0,0,1,4.4,3.8,17.6,17.6,0,0,1,2.9,4.9c.3.9.6,1.9.9,2.6s.5,1.6.8,2.3a39.4,39.4,0,0,0,4.4,8.4,26.5,26.5,0,0,0,6.2,6.3,21.6,21.6,0,0,0,3.7,1.9l1.9.6.9.2h.6l-.6,9h-1.1l-.8-.2-1.6-.5L830,221a25.1,25.1,0,0,1-4.9-3.4,33.6,33.6,0,0,1-7.1-9,44.7,44.7,0,0,1-3.7-10.2c-.3-.9-.4-1.8-.6-2.6a12.8,12.8,0,0,0-.6-2.3,13.8,13.8,0,0,0-1.8-4.1,10.7,10.7,0,0,0-7.1-4.8,23.8,23.8,0,0,0-9.6-.1,54.9,54.9,0,0,0-9.6,2.7A77.8,77.8,0,0,0,775.7,191.4Z" fill="#720f37"/>
            <path d="M1026.7,444.3c9.7-5.9,10.8-6.9,12.3-8s-9.2-25.2-11.7-24c-4.2,2.3-5.7,2.5-14.1,6.5h0C1016.4,417.1,1029.9,442.7,1026.7,444.3Z" fill="#5b5e6b"/>
          </g>
        </g>
      </g>
      <rect width="1280" height="720" fill="none"/>
    </g>
  </g>
</svg>
